<?xml version="1.0" standalone="no"?>
<!DOCTYPE svg PUBLIC "-//W3C//DTD SVG 20010904//EN"
 "http://www.w3.org/TR/2001/REC-SVG-20010904/DTD/svg10.dtd">
<svg version="1.0" xmlns="http://www.w3.org/2000/svg"
 width="512.000000pt" height="512.000000pt" viewBox="0 0 512.000000 512.000000"
 preserveAspectRatio="xMidYMid meet">
<metadata>
Created by potrace 1.14, written by Peter Selinger 2001-2017
</metadata>
<g transform="translate(0.000000,512.000000) scale(0.100000,-0.100000)"
fill="#000000" stroke="none">
<path d="M2388 5105 c-2 -1 -39 -6 -83 -9 -295 -23 -623 -121 -922 -276 -241
-124 -422 -258 -623 -460 -293 -292 -495 -619 -620 -1000 -60 -183 -81 -279
-119 -550 -9 -66 -7 -474 2 -520 3 -14 8 -49 11 -78 8 -71 42 -239 67 -327 11
-38 21 -74 23 -80 12 -55 95 -259 152 -375 193 -389 479 -720 834 -967 305
-212 686 -366 1035 -419 17 -3 39 -7 50 -9 93 -20 463 -27 629 -12 49 4 92 10
95 11 3 2 29 7 56 10 28 4 70 12 95 17 25 6 56 13 70 15 53 10 240 68 330 102
78 30 325 148 389 187 69 42 107 67 181 119 47 33 90 65 96 71 6 5 39 33 73
60 89 72 287 279 356 371 32 43 61 81 65 84 7 7 72 106 122 188 112 183 248
511 284 687 2 11 7 34 11 50 4 17 7 32 8 35 1 3 5 25 9 50 5 25 11 56 13 70
35 185 39 597 7 775 -62 356 -141 591 -288 860 -206 378 -535 723 -906 950
-211 129 -506 253 -714 300 -186 41 -203 44 -386 64 -70 8 -395 13 -402 6z"/>
</g>
</svg>
