<svg version="1.1" id="Layer_1" xmlns="http://www.w3.org/2000/svg" x="0" y="0" viewBox="0 0 473.95 129.22" style="enable-background:new 0 0 473.95 129.22" xml:space="preserve"><style>.st0{fill:#0b2a2b}</style><path class="st0" d="m38.4 95.99-5.65 3.36-6.59-11.06L0 73.04l5.75-3.43 19.47 10.73-.34-22.12 5.8-3.45 1.02 29.96zM68.64 58.02c2.98 7.23 11.32 10.48 18.44 7.54 7.12-2.94 10.59-11.06 7.6-18.29-2.98-7.23-11.12-10.44-18.24-7.5-7.17 2.96-10.78 11.02-7.8 18.25m32.34-13.35c4.29 10.4-.81 21.93-11.67 26.42-10.87 4.48-22.61-.1-26.9-10.5-4.31-10.45.85-21.83 11.72-26.31 10.86-4.48 22.56 0 26.85 10.39M161.11 28.5l3.42 14.1c-3.16 3.89-8.41 7.3-13.66 8.58-11.31 2.74-22.16-3.6-24.81-14.52-2.65-10.93 4.23-21.45 15.82-24.26 5.46-1.32 11.43-.57 16 1.79l-2.51 5.64c-3.61-2.02-8.11-2.66-12.1-1.7-7.81 1.89-12.49 9.33-10.65 16.93 1.86 7.65 9.47 12.11 17.29 10.21 2.84-.69 5.83-2.45 8.16-4.76l-2.58-10.66 5.62-1.35zM208.4 9.02l-5.89 18.06 14.79-1.27-8.9-16.79zm-7.85 24.15-2.99 9.17-6.89.59 13.93-40.7 6.78-.58 20.52 37.73-7.07.62-4.52-8.53-19.76 1.7zM293.57 41.92l2.15-29.33-14.29 24.3-4.32-.33-10.48-26.17-2.22 29.33-6.22-.47L261.15 0l7.85.59 10.98 27.05 14.87-25.1 7.79.59-2.96 39.25zM353.26 19.98l-11.35 15.24 14.43 3.51-3.08-18.75zm-15.15 20.39-5.76 7.74-6.72-1.64 26.19-34.14 6.61 1.61 7.41 42.32-6.88-1.68-1.56-9.53-19.29-4.68zM403.26 69.93l-6.12-2.42 4.75-11.97-3.88-30.02 6.22 2.46 3.38 21.97 17.31-13.76 6.27 2.49-23.11 19.08zM467.32 65.18l-15.08 11.55 12.91 7.32 2.17-18.87zm-20.14 15.46-7.66 5.87-6.02-3.41 34.52-25.67 5.92 3.35-4.44 42.72-6.16-3.49 1.1-9.59-17.26-9.78zM196.77 125.16l-24.89-24.83 4.14 27.92-6.56.97-5.78-38.93 6.45-.96 25.01 24.88-4.15-27.97 6.45-.96 5.78 38.93zM250.77 122.13l-6.57.1-.21-12.87-15.11-26.25 6.69-.1L247.13 102l10.71-19.36 6.75-.11-14.03 26.5zM326.57 95.27l-4.5 4.27c-2.42-3.45-6.23-5.9-10.19-6.44-7.8-1.06-14.75 4.12-15.8 11.81-1.05 7.69 4.25 14.6 12.06 15.66 3.9.53 8.15-.7 11.49-3.14l3.31 4.88c-4.49 3.36-10.46 5.1-15.97 4.35-11.42-1.55-19.1-11.4-17.58-22.6 1.51-11.09 11.64-18.39 23.17-16.82 5.53.74 10.73 3.78 14.01 8.03"/></svg>