<?xml version="1.0" encoding="UTF-8"?>
<!-- Generator: visioncortex VTracer 0.6.12 -->
<svg version="1.1" xmlns="http://www.w3.org/2000/svg" role="img" aria-label="La Casa del Acroyoga · isologo de pose"  width="1246" height="1246" viewBox="0 0 1246 1246">
<path d="M0 0 C0.639 0.557 1.279 1.114 1.938 1.688 C1.938 2.678 1.938 3.667 1.938 4.688 C0.968 4.337 -0.001 3.986 -1 3.625 C-5.465 2.375 -9.603 2.368 -14.062 3.688 C-16.768 5.886 -18.51 7.583 -20.062 10.688 C-20.479 15.213 -20.573 19.354 -18.938 23.625 C-15.8 27.077 -12.686 28.518 -8.062 29 C-4.826 28.663 -2.097 27.843 0.938 26.688 C0.938 28.007 0.938 29.327 0.938 30.688 C-4.205 32.694 -8.756 33.779 -14.145 32 C-19.619 29.562 -22.607 26.447 -24.812 20.75 C-25.625 14.046 -24.995 9.22 -21.062 3.688 C-14.73 -1.353 -7.624 -3.267 0 0 Z " fill="#2861B8" transform="translate(547.0625,214.3125)"/>
<path d="M0 0 C3.613 2.409 4.083 3.985 5.699 7.961 C5.943 8.558 5.943 8.558 7.174 11.578 C7.422 12.201 7.67 12.825 7.926 13.467 C8.684 15.366 9.459 17.257 10.236 19.148 C14 28.475 14 28.475 14 33 C13.01 33 12.02 33 11 33 C10.01 30.03 9.02 27.06 8 24 C3.05 24.33 -1.9 24.66 -7 25 C-7.99 27.64 -8.98 30.28 -10 33 C-10.99 33 -11.98 33 -13 33 C-12.51 26.011 -9.79 20.079 -7.062 13.688 C-6.607 12.591 -6.151 11.495 -5.682 10.365 C-2.271 2.271 -2.271 2.271 0 0 Z M0 7 C-0.843 8.578 -1.674 10.163 -2.5 11.75 C-2.964 12.632 -3.428 13.513 -3.906 14.422 C-5 17 -5 17 -5 21 C-1.37 21 2.26 21 6 21 C5.567 19.433 5.134 17.865 4.688 16.25 C4.444 15.368 4.2 14.487 3.949 13.578 C2.979 10.942 1.79 9.146 0 7 Z " fill="#2861B8" transform="translate(581,213)"/>
<path d="M0 0 C0.413 0.351 0.413 0.351 2.5 2.125 C2.5 2.785 2.5 3.445 2.5 4.125 C1.861 3.981 1.221 3.836 0.562 3.688 C-1.999 3.217 -4.549 2.757 -7.125 2.375 C-7.88 2.256 -8.636 2.138 -9.414 2.016 C-11.5 2.125 -11.5 2.125 -13.262 3.441 C-14.939 5.722 -14.724 7.365 -14.5 10.125 C-13.716 10.352 -12.933 10.579 -12.125 10.812 C0.658 15.441 0.658 15.441 2.5 19.125 C2.891 23.266 2.934 25.437 0.688 29 C-2.658 32.25 -5.787 32.451 -10.359 32.426 C-13.996 31.915 -16.472 30.144 -19.5 28.125 C-19.17 26.805 -18.84 25.485 -18.5 24.125 C-18.027 24.425 -17.554 24.726 -17.066 25.035 C-11.533 28.217 -7.695 28.444 -1.5 27.125 C-1.5 23.875 -1.5 23.875 -2.5 20.125 C-5.72 17.65 -9.52 16.473 -13.312 15.125 C-16.184 13.812 -17.165 13.018 -18.5 10.125 C-18.749 6.932 -18.526 4.167 -17.5 1.125 C-12.111 -3.213 -5.874 -3.147 0 0 Z " fill="#2861B8" transform="translate(633.5,214.875)"/>
<path d="M0 0 C3 1 3 1 4.442 3.836 C4.946 5.082 5.437 6.334 5.918 7.59 C6.18 8.25 6.442 8.909 6.712 9.589 C7.264 10.985 7.811 12.383 8.353 13.783 C9.184 15.93 10.031 18.07 10.881 20.209 C11.415 21.565 11.948 22.921 12.48 24.277 C12.607 24.599 12.607 24.599 13.247 26.225 C15 30.765 15 30.765 15 33 C13.188 32.938 13.188 32.938 11 32 C9.25 28.438 9.25 28.438 8 25 C3.05 24.67 -1.9 24.34 -7 24 C-7.495 25.485 -7.495 25.485 -10 33 C-10.99 33 -11.98 33 -13 33 C-12.394 27.407 -10.4 22.733 -8.188 17.625 C-8.016 17.219 -8.016 17.219 -7.146 15.164 C-4.945 10.009 -2.553 4.991 0 0 Z M0 7 C-0.838 8.956 -1.67 10.915 -2.5 12.875 C-2.964 13.966 -3.428 15.056 -3.906 16.18 C-5 19 -5 19 -5 21 C-1.37 21 2.26 21 6 21 C5.465 15.652 3.533 11.642 1 7 C0.67 7 0.34 7 0 7 Z " fill="#2861B8" transform="translate(668,213)"/>
<path d="M0 0 C3.316 3.091 5.873 6.227 6.203 10.828 C6.363 22.478 6.363 22.478 3 27 C-2.922 32.922 -9.598 32.113 -17.488 32.133 C-20 32 -20 32 -21 31 C-21.088 28.624 -21.115 26.278 -21.098 23.902 C-21.096 23.193 -21.095 22.485 -21.093 21.754 C-21.088 19.482 -21.075 17.21 -21.062 14.938 C-21.057 13.4 -21.053 11.863 -21.049 10.326 C-21.038 6.551 -21.021 2.775 -21 -1 C-14.458 -3.181 -6.281 -2.763 0 0 Z M-18 2 C-18 10.58 -18 19.16 -18 28 C-15.793 28.083 -13.586 28.165 -11.312 28.25 C-10.071 28.296 -8.83 28.343 -7.551 28.391 C-3.423 27.936 -1.9 26.9 1 24 C3.374 19.93 3.597 15.611 3 11 C1.576 7.407 0.171 4.272 -3 2 C-5.669 1.781 -8.035 1.717 -10.688 1.812 C-11.894 1.843 -11.894 1.843 -18 2 Z " fill="#2861B8" transform="translate(753,215)"/>
<path d="M0 0 C0.75 0.005 1.499 0.009 2.271 0.014 C4.119 0.025 5.966 0.043 7.812 0.062 C7.812 1.382 7.812 2.702 7.812 4.062 C2.862 4.393 -2.087 4.722 -7.188 5.062 C-7.188 8.363 -7.188 11.662 -7.188 15.062 C-2.567 15.062 2.053 15.062 6.812 15.062 C6.812 16.053 6.812 17.042 6.812 18.062 C2.192 18.062 -2.428 18.062 -7.188 18.062 C-7.188 22.023 -7.188 25.983 -7.188 30.062 C-2.237 30.062 2.712 30.062 7.812 30.062 C7.812 31.382 7.812 32.702 7.812 34.062 C5.021 34.089 2.229 34.109 -0.562 34.125 C-1.357 34.133 -2.151 34.142 -2.969 34.15 C-8.961 34.176 -8.961 34.176 -11.188 33.062 C-11.188 22.502 -11.188 11.942 -11.188 1.062 C-7.424 -0.192 -3.915 -0.044 0 0 Z " fill="#2861B8" transform="translate(792.1875,212.9375)"/>
<path d="M0 0 C0.99 0 1.98 0 3 0 C3 9.57 3 19.14 3 29 C10.375 28.938 10.375 28.938 12.693 28.91 C17.778 28.889 17.778 28.889 20 30 C20 30.66 20 31.32 20 32 C14.264 33.275 5.418 34.709 0 32 C0 21.44 0 10.88 0 0 Z " fill="#2861B8" transform="translate(410,214)"/>
<path d="M0 0 C0.99 0 1.98 0 3 0 C4.716 4.072 6.425 8.147 8.127 12.225 C8.707 13.612 9.289 14.998 9.873 16.384 C10.712 18.375 11.544 20.369 12.375 22.363 C12.626 22.963 12.626 22.963 13.898 25.997 C15 29 15 29 15 32 C14.01 32 13.02 32 12 32 C11.01 29.03 10.02 26.06 9 23 C3.88 22.898 -0.974 22.949 -6 24 C-8.437 26.386 -9.328 28.687 -10 32 C-10.66 32 -11.32 32 -12 32 C-11.411 27.701 -10.372 24 -8.75 19.98 C-8.307 18.876 -7.863 17.772 -7.406 16.635 C-6.942 15.497 -6.478 14.36 -6 13.188 C-5.536 12.031 -5.072 10.874 -4.594 9.682 C-1.145 1.145 -1.145 1.145 0 0 Z M0 6 C-0.675 7.58 -1.34 9.164 -2 10.75 C-2.371 11.632 -2.743 12.513 -3.125 13.422 C-4 16 -4 16 -4 20 C-0.37 20 3.26 20 7 20 C3.857 10.429 3.857 10.429 2 6 C1.34 6 0.68 6 0 6 Z " fill="#2861B8" transform="translate(460,214)"/>
<path d="M0 0 C0.66 0 1.32 0 2 0 C3.191 19.34 3.191 19.34 3 29 C3.904 28.988 4.807 28.977 5.738 28.965 C6.918 28.956 8.097 28.947 9.312 28.938 C10.484 28.926 11.656 28.914 12.863 28.902 C16 29 16 29 19 30 C19 30.66 19 31.32 19 32 C15.51 33.163 12.677 33.168 9 33.188 C7.763 33.202 6.525 33.216 5.25 33.23 C2 33 2 33 -1 31 C-1.356 28.035 -1.356 28.035 -1.328 24.277 C-1.326 23.617 -1.324 22.956 -1.322 22.275 C-1.316 20.879 -1.302 19.483 -1.281 18.087 C-1.25 15.942 -1.24 13.799 -1.234 11.654 C-1.163 1.163 -1.163 1.163 0 0 Z " fill="#2861B8" transform="translate(824,214)"/>
<path d="M0 0 C10.323 5.711 15.822 16.948 19.243 27.869 C20.937 33.972 22.237 40.147 23.457 46.359 C23.61 47.109 23.763 47.858 23.921 48.63 C25.883 58.309 27.03 67.998 27.918 77.828 C28.281 81.758 28.738 85.665 29.246 89.578 C32.623 116.029 34.081 145.081 28.457 171.359 C29.713 171.336 30.968 171.313 32.262 171.289 C50.215 171.049 63.907 173.885 78.457 185.359 C78.787 186.019 79.117 186.679 79.457 187.359 C87.101 189.952 94.548 189.48 102.525 189.281 C114.992 189.092 127.185 191.518 136.457 200.359 C137.303 201.123 138.148 201.886 139.02 202.672 C142.807 206.848 145.502 211.495 148.07 216.508 C154.463 228.538 163.897 237.282 173.764 246.534 C175.457 248.359 175.457 248.359 175.457 250.359 C176.117 250.359 176.777 250.359 177.457 250.359 C188.439 261.558 190.715 275.819 190.633 290.924 C190.616 292.119 190.599 293.315 190.582 294.547 C190.573 295.785 190.564 297.023 190.555 298.299 C190.531 301.319 190.499 304.339 190.457 307.359 C191.121 307.556 191.785 307.753 192.469 307.956 C204.588 311.569 214.833 315.57 223.457 325.359 C223.457 326.019 223.457 326.679 223.457 327.359 C224.054 327.626 224.651 327.893 225.266 328.168 C227.503 329.384 228.801 330.563 230.52 332.422 C234.394 336.431 238.652 339.867 243.004 343.344 C246.876 346.525 246.876 346.525 248.457 348.359 C248.457 349.019 248.457 349.679 248.457 350.359 C249.002 350.582 249.548 350.805 250.109 351.035 C258.325 355.669 265.001 364.651 270.645 372.047 C271.114 372.639 271.583 373.232 272.067 373.843 C275.432 378.417 276.594 382.665 276.457 388.359 C274.767 393.324 271.359 397.43 268.332 401.68 C264.766 406.776 261.523 412.084 258.206 417.344 C245.884 436.824 245.884 436.824 240.457 442.359 C239.797 442.359 239.137 442.359 238.457 442.359 C238.225 442.916 237.993 443.473 237.755 444.047 C236.114 446.97 234.072 448.986 231.695 451.352 C231.226 451.82 230.758 452.288 230.274 452.771 C229.282 453.76 228.288 454.747 227.291 455.731 C225.787 457.217 224.29 458.711 222.795 460.207 C218.821 464.165 214.867 468.101 210.539 471.676 C207.446 474.254 205.168 477.13 202.832 480.422 C195.813 490.266 186.47 497.684 176.457 504.359 C175.797 504.359 175.137 504.359 174.457 504.359 C174.347 505.196 174.238 506.033 174.125 506.895 C173.26 513.247 172.248 519.418 170.832 525.672 C168.182 538.667 167.792 552.548 174.145 564.547 C174.578 565.145 175.011 565.743 175.457 566.359 C175.952 565.534 175.952 565.534 178.457 561.359 C179.612 561.545 180.767 561.731 181.957 561.922 C186.335 562.481 190.102 562.013 194.457 561.359 C195.777 561.359 197.097 561.359 198.457 561.359 C198.56 560.576 198.663 559.792 198.77 558.984 C199.457 556.359 199.457 556.359 202.457 554.359 C204.447 553.969 206.447 553.627 208.457 553.359 C208.447 552.875 208.447 552.875 208.395 550.422 C208.457 547.359 208.457 547.359 209.457 546.359 C214.239 546.402 218.62 547.313 223.082 548.984 C227.314 550.487 229.988 550.165 234.457 549.359 C248.567 547.925 261.925 552.076 274.457 558.359 C275.616 558.673 276.775 558.986 277.969 559.309 C288.679 562.535 298.201 572.63 303.457 582.359 C306.864 590.189 309.198 597.866 307.457 606.359 C308.121 606.143 308.785 605.926 309.469 605.703 C310.352 605.425 311.235 605.146 312.145 604.859 C312.58 604.72 312.58 604.72 314.781 604.016 C317.545 603.338 319.631 602.998 322.457 603.359 C327.531 607.283 330.845 613.35 333.969 618.848 C335.454 621.354 337.108 623.639 338.832 625.984 C340.72 628.831 341.969 631.126 342.332 634.547 C341.263 639.204 339.972 640.434 336.07 642.984 C331.058 645.622 325.789 647.482 320.457 649.359 C318.998 649.94 317.539 650.523 316.082 651.109 C309.764 653.288 305.419 653.912 299.258 651.328 C296.87 650.044 295.178 648.439 293.457 646.359 C292.761 646.638 292.065 646.916 291.348 647.203 C290.394 647.585 289.44 647.966 288.457 648.359 C287.462 648.762 286.467 649.164 285.441 649.578 C271.581 655.069 259.639 656.636 244.727 654.602 C238.836 653.972 232.868 653.987 226.949 653.842 C225.915 653.808 224.882 653.773 223.816 653.738 C222.883 653.713 221.949 653.688 220.987 653.662 C218.325 653.344 216.679 652.851 214.457 651.359 C212.444 646.169 211.933 640.88 211.457 635.359 C209.08 635.786 206.706 636.225 204.332 636.672 C203.667 636.79 203.002 636.908 202.316 637.029 C197.923 637.869 194.394 639.274 190.457 641.359 C189.797 641.359 189.137 641.359 188.457 641.359 C188.457 642.019 188.457 642.679 188.457 643.359 C170.257 652.459 170.257 652.459 163.941 652.328 C155.908 652.24 148.013 652.886 140.022 653.642 C127.935 654.779 115.987 655.714 103.836 655.367 C100.824 655.36 98.376 655.712 95.457 656.359 C88.321 656.857 81.301 656.173 74.219 655.387 C64.251 654.343 54.348 653.919 44.332 653.734 C43.456 653.715 42.58 653.696 41.677 653.677 C21.538 653.24 1.394 653.297 -18.749 653.396 C-19.968 653.4 -21.187 653.405 -22.444 653.409 C-24.744 653.417 -27.045 653.43 -29.345 653.447 C-30.369 653.45 -31.392 653.454 -32.447 653.457 C-33.339 653.462 -34.231 653.468 -35.149 653.473 C-37.433 653.365 -39.348 652.965 -41.543 652.359 C-45.535 651.994 -49.538 651.849 -53.543 651.672 C-54.09 651.642 -54.09 651.642 -56.855 651.49 C-57.907 651.443 -58.959 651.396 -60.043 651.348 C-61.002 651.302 -61.961 651.256 -62.949 651.208 C-65.709 651.369 -67.168 652.014 -69.543 653.359 C-73.924 654.322 -78.128 654.494 -82.605 654.484 C-83.793 654.487 -84.98 654.49 -86.203 654.492 C-89.137 654.376 -91.681 653.941 -94.543 653.359 C-103.713 652.943 -112.939 653.438 -122.105 653.797 C-122.623 653.816 -122.623 653.816 -125.241 653.916 C-130.105 654.123 -134.738 654.557 -139.543 655.359 C-140.203 655.029 -140.863 654.699 -141.543 654.359 C-141.543 653.699 -141.543 653.039 -141.543 652.359 C-142.12 652.153 -142.698 651.947 -143.293 651.734 C-148.164 648.758 -149.976 643.77 -151.291 638.474 C-151.375 638.112 -151.375 638.112 -151.797 636.277 C-151.984 635.505 -152.171 634.732 -152.364 633.937 C-152.756 632.303 -153.144 630.668 -153.525 629.032 C-154.096 626.589 -154.684 624.151 -155.275 621.713 C-157.152 613.895 -158.869 606.062 -160.293 598.148 C-160.415 597.477 -160.538 596.806 -160.664 596.114 C-161.638 590.47 -161.938 584.936 -162.039 579.215 C-162.664 575.673 -163.802 574.61 -166.543 572.359 C-167.082 571.904 -167.621 571.449 -168.176 570.98 C-168.668 570.59 -169.161 570.199 -169.668 569.797 C-174.32 565.853 -174.32 565.853 -174.844 562.344 C-174.872 556.925 -173.804 553.353 -171.543 548.359 C-171.237 543.822 -171.965 539.885 -173.043 535.484 C-173.321 534.332 -173.6 533.18 -173.887 531.992 C-173.995 531.558 -173.995 531.558 -174.543 529.359 C-191.211 561.597 -206.636 597.284 -207.876 633.843 C-208.365 646.521 -208.365 646.521 -211.543 651.359 C-216.529 654.57 -220.626 654.786 -226.352 654.732 C-227.218 654.735 -228.084 654.739 -228.977 654.743 C-231.835 654.751 -234.693 654.737 -237.551 654.723 C-239.557 654.722 -241.563 654.723 -243.569 654.724 C-247.781 654.724 -251.992 654.714 -256.204 654.696 C-261.544 654.673 -266.885 654.672 -272.225 654.679 C-276.376 654.682 -280.527 654.676 -284.678 654.666 C-286.643 654.662 -288.609 654.661 -290.574 654.663 C-300.667 654.664 -310.669 654.419 -320.722 653.466 C-321.567 653.388 -322.411 653.311 -323.282 653.231 C-327.056 652.832 -329.336 652.497 -332.543 650.359 C-333.105 647.984 -333.105 647.984 -332.543 645.359 C-327.631 641.2 -322.976 640.469 -316.73 639.547 C-300.679 636.785 -288.002 630.46 -274.371 621.715 C-271.519 619.903 -268.758 618.454 -265.543 617.359 C-265.543 616.699 -265.543 616.039 -265.543 615.359 C-263.668 613.234 -263.668 613.234 -261.543 611.359 C-260.883 611.359 -260.223 611.359 -259.543 611.359 C-259.307 610.81 -259.071 610.261 -258.828 609.695 C-257.216 606.765 -255.183 604.501 -252.98 601.984 C-247.457 595.524 -242.975 588.596 -238.543 581.359 C-237.976 580.461 -237.409 579.562 -236.824 578.637 C-226.254 561.623 -224.191 544.739 -222.962 525.199 C-222.011 510.477 -220.226 493.726 -213.543 480.359 C-277.824 492.525 -277.824 492.525 -293.859 515.223 C-297.111 519.547 -300.339 521.327 -305.543 522.359 C-314.431 523.242 -322.971 522.472 -330.48 517.359 C-333 513.695 -333.833 510.284 -334.887 506 C-336.816 498.236 -341.453 494.201 -347.543 489.359 C-348.203 489.029 -348.863 488.699 -349.543 488.359 C-349.543 487.699 -349.543 487.039 -349.543 486.359 C-350.137 486.118 -350.731 485.877 -351.344 485.629 C-353.992 484.1 -355.045 482.59 -356.73 480.047 C-357.331 479.151 -357.932 478.255 -358.551 477.332 C-359.208 476.351 -359.866 475.37 -360.543 474.359 C-360.913 473.843 -360.913 473.843 -362.785 471.23 C-367.158 465.113 -370.933 459.018 -374.125 452.188 C-375.522 449.401 -377.147 446.982 -378.918 444.422 C-382.488 438.689 -382.297 432.924 -381.543 426.359 C-380.543 424.359 -380.543 424.359 -377.668 423.297 C-370.791 422.509 -364.807 428.612 -359.719 432.539 C-358.013 433.898 -356.318 435.271 -354.637 436.66 C-352.543 438.359 -352.543 438.359 -349.543 440.359 C-349.543 441.019 -349.543 441.679 -349.543 442.359 C-349.285 442.483 -349.285 442.483 -347.98 443.109 C-345.543 444.359 -345.543 444.359 -342.543 446.297 C-339.527 448.044 -336.827 448.8 -333.418 449.484 C-327.085 450.88 -321.78 453.636 -316.043 456.547 C-304.142 462.423 -296.378 462.806 -283.743 458.617 C-281.667 457.886 -279.604 457.129 -277.543 456.359 C-276.882 456.118 -276.222 455.877 -275.542 455.629 C-264.637 451.561 -255.724 445.598 -246.4 438.712 C-234.198 429.824 -217.433 417.693 -202.84 413.602 C-200.543 412.359 -200.543 412.359 -199.574 409.461 C-199.399 408.314 -199.224 407.166 -199.043 405.984 C-198.121 399.978 -198.121 399.978 -195.602 397.281 C-190.371 393.995 -184.831 391.324 -179.291 388.602 C-173.703 385.77 -169.803 382.937 -165.543 378.359 C-164.883 378.359 -164.223 378.359 -163.543 378.359 C-163.21 372.344 -164.391 367.357 -166.105 361.609 C-166.375 360.693 -166.645 359.777 -166.922 358.834 C-171.371 344.002 -176.54 330.621 -184.543 317.359 C-189.332 309.017 -193.371 300.583 -196.894 291.635 C-198.806 286.879 -201.037 282.504 -203.668 278.109 C-207.441 271.718 -210.171 265.381 -212.543 258.359 C-212.771 257.743 -213 257.126 -213.235 256.491 C-218.341 242.68 -220.819 226.38 -215.355 212.297 C-211.717 205.163 -206.813 200.88 -199.276 198.196 C-198.666 198.014 -198.666 198.014 -195.582 197.09 C-194.914 196.886 -194.247 196.683 -193.559 196.473 C-190.733 195.612 -187.902 194.767 -185.072 193.92 C-176.118 191.23 -167.45 188.255 -158.838 184.605 C-155.681 183.412 -152.739 182.723 -149.418 182.172 C-146.234 181.356 -144.949 180.935 -143.039 178.227 C-142.221 176.374 -141.467 174.493 -140.766 172.594 C-139.399 168.979 -137.693 165.651 -135.793 162.297 C-135.456 161.7 -135.119 161.103 -134.771 160.488 C-132.504 156.624 -129.958 153.451 -126.855 150.234 C-122.826 146.013 -121.054 142.157 -119.023 136.746 C-114.506 126.413 -107.285 117.229 -100.418 108.359 C-91.938 97.342 -86.259 85.237 -80.91 72.473 C-76.629 62.723 -70.033 54.383 -63.789 45.828 C-58.806 38.993 -54.031 32.017 -49.273 25.023 C-39.303 10.416 -39.303 10.416 -34.543 5.359 C-33.883 5.359 -33.223 5.359 -32.543 5.359 C-32.213 4.369 -31.883 3.379 -31.543 2.359 C-22.215 -4.535 -10.572 -4.52 0 0 Z M19.457 49.359 C20.457 52.359 20.457 52.359 20.457 52.359 Z M-74.543 65.359 C-73.543 67.359 -73.543 67.359 -73.543 67.359 Z M22.457 68.359 C23.457 71.359 23.457 71.359 23.457 71.359 Z M-47.543 72.359 C-46.543 74.359 -46.543 74.359 -46.543 74.359 Z M-45.543 79.359 C-44.543 81.359 -44.543 81.359 -44.543 81.359 Z M-82.543 82.359 C-81.543 84.359 -81.543 84.359 -81.543 84.359 Z M25.457 91.359 C26.457 95.359 26.457 95.359 26.457 95.359 Z M-47.543 93.359 C-46.543 97.359 -46.543 97.359 -46.543 97.359 Z M-52.543 103.359 C-51.543 107.359 -51.543 107.359 -51.543 107.359 Z M27.457 114.359 C28.457 116.359 28.457 116.359 28.457 116.359 Z M-54.543 120.359 C-56.215 121.476 -57.881 122.603 -59.543 123.734 C-60.471 124.361 -61.399 124.987 -62.355 125.633 C-63.077 126.203 -63.799 126.772 -64.543 127.359 C-64.543 128.019 -64.543 128.679 -64.543 129.359 C-65.533 129.689 -66.523 130.019 -67.543 130.359 C-67.543 131.019 -67.543 131.679 -67.543 132.359 C-68.203 132.359 -68.863 132.359 -69.543 132.359 C-71.174 134.285 -72.68 136.203 -74.168 138.234 C-74.588 138.79 -75.008 139.346 -75.441 139.918 C-78.543 144.097 -78.543 144.097 -78.543 146.359 C-79.203 146.359 -79.863 146.359 -80.543 146.359 C-84.576 152.157 -85.049 156.373 -84.543 163.359 C-84.664 159.735 -85.38 157.293 -87.543 154.359 C-94.979 150.013 -104.251 148.369 -112.543 146.359 C-113.334 146.132 -114.126 145.906 -114.941 145.672 C-117.596 145.252 -119.021 145.356 -121.543 146.359 C-128.727 153.689 -133.159 163.13 -137.559 172.289 C-145.03 187.789 -154.38 202.362 -165.301 215.66 C-166.543 217.359 -166.543 217.359 -167.543 220.359 C-166.883 221.349 -166.223 222.339 -165.543 223.359 C-158.551 223.049 -153.459 219.904 -147.543 216.359 C-146.87 215.958 -146.197 215.558 -145.504 215.145 C-143.855 214.109 -143.855 214.109 -141.543 212.359 C-141.543 211.699 -141.543 211.039 -141.543 210.359 C-140.697 210.132 -139.852 209.906 -138.98 209.672 C-131.806 206.933 -127.83 202.723 -123.293 196.637 C-115.783 186.863 -108.321 183.059 -96.293 181.234 C-94.328 180.926 -92.365 180.611 -90.402 180.289 C-89.541 180.157 -88.68 180.026 -87.792 179.89 C-85.543 179.359 -85.543 179.359 -82.543 177.359 C-81.855 174.234 -81.855 174.234 -81.543 171.359 C-81.04 171.522 -80.538 171.684 -80.02 171.852 C-76.653 172.542 -73.338 172.504 -69.918 172.484 C-69.578 172.486 -69.578 172.486 -67.855 172.496 C-62.796 172.486 -62.796 172.486 -60.543 171.359 C-60.528 170.751 -60.514 170.142 -60.499 169.514 C-59.944 148.784 -59.944 148.784 -57.379 140.949 C-56.312 137.644 -55.549 134.311 -54.793 130.922 C-54.53 129.768 -54.267 128.614 -53.996 127.426 C-53.578 124.594 -53.579 123.01 -54.543 120.359 Z M-50.543 120.359 C-49.543 122.359 -49.543 122.359 -49.543 122.359 Z M28.457 123.359 C28.457 127.319 28.457 131.279 28.457 135.359 C28.787 135.359 29.117 135.359 29.457 135.359 C29.457 131.399 29.457 127.439 29.457 123.359 C29.127 123.359 28.797 123.359 28.457 123.359 Z M-52.543 130.359 C-51.543 133.359 -51.543 133.359 -51.543 133.359 Z M-53.543 135.359 C-52.543 137.359 -52.543 137.359 -52.543 137.359 Z M27.457 137.359 C28.457 140.359 28.457 140.359 28.457 140.359 Z M25.457 155.359 C26.457 157.359 26.457 157.359 26.457 157.359 Z M24.457 165.359 C24.457 167.669 24.457 169.979 24.457 172.359 C24.787 172.359 25.117 172.359 25.457 172.359 C25.457 170.049 25.457 167.739 25.457 165.359 C25.127 165.359 24.797 165.359 24.457 165.359 Z M-73.543 175.359 C-73.543 175.689 -73.543 176.019 -73.543 176.359 C-71.563 176.359 -69.583 176.359 -67.543 176.359 C-67.543 176.029 -67.543 175.699 -67.543 175.359 C-69.523 175.359 -71.503 175.359 -73.543 175.359 Z M-60.543 175.359 C-60.543 177.009 -60.543 178.659 -60.543 180.359 C-60.213 180.359 -59.883 180.359 -59.543 180.359 C-59.543 178.709 -59.543 177.059 -59.543 175.359 C-59.873 175.359 -60.203 175.359 -60.543 175.359 Z M32.457 175.359 C32.457 175.689 32.457 176.019 32.457 176.359 C35.757 176.359 39.057 176.359 42.457 176.359 C42.457 176.029 42.457 175.699 42.457 175.359 C39.157 175.359 35.857 175.359 32.457 175.359 Z M-105.543 183.359 C-101.543 184.359 -101.543 184.359 -101.543 184.359 Z M79.457 190.359 C79.437 191.039 79.417 191.719 79.397 192.42 C79.301 195.546 79.192 198.671 79.082 201.797 C79.051 202.866 79.02 203.935 78.988 205.037 C78.354 222.332 72.482 234.911 61.285 248.004 C59.457 250.359 59.457 250.359 59.457 252.359 C60 252.625 60.542 252.89 61.102 253.164 C61.459 253.341 61.459 253.341 63.27 254.234 C63.977 254.582 64.685 254.93 65.414 255.289 C67.457 256.359 67.457 256.359 70.457 258.359 C75.01 258.113 77.814 255.952 81.457 253.359 C82.978 252.38 84.498 251.401 86.02 250.422 C91.642 246.63 95.293 242.736 98.895 236.984 C103.848 229.084 108.59 224.055 116.337 218.846 C120.262 216.207 124.051 213.473 127.77 210.547 C128.673 209.839 129.577 209.131 130.508 208.402 C132.457 206.359 132.457 206.359 132.457 202.359 C120.585 195.548 110.493 192.157 96.832 191.797 C84.65 191.432 84.65 191.432 79.457 190.359 Z M74.457 203.359 C75.457 206.359 75.457 206.359 75.457 206.359 Z M74.457 211.359 C75.457 213.359 75.457 213.359 75.457 213.359 Z M74.457 214.359 C75.457 217.359 75.457 217.359 75.457 217.359 Z M73.457 219.359 C74.457 221.359 74.457 221.359 74.457 221.359 Z M71.457 224.359 C72.457 226.359 72.457 226.359 72.457 226.359 Z M-213.543 231.359 C-212.543 234.359 -212.543 234.359 -212.543 234.359 Z M68.457 232.359 C69.457 234.359 69.457 234.359 69.457 234.359 Z M24.457 246.359 C23.261 246.875 22.065 247.391 20.832 247.922 C17.25 249.674 14.837 251.799 12.082 254.672 C2.867 264.267 -5.977 269.311 -19.311 269.708 C-37.463 269.898 -49.752 265.271 -64.039 254.25 C-68.177 251.126 -71.264 251.199 -76.297 251.191 C-77.072 251.188 -77.847 251.185 -78.645 251.181 C-80.29 251.176 -81.935 251.174 -83.58 251.174 C-86.071 251.172 -88.562 251.154 -91.053 251.135 C-98.887 251.108 -105.927 251.345 -113.543 253.359 C-123.371 254.217 -131.266 253.11 -140.703 250.25 C-147.284 248.724 -153.832 249.042 -160.543 249.359 C-159.056 253.308 -157.205 256.946 -155.23 260.672 C-146.839 277.148 -143.222 295.75 -141.543 314.047 C-140.274 327.604 -136.924 339.889 -132.056 352.583 C-129.698 358.76 -127.901 364.879 -126.543 371.359 C-125.914 371.374 -125.285 371.388 -124.637 371.402 C-116.565 371.852 -112.022 374.46 -105.918 379.547 C-95.57 391.801 -91.131 408.02 -86.297 423.044 C-85.556 425.32 -84.785 427.584 -84.008 429.848 C-79.103 444.382 -76.053 459.33 -73.742 474.484 C-73.621 475.253 -73.5 476.022 -73.376 476.814 C-73.068 478.818 -72.789 480.827 -72.512 482.836 C-71.636 486.02 -71.064 487.231 -69.145 489.719 C-66 493.804 -64.75 498.052 -63.418 502.984 C-63.164 503.889 -62.911 504.793 -62.649 505.725 C-60.634 513.242 -59.404 520.785 -58.568 528.518 C-57.718 535.922 -55.384 540.469 -49.543 545.359 C-44.205 546.582 -38.741 546.695 -33.289 546.965 C-27.917 547.259 -27.917 547.259 -25.41 547.93 C-16.841 549.902 -6.119 545.172 2.023 542.48 C9.107 540.168 15.737 540.139 23.144 540.119 C25.356 540.11 27.567 540.079 29.779 540.047 C37.667 539.989 44.514 540.669 52.189 542.683 C58.412 543.971 64.692 543.709 71.02 543.609 C72.339 543.604 73.658 543.599 75.018 543.594 C82.024 543.538 88.926 543.196 95.9 542.546 C100.825 542.186 105.561 542.835 110.457 543.359 C110.457 539.729 110.457 536.099 110.457 532.359 C108.147 531.699 105.837 531.039 103.457 530.359 C103.474 529.974 103.474 529.974 103.562 528.023 C103.59 527.021 103.617 526.018 103.645 524.984 C103.662 524.486 103.662 524.486 103.75 521.961 C103.653 521.102 103.557 520.244 103.457 519.359 C102.467 518.699 101.477 518.039 100.457 517.359 C99.727 514.207 99.727 514.207 99.27 510.422 C99.19 509.799 99.19 509.799 98.789 506.645 C98.457 503.359 98.457 503.359 98.457 500.359 C100.437 499.699 102.417 499.039 104.457 498.359 C104.832 489.567 104.261 481.305 102.957 472.609 C99.197 446.478 98.348 414.577 110.457 390.359 C110.727 388.612 110.973 386.862 111.207 385.109 C112.778 375.345 116.309 366.087 120.855 357.324 C123.846 347.557 112.657 329.297 108.332 320.609 C108.032 320.004 107.732 319.398 107.424 318.774 C104.82 313.709 101.664 309.058 98.457 304.359 C97.442 302.845 96.428 301.331 95.414 299.816 C74.123 268.263 74.123 268.263 57.676 260.547 C54.728 258.969 52.743 256.772 50.457 254.359 C49.446 253.864 48.436 253.369 47.395 252.859 C44.079 251.166 42.641 249.323 40.457 246.359 C40.127 246.194 40.127 246.194 38.457 245.359 C39.117 244.699 39.777 244.039 40.457 243.359 C29.242 243.169 29.242 243.169 24.457 246.359 Z M59.457 256.359 C60.447 257.349 61.437 258.339 62.457 259.359 C63.117 259.029 63.777 258.699 64.457 258.359 C63.632 258.029 63.632 258.029 59.457 256.359 Z M128.355 278.184 C125.106 281.908 122.742 285.996 120.457 290.359 C119.88 291.391 119.302 292.422 118.707 293.484 C113.241 306.057 115.656 317.061 120.332 329.422 C120.454 329.756 120.454 329.756 121.07 331.447 C123.589 338.161 126.267 344.287 132.457 348.359 C133.117 348.359 133.777 348.359 134.457 348.359 C135.895 346.645 135.895 346.645 137.457 344.422 C140.25 340.463 140.25 340.463 142.457 339.359 C147.448 338.684 152.377 338.155 156.852 340.746 C159.726 343.28 162.162 345.984 164.531 348.996 C168.706 352.369 172.599 352.49 177.832 352.984 C192.182 354.472 192.182 354.472 197.207 358.902 C197.62 359.445 198.032 359.988 198.457 360.547 C198.701 360.853 198.701 360.853 199.938 362.402 C200.439 363.048 200.94 363.694 201.457 364.359 C207.528 371.842 214.37 378.681 223.457 382.359 C224.447 382.359 225.437 382.359 226.457 382.359 C220.587 404.616 213.136 428.043 196.223 444.531 C194.457 446.359 194.457 446.359 194.457 448.359 C193.797 448.359 193.137 448.359 192.457 448.359 C190.801 449.969 190.801 449.969 188.957 452.109 C188.349 452.805 187.74 453.502 187.113 454.219 C185.457 456.359 185.457 456.359 184.359 458.555 C183.165 460.943 181.873 461.335 179.457 462.359 C178.467 463.019 177.477 463.679 176.457 464.359 C174.398 464.406 174.398 464.406 172.02 464.109 C171.135 464.004 170.251 463.898 169.34 463.789 C166.342 463.342 163.374 462.791 160.395 462.234 C151.198 460.682 144.717 462.169 136.457 466.359 C135.797 466.689 135.137 467.019 134.457 467.359 C134.457 468.019 134.457 468.679 134.457 469.359 C135.277 469.469 136.097 469.579 136.941 469.691 C138.019 469.85 139.097 470.009 140.207 470.172 C140.741 470.247 140.741 470.247 143.441 470.629 C146.538 471.379 148.036 472.369 150.457 474.359 C151.117 474.359 151.777 474.359 152.457 474.359 C152.787 476.999 153.117 479.639 153.457 482.359 C149.464 483.054 145.761 483.394 141.707 483.297 C136.134 483.22 130.891 484.202 125.457 485.359 C128.028 487.93 129.919 488.092 133.457 488.859 C134.616 489.113 135.775 489.367 136.969 489.629 C141.459 490.569 145.951 491.495 150.457 492.359 C150.457 493.019 150.457 493.679 150.457 494.359 C147.181 495.342 144.229 495.475 140.816 495.457 C139.746 495.454 138.677 495.451 137.574 495.447 C136.463 495.439 135.352 495.431 134.207 495.422 C133.644 495.42 133.644 495.42 130.793 495.408 C128.014 495.396 125.236 495.38 122.457 495.359 C122.787 496.349 123.117 497.339 123.457 498.359 C129.866 501.127 136.591 500.545 143.457 500.359 C141.128 503.044 140.661 503.334 136.895 503.797 C135.76 503.982 134.626 504.168 133.457 504.359 C132.02 506.422 132.02 506.422 131.457 508.359 C139.221 511.931 149.24 514.187 157.582 511.359 C158.897 510.74 160.187 510.066 161.457 509.359 C161.913 509.115 161.913 509.115 164.219 507.879 C171.364 503.881 177.926 499.28 184.457 494.359 C185.216 493.841 185.976 493.323 186.758 492.789 C192.16 488.97 195.877 484.385 199.791 479.131 C205.583 471.565 212.678 465.312 219.73 458.947 C220.3 458.423 220.87 457.899 221.457 457.359 C222.027 456.838 222.597 456.316 223.184 455.778 C224.457 454.359 224.457 454.359 224.457 452.359 C225.117 452.359 225.777 452.359 226.457 452.359 C228.245 450.27 229.924 448.173 231.582 445.984 C232.583 444.679 233.584 443.374 234.586 442.07 C235.077 441.429 235.569 440.788 236.075 440.128 C237.82 437.894 239.674 435.761 241.52 433.609 C245.643 428.509 248.573 422.865 251.672 417.115 C256.448 408.35 262.088 400.761 269.082 393.609 C271.547 390.863 273.05 389.129 272.895 385.359 C269.443 372.199 252.881 359.702 243.457 350.359 C238.457 345.359 238.457 345.359 236.652 343.52 C232.762 339.576 228.791 335.812 224.582 332.211 C223.056 330.881 221.559 329.517 220.082 328.133 C211.819 320.412 203.983 315.486 193.121 312.219 C190.741 311.451 188.652 310.545 186.457 309.359 C186.54 308.349 186.622 307.338 186.707 306.297 C186.239 298.928 181.233 293.584 177.074 287.738 C175.231 285.026 173.794 282.347 172.457 279.359 C176.066 280.804 177.534 282.532 179.582 285.797 C180.08 286.579 180.577 287.362 181.09 288.168 C181.315 288.53 181.315 288.53 182.457 290.359 C182.787 290.854 182.787 290.854 184.457 293.359 C185.117 293.359 185.777 293.359 186.457 293.359 C186.976 286.273 184.684 281.588 180.27 276.297 C174.199 269.731 168.193 265.539 159.457 263.359 C148.371 263.359 136.108 270.762 128.355 278.184 Z M183.457 269.359 C184.457 271.359 184.457 271.359 184.457 271.359 Z M184.457 273.359 C185.457 276.359 185.457 276.359 185.457 276.359 Z M-195.543 283.359 C-194.543 285.359 -194.543 285.359 -194.543 285.359 Z M-194.543 285.359 C-193.543 287.359 -193.543 287.359 -193.543 287.359 Z M111.457 304.359 C112.457 308.359 112.457 308.359 112.457 308.359 Z M-141.543 335.359 C-140.543 337.359 -140.543 337.359 -140.543 337.359 Z M139.457 343.359 C135.67 348.983 134.764 354.711 133.744 361.289 C132.047 371.691 128.724 381.745 125.312 391.699 C120.717 405.989 123.707 422.917 125.313 437.459 C126.403 447.421 127.095 457.346 127.457 467.359 C129.902 466.398 132.323 465.421 134.711 464.324 C144.427 460.001 153.721 460.012 164.156 461.203 C164.536 461.229 164.536 461.229 166.457 461.359 C168.176 459.64 167.624 457.415 167.637 455.07 C167.581 448.567 166.693 442.379 165.582 435.984 C164.195 427.593 163.092 419.279 162.457 410.797 C161.893 403.353 160.675 396.438 158.791 389.223 C156.894 381.687 155.422 372.421 159.457 365.359 C162.277 363.34 162.277 363.34 165.582 361.547 C166.678 360.942 167.773 360.338 168.902 359.715 C169.745 359.268 170.588 358.82 171.457 358.359 C170.457 356.359 170.457 356.359 167.707 355.109 C163.898 353.058 162.103 350.752 159.457 347.359 C155.42 343.034 153.551 341.459 147.52 341.172 C144.287 341.103 142.211 341.627 139.457 343.359 Z M-164.543 352.359 C-163.543 354.359 -163.543 354.359 -163.543 354.359 Z M-135.543 352.359 C-134.543 354.359 -134.543 354.359 -134.543 354.359 Z M125.457 357.359 C125.021 358.569 124.586 359.778 124.137 361.023 C121.358 368.679 118.565 376.284 115.27 383.734 C110.749 394.214 108.097 404.319 106.207 415.547 C106.032 416.518 105.856 417.489 105.675 418.489 C102.256 440.401 104.856 462.757 107.395 484.609 C107.676 487.138 107.957 489.667 108.236 492.195 C110.214 509.933 110.214 509.933 111.025 514.699 C111.523 517.764 111.67 520.749 111.773 523.852 C111.815 525.05 111.857 526.249 111.9 527.484 C111.92 528.103 111.92 528.103 112.02 531.234 C112.063 532.495 112.106 533.756 112.15 535.055 C112.256 538.156 112.358 541.258 112.457 544.359 C116.077 545.676 118.553 546.359 122.457 546.359 C122.518 545.407 122.578 544.454 122.641 543.473 C122.683 542.846 122.683 542.846 122.895 539.672 C122.976 538.431 123.057 537.189 123.141 535.91 C123.403 532.965 123.869 530.247 124.457 527.359 C124.928 522.7 125.192 518.034 125.457 513.359 C125.547 512.224 125.638 511.088 125.73 509.918 C126.129 502.179 126.129 502.179 124.117 499.727 C122.457 498.609 122.457 498.609 119.457 497.359 C120.506 494.738 121.106 493.566 123.582 492.109 C124.201 491.862 124.82 491.614 125.457 491.359 C124.082 489.859 124.082 489.859 122.457 488.359 C121.797 488.359 121.137 488.359 120.457 488.359 C120.808 487.741 121.158 487.122 121.52 486.484 C122.868 481.991 122.825 477.866 121.457 473.359 C120.446 472.699 119.436 472.039 118.395 471.359 C117.425 470.699 116.456 470.039 115.457 469.359 C115.208 466.768 115.401 464.33 115.578 461.734 C115.457 459.359 115.457 459.359 112.957 456.922 C110.457 454.359 110.457 454.359 110.195 451.758 C110.244 449.83 110.335 447.903 110.477 445.98 C110.455 443.129 109.82 441.811 108.457 439.359 C108.112 435.214 108.64 432.993 110.457 429.359 C110.679 426.03 110.471 423.414 109.645 420.172 C109.373 414.659 111.241 409.85 114.457 405.359 C117.137 404.539 117.137 404.539 119.457 404.359 C119.653 403.555 119.849 402.751 120.051 401.922 C122.486 392.35 125.5 383.055 128.814 373.75 C130.667 368.399 131.935 364.031 131.457 358.359 C130.467 358.194 130.467 358.194 125.457 357.359 Z M169.129 361.766 C167.528 363.292 165.95 364.435 164.082 365.609 C161.457 367.359 161.457 367.359 160.457 369.359 C160.388 370.9 160.373 372.443 160.395 373.984 C160.404 374.802 160.413 375.619 160.422 376.461 C160.433 377.087 160.445 377.714 160.457 378.359 C161.117 378.359 161.777 378.359 162.457 378.359 C162.457 377.699 162.457 377.039 162.457 376.359 C163.612 376.194 163.612 376.194 169.457 375.359 C170.582 377.422 170.582 377.422 171.457 380.359 C171.106 381.411 170.756 382.463 170.395 383.547 C169.107 388.783 170.608 392.418 172.457 397.359 C173.117 397.359 173.777 397.359 174.457 397.359 C177.457 392.975 177.457 392.975 177.457 390.359 C178.117 390.359 178.777 390.359 179.457 390.359 C179.289 390.951 179.122 391.543 178.949 392.152 C176.926 400.001 176.926 400.001 179.457 404.359 C176.457 403.359 176.457 403.359 174.457 401.359 C173.457 402.359 173.457 402.359 173.395 405.422 C173.415 406.391 173.436 407.361 173.457 408.359 C175.77 409.047 175.77 409.047 178.457 409.359 C180.145 407.922 180.145 407.922 181.457 406.359 C182.117 406.359 182.777 406.359 183.457 406.359 C183.457 407.679 183.457 408.999 183.457 410.359 C184.076 410.545 184.695 410.731 185.332 410.922 C188.507 413.07 188.567 415.738 189.457 419.359 C190.117 420.349 190.777 421.339 191.457 422.359 C191.878 424.388 192.225 426.433 192.52 428.484 C193.357 434.26 193.357 434.26 194.457 435.359 C196.707 435.922 196.707 435.922 199.457 435.359 C203.808 430.032 206.634 423.248 209.645 417.109 C210.082 416.225 210.52 415.341 210.971 414.43 C211.779 412.795 212.587 411.159 213.391 409.522 C214.099 408.085 214.829 406.658 215.581 405.243 C217.536 401.04 216.594 395.891 216.457 391.359 C216.497 390.363 216.537 389.366 216.578 388.34 C216.582 385.378 216.463 383.151 215.457 380.359 C212.433 377.62 209.17 375.996 205.457 374.359 C204.121 373.697 202.787 373.032 201.457 372.359 C201.457 371.699 201.457 371.039 201.457 370.359 C199.837 368.647 198.161 366.988 196.457 365.359 C195.591 364.473 194.725 363.586 193.832 362.672 C188.745 357.719 183.481 356.875 176.469 356.941 C173.252 357.61 171.436 359.522 169.129 361.766 Z M-133.543 358.359 C-132.543 360.359 -132.543 360.359 -132.543 360.359 Z M-131.543 369.359 C-130.543 371.359 -130.543 371.359 -130.543 371.359 Z M-174.164 396.652 C-176.671 398.451 -179.24 400.097 -181.855 401.734 C-186.01 404.342 -190.039 407.092 -194.043 409.922 C-198.864 413.316 -203.808 416.239 -209.023 418.984 C-212.087 420.656 -214.913 422.572 -217.789 424.543 C-221.519 427.003 -225.344 429.298 -229.168 431.609 C-234.962 435.113 -240.639 438.729 -246.23 442.547 C-262.351 453.392 -285.369 467.307 -305.505 463.897 C-311.334 462.36 -316.656 459.386 -321.973 456.613 C-327.06 453.997 -332.093 452.605 -337.637 451.199 C-341.397 450.113 -344.257 448.45 -347.543 446.359 C-348.203 446.359 -348.863 446.359 -349.543 446.359 C-349.543 445.699 -349.543 445.039 -349.543 444.359 C-351.264 442.983 -353.047 441.682 -354.855 440.422 C-358.009 438.217 -360.848 436.092 -363.543 433.359 C-364.997 432.283 -366.478 431.243 -367.98 430.234 C-368.742 429.716 -369.504 429.198 -370.289 428.664 C-372.418 427.432 -374.141 426.808 -376.543 426.359 C-379.235 432.043 -378.492 436.589 -376.543 442.359 C-375.219 444.954 -373.748 447.366 -372.168 449.812 C-370.56 452.333 -369.173 454.896 -367.793 457.547 C-360.86 470.327 -352.683 482.645 -341.293 491.859 C-336.219 496.158 -333.649 501.712 -331.738 508.012 C-330.018 513.461 -328.301 516.046 -323.293 518.984 C-314.833 522.923 -309.571 521.685 -300.961 518.625 C-298.265 517.214 -297.084 515.961 -295.543 513.359 C-295.543 512.699 -295.543 512.039 -295.543 511.359 C-294.883 511.359 -294.223 511.359 -293.543 511.359 C-292.394 509.915 -291.3 508.426 -290.23 506.922 C-280.652 494.85 -269.389 490.778 -254.974 487.014 C-252.794 486.427 -250.649 485.784 -248.5 485.094 C-233.318 480.244 -217.556 477.399 -201.906 474.488 C-184.5 471.214 -170.122 466.757 -157.739 453.586 C-154.881 450.558 -152.114 448.461 -148.543 446.359 C-148.543 445.699 -148.543 445.039 -148.543 444.359 C-147.986 444.132 -147.429 443.906 -146.855 443.672 C-142.336 441.107 -139.616 437.799 -137.387 433.18 C-137.212 432.821 -137.212 432.821 -136.33 431.008 C-136.07 430.464 -135.811 429.92 -135.543 429.359 C-135.654 430.511 -135.764 431.663 -135.878 432.85 C-139.948 475.224 -139.948 475.224 -141.543 494.359 C-141.633 495.435 -141.723 496.511 -141.816 497.62 C-142.396 504.533 -142.972 511.446 -143.543 518.359 C-142.124 519.322 -140.703 520.281 -139.281 521.238 C-138.49 521.773 -137.699 522.307 -136.884 522.858 C-129.761 527.427 -129.761 527.427 -125.48 527.297 C-119.682 524.491 -115.416 520.493 -110.98 515.922 C-110.429 515.362 -109.878 514.802 -109.311 514.225 C-108.225 513.121 -107.142 512.016 -106.061 510.909 C-103.905 508.709 -101.721 506.537 -99.543 504.359 C-98.825 503.618 -98.107 502.877 -97.367 502.113 C-90.747 495.323 -84.492 489.715 -75.543 486.359 C-75.022 477.992 -76.595 470.468 -78.543 462.359 C-80.067 455.993 -81.534 449.734 -82.355 443.234 C-85.385 422.947 -94.704 390.511 -110.98 377.109 C-130.226 367.655 -158.803 385.442 -174.164 396.652 Z M-154.105 377.609 C-154.653 377.725 -154.653 377.725 -157.422 378.312 C-160.854 379.464 -162.942 380.86 -165.543 383.359 C-165.543 384.019 -165.543 384.679 -165.543 385.359 C-166.256 385.637 -166.968 385.915 -167.702 386.201 C-172.64 388.214 -177.419 390.565 -182.23 392.859 C-183.288 393.358 -184.346 393.857 -185.436 394.371 C-186.444 394.852 -187.453 395.333 -188.492 395.828 C-189.413 396.266 -190.335 396.703 -191.284 397.154 C-193.853 398.525 -195.26 399.488 -196.176 402.305 C-196.338 403.024 -196.501 403.743 -196.668 404.484 C-196.957 405.763 -197.245 407.042 -197.543 408.359 C-194.092 407.73 -191.834 406.368 -188.98 404.359 C-186.414 402.559 -184.538 401.358 -181.543 400.359 C-181.543 399.699 -181.543 399.039 -181.543 398.359 C-180.657 398.094 -179.772 397.828 -178.859 397.555 C-175.679 396.408 -173.285 395.098 -170.48 393.234 C-169.532 392.617 -168.583 391.999 -167.605 391.363 C-167.1 391.033 -167.1 391.033 -164.543 389.359 C-157.108 384.56 -149.941 380.241 -141.543 377.359 C-141.543 377.029 -141.543 376.699 -141.543 376.359 C-145.928 376.227 -149.824 376.659 -154.105 377.609 Z M218.457 382.359 C218.787 384.999 219.117 387.639 219.457 390.359 C221.817 388 221.948 386.58 222.457 383.359 C221.137 383.029 219.817 382.699 218.457 382.359 Z M-156.23 455.922 C-157.479 457.238 -158.716 458.57 -159.867 459.973 C-170.418 471.958 -190.426 476.589 -205.73 478.172 C-206.989 478.234 -208.247 478.296 -209.543 478.359 C-215.774 492.146 -218.088 506.564 -219.752 521.463 C-220.249 525.874 -220.791 530.278 -221.332 534.684 C-221.437 535.537 -221.541 536.39 -221.649 537.269 C-223.6 553.04 -226.186 567.168 -233.543 581.359 C-234.066 582.402 -234.59 583.445 -235.129 584.52 C-243.364 599.764 -257.015 614.614 -272.215 623.051 C-274.418 624.289 -276.422 625.647 -278.48 627.109 C-283.216 630.317 -288.238 632.948 -293.293 635.609 C-293.707 635.828 -293.707 635.828 -295.804 636.933 C-298.04 638.097 -300.287 639.234 -302.543 640.359 C-302.946 640.563 -302.946 640.563 -304.988 641.594 C-309.976 643.088 -315.244 643.173 -320.414 643.57 C-320.849 643.608 -320.849 643.608 -323.051 643.797 C-323.841 643.857 -324.631 643.918 -325.446 643.98 C-327.543 644.359 -327.543 644.359 -330.543 646.359 C-330.543 647.349 -330.543 648.339 -330.543 649.359 C-329.674 649.492 -328.805 649.625 -327.91 649.762 C-326.758 649.938 -325.605 650.115 -324.418 650.297 C-323.281 650.471 -322.144 650.645 -320.973 650.824 C-318.917 651.145 -316.865 651.499 -314.827 651.917 C-311.008 652.431 -307.392 652.247 -303.57 651.965 C-293.719 651.332 -283.871 650.991 -274.003 650.747 C-272.073 650.697 -270.143 650.642 -268.214 650.581 C-257.344 650.239 -246.743 650.232 -235.941 651.632 C-227.925 652.669 -220.766 653.487 -213.543 649.359 C-211.429 646.188 -211.281 643.495 -211.234 639.738 C-211.211 638.645 -211.189 637.551 -211.165 636.424 C-211.145 635.269 -211.126 634.113 -211.105 632.922 C-210.841 623.655 -210.134 615.287 -207.543 606.359 C-207.181 604.857 -206.828 603.353 -206.48 601.848 C-203.649 589.698 -199.925 578.034 -195.543 566.359 C-195.419 566.025 -195.419 566.025 -194.79 564.334 C-190.233 552.188 -185.019 539.849 -178.395 528.672 C-174.683 522.032 -174.381 518.134 -175.918 510.922 C-177.305 503.682 -177.757 497.046 -177.582 489.664 C-177.533 485.475 -177.961 481.503 -178.543 477.359 C-177.883 477.359 -177.223 477.359 -176.543 477.359 C-176.643 477.733 -176.643 477.733 -177.148 479.621 C-177.714 484.977 -176.744 489.884 -175.855 495.172 C-175.764 495.74 -175.764 495.74 -175.299 498.613 C-174.914 500.994 -174.525 503.375 -174.132 505.755 C-173.555 509.284 -173 512.815 -172.453 516.348 C-172.108 518.56 -171.763 520.772 -171.418 522.984 C-171.26 524.008 -171.102 525.031 -170.939 526.085 C-170.064 531.602 -168.991 536.964 -167.543 542.359 C-166.883 542.359 -166.223 542.359 -165.543 542.359 C-164.221 540.406 -162.986 538.394 -161.793 536.359 C-158.195 530.326 -154.537 524.354 -149.543 519.359 C-149.543 518.369 -149.543 517.379 -149.543 516.359 C-148.904 516.256 -148.264 516.153 -147.605 516.047 C-146.925 515.82 -146.244 515.593 -145.543 515.359 C-142.6 506.531 -143.498 495.791 -143.605 486.547 C-143.687 478.93 -143.164 471.543 -142.259 463.984 C-141.527 457.756 -141.318 451.631 -141.543 445.359 C-146.711 445.359 -152.636 452.494 -156.23 455.922 Z M127.457 471.359 C126.457 472.359 126.457 472.359 126.324 474.172 C126.327 474.894 126.329 475.616 126.332 476.359 C126.329 477.081 126.327 477.803 126.324 478.547 C126.457 480.359 126.457 480.359 127.457 481.359 C130.706 481.899 133.993 482.161 137.27 482.484 C138.185 482.584 139.101 482.683 140.045 482.785 C140.93 482.874 141.815 482.963 142.727 483.055 C143.537 483.137 144.348 483.22 145.183 483.305 C147.479 483.36 149.27 483.025 151.457 482.359 C151.152 479.51 150.507 478.411 148.484 476.332 C144.488 473.728 140.872 473.202 136.207 472.547 C135.379 472.413 134.552 472.28 133.699 472.143 C131.626 471.825 129.542 471.585 127.457 471.359 Z M100.457 502.359 C100.457 503.679 100.457 504.999 100.457 506.359 C102.107 505.699 103.757 505.039 105.457 504.359 C105.127 503.369 104.797 502.379 104.457 501.359 C102.457 501.359 102.457 501.359 100.457 502.359 Z M104.457 509.359 C102.457 512.359 102.457 512.359 102.457 516.359 C103.777 516.359 105.097 516.359 106.457 516.359 C106.457 514.049 106.457 511.739 106.457 509.359 C105.797 509.359 105.137 509.359 104.457 509.359 Z M161.353 511.595 C151.879 515.637 145.593 515.582 135.457 513.359 C133.126 513.01 130.793 512.672 128.457 512.359 C125.552 530.554 123.153 547.892 126.33 566.176 C127.804 574.78 128.699 583.822 126.457 592.359 C126.392 593.775 126.371 595.193 126.395 596.609 C126.415 597.847 126.436 599.084 126.457 600.359 C125.797 600.359 125.137 600.359 124.457 600.359 C124.457 591.779 124.457 583.199 124.457 574.359 C119.866 573.212 118.926 573.687 114.73 575.527 C113.615 576.009 112.5 576.49 111.352 576.986 C110.771 577.244 110.771 577.244 107.832 578.547 C105.549 579.541 103.265 580.535 100.98 581.527 C99.877 582.011 98.774 582.495 97.637 582.993 C94.748 584.234 91.844 585.403 88.914 586.543 C83.899 588.526 79.774 591.147 75.457 594.359 C75.125 594.602 75.125 594.602 73.445 595.832 C69.212 599.16 66.941 602.036 65.457 607.359 C64.238 618.206 66.638 628.456 72.664 637.52 C77.473 642.454 83.904 643.256 90.395 644.422 C92.133 644.743 93.872 645.067 95.609 645.395 C96.447 645.552 97.285 645.709 98.148 645.872 C100.457 646.359 100.457 646.359 103.836 647.418 C116.034 650.589 129.421 649.54 141.92 649.392 C144.278 649.37 146.636 649.363 148.994 649.37 C174.043 649.436 174.043 649.436 183.457 641.359 C190.361 635.702 196.438 632.95 205.27 631.797 C210.404 631.049 215.306 630.234 220.27 628.672 C225.212 627.219 229.671 627.257 234.793 627.367 C258.403 627.317 258.403 627.317 266.457 620.359 C268.775 616.25 268.695 612.445 268.645 607.797 C268.638 606.496 268.632 605.196 268.625 603.855 C268.494 601.134 268.275 598.932 267.457 596.359 C264.775 595.62 262.092 594.886 259.406 594.16 C257.676 593.69 255.949 593.212 254.227 592.715 C246.489 590.568 240.622 590.707 233.457 594.359 C230.457 596.359 230.457 596.359 229.52 598.359 C228.141 600.954 227.245 601.455 224.457 602.359 C220.503 602.592 216.747 602.292 212.832 601.797 C209.401 601.381 206.841 601.598 203.457 602.359 C199.231 602.562 195.495 602.705 191.457 601.359 C190.613 599.75 190.613 599.75 189.957 597.609 C189.71 596.806 189.462 596.003 189.207 595.176 C188.072 590.912 187.169 586.603 186.301 582.277 C185.446 579.322 184.566 577.581 182.457 575.359 C181.797 575.359 181.137 575.359 180.457 575.359 C180.711 576.331 180.965 577.303 181.227 578.305 C184.5 591.268 187.457 604.942 187.457 618.359 C186.797 618.359 186.137 618.359 185.457 618.359 C185.371 617.399 185.284 616.439 185.195 615.449 C184.323 606.633 182.941 597.973 181.145 589.297 C180.956 588.335 180.768 587.372 180.573 586.381 C179.23 580.148 177.176 575.518 173.457 570.359 C162.846 555.137 164.464 542.389 167.388 524.615 C168.237 519.446 168.602 514.6 168.457 509.359 C165.76 509.359 163.783 510.525 161.353 511.595 Z M107.457 519.359 C107.127 521.339 106.797 523.319 106.457 525.359 C107.117 525.359 107.777 525.359 108.457 525.359 C108.457 523.379 108.457 521.399 108.457 519.359 C108.127 519.359 107.797 519.359 107.457 519.359 Z M-10.429 547.632 C-15.102 548.724 -19.812 549.563 -24.543 550.359 C-24.558 551.126 -24.573 551.894 -24.589 552.684 C-24.831 561.061 -27.368 567.796 -30.68 575.362 C-33.85 582.698 -36.497 590.123 -38.918 597.734 C-41.155 604.616 -43.63 611.006 -47.07 617.391 C-49.2 621.683 -50.788 626.146 -52.364 630.667 C-53.564 634.038 -54.887 637.074 -56.723 640.152 C-58.543 643.359 -58.543 643.359 -58.543 646.359 C-50.797 646.823 -43.049 647.266 -35.301 647.696 C-32.679 647.842 -30.057 647.996 -27.436 648.153 C-12.262 649.059 2.686 649.436 17.875 648.741 C26.674 648.344 35.236 648.455 44.02 649.109 C45.395 649.201 46.771 649.292 48.147 649.382 C58.323 650.078 68.458 651.124 78.569 652.481 C85.383 653.347 91.646 653.271 98.457 652.359 C98.457 651.699 98.457 651.039 98.457 650.359 C94.874 649.38 91.29 648.401 87.707 647.422 C86.691 647.144 85.675 646.866 84.629 646.58 C83.649 646.313 82.67 646.045 81.66 645.77 C80.759 645.523 79.859 645.277 78.931 645.024 C76.778 644.446 74.622 643.892 72.457 643.359 C72.457 642.699 72.457 642.039 72.457 641.359 C71.715 640.699 70.972 640.039 70.207 639.359 C64.167 633.559 61.795 623.005 61.207 614.922 C61.762 607.012 63.031 602.213 68.457 596.359 C68.457 595.699 68.457 595.039 68.457 594.359 C69.184 594.09 69.911 593.821 70.66 593.543 C74.231 592.032 77.318 589.997 80.566 587.895 C82.995 586.605 85.098 585.77 87.695 584.945 C92.658 583.366 97.226 581.213 101.895 578.922 C107.803 576.066 113.686 573.315 119.84 571.016 C121.457 570.359 121.457 570.359 122.457 569.359 C122.543 568.017 122.564 566.67 122.555 565.324 C122.551 564.515 122.548 563.706 122.545 562.873 C122.537 562.023 122.528 561.173 122.52 560.297 C122.517 559.87 122.517 559.87 122.506 557.709 C122.494 555.592 122.476 553.476 122.457 551.359 C119.467 550.313 116.474 549.321 113.457 548.359 C112.667 548.088 111.876 547.817 111.062 547.538 C100.097 544.246 88.841 545.173 77.527 545.421 C66.184 545.647 55.618 545.169 44.464 543.067 C39.012 542.054 33.622 541.785 28.082 541.797 C27.544 541.797 27.544 541.797 24.822 541.795 C12.739 542.037 1.257 544.757 -10.429 547.632 Z M212.457 549.359 C212.127 551.669 211.797 553.979 211.457 556.359 C209.807 557.019 208.157 557.679 206.457 558.359 C206.127 561.989 205.797 565.619 205.457 569.359 C204.467 569.029 203.477 568.699 202.457 568.359 C201.27 565.797 201.27 565.797 200.457 563.359 C198.687 563.278 196.916 563.22 195.145 563.172 C194.158 563.137 193.172 563.102 192.156 563.066 C189.457 563.359 189.457 563.359 187.602 564.871 C187.224 565.362 186.846 565.853 186.457 566.359 C188.224 571.131 192.058 574.182 196.551 576.387 C200.676 577.767 204.873 578.504 209.145 579.297 C214.589 580.33 219.894 581.361 225.145 583.172 C229.074 584.457 231.864 584.224 235.898 583.562 C243.459 582.962 251.381 584.814 258.457 587.359 C259.447 585.379 260.437 583.399 261.457 581.359 C261.127 581.029 261.127 581.029 259.457 579.359 C258.832 577.234 258.832 577.234 258.457 575.359 C259.076 575.277 259.695 575.194 260.332 575.109 C261.033 574.862 261.735 574.614 262.457 574.359 C262.705 573.741 262.952 573.122 263.207 572.484 C265.029 569.387 267.278 568.875 270.582 567.609 C271.678 567.181 272.773 566.753 273.902 566.312 C274.745 565.998 275.588 565.683 276.457 565.359 C276.457 564.699 276.457 564.039 276.457 563.359 C267.263 557.562 255.556 552.684 244.457 553.359 C243.797 554.019 243.137 554.679 242.457 555.359 C241.859 554.844 241.261 554.328 240.645 553.797 C239.923 553.322 239.201 552.848 238.457 552.359 C237.467 552.689 236.477 553.019 235.457 553.359 C235.127 556.329 234.797 559.299 234.457 562.359 C231.457 559.359 231.457 559.359 230.27 556.359 C228.079 552.734 226.578 552.117 222.664 550.883 C219.266 550.077 215.935 549.67 212.457 549.359 Z " fill="#2861B8" transform="translate(629.54296875,283.640625)"/>
<path d="M0 0 C3.23 1.812 5.28 3.503 7.562 6.438 C8.376 12.332 8.376 12.332 6.324 15.121 C2.876 17.698 -1.349 16.995 -5.438 16.438 C-9.168 15.141 -12.317 13.378 -15.34 10.84 C-17.88 9.141 -19.596 8.983 -22.625 8.812 C-27.353 8.522 -27.353 8.522 -28.438 7.438 C-28.625 5 -28.625 5 -28.438 2.438 C-27.778 1.778 -27.117 1.117 -26.438 0.438 C-24.312 0.812 -24.312 0.812 -22.438 1.438 C-23.097 2.758 -23.758 4.077 -24.438 5.438 C-22.457 5.438 -20.477 5.438 -18.438 5.438 C-18.438 4.447 -18.438 3.457 -18.438 2.438 C-11.009 3.438 -11.009 3.438 -7.438 4.438 C-7.107 3.447 -6.778 2.457 -6.438 1.438 C-4.012 -0.382 -2.979 -0.688 0 0 Z M-2.438 3.438 C-2.489 3.757 -2.489 3.757 -2.75 5.375 C-2.977 6.056 -3.204 6.736 -3.438 7.438 C-6.734 8.536 -7.842 8.309 -11.125 7.5 C-11.529 7.403 -11.529 7.403 -13.574 6.91 C-13.882 6.832 -13.882 6.832 -15.438 6.438 C-15.438 7.097 -15.438 7.758 -15.438 8.438 C-14.778 8.438 -14.117 8.438 -13.438 8.438 C-13.438 9.097 -13.438 9.758 -13.438 10.438 C-7.613 13.477 -2.955 13.792 3.562 13.438 C4.375 11.25 4.375 11.25 4.562 8.438 C2.25 5.625 2.25 5.625 -0.438 3.438 C-1.097 3.438 -1.758 3.438 -2.438 3.438 Z " fill="#2861B8" transform="translate(889.4375,882.5625)"/>
<path d="M0 0 C6.901 6.486 9.566 14.173 11.188 23.312 C7.228 23.312 3.267 23.312 -0.812 23.312 C-1.184 21.992 -1.555 20.673 -1.938 19.312 C-4.075 12.97 -7.397 7.52 -13.188 3.938 C-24.087 -0.948 -37.403 -1.616 -48.758 2.379 C-51.711 3.721 -54.189 5.41 -56.812 7.312 C-57.473 7.312 -58.132 7.312 -58.812 7.312 C-59.06 7.972 -59.308 8.633 -59.562 9.312 C-60.858 12.421 -62.346 15.368 -63.91 18.348 C-67.718 26.64 -67.029 38.999 -64.125 47.5 C-60.666 55.438 -55.81 59.938 -47.812 63.312 C-37.144 66.591 -26.275 66.137 -15.812 62.312 C-8.435 58.398 -4.383 52.501 -1.5 44.812 C-1.273 43.987 -1.046 43.162 -0.812 42.312 C7.223 40.973 7.223 40.973 11.188 43.312 C8.635 53.836 4.6 62.416 -4.375 68.844 C-13.486 74.334 -22.134 75.493 -32.562 75.5 C-33.514 75.512 -34.465 75.524 -35.445 75.537 C-48.988 75.565 -58.6 72.11 -68.543 62.809 C-76.404 54.163 -78.208 43.292 -78.188 32 C-78.186 31.074 -78.184 30.147 -78.183 29.193 C-77.986 18.243 -74.905 9.796 -67.375 1.688 C-49.346 -15.022 -18.987 -15.509 0 0 Z " fill="#2861B8" transform="translate(424.8125,985.6875)"/>
<path d="M0 0 C9.993 12.457 11.124 25.546 10 41 C8.034 52.282 2.888 60.18 -5.789 67.461 C-18.129 76.051 -36.58 75.846 -50.859 73.316 C-61.892 69.872 -70.78 63.301 -76.25 53.062 C-79.67 46.237 -80.365 39.188 -80.312 31.688 C-80.308 30.854 -80.303 30.02 -80.298 29.161 C-80.082 17.768 -77.186 9.051 -69.75 0.375 C-50.476 -16.271 -19.51 -17.237 0 0 Z M-61.418 7.086 C-68.465 15.611 -69.716 26.277 -69 37 C-68.174 45.007 -64.938 52.289 -59.027 57.859 C-50.737 63.938 -40.137 66.111 -30 65 C-22.075 63.75 -15.029 61.499 -9 56 C-8.67 55.01 -8.34 54.02 -8 53 C-7.34 53 -6.68 53 -6 53 C-5.351 51.418 -4.706 49.834 -4.062 48.25 C-3.703 47.368 -3.343 46.487 -2.973 45.578 C0.747 35.72 0.208 23.631 -4 14 C-8.785 5.114 -15.461 1.317 -24.805 -1.555 C-37.289 -4.087 -52.13 -2.105 -61.418 7.086 Z " fill="#2861B8" transform="translate(608,987)"/>
<path d="M0 0 C0.443 0.289 0.443 0.289 2.688 1.75 C11.004 9.842 15.044 20.354 15.292 31.804 C15.39 44.64 14.265 56.29 5 66 C-4.619 75.71 -16.577 78.862 -30 79 C-40.984 78.32 -50.158 75.965 -60 71 C-60 70.34 -60 69.68 -60 69 C-60.588 68.749 -61.176 68.497 -61.781 68.238 C-67.767 64.898 -71.191 58.385 -73.438 52.125 C-77.279 37.923 -76.173 22.632 -69.188 9.625 C-68.466 8.759 -67.744 7.893 -67 7 C-66.542 6.441 -66.085 5.881 -65.613 5.305 C-50.083 -12.068 -18.532 -12.607 0 0 Z M-57.156 11.711 C-60.155 15.434 -61.697 19.438 -63 24 C-63.191 24.623 -63.382 25.245 -63.578 25.887 C-65.603 36.031 -64.317 47.998 -59 57 C-50.662 65.733 -41.478 68.836 -29.562 69.312 C-19.935 69.036 -10.582 66.275 -3.508 59.59 C3.781 51.504 4.306 41.897 4.219 31.547 C3.654 22.394 0.509 15.096 -6.25 8.812 C-9.929 5.79 -13.467 4.412 -18 3 C-18.292 2.908 -18.292 2.908 -19.77 2.445 C-33.109 -0.218 -47.203 2.082 -57.156 11.711 Z " fill="#2861B8" transform="translate(780,983)"/>
<path d="M0 0 C5.8 5.398 10.25 12.345 10.867 20.367 C7.04 20.98 3.665 21.242 -0.133 20.367 C-3.193 17.174 -6.133 12.932 -6.133 8.367 C-8.921 6.957 -11.727 5.601 -14.57 4.305 C-15.312 3.963 -16.053 3.621 -16.816 3.27 C-27.258 -0.798 -40.077 0.525 -50.418 4.168 C-57.337 7.224 -61.485 12.29 -64.32 19.305 C-67.348 30.717 -67.272 43.216 -61.508 53.742 C-56.459 61.4 -49.972 63.947 -41.203 65.859 C-30.967 67.552 -21.08 66.309 -11.93 61.117 C-4.571 55.486 -2.291 47.001 -0.133 38.367 C-11.023 38.367 -21.913 38.367 -33.133 38.367 C-33.133 35.397 -33.133 32.427 -33.133 29.367 C-27.349 29.2 -21.565 29.039 -15.781 28.885 C-13.812 28.832 -11.844 28.776 -9.876 28.719 C-7.049 28.637 -4.222 28.562 -1.395 28.488 C-0.954 28.475 -0.954 28.475 1.276 28.406 C2.097 28.386 2.917 28.366 3.763 28.345 C4.485 28.325 5.206 28.305 5.95 28.285 C7.867 28.367 7.867 28.367 10.867 29.367 C10.867 44.547 10.867 59.727 10.867 75.367 C8.557 75.367 6.247 75.367 3.867 75.367 C3.734 74.308 3.602 73.248 3.465 72.156 C3.287 70.768 3.108 69.38 2.93 67.992 C2.843 67.294 2.756 66.595 2.666 65.875 C1.98 60.594 1.98 60.594 0.867 58.367 C0.466 58.947 0.065 59.527 -0.348 60.125 C-6.985 69.246 -14.146 73.908 -25.133 76.367 C-28.605 76.773 -32.015 76.845 -35.508 76.805 C-35.966 76.801 -35.966 76.801 -38.284 76.782 C-50.217 76.492 -59.297 73.124 -67.812 64.707 C-77.297 54.349 -78.768 42.443 -78.453 28.898 C-77.875 17.363 -73.401 8.019 -65.191 0.039 C-47.716 -14.154 -17.535 -13.424 0 0 Z " fill="#2861B8" transform="translate(878.1328125,984.6328125)"/>
<path d="M0 0 C3.3 0 6.6 0 10 0 C15.562 11.007 20.941 22.089 26.188 33.25 C26.924 34.815 27.661 36.38 28.398 37.945 C30.247 41.873 32.092 45.803 33.936 49.733 C34.966 51.928 35.998 54.123 37.03 56.318 C38.574 59.604 40.114 62.892 41.65 66.181 C42.482 67.962 43.318 69.741 44.153 71.521 C44.649 72.586 45.145 73.652 45.656 74.75 C46.087 75.673 46.519 76.596 46.963 77.547 C48 80 48 80 49 84 C45.04 84 41.08 84 37 84 C35.706 81.439 34.415 78.876 33.125 76.312 C32.76 75.591 32.395 74.87 32.02 74.127 C31.665 73.421 31.311 72.715 30.945 71.988 C30.6 71.302 30.255 70.616 29.899 69.909 C29 68 29 68 27.992 65.043 C27.828 64.706 27.828 64.706 27 63 C24.269 62.061 21.745 61.877 18.874 61.886 C18.474 61.887 18.474 61.887 16.448 61.887 C15.594 61.892 14.74 61.897 13.859 61.902 C13.418 61.903 13.418 61.903 11.186 61.907 C8.374 61.912 5.562 61.925 2.75 61.938 C0.841 61.943 -1.068 61.947 -2.977 61.951 C-7.651 61.962 -12.326 61.979 -17 62 C-17.29 62.906 -17.58 63.811 -17.878 64.745 C-18.77 67.332 -19.711 69.657 -20.945 72.086 C-21.3 72.788 -21.654 73.491 -22.02 74.215 C-22.384 74.928 -22.749 75.641 -23.125 76.375 C-23.498 77.111 -23.87 77.847 -24.254 78.605 C-25.166 80.406 -26.082 82.203 -27 84 C-30.63 84 -34.26 84 -38 84 C-37.125 79.625 -35.86 76.122 -34.008 72.137 C-33.857 71.806 -33.857 71.806 -33.093 70.135 C-32.109 67.983 -31.117 65.835 -30.125 63.688 C-29.441 62.197 -28.757 60.706 -28.074 59.216 C-26.701 56.22 -25.325 53.226 -23.946 50.233 C-22.222 46.486 -20.51 42.733 -18.805 38.977 C-14.063 28.545 -9.227 18.198 -4 8 C-3.186 6.376 -2.373 4.751 -1.562 3.125 C-1.047 2.094 -0.531 1.062 0 0 Z M4 16 C1.693 20.801 -0.604 25.606 -2.891 30.417 C-3.671 32.053 -4.454 33.689 -5.24 35.323 C-6.366 37.667 -7.483 40.017 -8.598 42.367 C-8.953 43.101 -9.308 43.834 -9.674 44.59 C-10.51 46.366 -11.263 48.18 -12 50 C-11.67 50.66 -11.34 51.32 -11 52 C-0.11 52 10.78 52 22 52 C19.85 45.55 17.218 39.414 14.46 33.212 C13.559 31.18 12.673 29.142 11.787 27.104 C11.214 25.812 10.641 24.521 10.066 23.23 C9.55 22.059 9.034 20.887 8.502 19.68 C7 17 7 17 4 16 Z " fill="#2861B8" transform="translate(297,976)"/>
<path d="M0 0 C0.51 -0.006 0.51 -0.006 3.088 -0.039 C4.201 -0.046 5.315 -0.054 6.462 -0.061 C7.606 -0.069 8.75 -0.077 9.929 -0.086 C12.364 -0.1 14.798 -0.11 17.233 -0.118 C20.92 -0.135 24.607 -0.179 28.294 -0.223 C30.662 -0.234 33.031 -0.242 35.399 -0.249 C36.488 -0.266 37.578 -0.284 38.7 -0.302 C47.527 -0.277 57.496 0.994 64.79 6.427 C70.365 12.716 71.879 17.973 71.54 26.411 C70.826 32.728 67.764 36.122 63.013 39.986 C60.801 41.462 58.876 42.016 56.228 42.177 C56.228 42.837 56.228 43.497 56.228 44.177 C56.949 44.239 57.671 44.301 58.415 44.365 C62.252 45.473 63.722 47.078 66.228 50.177 C69.135 56.512 69.687 61.947 69.79 68.865 C69.998 79.925 69.998 79.925 72.228 84.177 C70.27 84.258 68.311 84.316 66.353 84.365 C65.807 84.382 65.807 84.382 63.048 84.47 C62.117 84.373 61.186 84.277 60.228 84.177 C57.42 79.966 57.12 76.246 57.052 71.271 C57.028 70.362 57.004 69.453 56.979 68.517 C56.937 66.624 56.905 64.731 56.886 62.837 C56.756 58.593 56.597 55.838 54.497 52.083 C49.823 48.157 43.386 48.97 37.552 48.861 C37.089 48.85 37.089 48.85 34.748 48.798 C31.804 48.732 28.86 48.673 25.915 48.615 C23.914 48.571 21.914 48.528 19.913 48.484 C15.018 48.376 10.123 48.277 5.228 48.177 C5.228 60.057 5.228 71.937 5.228 84.177 C1.598 84.177 -2.032 84.177 -5.772 84.177 C-5.796 73.372 -5.813 62.568 -5.824 51.763 C-5.83 46.747 -5.837 41.73 -5.848 36.714 C-5.859 31.877 -5.865 27.04 -5.867 22.203 C-5.869 20.353 -5.873 18.504 -5.878 16.654 C-5.885 14.073 -5.886 11.491 -5.886 8.91 C-5.89 8.137 -5.893 7.365 -5.897 6.569 C-5.885 0.683 -5.85 0.064 0 0 Z M5.228 10.177 C5.228 19.417 5.228 28.657 5.228 38.177 C11.348 38.269 17.466 38.349 23.587 38.397 C25.666 38.417 27.746 38.444 29.825 38.479 C32.824 38.528 35.822 38.55 38.821 38.568 C39.742 38.588 40.664 38.609 41.613 38.63 C47.59 38.632 52.29 37.709 57.228 34.177 C60.026 30.329 60.775 26.803 60.579 22.134 C59.785 17.713 57.291 14.968 53.79 12.365 C48.261 9.802 42.744 10.044 36.771 10.079 C36.319 10.08 36.319 10.08 34.034 10.084 C31.161 10.089 28.288 10.102 25.415 10.115 C23.463 10.12 21.51 10.124 19.558 10.128 C14.781 10.138 10.004 10.158 5.228 10.177 Z " fill="#2861B8" transform="translate(449.7724609375,975.822998046875)"/>
<path d="M0 0 C2.037 -0.218 4.081 -0.372 6.125 -0.5 C6.693 -0.546 6.693 -0.546 9.57 -0.781 C14.754 0.4 16.226 3.694 19 8 C20.03 9.438 21.068 10.87 22.113 12.297 C23.18 13.781 24.246 15.265 25.312 16.75 C39.641 36.641 39.641 36.641 43 40 C49.149 32.178 55.02 24.208 60.723 16.055 C69.591 3.409 69.591 3.409 73 0 C75.02 -0.072 77.042 -0.084 79.062 -0.062 C80.167 -0.053 81.272 -0.044 82.41 -0.035 C83.265 -0.024 84.119 -0.012 85 0 C84.393 3.099 83.417 5.123 81.551 7.66 C81.039 8.362 80.528 9.064 80.001 9.787 C79.722 10.162 79.722 10.162 78.312 12.062 C78.025 12.456 78.025 12.456 76.568 14.446 C74.718 16.968 72.859 19.484 71 22 C69.768 23.674 68.536 25.349 67.305 27.023 C65.003 30.153 62.696 33.279 60.387 36.402 C60.118 36.776 60.118 36.776 58.759 38.666 C57 41 57 41 54.838 43.426 C48.073 51.437 47.86 58.715 48 68.688 C47.992 70.179 47.98 71.671 47.965 73.162 C47.935 76.776 47.954 80.387 48 84 C44.37 84 40.74 84 37 84 C37.016 83.56 37.016 83.56 37.099 81.332 C37.973 50.088 37.973 50.088 25.781 36.996 C22.501 33.32 19.74 29.25 16.875 25.25 C13.605 20.793 10.306 16.363 6.891 12.016 C6.42 11.416 5.95 10.816 5.465 10.198 C4.216 8.616 2.956 7.042 1.695 5.469 C0 3 0 3 0 0 Z " fill="#2861B8" transform="translate(619,976)"/>
<path d="M0 0 C3.63 0 7.26 0 11 0 C19.224 17.436 27.438 34.876 35.527 52.376 C37.921 57.55 40.332 62.714 42.805 67.852 C43.231 68.74 43.658 69.628 44.098 70.543 C44.881 72.167 45.669 73.789 46.463 75.408 C49 80.671 49 80.671 49 84 C45.04 84 41.08 84 37 84 C35.495 80.71 33.996 77.418 32.5 74.125 C32.285 73.656 32.285 73.656 31.199 71.285 C30.793 70.389 30.387 69.493 29.969 68.57 C29.592 67.743 29.215 66.915 28.826 66.063 C28 64 28 64 28 62 C13.15 62 -1.7 62 -17 62 C-17.99 64.97 -18.98 67.94 -20 71 C-21.023 73.372 -22.082 75.728 -23.188 78.062 C-23.717 79.188 -24.247 80.313 -24.793 81.473 C-25.191 82.307 -25.59 83.141 -26 84 C-29.96 84 -33.92 84 -38 84 C-35.753 76.613 -32.671 69.912 -29.25 63 C-28.083 60.611 -26.918 58.221 -25.758 55.828 C-25.455 55.204 -25.152 54.579 -24.84 53.935 C-20.493 44.927 -16.403 35.8 -12.29 26.684 C-11.696 25.367 -11.102 24.051 -10.508 22.734 C-10.365 22.417 -10.365 22.417 -9.641 20.812 C-6.49 13.845 -3.25 6.921 0 0 Z M5 15 C0.811 23.135 -3.149 31.358 -6.938 39.688 C-7.339 40.561 -7.74 41.434 -8.154 42.333 C-8.525 43.155 -8.895 43.977 -9.277 44.824 C-9.444 45.191 -9.444 45.191 -10.285 47.046 C-11 49 -11 49 -11 52 C-0.11 52 10.78 52 22 52 C21.106 47.529 19.772 43.865 17.91 39.766 C17.606 39.087 17.301 38.408 16.987 37.709 C16.345 36.283 15.7 34.857 15.053 33.433 C14.061 31.247 13.082 29.055 12.104 26.863 C11.477 25.476 10.85 24.089 10.223 22.703 C10.076 22.375 10.076 22.375 9.335 20.711 C7.23 16.115 7.23 16.115 5 15 Z " fill="#2861B8" transform="translate(930,976)"/>
</svg>
