<?xml version="1.0" encoding="UTF-8"?>
<!-- Generator: visioncortex VTracer 0.6.12 -->
<svg version="1.1" xmlns="http://www.w3.org/2000/svg" viewBox="0 0 352 498" preserveAspectRatio="xMidYMid meet">
<path d="M0 0 C0.33 0.99 0.66 1.98 1 3 C1.66 3 2.32 3 3 3 C3.33 3.99 3.33 3.99 5 9 C5.66 9 6.32 9 7 9 C7.07 9.57 7.07 9.57 7.44 12.44 C8 16 8 16 9 17 C9.21 18.41 9.37 19.83 9.5 21.25 C9.75 23.75 10.02 26.11 10.56 28.56 C11.19 32.07 11.06 35.44 11 39 C11.66 39 12.32 39 13 39 C13.03 40.94 13.05 42.87 13.06 44.81 C13.07 45.89 13.09 46.97 13.1 48.08 C13 51 13 51 12 54 C11.93 56.57 11.91 59.12 11.94 61.69 C11.94 62.04 11.94 62.04 11.95 63.81 C11.96 65.54 11.98 67.27 12 69 C16.29 69 20.58 69 25 69 C25 69.66 25 70.32 25 71 C32.65 73.75 40.51 75.14 48.52 76.44 C50.95 76.99 52.83 77.79 55 79 C55 79.66 55 80.32 55 81 C55.66 81 56.32 81 57 81 C57 81.66 57 82.32 57 83 C57.66 83 58.32 83 59 83 C59 83.66 59 84.32 59 85 C59.66 85 60.32 85 61 85 C61.33 86.32 61.66 87.64 62 89 C62.99 89 63.98 89 65 89 C67.92 91.41 69.46 93.21 70 97 C70.99 97 71.98 97 73 97 C73.14 98.13 73.29 99.27 73.44 100.44 C74 104 74 104 75 105 C75.07 107.53 75.09 110.03 75.06 112.56 C75.06 113.27 75.05 113.98 75.05 114.72 C75.04 116.48 75.02 118.24 75 120 C76.24 120.45 77.48 120.91 78.75 121.38 C81.59 122.44 84.33 123.55 87 125 C87 125.66 87 126.32 87 127 C87.66 127 88.32 127 89 127 C89 127.66 89 128.32 89 129 C89.66 129 90.32 129 91 129 C91 129.66 91 130.32 91 131 C91.54 131.21 92.07 131.41 92.62 131.62 C95.92 133.53 98.59 136.05 101 139 C101 139.66 101 140.32 101 141 C101.66 141.33 102.32 141.66 103 142 C103.72 143.64 104.39 145.31 105 147 C105.66 147 106.32 147 107 147 C107.33 148.65 107.66 150.3 108 152 C107.34 152 106.68 152 106 152 C103.56 149.25 102.24 146.44 101 143 C100.34 143 99.68 143 99 143 C99 142.34 99 141.68 99 141 C98.34 140.67 97.68 140.34 97 140 C95.49 138.27 94.06 136.49 92.63 134.69 C90.88 132.88 89.3 131.99 87 131 C87 130.34 87 129.68 87 129 C86.34 129 85.68 129 85 129 C85 128.34 85 127.68 85 127 C84.01 126.67 84.01 126.67 79 125 C79 124.34 79 123.68 79 123 C77.02 123 75.04 123 73 123 C73 122.34 73 121.68 73 121 C72.34 121 71.68 121 71 121 C70.67 118.69 70.34 116.38 70 114 C70.99 114.66 71.98 115.32 73 116 C72.67 114.85 72.67 114.85 71 109 C69.68 109 68.36 109 67 109 C67 108.34 67 107.68 67 107 C65.68 107 64.36 107 63 107 C63 106.34 63 105.68 63 105 C59.7 105 56.4 105 53 105 C53 105.66 53 106.32 53 107 C52.34 107 51.68 107 51 107 C51 107.66 51 108.32 51 109 C50.34 109 49.68 109 49 109 C49 110.98 49 112.96 49 115 C48.34 115 47.68 115 47 115 C47 120.94 47 126.88 47 133 C47.66 133 48.32 133 49 133 C49 133.66 49 134.32 49 135 C50.65 135.33 52.3 135.66 54 136 C52.6 155.4 52.6 155.4 50 158 C49.9 160.82 49.86 163.61 49.88 166.44 C49.88 167.25 49.88 168.07 49.88 168.91 C49.92 174.66 50.26 180.29 51 186 C53.97 184.35 56.94 182.7 60 181 C60.99 181.66 61.98 182.32 63 183 C61.68 183 60.36 183 59 183 C59 183.99 59 184.98 59 186 C59.66 186.33 60.32 186.66 61 187 C60.69 188.94 60.69 188.94 60 191 C59.01 191.33 58.02 191.66 57 192 C59.62 193.75 61.04 194.39 64 195 C63.67 195.99 63.34 196.98 63 198 C64.32 198.33 65.64 198.66 67 199 C67 198.34 67 197.68 67 197 C67.76 196.57 68.53 196.13 69.31 195.69 C72.33 193.79 73.27 192.05 75 189 C75.66 189 76.32 189 77 189 C77 188.34 77 187.68 77 187 C77.66 187 78.32 187 79 187 C79 186.34 79 185.68 79 185 C80.64 183.63 82.31 182.31 84 181 C85.35 179.69 86.69 178.35 88 177 C88.72 176.3 89.44 175.6 90.19 174.88 C92 173 92 173 93 171 C93.66 171 94.32 171 95 171 C95 170.01 95 169.02 95 168 C95.99 167.34 96.98 166.68 98 166 C99.28 163.91 99.28 163.91 100.5 161.5 C102.17 158.21 102.83 157.11 106 155 C106.33 155.66 106.66 156.32 107 157 C106.34 157 105.68 157 105 157 C104.89 157.42 104.89 157.42 104.31 159.56 C102.98 163.05 101.38 165.47 99.12 168.39 C98 170 98 170 97 173 C96.34 173 95.68 173 95 173 C95 173.66 95 174.32 95 175 C94.34 175 93.68 175 93 175 C93 175.66 93 176.32 93 177 C91.68 177.33 90.36 177.66 89 178 C89 178.99 89 179.98 89 181 C88.34 181 87.68 181 87 181 C86.67 181.66 86.34 182.32 86 183 C85.02 184.02 84.02 185.02 83 186 C83.66 186.66 84.32 187.32 85 188 C84.67 191.3 84.38 192.62 82 195 C81.01 195 80.02 195 79 195 C78.67 195.99 78.34 196.98 78 198 C75.94 198.69 75.94 198.69 74 199 C73.88 199.95 73.75 200.9 73.62 201.88 C73 205 73 205 71 207 C70.01 206.67 70.01 206.67 65 205 C65.31 207.13 65.62 209.25 65.94 211.38 C66.11 212.56 66.29 213.74 66.46 214.96 C67 218 67 218 68 220 C69.42 220.03 70.83 220.05 72.25 220.06 C72.64 220.07 72.64 220.07 74.64 220.1 C76.91 220 78.83 219.63 81 219 C81 217.68 81 216.36 81 215 C82.98 215 84.96 215 87 215 C87 215.66 87 216.32 87 217 C88.98 217 90.96 217 93 217 C92.67 218.32 92.34 219.64 92 221 C91.34 221 90.68 221 90 221 C90 220.34 90 219.68 90 219 C89.01 219.33 88.02 219.66 87 220 C85.05 219.2 83.49 218.49 82 217 C82 217.99 82 218.98 82 220 C81.34 220.33 80.68 220.66 80 221 C79.38 223.06 79.38 223.06 79 225 C78.34 225 77.68 225 77 225 C77.75 226.94 77.75 226.94 79 229 C80.94 229.62 80.94 229.62 83 230 C83.99 230.66 84.98 231.32 86 232 C88.38 232.05 88.38 232.05 91 231.75 C91.87 231.66 92.73 231.57 93.62 231.48 C96 231 96 231 99 229 C102.19 228.88 102.19 228.88 105 229 C105.66 227.68 106.32 226.36 107 225 C107.66 225 108.32 225 109 225 C109 223.68 109 222.36 109 221 C112.34 221.6 114.54 222.63 117 225 C117 226.32 117 227.64 117 229 C117.66 229 118.32 229 119 229 C119 230.32 119 231.64 119 233 C119.66 233 120.32 233 121 233 C121 234.98 121 236.96 121 239 C121.45 238.89 121.45 238.89 123.75 238.31 C127 238 127 238 129.38 239.31 C131 241 131 241 131 243 C131.66 243.33 132.32 243.66 133 244 C133.3 251.89 133.3 251.89 131 255 C127.78 257.3 124.87 257.26 121 257 C120.67 256.67 120.34 256.34 120 256 C118.45 256.24 116.9 256.48 115.35 256.72 C110.18 257.34 104.96 257.27 99.75 257.31 C98.57 257.34 97.38 257.37 96.16 257.4 C95.03 257.41 93.9 257.42 92.73 257.43 C91.71 257.44 90.68 257.45 89.62 257.47 C87 257 87 257 85.14 254.97 C84.76 254.32 84.39 253.67 84 253 C84.33 252.34 84.66 251.68 85 251 C79.53 252.02 74.24 253.07 69 255 C69 255.66 69 256.32 69 257 C68.34 257 67.68 257 67 257 C66.67 257.66 66.34 258.32 66 259 C64.95 259.01 63.89 259.02 62.81 259.02 C52.75 259.1 42.7 259.19 32.64 259.29 C27.47 259.34 22.3 259.38 17.14 259.42 C11.16 259.47 5.18 259.52 -0.8 259.59 C-1.28 259.59 -1.28 259.59 -3.74 259.61 C-16.79 259.75 -29.73 260.16 -42.7 261.76 C-48.78 262.39 -52.36 262.02 -57.39 258.4 C-64.32 252.37 -65.74 244.65 -68 236 C-70.54 227.46 -70.54 227.46 -73 225 C-72.79 221.73 -72.6 219.67 -70.38 217.19 C-67.5 212.61 -69.94 206.03 -71 201 C-71.34 198.67 -71.68 196.34 -72 194 C-71.01 194 -70.02 194 -69 194 C-68.01 199.61 -67.02 205.22 -66 211 C-64.84 209.47 -63.69 207.95 -62.5 206.38 C-62.18 205.95 -62.18 205.95 -60.53 203.77 C-58.74 200.53 -58.8 198.65 -59 195 C-58.68 193.66 -58.34 192.33 -58 191 C-57.78 188.59 -57.59 186.17 -57.44 183.75 C-57.4 183.12 -57.4 183.12 -57.18 179.92 C-57.12 178.96 -57.06 177.99 -57 177 C-57.41 177.43 -57.82 177.87 -58.24 178.31 C-58.78 178.87 -59.32 179.43 -59.88 180 C-60.41 180.56 -60.94 181.11 -61.49 181.69 C-63 183 -63 183 -65 183 C-65 183.66 -65 184.32 -65 185 C-65.99 185 -66.98 185 -68 185 C-68.33 185.66 -68.66 186.32 -69 187 C-70.32 187 -71.64 187 -73 187 C-73.33 187.66 -73.66 188.32 -74 189 C-74.99 189 -75.98 189 -77 189 C-77.33 189.66 -77.66 190.32 -78 191 C-81.63 191 -85.26 191 -89 191 C-89 191.66 -89 192.32 -89 193 C-89.28 193.02 -89.28 193.02 -90.72 193.11 C-94.71 193.45 -98.16 193.88 -101.81 195.56 C-105 197 -105 197 -109 197 C-109.33 197.66 -109.66 198.32 -110 199 C-110.99 199 -111.98 199 -113 199 C-113 199.66 -113 200.32 -113 201 C-113.66 201 -114.32 201 -115 201 C-115.66 202.98 -116.32 204.96 -117 207 C-117.66 207 -118.32 207 -119 207 C-119 207.66 -119 208.32 -119 209 C-121.64 209 -124.28 209 -127 209 C-127 208.34 -127 207.68 -127 207 C-128.32 207 -129.64 207 -131 207 C-131.33 205.35 -131.66 203.7 -132 202 C-126.12 204.75 -126.12 204.75 -125 207 C-123.68 207 -122.36 207 -121 207 C-121 206.34 -121 205.68 -121 205 C-120.34 205 -119.68 205 -119 205 C-118.67 204.01 -118.67 204.01 -117 199 C-116.34 199 -115.68 199 -115 199 C-114.67 198.34 -114.34 197.68 -114 197 C-113.01 197 -112.02 197 -111 197 C-111 196.34 -111 195.68 -111 195 C-107.38 193.68 -104.9 193 -101 193 C-100.67 192.34 -100.34 191.68 -100 191 C-97.69 191 -95.38 191 -93 191 C-93 190.34 -93 189.68 -93 189 C-88.71 189 -84.42 189 -80 189 C-80 188.34 -80 187.68 -80 187 C-78.35 187 -76.7 187 -75 187 C-74.67 186.34 -74.34 185.68 -74 185 C-73.01 185 -72.02 185 -71 185 C-71 184.34 -71 183.68 -71 183 C-69.68 183 -68.36 183 -67 183 C-67 182.34 -67 181.68 -67 181 C-65.36 179.63 -65.36 179.63 -63.19 178.12 C-60.17 176.03 -58.08 174.04 -56 171 C-53.22 178.38 -54.23 185.38 -54.9 193.11 C-55.35 200.04 -54.7 204.07 -51 210 C-42.9 207.19 -36.13 200.43 -32 193 C-32.12 190 -32.12 190 -33 187 C-33.12 185.91 -33.25 184.81 -33.38 183.69 C-34 180.02 -35.02 176.81 -36.25 173.32 C-37.21 170.36 -37.83 167.38 -38.46 164.34 C-39.65 159.14 -41.31 154.06 -43 149 C-42.34 149.33 -42.34 149.33 -39 151 C-39 151.66 -39 152.32 -39 153 C-38.34 153 -37.68 153 -37 153 C-36.66 154.73 -36.33 156.46 -36 158.19 C-35.91 158.67 -35.91 158.67 -35.44 161.11 C-35.03 163.79 -34.92 166.29 -35 169 C-34.34 169 -33.68 169 -33 169 C-32.93 169.57 -32.93 169.57 -32.56 172.44 C-32 176 -32 176 -31 177 C-30.65 179.33 -30.32 181.66 -30 184 C-29.81 184.74 -29.63 185.49 -29.44 186.25 C-29 188 -29 188 -29 191 C-28.34 191 -27.68 191 -27 191 C-20.48 206.74 -20.48 206.74 -19 214 C-15.76 215.01 -13.17 214.99 -9.81 214.62 C-9.37 214.58 -9.37 214.58 -7.14 214.35 C-5 214 -5 214 -4 213 C-2.48 212.93 -0.96 212.92 0.56 212.94 C1.39 212.95 2.22 212.96 3.07 212.96 C3.7 212.98 4.34 212.99 5 213 C5 212.34 5 211.68 5 211 C5.93 211.14 6.87 211.29 7.83 211.44 C16.56 212.7 25.05 213.19 33.88 213.01 C39.82 212.91 39.82 212.91 42 214 C41.62 213.11 41.23 212.22 40.84 211.3 C40.59 210.71 40.59 210.71 39.38 207.75 C38.89 206.59 38.4 205.43 37.9 204.23 C37 201 37 201 37.96 199.12 C39.28 196.43 39.06 194.82 38.72 191.87 C38.67 191.38 38.67 191.38 38.42 188.93 C38.3 187.92 38.18 186.91 38.06 185.88 C37.84 183.87 37.62 181.87 37.41 179.87 C37.31 178.98 37.21 178.1 37.1 177.18 C37 175 37 175 38 173 C38.13 171.25 38.23 169.5 38.31 167.75 C38.94 159.57 40.04 149.96 46 144 C45.01 149.61 44.02 155.22 43 161 C44.32 160.34 45.64 159.68 47 159 C47 157.68 47 156.36 47 155 C47.66 155 48.32 155 49 155 C49.12 153.8 49.25 152.61 49.38 151.38 C49.82 147.72 50.7 144.45 52 141 C50.93 140.88 49.85 140.75 48.75 140.62 C43.06 139.68 43.06 139.68 41 138 C39.5 134.13 38.96 130.74 38.69 126.62 C38.2 121.29 35.75 117.48 33 113 C32.32 111.67 31.65 110.34 31 109 C30.34 109 29.68 109 29 109 C29 108.34 29 107.68 29 107 C27.68 106.67 27.68 106.67 21 105 C21 104.34 21 103.68 21 103 C20.34 103 19.68 103 19 103 C19.33 101.68 19.66 100.36 20 99 C12.47 99.17 7.3 100.88 1 105 C1 105.66 1 106.32 1 107 C-4.57 108.59 -9.21 109.21 -15 109 C-15 108.34 -15 107.68 -15 107 C-16.32 107 -17.64 107 -19 107 C-19 106.34 -19 105.68 -19 105 C-19.99 104.67 -19.99 104.67 -25 103 C-25 102.34 -25 101.68 -25 101 C-25.83 101.01 -26.66 101.02 -27.52 101.04 C-28.61 101.04 -29.69 101.05 -30.81 101.06 C-31.89 101.07 -32.97 101.09 -34.08 101.1 C-37 101 -37 101 -40 100 C-42.34 100.32 -44.67 100.66 -47 101 C-52.82 101.28 -57.4 100.6 -63 99 C-62.01 100.98 -61.02 102.96 -60 105 C-59.67 105 -59.34 105 -59 105 C-58.52 106.75 -58.04 108.5 -57.56 110.25 C-57.3 111.22 -57.03 112.2 -56.75 113.2 C-55.5 117.84 -54.49 122.47 -53.56 127.19 C-52.45 132.81 -51.26 138.41 -50 144 C-49.66 145.67 -49.32 147.33 -49 149 C-58.41 152.26 -58.41 152.26 -63 153 C-63 153.66 -63 154.32 -63 155 C-64.98 155.66 -66.96 156.32 -69 157 C-69 157.66 -69 158.32 -69 159 C-69.48 159.14 -69.48 159.14 -71.94 159.88 C-75 161 -75 161 -76 163 C-76.99 163 -77.98 163 -79 163 C-79 163.66 -79 164.32 -79 165 C-80.98 165.66 -82.96 166.32 -85 167 C-85 167.66 -85 168.32 -85 169 C-86.96 170 -88.91 171 -90.88 172 C-91.97 172.56 -93.06 173.11 -94.18 173.69 C-97 175 -97 175 -99 175 C-99.33 175.66 -99.66 176.32 -100 177 C-100.99 177 -101.98 177 -103 177 C-103.33 177.66 -103.66 178.32 -104 179 C-110.75 183.84 -118.02 184.69 -126.19 183.56 C-127.12 183.38 -128.04 183.19 -129 183 C-129 182.34 -129 181.68 -129 181 C-130.32 181 -131.64 181 -133 181 C-133 180.34 -133 179.68 -133 179 C-133.89 179.1 -134.77 179.21 -135.69 179.31 C-140.1 178.9 -141.1 177.27 -144 174 C-145.96 172.28 -147.98 170.65 -150 169 C-150.16 169.33 -150.16 169.33 -151 171 C-150.34 171.33 -149.68 171.66 -149 172 C-146.71 175.44 -146.82 176.99 -147 181 C-146.34 181.33 -145.68 181.66 -145 182 C-144.28 183.64 -143.61 185.31 -143 187 C-142.34 187 -141.68 187 -141 187 C-141 187.66 -141 188.32 -141 189 C-140.34 189 -139.68 189 -139 189 C-139 189.66 -139 190.32 -139 191 C-138.34 191 -137.68 191 -137 191 C-137 191.66 -137 192.32 -137 193 C-136.34 193 -135.68 193 -135 193 C-134.01 195.64 -133.02 198.28 -132 201 C-132.99 201 -133.98 201 -135 201 C-135.66 199.02 -136.32 197.04 -137 195 C-137.66 195 -138.32 195 -139 195 C-139 194.34 -139 193.68 -139 193 C-139.66 193 -140.32 193 -141 193 C-141 192.34 -141 191.68 -141 191 C-141.66 191 -142.32 191 -143 191 C-143 190.34 -143 189.68 -143 189 C-143.66 189 -144.32 189 -145 189 C-145.29 188.03 -145.58 187.06 -145.88 186.06 C-147 183 -147 183 -149 182 C-149 180.68 -149 179.36 -149 178 C-149.66 177.67 -150.32 177.34 -151 177 C-151.63 174.71 -151.63 174.71 -152.12 171.94 C-152.21 171.48 -152.21 171.48 -152.63 169.15 C-152.69 168.8 -152.69 168.8 -153 167 C-152.34 167 -151.68 167 -151 167 C-150.84 166.67 -150.84 166.67 -150 165 C-147.33 167.06 -144.92 169.08 -142.62 171.56 C-139.36 174.59 -135.63 177 -131 177 C-131 177.66 -131 178.32 -131 179 C-129.68 179 -128.36 179 -127 179 C-127 179.66 -127 180.32 -127 181 C-119.32 181.59 -113.96 180.13 -107 177 C-105.01 176.31 -103.01 175.63 -101 175 C-101 174.34 -101 173.68 -101 173 C-99.68 173 -98.36 173 -97 173 C-97 172.34 -97 171.68 -97 171 C-96.37 170.73 -95.75 170.47 -95.1 170.2 C-94.69 170.02 -94.69 170.02 -92.62 169.12 C-92.22 168.95 -92.22 168.95 -90.16 168.07 C-88 167 -88 167 -86 165 C-85.36 164.75 -84.72 164.5 -84.06 164.25 C-82 163 -82 163 -80.56 160 C-78.67 156.37 -77.79 156.21 -74 155 C-71.32 154.01 -69.07 153 -67 151 C-65.45 146.42 -65.66 141.62 -67 137 C-67.66 137 -68.32 137 -69 137 C-69 135.68 -69 134.36 -69 133 C-69.66 133 -70.32 133 -71 133 C-71.22 132.43 -71.44 131.86 -71.66 131.27 C-74.09 125.07 -76.79 119.04 -79.61 113.01 C-81.14 109.7 -82.59 106.37 -84 103 C-84.33 103 -84.66 103 -85 103 C-85 101.02 -85 99.04 -85 97 C-85.66 97 -86.32 97 -87 97 C-87 92.38 -87 87.76 -87 83 C-86.34 83 -85.68 83 -85 83 C-85 82.34 -85 81.68 -85 81 C-83.68 81 -82.36 81 -81 81 C-81 80.34 -81 79.68 -81 79 C-79.68 79 -78.36 79 -77 79 C-77 78.34 -77 77.68 -77 77 C-75.86 76.88 -74.71 76.76 -73.54 76.63 C-72.04 76.46 -70.55 76.29 -69.06 76.12 C-68.31 76.05 -67.55 75.97 -66.78 75.89 C-64.84 75.66 -62.92 75.34 -61 75 C-60.67 74.34 -60.34 73.68 -60 73 C-57.27 68.14 -57.27 68.14 -55 67 C-54.29 65.01 -53.63 63.01 -53 61 C-52.36 59.65 -51.71 58.31 -51 57 C-50.34 57 -49.68 57 -49 57 C-48.67 56.01 -48.67 56.01 -47 51 C-46.34 51 -45.68 51 -45 51 C-44.71 50.42 -44.42 49.84 -44.12 49.25 C-43.08 47.17 -42.04 45.08 -41 43 C-40.34 43 -39.68 43 -39 43 C-38.67 42.01 -38.67 42.01 -37 37 C-36.34 37 -35.68 37 -35 37 C-34.34 34.36 -33.68 31.72 -33 29 C-32.34 29 -31.68 29 -31 29 C-31 27.68 -31 26.36 -31 25 C-30.34 25 -29.68 25 -29 25 C-29 23.68 -29 22.36 -29 21 C-28.34 21 -27.68 21 -27 21 C-26.77 19.93 -26.55 18.85 -26.31 17.75 C-24.83 13.51 -23.53 12.58 -20 10 C-18.06 7.13 -16.5 4.12 -15 1 C-14.34 1 -13.68 1 -13 1 C-13 0.34 -13 -0.32 -13 -1 C-8.08 -2.2 -4.72 -1.85 0 0 Z M-25 51 C-25.66 52.32 -26.32 53.64 -27 55 C-27.66 55 -28.32 55 -29 55 C-31.19 57.19 -31.19 57.19 -33 60 C-32.83 63.55 -32 65 -30 68 C-27.69 68.33 -25.38 68.66 -23 69 C-23 63.06 -23 57.12 -23 51 C-23.66 51 -24.32 51 -25 51 Z M-49 59 C-49.66 60.09 -50.32 61.19 -51 62.31 C-51.37 62.93 -51.74 63.54 -52.12 64.18 C-53 66 -53 66 -53 69 C-53.66 69 -54.32 69 -55 69 C-55.47 70.09 -55.95 71.19 -56.44 72.31 C-56.57 72.62 -56.57 72.62 -57.25 74.18 C-57.9 75.76 -58.46 77.38 -59 79 C-59.66 79 -60.32 79 -61 79 C-61 79.66 -61 80.32 -61 81 C-61.66 81 -62.32 81 -63 81 C-63 82.32 -63 83.64 -63 85 C-56.16 85.72 -56.16 85.72 -53.02 83.77 C-51.25 82.25 -49.61 80.68 -48 79 C-43.37 74.26 -39.48 73.65 -33 73 C-31.77 67.58 -31.77 67.58 -32.94 64.62 C-33.29 64.09 -33.64 63.55 -34 63 C-34.99 63 -35.98 63 -37 63 C-37 62.34 -37 61.68 -37 61 C-38.98 61 -40.96 61 -43 61 C-43 60.34 -43 59.68 -43 59 C-44.98 59 -46.96 59 -49 59 Z M29 76 C28.81 77.96 28.62 79.92 28.44 81.88 C28.33 82.97 28.23 84.06 28.12 85.18 C28 88 28 88 29 90 C28.34 90 27.68 90 27 90 C22.98 96.96 22.98 96.96 23.06 100.88 C24 103 24 103 27 105 C27.66 104.01 28.32 103.02 29 102 C29.99 101.67 30.98 101.34 32 101 C32.12 100.64 32.12 100.64 32.75 98.81 C34.29 95.35 36.28 93.89 39.19 91.55 C40.95 90.04 42.32 88.5 43.75 86.69 C46 84 46 84 49 83 C49 81.68 49 80.36 49 79 C47.56 78.8 46.13 78.62 44.69 78.44 C43.89 78.33 43.09 78.23 42.26 78.12 C40 78 40 78 37 79 C37 78.34 37 77.68 37 77 C34.36 76.67 31.72 76.34 29 76 Z M-63 86 C-63 86.33 -63 86.66 -63 87 C-61.35 87 -59.7 87 -58 87 C-58 86.67 -58 86.34 -58 86 C-59.65 86 -61.3 86 -63 86 Z M-62 149 C-62.33 149.66 -62.66 150.32 -63 151 C-62.34 151 -61.68 151 -61 151 C-61.33 150.34 -61.66 149.68 -62 149 Z M42 170 C42.33 170.99 42.66 171.98 43 173 C43 172.01 43 171.02 43 170 C42.67 170 42.34 170 42 170 Z M41 174 C41 174.99 41 175.98 41 177 C41.99 176.67 42.98 176.34 44 176 C44 175.34 44 174.68 44 174 C43.01 174 42.02 174 41 174 Z M40 177 C41 179 41 179 41 179 Z M45 178 C46 180 46 180 46 180 Z M42 179 C43 181 43 181 43 181 Z M58 187 C57.67 187.66 57.34 188.32 57 189 C57.66 189 58.32 189 59 189 C58.67 188.34 58.34 187.68 58 187 Z M41 191 C40.97 192.44 40.95 193.87 40.94 195.31 C40.93 196.11 40.91 196.91 40.9 197.74 C41.05 201.21 42.07 203.11 44 206 C43.74 208.34 43.41 210.68 43 213 C43 214.32 43 215.64 43 217 C39.6 216.86 36.21 216.71 32.81 216.56 C31.85 216.52 30.89 216.48 29.9 216.44 C29.44 216.42 29.44 216.42 27.08 216.32 C26.23 216.28 25.37 216.24 24.5 216.21 C21.93 215.99 19.52 215.51 17 215 C14.3 214.91 11.63 214.86 8.94 214.88 C8.23 214.87 7.52 214.87 6.79 214.86 C3.35 214.87 0.31 215.09 -3 216 C-5.81 216.15 -8.62 216.25 -11.44 216.33 C-14 217 -14 217 -17 222 C-18.32 233.55 -19.64 245.1 -21 257 C7.38 257 35.76 257 65 257 C65.33 256.34 65.33 256.34 67 253 C70.91 251.31 74.81 250.64 79 250 C80.34 249.68 81.67 249.36 83 249 C83 248.34 83 247.68 83 247 C84.65 247 86.3 247 88 247 C89.67 241.63 89.67 241.63 90 239 C88.62 237 88.62 237 87 236 C86.67 236.16 86.67 236.16 85 237 C83.46 237.07 81.92 237.08 80.38 237.06 C79.97 237.06 79.97 237.06 77.9 237.04 C77.27 237.02 76.65 237.01 76 237 C76.99 236.34 77.98 235.68 79 235 C78.08 234.97 77.16 234.94 76.21 234.91 C73 234 73 234 71.1 231.06 C70.61 229.86 70.13 228.67 69.62 227.44 C69.12 226.24 68.62 225.04 68.1 223.81 C67.74 222.88 67.37 221.95 67 221 C66.34 221 65.68 221 65 221 C65 219.68 65 218.36 65 217 C64.34 217 63.68 217 63 217 C63.33 216.34 63.66 215.68 64 215 C64.07 213.29 64.08 211.58 64.06 209.88 C64.05 208.96 64.04 208.05 64.04 207.12 C64.02 206.42 64.01 205.72 64 205 C60.99 204.07 60.13 203.96 57 205 C57 204.01 57 203.02 57 202 C55.02 202 53.04 202 51 202 C50.84 201.67 50.84 201.67 50 200 C50.01 200.62 50.02 201.23 50.03 201.86 C50.07 204.66 50.1 207.45 50.12 210.25 C50.14 211.22 50.16 212.19 50.18 213.18 C50.18 214.12 50.19 215.05 50.2 216.02 C50.21 216.87 50.22 217.73 50.23 218.62 C49.98 221.23 49.43 222.81 48 225 C45.37 226.25 45.37 226.25 43 227 C43 227.66 43 228.32 43 229 C42.71 229.07 42.71 229.07 41.27 229.4 C39.02 229.99 36.91 230.73 34.75 231.56 C34.04 231.83 33.34 232.1 32.61 232.38 C32.08 232.58 31.55 232.79 31 233 C31 233.66 31 234.32 31 235 C30.38 235.08 29.76 235.16 29.12 235.25 C27 236 27 236 25.75 237.75 C24.57 241.29 24.51 243.87 26 247.31 C26.16 247.59 26.16 247.59 27 249 C27.66 249 28.32 249 29 249 C29 249.66 29 250.32 29 251 C35.55 254.62 41.58 254.35 48.94 254.19 C50.1 254.17 51.26 254.16 52.46 254.15 C55.3 254.11 58.15 254.06 61 254 C61 254.66 61 255.32 61 256 C56.77 255.86 52.54 255.71 48.31 255.56 C47.11 255.52 45.92 255.48 44.68 255.44 C43.52 255.4 42.37 255.36 41.18 255.32 C40.11 255.28 39.05 255.24 37.95 255.21 C30.68 254.7 30.68 254.7 27.81 251.75 C23.87 245.76 23.88 241.92 25 235 C25.68 234.75 26.36 234.5 27.06 234.25 C30.57 232.76 33.72 230.93 37 229 C37 228.34 37 227.68 37 227 C38.09 226.88 39.19 226.75 40.31 226.62 C44 226 44 226 47 224 C47.51 221.4 47.51 221.4 47.69 218.38 C47.75 217.37 47.82 216.37 47.89 215.34 C47.92 214.57 47.96 213.79 48 213 C48.33 213 48.66 213 49 213 C49.08 211.1 49.14 209.21 49.19 207.31 C49.22 206.26 49.26 205.2 49.29 204.11 C48.97 200.65 47.99 198.82 46 196 C46.66 195.67 47.32 195.34 48 195 C46.19 193 46.19 193 44 191 C43.01 191 42.02 191 41 191 Z M75 193 C75 193.66 75 194.32 75 195 C75.66 194.67 76.32 194.34 77 194 C76.34 193.67 75.68 193.34 75 193 Z M73 195 C73.33 195.66 73.66 196.32 74 197 C74.99 196.67 75.98 196.34 77 196 C75.68 195.67 74.36 195.34 73 195 Z M48 196 C52 197 52 197 52 197 Z M53 196 C57 197 57 197 57 197 Z M71 198 C70.67 198.66 70.34 199.32 70 200 C70.99 200 71.98 200 73 200 C73 199.34 73 198.68 73 198 C72.34 198 71.68 198 71 198 Z M73 223 C73 223.66 73 224.32 73 225 C73.99 225.33 74.98 225.66 76 226 C76.66 225.01 77.32 224.02 78 223 C76.35 223 74.7 223 73 223 Z M89 237 C93.43 239.09 93.43 239.09 96.31 238.62 C96.87 238.42 97.43 238.21 98 238 C97.67 237.01 97.34 236.02 97 235 C93.28 234.8 92.23 234.85 89 237 Z M126 251 C127 253 127 253 127 253 Z M98 253 C98.5 253.33 98.5 253.33 101 255 C101.66 254.34 102.32 253.68 103 253 C101.35 253 99.7 253 98 253 Z " fill="#2861B8" transform="translate(183,199)"/>
<path d="M0 0 C0.16 0.5 0.16 0.5 1 3 C1.66 3 2.32 3 3 3 C3.33 3.99 3.33 3.99 5 9 C5.66 9 6.32 9 7 9 C7.07 9.57 7.07 9.57 7.44 12.44 C8 16 8 16 9 17 C9.21 18.41 9.37 19.83 9.5 21.25 C9.75 23.75 10.02 26.11 10.56 28.56 C11.19 32.07 11.06 35.44 11 39 C11.66 39 12.32 39 13 39 C13.03 40.94 13.05 42.87 13.06 44.81 C13.07 45.89 13.09 46.97 13.1 48.08 C13 51 13 51 12 54 C11.93 56.57 11.91 59.12 11.94 61.69 C11.94 62.39 11.95 63.09 11.95 63.81 C11.96 65.54 11.98 67.27 12 69 C16.29 69 20.58 69 25 69 C25 69.66 25 70.32 25 71 C25.66 71.33 26.32 71.66 27 72 C27.53 81.19 26.45 88.46 23 97 C22.24 96.95 21.48 96.91 20.69 96.86 C14.3 96.64 10.08 97.1 4.45 100.04 C-0.45 101.96 -5.8 101.84 -11 102 C-11 101.34 -11 100.68 -11 100 C-11.99 100 -12.98 100 -14 100 C-12.68 101.65 -11.36 103.3 -10 105 C-17.43 104 -17.43 104 -21 103 C-21 102.34 -21 101.68 -21 101 C-31.23 98.39 -40.75 97.51 -51.25 97.38 C-53.35 97.34 -55.44 97.3 -57.54 97.25 C-59.41 97.21 -61.28 97.19 -63.15 97.16 C-66 97 -66 97 -68 96 C-67.46 96.74 -66.93 97.49 -66.38 98.25 C-56.86 112.71 -54.65 128.27 -52 145 C-56.29 145.99 -60.58 146.98 -65 148 C-64.84 147.01 -64.84 147.01 -64 142 C-65.48 134.74 -69.44 128.03 -72.78 121.48 C-86.62 94.14 -86.62 94.14 -86 85 C-84.64 83.22 -84.64 83.22 -83 82 C-82.34 82 -81.68 82 -81 82 C-81 81.01 -81 80.02 -81 79 C-79.68 79 -78.36 79 -77 79 C-77 78.34 -77 77.68 -77 77 C-75.86 76.88 -74.71 76.76 -73.54 76.63 C-72.04 76.46 -70.55 76.29 -69.06 76.12 C-68.31 76.05 -67.55 75.97 -66.78 75.89 C-64.84 75.66 -62.92 75.34 -61 75 C-60.67 74.34 -60.34 73.68 -60 73 C-57.27 68.14 -57.27 68.14 -55 67 C-54.29 65.01 -53.63 63.01 -53 61 C-52.36 59.65 -51.71 58.31 -51 57 C-50.34 57 -49.68 57 -49 57 C-48.34 55.02 -47.68 53.04 -47 51 C-46.34 51 -45.68 51 -45 51 C-44.71 50.42 -44.42 49.84 -44.12 49.25 C-43.08 47.17 -42.04 45.08 -41 43 C-40.34 43 -39.68 43 -39 43 C-38.34 41.02 -37.68 39.04 -37 37 C-36.34 37 -35.68 37 -35 37 C-34.34 34.36 -33.68 31.72 -33 29 C-32.34 29 -31.68 29 -31 29 C-31 27.68 -31 26.36 -31 25 C-30.34 25 -29.68 25 -29 25 C-29 23.68 -29 22.36 -29 21 C-28.34 21 -27.68 21 -27 21 C-26.77 19.93 -26.55 18.85 -26.31 17.75 C-24.83 13.51 -23.53 12.58 -20 10 C-18.06 7.13 -16.5 4.12 -15 1 C-14.34 1 -13.68 1 -13 1 C-13 0.34 -13 -0.32 -13 -1 C-8.08 -2.2 -4.72 -1.85 0 0 Z M-25 51 C-25.66 52.32 -26.32 53.64 -27 55 C-27.66 55 -28.32 55 -29 55 C-31.19 57.19 -31.19 57.19 -33 60 C-32.83 63.55 -32 65 -30 68 C-27.69 68.33 -25.38 68.66 -23 69 C-23 63.06 -23 57.12 -23 51 C-23.66 51 -24.32 51 -25 51 Z M-49 59 C-49.66 60.09 -50.32 61.19 -51 62.31 C-51.37 62.93 -51.74 63.54 -52.12 64.18 C-53 66 -53 66 -53 69 C-53.66 69 -54.32 69 -55 69 C-55.47 70.09 -55.95 71.19 -56.44 72.31 C-56.57 72.62 -56.57 72.62 -57.25 74.18 C-57.9 75.76 -58.46 77.38 -59 79 C-59.66 79 -60.32 79 -61 79 C-61 79.66 -61 80.32 -61 81 C-61.66 81 -62.32 81 -63 81 C-63 82.32 -63 83.64 -63 85 C-56.16 85.72 -56.16 85.72 -53.02 83.77 C-51.25 82.25 -49.61 80.68 -48 79 C-43.37 74.26 -39.48 73.65 -33 73 C-31.77 67.58 -31.77 67.58 -32.94 64.62 C-33.29 64.09 -33.64 63.55 -34 63 C-34.99 63 -35.98 63 -37 63 C-37 62.34 -37 61.68 -37 61 C-38.98 61 -40.96 61 -43 61 C-43 60.34 -43 59.68 -43 59 C-44.98 59 -46.96 59 -49 59 Z M-63 86 C-63 86.33 -63 86.66 -63 87 C-61.35 87 -59.7 87 -58 87 C-58 86.67 -58 86.34 -58 86 C-59.65 86 -61.3 86 -63 86 Z " fill="#E0E9F7" transform="translate(183,199)"/>
<path d="M0 0 C5.24 0.73 10.47 1.54 15.69 2.44 C16.06 2.5 16.06 2.5 17.95 2.81 C21.59 3.43 24.82 4.06 28 6 C28 6.66 28 7.32 28 8 C28.66 8 29.32 8 30 8 C30 8.66 30 9.32 30 10 C30.66 10 31.32 10 32 10 C32 10.66 32 11.32 32 12 C32.66 12 33.32 12 34 12 C34.33 13.32 34.66 14.64 35 16 C35.99 16 36.98 16 38 16 C40.92 18.41 42.46 20.21 43 24 C43.99 24 44.98 24 46 24 C46.07 24.57 46.07 24.57 46.44 27.44 C47 31 47 31 48 32 C48.07 34.53 48.09 37.03 48.06 39.56 C48.06 40.27 48.05 40.98 48.05 41.72 C48.04 43.48 48.02 45.24 48 47 C49.24 47.45 50.48 47.91 51.75 48.38 C54.59 49.44 57.33 50.55 60 52 C60 52.66 60 53.32 60 54 C60.66 54 61.32 54 62 54 C62 54.66 62 55.32 62 56 C62.66 56 63.32 56 64 56 C64 56.66 64 57.32 64 58 C64.54 58.21 65.07 58.41 65.62 58.62 C68.92 60.53 71.59 63.05 74 66 C74 66.66 74 67.32 74 68 C74.66 68.33 75.32 68.66 76 69 C76.72 70.64 77.39 72.31 78 74 C78.66 74 79.32 74 80 74 C80.33 75.65 80.66 77.3 81 79 C80.34 79 79.68 79 79 79 C76.56 76.25 75.24 73.44 74 70 C73.34 70 72.68 70 72 70 C72 69.34 72 68.68 72 68 C71.34 67.67 70.68 67.34 70 67 C68.49 65.27 67.06 63.49 65.63 61.69 C63.88 59.88 62.3 58.99 60 58 C60 57.34 60 56.68 60 56 C59.34 56 58.68 56 58 56 C58 55.34 58 54.68 58 54 C57.01 53.67 57.01 53.67 52 52 C52 51.34 52 50.68 52 50 C50.02 50 48.04 50 46 50 C46 49.34 46 48.68 46 48 C45.34 48 44.68 48 44 48 C43.67 45.69 43.34 43.38 43 41 C43.99 41.66 44.98 42.32 46 43 C45.34 40.69 44.68 38.38 44 36 C42.68 36 41.36 36 40 36 C40 35.34 40 34.68 40 34 C38.68 34 37.36 34 36 34 C36 33.34 36 32.68 36 32 C32.7 32 29.4 32 26 32 C26 32.66 26 33.32 26 34 C25.34 34 24.68 34 24 34 C24 34.66 24 35.32 24 36 C23.34 36 22.68 36 22 36 C22 37.98 22 39.96 22 42 C21.34 42 20.68 42 20 42 C20 47.94 20 53.88 20 60 C20.66 60 21.32 60 22 60 C22 60.66 22 61.32 22 62 C23.65 62.33 25.3 62.66 27 63 C25.6 82.4 25.6 82.4 23 85 C22.9 87.82 22.86 90.61 22.88 93.44 C22.88 94.25 22.88 95.07 22.88 95.91 C22.92 101.66 23.26 107.29 24 113 C26.97 111.35 29.94 109.7 33 108 C33.99 108.66 34.98 109.32 36 110 C34.68 110 33.36 110 32 110 C32 110.99 32 111.98 32 113 C32.66 113.33 33.32 113.66 34 114 C33.69 115.94 33.69 115.94 33 118 C32.01 118.33 31.02 118.66 30 119 C32.62 120.75 34.04 121.39 37 122 C36.67 122.99 36.34 123.98 36 125 C37.32 125.33 38.64 125.66 40 126 C40 125.34 40 124.68 40 124 C40.76 123.57 41.53 123.13 42.31 122.69 C45.33 120.79 46.27 119.05 48 116 C48.66 116 49.32 116 50 116 C50 115.34 50 114.68 50 114 C50.66 114 51.32 114 52 114 C52 113.34 52 112.68 52 112 C53.64 110.63 55.31 109.31 57 108 C58.35 106.69 59.69 105.35 61 104 C61.72 103.3 62.44 102.6 63.19 101.88 C65 100 65 100 66 98 C66.66 98 67.32 98 68 98 C68 97.01 68 96.02 68 95 C68.99 94.34 69.98 93.68 71 93 C72.28 90.91 72.28 90.91 73.5 88.5 C75.17 85.21 75.83 84.11 79 82 C79.33 82.66 79.66 83.32 80 84 C79.34 84 78.68 84 78 84 C77.89 84.42 77.89 84.42 77.31 86.56 C75.98 90.05 74.38 92.47 72.12 95.39 C71 97 71 97 70 100 C69.34 100 68.68 100 68 100 C68 100.66 68 101.32 68 102 C67.34 102 66.68 102 66 102 C66 102.66 66 103.32 66 104 C64.68 104.33 63.36 104.66 62 105 C62 105.99 62 106.98 62 108 C61.34 108 60.68 108 60 108 C59.67 108.66 59.34 109.32 59 110 C58.02 111.02 57.02 112.02 56 113 C56.66 113.66 57.32 114.32 58 115 C57.67 118.3 57.38 119.62 55 122 C54.01 122 53.02 122 52 122 C51.67 122.99 51.34 123.98 51 125 C48.94 125.69 48.94 125.69 47 126 C46.94 126.47 46.94 126.47 46.62 128.88 C46 132 46 132 44 134 C43.01 133.67 43.01 133.67 38 132 C38.31 134.13 38.62 136.25 38.94 138.38 C39.11 139.56 39.29 140.74 39.46 141.96 C40 145 40 145 41 147 C42.42 147.03 43.83 147.05 45.25 147.06 C45.64 147.07 45.64 147.07 47.64 147.1 C49.91 147 51.83 146.63 54 146 C54 144.68 54 143.36 54 142 C55.98 142 57.96 142 60 142 C60 142.66 60 143.32 60 144 C61.98 144 63.96 144 66 144 C65.67 145.32 65.34 146.64 65 148 C64.34 148 63.68 148 63 148 C63 147.34 63 146.68 63 146 C62.01 146.33 61.02 146.66 60 147 C58.05 146.2 56.49 145.49 55 144 C55 144.99 55 145.98 55 147 C54.34 147.33 53.68 147.66 53 148 C52.38 150.06 52.38 150.06 52 152 C51.34 152 50.68 152 50 152 C50.75 153.94 50.75 153.94 52 156 C53.94 156.62 53.94 156.62 56 157 C56.99 157.66 57.98 158.32 59 159 C61.26 159.2 61.26 159.2 63.69 159.12 C64.5 159.11 65.3 159.09 66.14 159.07 C66.75 159.05 67.37 159.02 68 159 C68 159.33 68 159.66 68 160 C70.31 160 72.62 160 75 160 C75.33 162.64 75.66 165.28 76 168 C74.68 168 73.36 168 72 168 C69.04 168.52 68.19 168.81 66 171 C63.88 171.62 63.88 171.62 62 172 C62.04 171.05 62.08 170.1 62.12 169.12 C62 166 62 166 60 164 C59.34 164.33 58.68 164.66 58 165 C56.46 165.07 54.92 165.08 53.38 165.06 C52.56 165.05 51.74 165.04 50.9 165.04 C50.59 165.03 50.59 165.03 49 165 C48.67 164.01 48.34 163.02 48 162 C47.01 162 46.02 162 45 162 C44.9 161.64 44.9 161.64 44.41 159.85 C44.15 158.93 43.89 158.01 43.62 157.06 C43.37 156.15 43.11 155.23 42.85 154.29 C42 152 42 152 40 151 C40 150.01 40 149.02 40 148 C39.34 148 38.68 148 38 148 C38 146.68 38 145.36 38 144 C37.34 144 36.68 144 36 144 C36.33 140.04 36.66 136.08 37 132 C34.69 132 32.38 132 30 132 C30 131.01 30 130.02 30 129 C29.38 129.19 28.76 129.37 28.12 129.56 C26 130 26 130 24 129 C24.03 130.31 24.07 131.63 24.11 132.98 C24.13 134.72 24.16 136.45 24.19 138.19 C24.21 139.05 24.24 139.92 24.26 140.81 C24.32 145.66 24.3 149.13 21 153 C18.31 153.81 18.31 153.81 16 154 C16 154.66 16 155.32 16 156 C12.91 157.76 11.77 158 8 158 C7.67 158.66 7.34 159.32 7 160 C6.01 160 5.02 160 4 160 C4 160.66 4 161.32 4 162 C3.38 162.16 2.76 162.33 2.12 162.5 C-1.28 164.9 -1.23 168 -2 172 C-1.34 172.33 -0.68 172.66 0 173 C0 173.99 0 174.98 0 176 C0.66 176 1.32 176 2 176 C2 176.66 2 177.32 2 178 C9.27 180.05 16.27 180.17 23.75 180.01 C27.36 179.95 30.53 180.01 34 181 C34 181.66 34 182.32 34 183 C29.79 183.03 25.58 183.05 21.38 183.06 C20.19 183.07 19 183.08 17.77 183.09 C16.62 183.09 15.46 183.09 14.27 183.1 C13.22 183.1 12.16 183.11 11.07 183.11 C7.97 183 5.05 182.58 2 182 C2 181.34 2 180.68 2 180 C1.34 179.34 0.68 178.68 0 178 C-0.66 177.34 -1.32 176.68 -2 176 C-2 175.34 -2 174.68 -2 174 C-2.66 173.67 -3.32 173.34 -4 173 C-3.13 165.38 -3.13 165.38 -2 162 C3.37 158 3.37 158 6 158 C6.33 157.34 6.66 156.68 7 156 C7.99 156 8.98 156 10 156 C10 155.34 10 154.68 10 154 C12.97 153.01 15.94 152.02 19 151 C19.63 145.29 20.12 139.74 20 134 C20.33 134 20.66 134 21 134 C21.2 129.75 20.72 126.88 19 123 C19 122.34 19 121.68 19 121 C16.5 119.37 16.5 119.37 14 118 C14.94 126.07 14.94 126.07 16 130 C16 130.66 16 131.32 16 132 C16.66 132.33 17.32 132.66 18 133 C17.5 136.73 16.96 140.36 16 144 C12.04 144.03 8.08 144.05 4.12 144.06 C3 144.07 1.87 144.08 0.71 144.09 C-0.37 144.09 -1.45 144.09 -2.55 144.1 C-3.05 144.1 -3.05 144.1 -5.57 144.11 C-8 144 -8 144 -10 143 C-12.64 142.9 -15.24 142.86 -17.88 142.88 C-18.6 142.87 -19.32 142.87 -20.06 142.86 C-23.55 142.87 -26.65 143.07 -30 144 C-32.85 144.18 -35.69 144.32 -38.54 144.43 C-41 145 -41 145 -42.34 147.04 C-42.56 147.69 -42.77 148.33 -43 149 C-43.33 149 -43.66 149 -44 149 C-44 147.35 -44 145.7 -44 144 C-44.66 144 -45.32 144 -46 144 C-45.67 143.34 -45.34 142.68 -45 142 C-42.09 141.62 -42.09 141.62 -38.5 141.44 C-32.1 141.1 -32.1 141.1 -31 140 C-29.48 139.93 -27.96 139.92 -26.44 139.94 C-25.61 139.95 -24.78 139.96 -23.93 139.96 C-23.3 139.98 -22.66 139.99 -22 140 C-22 139.34 -22 138.68 -22 138 C-21.07 138.14 -20.13 138.29 -19.17 138.44 C-10.44 139.7 -1.95 140.19 6.88 140.01 C12.82 139.91 12.82 139.91 15 141 C14.62 140.11 14.23 139.22 13.84 138.3 C13.59 137.71 13.59 137.71 12.38 134.75 C11.89 133.59 11.4 132.43 10.9 131.23 C10 128 10 128 10.96 126.12 C12.28 123.43 12.06 121.82 11.72 118.87 C11.62 117.9 11.52 116.93 11.42 115.93 C11.3 114.92 11.18 113.91 11.06 112.88 C10.84 110.87 10.62 108.87 10.41 106.87 C10.31 105.98 10.21 105.1 10.1 104.18 C10 102 10 102 11 100 C11.13 98.25 11.23 96.5 11.31 94.75 C11.94 86.57 13.04 76.96 19 71 C18.01 76.61 17.02 82.22 16 88 C17.32 87.34 18.64 86.68 20 86 C20 84.68 20 83.36 20 82 C20.66 82 21.32 82 22 82 C22.12 80.8 22.25 79.61 22.38 78.38 C22.82 74.72 23.7 71.45 25 68 C23.93 67.88 22.85 67.75 21.75 67.62 C16.06 66.68 16.06 66.68 14 65 C12.5 61.13 11.96 57.74 11.69 53.62 C11.2 48.29 8.75 44.48 6 40 C5.32 38.67 4.65 37.34 4 36 C3.34 36 2.68 36 2 36 C2 35.34 2 34.68 2 34 C-0.64 33.34 -3.28 32.68 -6 32 C-6 31.34 -6 30.68 -6 30 C-6.66 30 -7.32 30 -8 30 C-7.67 28.68 -7.34 27.36 -7 26 C-14.53 26.17 -19.7 27.88 -26 32 C-26 32.66 -26 33.32 -26 34 C-31.57 35.59 -36.21 36.21 -42 36 C-42 35.34 -42 34.68 -42 34 C-43.32 34 -44.64 34 -46 34 C-46 33.34 -46 32.68 -46 32 C-47.98 31.34 -49.96 30.68 -52 30 C-52 29.34 -52 28.68 -52 28 C-52.83 28.01 -53.66 28.02 -54.52 28.04 C-55.61 28.04 -56.69 28.05 -57.81 28.06 C-58.89 28.07 -59.97 28.09 -61.08 28.1 C-64 28 -64 28 -67 27 C-69.34 27.32 -71.67 27.66 -74 28 C-79.82 28.28 -84.4 27.6 -90 26 C-89.01 27.98 -88.02 29.96 -87 32 C-86.67 32 -86.34 32 -86 32 C-85.52 33.75 -85.04 35.5 -84.56 37.25 C-84.3 38.22 -84.03 39.2 -83.75 40.2 C-82.5 44.84 -81.49 49.47 -80.56 54.19 C-79.45 59.81 -78.26 65.41 -77 71 C-76.66 72.67 -76.32 74.33 -76 76 C-85.41 79.26 -85.41 79.26 -90 80 C-90 80.66 -90 81.32 -90 82 C-91.98 82.66 -93.96 83.32 -96 84 C-96 84.66 -96 85.32 -96 86 C-96.97 86.29 -97.94 86.58 -98.94 86.88 C-102 88 -102 88 -103 90 C-103.99 90 -104.98 90 -106 90 C-106 90.66 -106 91.32 -106 92 C-107.98 92.66 -109.96 93.32 -112 94 C-112 94.66 -112 95.32 -112 96 C-113.96 97 -115.91 98 -117.88 99 C-118.97 99.56 -120.06 100.11 -121.18 100.69 C-124 102 -124 102 -126 102 C-126.33 102.66 -126.66 103.32 -127 104 C-127.99 104 -128.98 104 -130 104 C-130.33 104.66 -130.66 105.32 -131 106 C-137.75 110.84 -145.02 111.69 -153.19 110.56 C-153.65 110.47 -153.65 110.47 -156 110 C-156 109.34 -156 108.68 -156 108 C-157.32 108 -158.64 108 -160 108 C-160 107.34 -160 106.68 -160 106 C-160.89 106.1 -161.77 106.21 -162.69 106.31 C-167.1 105.9 -168.1 104.27 -171 101 C-172.96 99.28 -174.98 97.65 -177 96 C-177.16 96.33 -177.16 96.33 -178 98 C-177.34 98.33 -176.68 98.66 -176 99 C-173.71 102.44 -173.82 103.99 -174 108 C-173.34 108.33 -172.68 108.66 -172 109 C-171.28 110.64 -170.61 112.31 -170 114 C-169.34 114 -168.68 114 -168 114 C-168 114.66 -168 115.32 -168 116 C-167.34 116 -166.68 116 -166 116 C-166 116.66 -166 117.32 -166 118 C-165.34 118 -164.68 118 -164 118 C-164 118.66 -164 119.32 -164 120 C-163.34 120 -162.68 120 -162 120 C-161.01 122.64 -160.02 125.28 -159 128 C-159.99 128 -160.98 128 -162 128 C-162.33 127.01 -162.33 127.01 -164 122 C-164.66 122 -165.32 122 -166 122 C-166 121.34 -166 120.68 -166 120 C-166.66 120 -167.32 120 -168 120 C-168 119.34 -168 118.68 -168 118 C-168.66 118 -169.32 118 -170 118 C-170 117.34 -170 116.68 -170 116 C-170.66 116 -171.32 116 -172 116 C-172.29 115.03 -172.58 114.06 -172.88 113.06 C-174 110 -174 110 -176 109 C-176 107.68 -176 106.36 -176 105 C-176.66 104.67 -177.32 104.34 -178 104 C-178.63 101.71 -178.63 101.71 -179.12 98.94 C-179.21 98.48 -179.21 98.48 -179.63 96.15 C-179.75 95.44 -179.88 94.73 -180 94 C-179.34 94 -178.68 94 -178 94 C-177.84 93.67 -177.84 93.67 -177 92 C-174.33 94.06 -171.92 96.08 -169.62 98.56 C-166.36 101.59 -162.63 104 -158 104 C-158 104.66 -158 105.32 -158 106 C-156.68 106 -155.36 106 -154 106 C-154 106.66 -154 107.32 -154 108 C-146.32 108.59 -140.96 107.13 -134 104 C-132.01 103.31 -130.01 102.63 -128 102 C-128 101.34 -128 100.68 -128 100 C-126.68 100 -125.36 100 -124 100 C-124 99.34 -124 98.68 -124 98 C-123.37 97.73 -122.75 97.47 -122.1 97.2 C-121.28 96.84 -120.47 96.49 -119.62 96.12 C-118.81 95.78 -118 95.43 -117.16 95.07 C-115 94 -115 94 -113 92 C-112.36 91.75 -111.72 91.5 -111.06 91.25 C-109 90 -109 90 -107.56 87 C-105.67 83.37 -104.79 83.21 -101 82 C-98.32 81.01 -96.07 80 -94 78 C-92.45 73.42 -92.66 68.62 -94 64 C-94.66 64 -95.32 64 -96 64 C-96 62.68 -96 61.36 -96 60 C-96.66 60 -97.32 60 -98 60 C-98.22 59.43 -98.44 58.86 -98.66 58.27 C-101.09 52.07 -103.79 46.04 -106.61 40.01 C-108.14 36.7 -109.59 33.37 -111 30 C-111.33 30 -111.66 30 -112 30 C-112 28.02 -112 26.04 -112 24 C-112.66 24 -113.32 24 -114 24 C-114 19.38 -114 14.76 -114 10 C-113.34 10 -112.68 10 -112 10 C-112 9.34 -112 8.68 -112 8 C-110.68 8.33 -109.36 8.66 -108 9 C-109.32 9.99 -110.64 10.98 -112 12 C-110.91 19.6 -109.02 26.2 -105.88 33.19 C-105.48 34.09 -105.08 34.99 -104.68 35.92 C-101.85 42.29 -98.79 48.52 -95.62 54.72 C-89.58 66.64 -89.58 66.64 -90.38 71.11 C-91 73 -91 73 -92 75 C-91.31 74.78 -90.63 74.57 -89.92 74.34 C-89.02 74.07 -88.12 73.79 -87.19 73.5 C-86.29 73.22 -85.4 72.94 -84.48 72.66 C-82 72 -82 72 -79 72 C-79.18 71.46 -79.36 70.93 -79.55 70.38 C-81.28 64.98 -82.51 59.58 -83.5 54 C-85.09 45.18 -86.63 37.33 -91.82 29.89 C-93.2 27.69 -94.06 25.42 -95 23 C-90.52 23.07 -86.04 23.16 -81.56 23.26 C-80.04 23.3 -78.52 23.32 -77 23.35 C-56.68 23.66 -56.68 23.66 -48 28 C-48 28.66 -48 29.32 -48 30 C-45.03 30.33 -42.06 30.66 -39 31 C-39.33 30.34 -39.33 30.34 -41 27 C-40.01 27 -39.02 27 -38 27 C-38 27.66 -38 28.32 -38 29 C-35.46 28.57 -32.92 28.13 -30.38 27.69 C-29.66 27.57 -28.95 27.45 -28.21 27.33 C-24.7 26.7 -22.08 26.04 -18.88 24.38 C-15.42 22.72 -13.39 22.85 -9.62 23.31 C-8.57 23.43 -7.51 23.55 -6.41 23.68 C-5.62 23.78 -4.82 23.89 -4 24 C-3.93 23.62 -3.93 23.62 -3.56 21.69 C-3 19 -3 19 -2 15.94 C-0.46 10.77 -0.33 5.36 0 0 Z M2 3 C1.81 4.96 1.62 6.92 1.44 8.88 C1.33 9.97 1.23 11.06 1.12 12.18 C1 15 1 15 2 17 C1.34 17 0.68 17 0 17 C-4.02 23.96 -4.02 23.96 -3.94 27.88 C-3 30 -3 30 0 32 C0.66 31.01 1.32 30.02 2 29 C2.99 28.67 3.98 28.34 5 28 C5.12 27.64 5.12 27.64 5.75 25.81 C7.29 22.35 9.28 20.89 12.19 18.55 C13.95 17.04 15.32 15.5 16.75 13.69 C19 11 19 11 22 10 C22 8.68 22 7.36 22 6 C20.56 5.8 19.13 5.62 17.69 5.44 C16.89 5.33 16.09 5.23 15.26 5.12 C13 5 13 5 10 6 C10 5.34 10 4.68 10 4 C7.36 3.67 4.72 3.34 2 3 Z M-89 76 C-89.33 76.66 -89.66 77.32 -90 78 C-89.34 78 -88.68 78 -88 78 C-88.33 77.34 -88.66 76.68 -89 76 Z M15 97 C15.33 97.99 15.66 98.98 16 100 C16 99.01 16 98.02 16 97 C15.67 97 15.34 97 15 97 Z M14 101 C14 101.99 14 102.98 14 104 C14.99 103.67 15.98 103.34 17 103 C17 102.34 17 101.68 17 101 C16.01 101 15.02 101 14 101 Z M13 104 C14 106 14 106 14 106 Z M18 105 C19 107 19 107 19 107 Z M15 106 C16 108 16 108 16 108 Z M31 114 C30.67 114.66 30.34 115.32 30 116 C30.66 116 31.32 116 32 116 C31.67 115.34 31.34 114.68 31 114 Z M48 120 C48 120.66 48 121.32 48 122 C48.66 121.67 49.32 121.34 50 121 C49.34 120.67 48.68 120.34 48 120 Z M46 122 C46.33 122.66 46.66 123.32 47 124 C47.99 123.67 48.98 123.34 50 123 C48.68 122.67 47.36 122.34 46 122 Z M21 123 C25 124 25 124 25 124 Z M26 123 C30 124 30 124 30 124 Z M44 125 C43.67 125.66 43.34 126.32 43 127 C43.99 127 44.98 127 46 127 C46 126.34 46 125.68 46 125 C45.34 125 44.68 125 44 125 Z M46 150 C46 150.66 46 151.32 46 152 C46.99 152.33 47.98 152.66 49 153 C49.66 152.01 50.32 151.02 51 150 C49.35 150 47.7 150 46 150 Z M62 164 C66.43 166.09 66.43 166.09 69.31 165.62 C69.87 165.42 70.43 165.21 71 165 C70.67 164.01 70.34 163.02 70 162 C66.28 161.8 65.23 161.85 62 164 Z " fill="#2861B8" transform="translate(210,272)"/>
<path d="M0 0 C5.24 0.73 10.47 1.54 15.69 2.44 C16.06 2.5 16.06 2.5 17.95 2.81 C21.59 3.43 24.82 4.06 28 6 C28 6.66 28 7.32 28 8 C28.66 8 29.32 8 30 8 C30 8.66 30 9.32 30 10 C30.66 10 31.32 10 32 10 C32 10.66 32 11.32 32 12 C32.66 12 33.32 12 34 12 C34.33 13.32 34.66 14.64 35 16 C35.99 16 36.98 16 38 16 C40.92 18.41 42.46 20.21 43 24 C43.99 24 44.98 24 46 24 C46.07 24.57 46.07 24.57 46.44 27.44 C47 31 47 31 48 32 C48.07 34.53 48.09 37.03 48.06 39.56 C48.06 40.27 48.05 40.98 48.05 41.72 C48.04 43.48 48.02 45.24 48 47 C49.24 47.45 50.48 47.91 51.75 48.38 C54.59 49.44 57.33 50.55 60 52 C60 52.66 60 53.32 60 54 C60.66 54 61.32 54 62 54 C62 54.66 62 55.32 62 56 C62.66 56 63.32 56 64 56 C64 56.66 64 57.32 64 58 C64.54 58.21 65.07 58.41 65.62 58.62 C68.92 60.53 71.59 63.05 74 66 C74 66.66 74 67.32 74 68 C74.66 68.33 75.32 68.66 76 69 C76.72 70.64 77.39 72.31 78 74 C78.66 74 79.32 74 80 74 C80.33 75.65 80.66 77.3 81 79 C80.34 79 79.68 79 79 79 C76.56 76.25 75.24 73.44 74 70 C73.34 70 72.68 70 72 70 C72 69.34 72 68.68 72 68 C71.34 67.67 70.68 67.34 70 67 C68.49 65.27 67.06 63.49 65.63 61.69 C63.88 59.88 62.3 58.99 60 58 C60 57.34 60 56.68 60 56 C59.34 56 58.68 56 58 56 C58 55.34 58 54.68 58 54 C57.01 53.67 57.01 53.67 52 52 C52 51.34 52 50.68 52 50 C50.02 50 48.04 50 46 50 C46 49.34 46 48.68 46 48 C45.34 48 44.68 48 44 48 C43.67 45.69 43.34 43.38 43 41 C43.99 41.66 44.98 42.32 46 43 C46.79 32.9 41.03 26.41 35 19 C34.4 18.41 33.8 17.82 33.18 17.21 C32 16 32 16 32 14 C31.34 14 30.68 14 30 14 C28.63 12.71 27.29 11.38 26 10 C22.97 11.65 20.77 13.23 18.31 15.69 C17.55 16.45 16.79 17.21 16 18 C15.34 18 14.68 18 14 18 C14 18.66 14 19.32 14 20 C13.34 20 12.68 20 12 20 C12 20.66 12 21.32 12 22 C10.04 23.39 8.04 24.73 6 26 C6.37 24.06 6.37 24.06 7 22 C7.33 21.83 7.33 21.83 9 21 C9.33 20.5 9.33 20.5 11 18 C13 16.33 15 14.67 17 13 C17.66 12.01 18.32 11.02 19 10 C19.99 10 20.98 10 22 10 C22 8.68 22 7.36 22 6 C18.04 6 14.08 6 10 6 C10 5.34 10 4.68 10 4 C9.05 4.02 8.1 4.04 7.12 4.06 C4 4 4 4 2 3 C2 7.62 2 12.24 2 17 C1.34 17 0.68 17 0 17 C-0.06 17.38 -0.06 17.38 -0.38 19.31 C-1 22 -1 22 -3 25 C-2.65 28.46 -1.97 30.05 0 33 C-0.99 32.83 -0.99 32.83 -6 32 C-6 31.34 -6 30.68 -6 30 C-6.66 30 -7.32 30 -8 30 C-7.67 28.68 -7.34 27.36 -7 26 C-14.53 26.17 -19.7 27.88 -26 32 C-26 32.66 -26 33.32 -26 34 C-31.57 35.59 -36.21 36.21 -42 36 C-42 35.34 -42 34.68 -42 34 C-43.32 34 -44.64 34 -46 34 C-46 33.34 -46 32.68 -46 32 C-47.98 31.34 -49.96 30.68 -52 30 C-52 29.34 -52 28.68 -52 28 C-52.83 28.01 -53.66 28.02 -54.52 28.04 C-55.61 28.04 -56.69 28.05 -57.81 28.06 C-58.89 28.07 -59.97 28.09 -61.08 28.1 C-64 28 -64 28 -67 27 C-69.34 27.32 -71.67 27.66 -74 28 C-79.82 28.28 -84.4 27.6 -90 26 C-89.01 27.98 -88.02 29.96 -87 32 C-86.67 32 -86.34 32 -86 32 C-85.52 33.75 -85.04 35.5 -84.56 37.25 C-84.3 38.22 -84.03 39.2 -83.75 40.2 C-82.5 44.84 -81.49 49.47 -80.56 54.19 C-79.45 59.81 -78.26 65.41 -77 71 C-76.66 72.67 -76.32 74.33 -76 76 C-85.41 79.26 -85.41 79.26 -90 80 C-90 80.66 -90 81.32 -90 82 C-91.98 82.66 -93.96 83.32 -96 84 C-96 84.66 -96 85.32 -96 86 C-96.97 86.29 -97.94 86.58 -98.94 86.88 C-102 88 -102 88 -103 90 C-103.99 90 -104.98 90 -106 90 C-106 90.66 -106 91.32 -106 92 C-107.98 92.66 -109.96 93.32 -112 94 C-112 94.66 -112 95.32 -112 96 C-113.96 97 -115.91 98 -117.88 99 C-118.97 99.56 -120.06 100.11 -121.18 100.69 C-124 102 -124 102 -126 102 C-126.33 102.66 -126.66 103.32 -127 104 C-127.99 104 -128.98 104 -130 104 C-130.33 104.66 -130.66 105.32 -131 106 C-137.75 110.84 -145.02 111.69 -153.19 110.56 C-153.65 110.47 -153.65 110.47 -156 110 C-156 109.34 -156 108.68 -156 108 C-157.32 108 -158.64 108 -160 108 C-160 107.34 -160 106.68 -160 106 C-160.89 106.1 -161.77 106.21 -162.69 106.31 C-167.1 105.9 -168.1 104.27 -171 101 C-172.96 99.28 -174.98 97.65 -177 96 C-177.16 96.33 -177.16 96.33 -178 98 C-177.34 98.33 -176.68 98.66 -176 99 C-173.71 102.44 -173.82 103.99 -174 108 C-173.34 108.33 -172.68 108.66 -172 109 C-171.28 110.64 -170.61 112.31 -170 114 C-169.34 114 -168.68 114 -168 114 C-168 114.66 -168 115.32 -168 116 C-167.34 116 -166.68 116 -166 116 C-166 116.66 -166 117.32 -166 118 C-165.34 118 -164.68 118 -164 118 C-164 118.66 -164 119.32 -164 120 C-163.34 120 -162.68 120 -162 120 C-161.01 122.64 -160.02 125.28 -159 128 C-159.99 128 -160.98 128 -162 128 C-162.33 127.01 -162.33 127.01 -164 122 C-164.66 122 -165.32 122 -166 122 C-166 121.34 -166 120.68 -166 120 C-166.66 120 -167.32 120 -168 120 C-168 119.34 -168 118.68 -168 118 C-168.66 118 -169.32 118 -170 118 C-170 117.34 -170 116.68 -170 116 C-170.66 116 -171.32 116 -172 116 C-172.29 115.03 -172.58 114.06 -172.88 113.06 C-174 110 -174 110 -176 109 C-176 107.68 -176 106.36 -176 105 C-176.66 104.67 -177.32 104.34 -178 104 C-178.63 101.71 -178.63 101.71 -179.12 98.94 C-179.21 98.48 -179.21 98.48 -179.63 96.15 C-179.75 95.44 -179.88 94.73 -180 94 C-179.34 94 -178.68 94 -178 94 C-177.84 93.67 -177.84 93.67 -177 92 C-174.33 94.06 -171.92 96.08 -169.62 98.56 C-166.36 101.59 -162.63 104 -158 104 C-158 104.66 -158 105.32 -158 106 C-156.68 106 -155.36 106 -154 106 C-154 106.66 -154 107.32 -154 108 C-146.32 108.59 -140.96 107.13 -134 104 C-132.01 103.31 -130.01 102.63 -128 102 C-128 101.34 -128 100.68 -128 100 C-126.68 100 -125.36 100 -124 100 C-124 99.34 -124 98.68 -124 98 C-123.37 97.73 -122.75 97.47 -122.1 97.2 C-121.28 96.84 -120.47 96.49 -119.62 96.12 C-118.81 95.78 -118 95.43 -117.16 95.07 C-115 94 -115 94 -113 92 C-112.36 91.75 -111.72 91.5 -111.06 91.25 C-109 90 -109 90 -107.56 87 C-105.67 83.37 -104.79 83.21 -101 82 C-98.32 81.01 -96.07 80 -94 78 C-92.45 73.42 -92.66 68.62 -94 64 C-94.66 64 -95.32 64 -96 64 C-96 62.68 -96 61.36 -96 60 C-96.66 60 -97.32 60 -98 60 C-98.22 59.43 -98.44 58.86 -98.66 58.27 C-101.09 52.07 -103.79 46.04 -106.61 40.01 C-108.14 36.7 -109.59 33.37 -111 30 C-111.33 30 -111.66 30 -112 30 C-112 28.02 -112 26.04 -112 24 C-112.66 24 -113.32 24 -114 24 C-114 19.38 -114 14.76 -114 10 C-113.34 10 -112.68 10 -112 10 C-112 9.34 -112 8.68 -112 8 C-110.68 8.33 -109.36 8.66 -108 9 C-109.32 9.99 -110.64 10.98 -112 12 C-110.91 19.6 -109.02 26.2 -105.88 33.19 C-105.48 34.09 -105.08 34.99 -104.68 35.92 C-101.85 42.29 -98.79 48.52 -95.62 54.72 C-89.58 66.64 -89.58 66.64 -90.38 71.11 C-91 73 -91 73 -92 75 C-91.31 74.78 -90.63 74.57 -89.92 74.34 C-89.02 74.07 -88.12 73.79 -87.19 73.5 C-86.29 73.22 -85.4 72.94 -84.48 72.66 C-82 72 -82 72 -79 72 C-79.18 71.46 -79.36 70.93 -79.55 70.38 C-81.28 64.98 -82.51 59.58 -83.5 54 C-85.09 45.18 -86.63 37.33 -91.82 29.89 C-93.2 27.69 -94.06 25.42 -95 23 C-90.52 23.07 -86.04 23.16 -81.56 23.26 C-80.04 23.3 -78.52 23.32 -77 23.35 C-56.68 23.66 -56.68 23.66 -48 28 C-48 28.66 -48 29.32 -48 30 C-45.03 30.33 -42.06 30.66 -39 31 C-39.33 30.34 -39.33 30.34 -41 27 C-40.01 27 -39.02 27 -38 27 C-38 27.66 -38 28.32 -38 29 C-35.46 28.57 -32.92 28.13 -30.38 27.69 C-29.66 27.57 -28.95 27.45 -28.21 27.33 C-24.7 26.7 -22.08 26.04 -18.88 24.38 C-15.42 22.72 -13.39 22.85 -9.62 23.31 C-8.57 23.43 -7.51 23.55 -6.41 23.68 C-5.62 23.78 -4.82 23.89 -4 24 C-3.93 23.62 -3.93 23.62 -3.56 21.69 C-3 19 -3 19 -2 15.94 C-0.46 10.77 -0.33 5.36 0 0 Z M-89 76 C-89.33 76.66 -89.66 77.32 -90 78 C-89.34 78 -88.68 78 -88 78 C-88.33 77.34 -88.66 76.68 -89 76 Z " fill="#2861B8" transform="translate(210,272)"/>
<path d="M0 0 C3.34 0.6 5.54 1.63 8 4 C8 5.32 8 6.64 8 8 C8.66 8 9.32 8 10 8 C10 9.32 10 10.64 10 12 C10.66 12 11.32 12 12 12 C12 13.98 12 15.96 12 18 C12.91 17.77 13.81 17.55 14.75 17.31 C18 17 18 17 20.38 18.31 C22 20 22 20 22 22 C22.66 22.33 23.32 22.66 24 23 C24.3 30.89 24.3 30.89 22 34 C18.78 36.3 15.87 36.26 12 36 C11.67 35.67 11.34 35.34 11 35 C9.45 35.24 7.9 35.48 6.35 35.72 C1.18 36.34 -4.04 36.27 -9.25 36.31 C-9.84 36.33 -9.84 36.33 -12.84 36.4 C-13.97 36.41 -15.1 36.42 -16.27 36.43 C-17.29 36.44 -18.32 36.45 -19.38 36.47 C-22 36 -22 36 -23.87 34.17 C-25.46 31.11 -24.92 29.25 -24 26 C-21.5 23.5 -19.25 22.29 -15.81 21.5 C-15.51 21.42 -15.51 21.42 -14 21 C-13.67 20.34 -13.34 19.68 -13 19 C-10.44 18.38 -10.44 18.38 -8 18 C-8 16.68 -8 15.36 -8 14 C-9 13 -9 13 -12.56 12.94 C-13.13 12.95 -13.13 12.95 -16 13 C-11.18 8.02 -11.18 8.02 -6.88 7.94 C-5.93 7.96 -4.98 7.98 -4 8 C-3.34 6.68 -2.68 5.36 -2 4 C-1.34 4 -0.68 4 0 4 C0 2.68 0 1.36 0 0 Z M17 30 C18 32 18 32 18 32 Z M-11 32 C-10.5 32.33 -10.5 32.33 -8 34 C-7.34 33.34 -6.68 32.68 -6 32 C-7.65 32 -9.3 32 -11 32 Z " fill="#0D3D7A" transform="translate(292,420)"/>
<path d="M0 0 C2.5 1.38 2.5 1.38 5 3 C5 3.66 5 4.32 5 5 C5.66 5 6.32 5 7 5 C20.77 19.85 20.77 19.85 21.16 26.76 C21.1 27.5 21.05 28.24 21 29 C20.34 29 19.68 29 19 29 C19 28.34 19 27.68 19 27 C17.68 27 16.36 27 15 27 C15 26.34 15 25.68 15 25 C13.68 25 12.36 25 11 25 C11 24.34 11 23.68 11 23 C7.7 23 4.4 23 1 23 C1 23.66 1 24.32 1 25 C0.34 25 -0.32 25 -1 25 C-1 25.66 -1 26.32 -1 27 C-1.66 27 -2.32 27 -3 27 C-3 28.98 -3 30.96 -3 33 C-3.66 33 -4.32 33 -5 33 C-5 38.94 -5 44.88 -5 51 C-4.34 51 -3.68 51 -3 51 C-3 51.99 -3 52.98 -3 54 C-2.34 54 -1.68 54 -1 54 C-1 54.99 -1 55.98 -1 57 C-1.99 57 -2.98 57 -4 57 C-4.33 57.66 -4.66 58.32 -5 59 C-5.99 58.34 -6.98 57.68 -8 57 C-8.5 56.83 -8.5 56.83 -11 56 C-12.45 52.14 -13.05 48.72 -13.31 44.62 C-13.8 39.29 -16.25 35.48 -19 31 C-19.68 29.67 -20.35 28.34 -21 27 C-21.66 27 -22.32 27 -23 27 C-23 26.34 -23 25.68 -23 25 C-23.66 24.67 -24.32 24.34 -25 24 C-24.34 22.35 -23.68 20.7 -23 19 C-22.01 19 -21.02 19 -20 19 C-20 18.34 -20 17.68 -20 17 C-15.53 13 -15.53 13 -13 13 C-13 12.34 -13 11.68 -13 11 C-12.34 11 -11.68 11 -11 11 C-11 10.34 -11 9.68 -11 9 C-9.36 7.34 -9.36 7.34 -7.19 5.5 C-6.48 4.89 -5.77 4.28 -5.04 3.66 C-3 2 -3 2 0 0 Z " fill="#E0E9F7" transform="translate(235,281)"/>
<path d="M0 0 C0.16 0.5 0.16 0.5 1 3 C1.66 3 2.32 3 3 3 C3.33 3.99 3.33 3.99 5 9 C5.66 9 6.32 9 7 9 C7.07 9.57 7.07 9.57 7.44 12.44 C8 16 8 16 9 17 C9.21 18.41 9.37 19.83 9.5 21.25 C9.75 23.75 10.02 26.11 10.56 28.56 C11.19 32.07 11.06 35.44 11 39 C11.66 39 12.32 39 13 39 C13.03 40.94 13.05 42.87 13.06 44.81 C13.07 45.89 13.09 46.97 13.1 48.08 C13 51 13 51 12 54 C11.93 56.57 11.91 59.12 11.94 61.69 C11.94 62.39 11.95 63.09 11.95 63.81 C11.96 65.54 11.98 67.27 12 69 C16.29 69 20.58 69 25 69 C25 69.66 25 70.32 25 71 C25.66 71.33 26.32 71.66 27 72 C23.25 73.31 20.18 72.76 16.31 72.12 C15.15 71.94 13.99 71.76 12.8 71.57 C10 71 10 71 9 70 C8.94 68.19 8.94 66.37 8.97 64.56 C8.99 63.43 9 62.29 9.01 61.12 C9.02 60.52 9.02 60.52 9.06 57.44 C9.13 47.08 8.79 37.22 7 27 C6.79 25.66 6.58 24.32 6.38 22.98 C5.21 15.96 3.9 9.42 -1 4 C-4.77 1.49 -6.54 1.37 -11 2 C-13.1 4.11 -14.45 5.78 -16 8.25 C-16.43 8.89 -16.85 9.52 -17.29 10.18 C-18.56 12.1 -19.78 14.04 -21 16 C-21.64 17.03 -22.29 18.05 -22.95 19.11 C-26.07 24.3 -28.78 29.6 -31.38 35.06 C-34.35 41.19 -37.8 45.77 -42.38 50.79 C-42.91 51.52 -43.45 52.25 -44 53 C-43 56 -43 56 -41.15 56.95 C-40.42 57.19 -39.69 57.44 -38.94 57.69 C-38.57 57.81 -38.57 57.81 -36.71 58.45 C-36.15 58.63 -35.58 58.81 -35 59 C-35 58.34 -35 57.68 -35 57 C-32.91 54.79 -30.8 52.65 -28.44 50.73 C-23.4 46.37 -22.29 41.38 -21 35 C-20.67 35 -20.34 35 -20 35 C-20 50.51 -20 66.02 -20 82 C-20.33 81.84 -20.33 81.84 -22 81 C-22.41 78.71 -22.41 78.71 -22.62 75.94 C-22.7 75.02 -22.77 74.1 -22.85 73.15 C-22.9 72.44 -22.95 71.73 -23 71 C-25.81 70.75 -25.81 70.75 -29 71 C-29.44 71.64 -29.88 72.28 -30.34 72.93 C-32.58 75.72 -34.27 75.73 -37.75 76.31 C-44.08 77.7 -46.94 80.13 -51 85 C-55.02 89.13 -58.34 89.58 -63.89 90.02 C-66 90 -66 90 -67 89 C-67.27 84.96 -66.93 82.52 -65 79 C-70.37 79.5 -75.69 80.02 -81 81 C-81 80.34 -81 79.68 -81 79 C-79.68 79 -78.36 79 -77 79 C-77 78.34 -77 77.68 -77 77 C-75.86 76.88 -74.71 76.76 -73.54 76.63 C-72.04 76.46 -70.55 76.29 -69.06 76.12 C-68.31 76.05 -67.55 75.97 -66.78 75.89 C-64.84 75.66 -62.92 75.34 -61 75 C-60.67 74.34 -60.34 73.68 -60 73 C-57.27 68.14 -57.27 68.14 -55 67 C-54.29 65.01 -53.63 63.01 -53 61 C-52.36 59.65 -51.71 58.31 -51 57 C-50.34 57 -49.68 57 -49 57 C-48.34 55.02 -47.68 53.04 -47 51 C-46.34 51 -45.68 51 -45 51 C-44.71 50.42 -44.42 49.84 -44.12 49.25 C-43.08 47.17 -42.04 45.08 -41 43 C-40.34 43 -39.68 43 -39 43 C-38.34 41.02 -37.68 39.04 -37 37 C-36.34 37 -35.68 37 -35 37 C-34.34 34.36 -33.68 31.72 -33 29 C-32.34 29 -31.68 29 -31 29 C-31 27.68 -31 26.36 -31 25 C-30.34 25 -29.68 25 -29 25 C-29 23.68 -29 22.36 -29 21 C-28.34 21 -27.68 21 -27 21 C-26.77 19.93 -26.55 18.85 -26.31 17.75 C-24.83 13.51 -23.53 12.58 -20 10 C-18.06 7.13 -16.5 4.12 -15 1 C-14.34 1 -13.68 1 -13 1 C-13 0.34 -13 -0.32 -13 -1 C-8.08 -2.2 -4.72 -1.85 0 0 Z M-25 51 C-25.66 52.32 -26.32 53.64 -27 55 C-27.66 55 -28.32 55 -29 55 C-31.19 57.19 -31.19 57.19 -33 60 C-32.83 63.55 -32 65 -30 68 C-27.69 68.33 -25.38 68.66 -23 69 C-23 63.06 -23 57.12 -23 51 C-23.66 51 -24.32 51 -25 51 Z M-49 59 C-49.66 60.09 -50.32 61.19 -51 62.31 C-51.37 62.93 -51.74 63.54 -52.12 64.18 C-53 66 -53 66 -53 69 C-53.66 69 -54.32 69 -55 69 C-55.47 70.09 -55.95 71.19 -56.44 72.31 C-56.57 72.62 -56.57 72.62 -57.25 74.18 C-57.9 75.76 -58.46 77.38 -59 79 C-59.66 79 -60.32 79 -61 79 C-61 79.66 -61 80.32 -61 81 C-61.66 81 -62.32 81 -63 81 C-63 82.32 -63 83.64 -63 85 C-56.16 85.72 -56.16 85.72 -53.02 83.77 C-51.25 82.25 -49.61 80.68 -48 79 C-43.37 74.26 -39.48 73.65 -33 73 C-31.77 67.58 -31.77 67.58 -32.94 64.62 C-33.29 64.09 -33.64 63.55 -34 63 C-34.99 63 -35.98 63 -37 63 C-37 62.34 -37 61.68 -37 61 C-38.98 61 -40.96 61 -43 61 C-43 60.34 -43 59.68 -43 59 C-44.98 59 -46.96 59 -49 59 Z M-63 86 C-63 86.33 -63 86.66 -63 87 C-61.35 87 -59.7 87 -58 87 C-58 86.67 -58 86.34 -58 86 C-59.65 86 -61.3 86 -63 86 Z " fill="#2861B8" transform="translate(183,199)"/>
<path d="M0 0 C3.5 1.19 3.5 1.19 5.5 3.19 C6.68 3.52 7.85 3.85 9.06 4.19 C10.2 4.52 11.33 4.85 12.5 5.19 C12.83 5.85 13.16 6.51 13.5 7.19 C16.06 7.81 16.06 7.81 18.5 8.19 C18.5 8.85 18.5 9.51 18.5 10.19 C19.16 10.52 19.82 10.85 20.5 11.19 C21.84 13.18 23.18 15.18 24.5 17.19 C26.25 19.06 26.25 19.06 27.5 20.19 C25.94 26.56 23.3 32.27 20.5 38.19 C19.84 38.19 19.18 38.19 18.5 38.19 C18.25 39.1 18 40 17.75 40.94 C16.45 44.31 15.28 45.93 12.5 48.19 C11.84 48.19 11.18 48.19 10.5 48.19 C10.17 49.51 9.84 50.83 9.5 52.19 C6.5 51.19 6.5 51.19 4.5 49.19 C4 46.85 4 46.85 3.65 43.96 C3.52 42.93 3.39 41.9 3.26 40.84 C3.13 39.76 3.01 38.68 2.88 37.56 C2.74 36.47 2.61 35.39 2.47 34.27 C2.14 31.57 1.82 28.88 1.5 26.19 C1.17 26.19 0.84 26.19 0.5 26.19 C0.37 23.42 0.27 20.65 0.19 17.88 C0.15 17.09 0.1 16.3 0.06 15.49 C0.01 13.28 0.02 11.35 0.5 9.19 C3.02 7.14 3.02 7.14 5.5 6.19 C4.08 4.15 2.95 3.28 0.52 2.77 C-1.48 2.52 -3.49 2.35 -5.5 2.19 C-5.5 1.53 -5.5 0.87 -5.5 0.19 C-3.5 -0.81 -3.5 -0.81 0 0 Z M4.5 8.19 C4.5 9.18 4.5 10.17 4.5 11.19 C5.49 11.52 6.48 11.85 7.5 12.19 C7.42 12.49 7.42 12.49 7 14 C5.87 18.94 7.3 23.38 8.5 28.19 C9.99 28.52 9.99 28.52 17.5 30.19 C17.5 31.51 17.5 32.83 17.5 34.19 C18.16 34.19 18.82 34.19 19.5 34.19 C20.54 32.28 21.55 30.36 22.56 28.44 C23.13 27.37 23.7 26.3 24.29 25.2 C25.5 22.19 25.5 22.19 25.33 19.96 C23.98 17.08 21.87 15.27 19.5 13.19 C18.51 12.86 17.52 12.53 16.5 12.19 C16.5 11.53 16.5 10.87 16.5 10.19 C15.18 10.19 13.86 10.19 12.5 10.19 C12.5 9.53 12.5 8.87 12.5 8.19 C9.86 8.19 7.22 8.19 4.5 8.19 Z " fill="#2861B8" transform="translate(243.5,331.8125)"/>
<path d="M0 0 C1.27 3.59 0.69 5.84 -0.38 9.44 C-1.88 15.02 -2.41 20.31 -2.76 26.07 C-3.06 29.67 -3.7 32.63 -5 36 C-5.33 36.17 -5.33 36.17 -7 37 C-7 38.32 -7 39.64 -7 41 C-7.66 41 -8.32 41 -9 41 C-9 41.66 -9 42.32 -9 43 C-9.66 43 -10.32 43 -11 43 C-11 43.66 -11 44.32 -11 45 C-11.66 45 -12.32 45 -13 45 C-13.33 45.66 -13.66 46.32 -14 47 C-15.64 47.72 -17.31 48.39 -19 49 C-19 49.66 -19 50.32 -19 51 C-24.89 53.74 -30.8 56.06 -37 58 C-36.67 58.33 -36.34 58.66 -36 59 C-34.95 59 -33.9 59 -32.81 59 C-29 59 -29 59 -26.22 59.49 C-17.29 60.9 -7.92 60.25 1 59 C0.94 58.2 0.88 57.4 0.82 56.57 C0.53 49.04 1.28 42.66 3.31 35.44 C3.42 35.06 3.42 35.06 3.96 33.13 C5.19 29 6.73 25.68 9 22 C9 21.01 9 20.02 9 19 C10.32 18.34 11.64 17.68 13 17 C13 18.32 13 19.64 13 21 C12.34 21 11.68 21 11 21 C11 22.32 11 23.64 11 25 C10.34 25 9.68 25 9 25 C9 26.98 9 28.96 9 31 C8.34 31 7.68 31 7 31 C7.02 31.97 7.04 32.94 7.06 33.94 C7 37 7 37 6 38 C4.98 44.96 4.86 51.98 5 59 C4.34 59 3.68 59 3 59 C2.67 59.99 2.34 60.98 2 62 C-1.48 63.16 -4.19 63.11 -7.86 63.1 C-8.52 63.1 -9.18 63.09 -9.86 63.09 C-11.97 63.09 -14.08 63.08 -16.19 63.06 C-17.62 63.06 -19.05 63.05 -20.48 63.05 C-23.99 63.04 -27.49 63.02 -31 63 C-31 62.34 -31 61.68 -31 61 C-35.62 61 -40.24 61 -45 61 C-44.67 59.68 -44.34 58.36 -44 57 C-37.25 55 -37.25 55 -35 55 C-35 54.34 -35 53.68 -35 53 C-33.02 53 -31.04 53 -29 53 C-29 52.34 -29 51.68 -29 51 C-28.63 50.95 -28.63 50.95 -26.75 50.69 C-23.78 49.94 -22.36 48.9 -20 47 C-19.28 46.65 -18.56 46.3 -17.81 45.94 C-16 45 -16 45 -15 43 C-14.34 43 -13.68 43 -13 43 C-13 42.34 -13 41.68 -13 41 C-12.34 41 -11.68 41 -11 41 C-11 40.34 -11 39.68 -11 39 C-10.34 39 -9.68 39 -9 39 C-8.94 38.6 -8.94 38.6 -8.63 36.58 C-5.03 12.97 -5.03 12.97 -2.5 5.31 C-2.24 4.52 -1.98 3.74 -1.72 2.93 C-1 1 -1 1 0 0 Z " fill="#2861B8" transform="translate(97,395)"/>
<path d="M0 0 C0.33 0.17 0.33 0.17 2 1 C3.7 10.61 2.65 20.33 2 30 C1.01 30 0.02 30 -1 30 C-1.78 26.18 -1.93 23.72 -1 20 C-0.78 17.59 -0.59 15.17 -0.44 12.75 C-0.4 12.12 -0.4 12.12 -0.18 8.92 C-0.12 7.96 -0.06 6.99 0 6 C-0.41 6.43 -0.82 6.87 -1.24 7.31 C-1.78 7.87 -2.32 8.43 -2.88 9 C-3.41 9.56 -3.94 10.11 -4.49 10.69 C-6 12 -6 12 -8 12 C-8 12.66 -8 13.32 -8 14 C-8.99 14 -9.98 14 -11 14 C-11.33 14.66 -11.66 15.32 -12 16 C-13.32 16 -14.64 16 -16 16 C-16.33 16.66 -16.66 17.32 -17 18 C-17.99 18 -18.98 18 -20 18 C-20.33 18.66 -20.66 19.32 -21 20 C-24.63 20 -28.26 20 -32 20 C-32 20.66 -32 21.32 -32 22 C-32.57 22.04 -33.14 22.07 -33.72 22.11 C-37.71 22.45 -41.16 22.88 -44.81 24.56 C-48 26 -48 26 -52 26 C-52.33 26.66 -52.66 27.32 -53 28 C-53.99 28 -54.98 28 -56 28 C-56 28.66 -56 29.32 -56 30 C-56.66 30 -57.32 30 -58 30 C-58.66 31.98 -59.32 33.96 -60 36 C-60.66 36 -61.32 36 -62 36 C-62 36.66 -62 37.32 -62 38 C-64.64 38 -67.28 38 -70 38 C-70 37.34 -70 36.68 -70 36 C-71.32 36 -72.64 36 -74 36 C-74.33 34.35 -74.66 32.7 -75 31 C-69.12 33.75 -69.12 33.75 -68 36 C-66.68 36 -65.36 36 -64 36 C-64 35.34 -64 34.68 -64 34 C-63.34 34 -62.68 34 -62 34 C-61.34 32.02 -60.68 30.04 -60 28 C-59.34 28 -58.68 28 -58 28 C-57.67 27.34 -57.34 26.68 -57 26 C-56.01 26 -55.02 26 -54 26 C-54 25.34 -54 24.68 -54 24 C-50.38 22.68 -47.9 22 -44 22 C-43.67 21.34 -43.34 20.68 -43 20 C-40.69 20 -38.38 20 -36 20 C-36 19.34 -36 18.68 -36 18 C-31.71 18 -27.42 18 -23 18 C-23 17.34 -23 16.68 -23 16 C-21.35 16 -19.7 16 -18 16 C-17.67 15.34 -17.34 14.68 -17 14 C-16.01 14 -15.02 14 -14 14 C-14 13.34 -14 12.68 -14 12 C-12.68 12 -11.36 12 -10 12 C-10 11.34 -10 10.68 -10 10 C-8.06 8.42 -6.01 7.05 -3.95 5.63 C-1.88 3.9 -1.02 2.48 0 0 Z " fill="#2861B8" transform="translate(126,370)"/>
<path d="M0 0 C0.82 0.17 0.82 0.17 5 1 C5 1.66 5 2.32 5 3 C2 5 2 5 -1 5 C-0.67 5.99 -0.34 6.98 0 8 C0.99 8 1.98 8 3 8 C3 9.32 3 10.64 3 12 C4.5 13.75 4.5 13.75 6 15 C3.69 15 1.38 15 -1 15 C-0.67 16.32 -0.34 17.64 0 19 C-1.07 19.1 -2.14 19.21 -3.25 19.31 C-6.86 19.97 -8.36 20.57 -11 23 C-10.67 23.66 -10.34 24.32 -10 25 C-11.32 25 -12.64 25 -14 25 C-14 25.99 -14 26.98 -14 28 C-15.98 28 -17.96 28 -20 28 C-21.45 25.09 -20.71 23.1 -20 20 C-17.5 17.5 -15.25 16.29 -11.81 15.5 C-11.21 15.33 -10.62 15.17 -10 15 C-9.67 14.34 -9.34 13.68 -9 13 C-6.44 12.38 -6.44 12.38 -4 12 C-4 10.68 -4 9.36 -4 8 C-5 7 -5 7 -8.56 6.94 C-9.13 6.95 -9.13 6.95 -12 7 C-7.18 2.02 -7.18 2.02 -2.88 1.94 C-1.93 1.96 -0.98 1.98 0 2 C0 1.34 0 0.68 0 0 Z " fill="#0D3D7A" transform="translate(288,426)"/>
<path d="M0 0 C0.99 0.33 1.98 0.66 3 1 C2.67 1.99 2.34 2.98 2 4 C1.35 4.12 0.7 4.24 0.02 4.37 C-4.79 5.29 -9.39 6.3 -14 8 C-14 8.66 -14 9.32 -14 10 C-14.66 10 -15.32 10 -16 10 C-16.33 10.66 -16.66 11.32 -17 12 C-45.71 12 -74.42 12 -104 12 C-104 11.34 -104 10.68 -104 10 C-103.47 10 -103.47 10 -100.76 9.99 C-90.7 9.95 -80.63 9.89 -70.57 9.82 C-65.39 9.78 -60.22 9.74 -55.04 9.73 C-50.05 9.71 -45.06 9.68 -40.07 9.63 C-38.16 9.62 -36.26 9.61 -34.35 9.61 C-31.68 9.61 -29.02 9.58 -26.35 9.55 C-25.56 9.55 -24.77 9.56 -23.96 9.56 C-20.41 9.49 -18.44 9.36 -15.65 7.08 C-15.38 6.73 -15.38 6.73 -14 5 C-9.1 1.88 -5.63 1.71 0 2 C0 1.34 0 0.68 0 0 Z " fill="#2861B8" transform="translate(266,446)"/>
<path d="M0 0 C0.33 0.66 0.66 1.32 1 2 C2.65 1.67 4.3 1.34 6 1 C6.33 1.99 6.66 2.98 7 4 C7.66 4.66 8.32 5.32 9 6 C8.67 6.17 8.67 6.17 7 7 C7.33 8.32 7.66 9.64 8 11 C-0.58 11 -9.16 11 -18 11 C-18.33 10.34 -18.66 9.68 -19 9 C-17.35 9 -15.7 9 -14 9 C-14 8.01 -14 7.02 -14 6 C-13.01 5.67 -12.02 5.34 -11 5 C-11.33 4.34 -11.66 3.68 -12 3 C-7.9 0.01 -5.02 -0.3 0 0 Z M-7 7 C-6.5 7.33 -6.5 7.33 -4 9 C-3.34 8.34 -2.68 7.68 -2 7 C-3.65 7 -5.3 7 -7 7 Z " fill="#2861B8" transform="translate(288,445)"/>
<path d="M0 0 C3.5 1.19 3.5 1.19 5.5 3.19 C6.68 3.52 7.85 3.85 9.06 4.19 C10.2 4.52 11.33 4.85 12.5 5.19 C12.83 5.85 13.16 6.51 13.5 7.19 C16.06 7.81 16.06 7.81 18.5 8.19 C18.5 8.85 18.5 9.51 18.5 10.19 C19.16 10.52 19.82 10.85 20.5 11.19 C21.98 13.44 23.21 15.81 24.5 18.19 C21.14 16.75 18.91 14.94 16.5 12.19 C16.5 11.53 16.5 10.87 16.5 10.19 C15.18 10.19 13.86 10.19 12.5 10.19 C12.5 9.53 12.5 8.87 12.5 8.19 C9.86 8.52 7.22 8.85 4.5 9.19 C4.97 9.54 5.45 9.89 5.94 10.25 C8.18 13.03 8.17 15.7 8.5 19.19 C7.84 19.19 7.18 19.19 6.5 19.19 C6.83 20.18 7.16 21.17 7.5 22.19 C3.5 22.19 3.5 22.19 1.78 21 C-0.35 17.98 -0.02 15.1 0.06 11.51 C0.5 9.19 0.5 9.19 3 7.06 C3.82 6.77 4.65 6.49 5.5 6.19 C4.08 4.15 2.95 3.28 0.52 2.77 C-1.48 2.52 -3.49 2.35 -5.5 2.19 C-5.5 1.53 -5.5 0.87 -5.5 0.19 C-3.5 -0.81 -3.5 -0.81 0 0 Z " fill="#2861B8" transform="translate(243.5,331.8125)"/>
<path d="M0 0 C0.66 0.33 0.66 0.33 4 2 C4 2.66 4 3.32 4 4 C4.66 4 5.32 4 6 4 C6.34 5.73 6.67 7.46 7 9.19 C7.19 10.15 7.37 11.11 7.56 12.11 C7.97 14.79 8.08 17.29 8 20 C8.66 20 9.32 20 10 20 C10.14 21.13 10.29 22.27 10.44 23.44 C11 27 11 27 12 28 C12.35 30.33 12.68 32.66 13 35 C13.19 35.74 13.37 36.49 13.56 37.25 C14 39 14 39 14 42 C13.34 42 12.68 42 12 42 C10.51 39.52 9.96 37.71 9.56 34.81 C9.01 31.05 8 27.88 6.75 24.32 C5.79 21.36 5.17 18.38 4.54 15.34 C3.35 10.14 1.69 5.06 0 0 Z " fill="#2861B8" transform="translate(140,348)"/>
<path d="M0 0 C3.12 1.38 3.12 1.38 5 3 C5 3.66 5 4.32 5 5 C5.66 5.33 6.32 5.66 7 6 C6.01 6 5.02 6 4 6 C4 5.34 4 4.68 4 4 C2.68 4 1.36 4 0 4 C0 3.34 0 2.68 0 2 C-3.3 2 -6.6 2 -10 2 C-10 2.66 -10 3.32 -10 4 C-10.66 4 -11.32 4 -12 4 C-12 4.66 -12 5.32 -12 6 C-12.66 6 -13.32 6 -14 6 C-14 7.98 -14 9.96 -14 12 C-14.66 12 -15.32 12 -16 12 C-16 17.94 -16 23.88 -16 30 C-15.34 30 -14.68 30 -14 30 C-14 30.66 -14 31.32 -14 32 C-15.32 31.67 -16.64 31.34 -18 31 C-19.19 26.83 -18.99 22.91 -18.75 18.62 C-18.74 18.25 -18.74 18.25 -18.67 16.38 C-18.34 10.45 -16.91 6.2 -12.94 1.62 C-8.65 -0.75 -4.79 -0.67 0 0 Z " fill="#2861B8" transform="translate(246,302)"/>
<path d="M0 0 C1.32 0.33 2.64 0.66 4 1 C4.14 1.91 4.29 2.81 4.44 3.75 C4.86 6.21 5.35 8.59 6 11 C5.34 10.67 4.68 10.34 4 10 C4.31 10.58 4.62 11.15 4.94 11.75 C6 14 6 14 7 18 C4.69 16.35 2.38 14.7 0 13 C-0.66 13.66 -1.32 14.32 -2 15 C-4.12 14.62 -4.12 14.62 -6 14 C-5.67 13.01 -5.34 12.02 -5 11 C-1.94 9.81 -1.94 9.81 1 9 C0.5 8.55 0.01 8.09 -0.5 7.62 C-2 6 -2 6 -2 4 C-1.34 4 -0.68 4 0 4 C0 2.68 0 1.36 0 0 Z " fill="#2861B8" transform="translate(292,420)"/>
<path d="M0 0 C6.57 6.16 7.68 13.29 8 22 C8.82 22.33 8.82 22.33 13 24 C12.67 24.99 12.34 25.98 12 27 C11.01 26.34 10.02 25.68 9 25 C8.01 24.67 7.02 24.34 6 24 C4.53 20.09 3.92 16.52 3.56 12.38 C3.21 8.54 2.18 6.22 0 3 C0 2.01 0 1.02 0 0 Z " fill="#2861B8" transform="translate(218,313)"/>
<path d="M0 0 C0.41 0.05 0.41 0.05 2.48 0.31 C2.79 0.35 2.79 0.35 4.38 0.56 C4.38 1.55 4.38 2.54 4.38 3.56 C3.75 3.48 3.12 3.39 2.48 3.31 C2.07 3.26 2.07 3.26 0 3 C-0.41 2.95 -0.41 2.95 -2.46 2.68 C-4.62 2.56 -4.62 2.56 -6.62 3.56 C-6.62 2.57 -6.62 1.58 -6.62 0.56 C-4.1 -0.7 -2.77 -0.36 0 0 Z " fill="#2861B8" transform="translate(283.625,415.4375)"/>
<path d="M0 0 C1 4 1 4 1 4 Z " fill="#2861B8" transform="translate(234,410)"/>
<path d="M0 0 C0.99 0.33 1.98 0.66 3 1 C2.01 1 1.02 1 0 1 C0 0.67 0 0.34 0 0 Z " fill="#2861B8" transform="translate(245,337)"/>
<path d="M0 0 C0.66 0.66 1.32 1.32 2 2 C1.34 2 0.68 2 0 2 C0 1.34 0 0.68 0 0 Z " fill="#2861B8" transform="translate(138,346)"/>
<path d="" fill="#2861B8" transform="translate(0,0)"/>
<path d="" fill="#2861B8" transform="translate(0,0)"/>
<path d="" fill="#2861B8" transform="translate(0,0)"/>
<path d="" fill="#2861B8" transform="translate(0,0)"/>
<path d="" fill="#2861B8" transform="translate(0,0)"/>
<path d="" fill="#2861B8" transform="translate(0,0)"/>
<path d="" fill="#2861B8" transform="translate(0,0)"/>
<path d="" fill="#2861B8" transform="translate(0,0)"/>
<path d="" fill="#2861B8" transform="translate(0,0)"/>
<path d="" fill="#2861B8" transform="translate(0,0)"/>
<path d="" fill="#2861B8" transform="translate(0,0)"/>
<path d="" fill="#2861B8" transform="translate(0,0)"/>
<path d="" fill="#2861B8" transform="translate(0,0)"/>
<path d="" fill="#2861B8" transform="translate(0,0)"/>
<path d="" fill="#2861B8" transform="translate(0,0)"/>
<path d="" fill="#2861B8" transform="translate(0,0)"/>
<path d="" fill="#2861B8" transform="translate(0,0)"/>
<path d="" fill="#2861B8" transform="translate(0,0)"/>
<path d="" fill="#2861B8" transform="translate(0,0)"/>
<path d="" fill="#2861B8" transform="translate(0,0)"/>
<path d="" fill="#2861B8" transform="translate(0,0)"/>
<path d="" fill="#2861B8" transform="translate(0,0)"/>
<path d="" fill="#2861B8" transform="translate(0,0)"/>
<path d="" fill="#2861B8" transform="translate(0,0)"/>
<path d="" fill="#2861B8" transform="translate(0,0)"/>
<path d="" fill="#2861B8" transform="translate(0,0)"/>
<path d="" fill="#2861B8" transform="translate(0,0)"/>
<path d="" fill="#2861B8" transform="translate(0,0)"/>
<path d="" fill="#2861B8" transform="translate(0,0)"/>
<path d="" fill="#2861B8" transform="translate(0,0)"/>
<path d="" fill="#2861B8" transform="translate(0,0)"/>
<path d="" fill="#2861B8" transform="translate(0,0)"/>
<path d="" fill="#2861B8" transform="translate(0,0)"/>
<path d="" fill="#2861B8" transform="translate(0,0)"/>
<path d="" fill="#2861B8" transform="translate(0,0)"/>
<path d="" fill="#2861B8" transform="translate(0,0)"/>
<path d="" fill="#2861B8" transform="translate(0,0)"/>
<path d="" fill="#2861B8" transform="translate(0,0)"/>
<path d="" fill="#2861B8" transform="translate(0,0)"/>
<path d="" fill="#2861B8" transform="translate(0,0)"/>
<path d="" fill="#2861B8" transform="translate(0,0)"/>
<path d="" fill="#2861B8" transform="translate(0,0)"/>
<path d="" fill="#2861B8" transform="translate(0,0)"/>
<path d="" fill="#2861B8" transform="translate(0,0)"/>
<path d="" fill="#2861B8" transform="translate(0,0)"/>
<path d="" fill="#2861B8" transform="translate(0,0)"/>
</svg>
