<?xml version="1.0" encoding="UTF-8"?>
<!-- Generator: visioncortex VTracer 0.6.12 -->
<svg version="1.1" xmlns="http://www.w3.org/2000/svg" viewBox="0 0 960 958" role="img" aria-label="La Casa del Acroyoga">
<path d="M0,0 L4,2 L10,13 L19,29 L22,35 L22,37 L24,37 L30,48 L39,64 L52,86 L54,93 L56,93 L63,106 L63,109 L65,109 L71,120 L79,134 L87,148 L93,158 L99,169 L108,185 L115,196 L118,202 L118,205 L120,205 L126,216 L135,232 L144,247 L149,256 L149,259 L151,259 L154,265 L154,268 L136,268 L126,249 L116,232 L108,218 L108,216 L106,216 L103,209 L94,194 L86,179 L86,177 L84,177 L74,158 L61,136 L55,125 L45,107 L40,100 L33,86 L24,71 L17,59 L11,48 L6,39 L6,37 L4,37 L2,30 L0,30 L-2,35 L-6,43 L-13,55 L-16,60 L-24,73 L-25,77 L-27,77 L-29,83 L-37,97 L-40,103 L-42,103 L-44,108 L-49,118 L-55,128 L-56,131 L-58,131 L-59,137 L-61,137 L-63,143 L-70,155 L-73,160 L-81,174 L-85,179 L-89,190 L-93,195 L-96,199 L-98,205 L-100,205 L-102,211 L-106,219 L-111,227 L-113,228 L-119,239 L-123,246 L-125,246 L-126,251 L-128,251 L-131,260 L-135,267 L-151,267 L-149,262 L-137,241 L-132,233 L-126,222 L-120,212 L-119,207 L-114,199 L-112,199 L-110,194 L-101,179 L-99,172 L-92,160 L-85,150 L-81,141 L-79,141 L-76,132 L-74,130 L-71,123 L-63,109 L-62,107 L-60,107 L-58,101 L-54,96 L-51,88 L-49,85 L-47,85 L-46,80 L-39,69 L-31,53 L-29,53 L-27,46 L-19,33 L-6,9 Z " fill="#3995C6" transform="translate(479,117)"/>
<path d="M0,0 L17,0 L23,9 L33,27 L41,41 L48,52 L54,63 L67,87 L73,97 L85,118 L97,139 L100,144 L100,147 L102,147 L108,158 L120,179 L136,207 L140,214 L140,217 L142,217 L149,230 L152,235 L152,237 L154,237 L156,231 L162,221 L175,198 L186,179 L187,177 L189,177 L190,172 L194,165 L196,165 L199,156 L203,149 L205,149 L207,142 L213,132 L219,121 L221,121 L222,116 L225,111 L227,107 L229,106 L232,99 L234,95 L236,95 L238,90 L243,79 L245,79 L247,74 L252,66 L258,53 L260,53 L263,44 L266,43 L268,38 L273,28 L276,24 L279,19 L284,9 L286,4 L289,0 L304,0 L304,4 L294,20 L290,29 L288,29 L286,35 L278,49 L276,55 L273,58 L264,74 L256,87 L255,88 L254,95 L250,100 L247,105 L246,109 L244,109 L244,111 L242,112 L240,118 L233,128 L230,135 L229,137 L227,137 L225,142 L221,149 L220,153 L218,153 L215,162 L209,171 L201,187 L196,195 L194,195 L192,201 L188,209 L186,209 L184,216 L175,230 L172,237 L171,239 L169,239 L167,245 L164,251 L162,251 L161,257 L159,260 L157,260 L155,266 L152,267 L144,254 L138,243 L132,233 L132,231 L130,231 L126,222 L118,208 L110,194 L97,172 L84,149 L74,132 L68,121 L59,106 L53,95 L41,74 L33,60 L20,37 L11,21 L4,9 L4,7 L2,7 Z " fill="#3894C5" transform="translate(327,557)"/>
<path d="M0,0 L3,1 L15,22 L28,45 L32,53 L40,65 L45,75 L49,81 L55,92 L62,104 L73,124 L80,135 L86,147 L89,151 L96,165 L105,179 L111,190 L126,217 L131,225 L131,228 L113,228 L108,219 L100,204 L94,194 L88,183 L88,181 L86,181 L79,167 L75,160 L65,143 L55,125 L45,108 L32,85 L22,67 L13,52 L7,41 L7,39 L5,39 L2,34 L2,31 L-2,35 L-3,39 L-5,39 L-7,45 L-12,55 L-14,55 L-16,60 L-23,73 L-25,73 L-26,78 L-32,88 L-42,107 L-43,109 L-45,109 L-47,115 L-52,122 L-56,131 L-58,132 L-63,142 L-66,147 L-70,157 L-73,161 L-75,161 L-76,166 L-79,171 L-81,171 L-84,180 L-90,192 L-92,192 L-93,197 L-95,197 L-97,203 L-101,211 L-103,211 L-105,216 L-111,228 L-129,228 L-128,223 L-125,221 L-123,215 L-121,215 L-119,210 L-113,199 L-108,191 L-104,181 L-102,178 L-100,178 L-97,169 L-89,155 L-87,155 L-85,148 L-79,139 L-73,127 L-70,122 L-68,122 L-65,113 L-61,108 L-58,101 L-56,101 L-55,96 L-50,87 L-48,87 L-46,80 L-40,70 L-34,59 L-30,53 L-28,48 L-17,29 L-10,17 L-8,17 L-7,11 Z " fill="#3A96C6" transform="translate(479,157)"/>
<path d="M0,0 L18,0 L23,8 L23,11 L25,11 L38,35 L46,48 L52,59 L63,78 L63,81 L65,81 L75,99 L81,110 L88,122 L88,125 L90,125 L103,148 L103,151 L105,151 L111,162 L120,178 L120,181 L122,181 L128,192 L130,197 L132,197 L135,190 L141,181 L144,174 L147,169 L149,169 L150,165 L155,155 L157,155 L159,148 L167,134 L172,125 L174,125 L176,118 L186,101 L188,97 L190,96 L193,89 L196,83 L198,82 L201,75 L206,66 L209,65 L212,55 L214,51 L216,51 L217,47 L220,45 L223,37 L225,36 L232,22 L235,17 L241,7 L243,1 L245,0 L261,0 L260,5 L255,14 L251,19 L249,19 L248,24 L240,37 L239,41 L237,41 L236,47 L227,63 L225,63 L223,68 L219,75 L217,75 L215,82 L208,96 L204,103 L195,119 L190,127 L187,132 L178,148 L172,159 L170,163 L168,163 L166,169 L163,173 L162,177 L160,177 L158,182 L154,190 L148,200 L139,216 L132,229 L130,229 L126,221 L126,219 L124,219 L116,204 L107,188 L96,169 L94,166 L94,163 L92,163 L88,155 L80,141 L80,139 L78,139 L70,123 L62,110 L52,92 L40,71 L26,47 L17,31 L11,22 L5,10 L0,2 Z " fill="#3995C6" transform="translate(349,557)"/>
<path d="M0,0 L18,0 L23,8 L23,11 L25,11 L32,24 L46,48 L57,68 L64,81 L64,83 L66,83 L79,107 L84,115 L100,143 L104,150 L104,153 L106,153 L107,155 L109,155 L110,153 L112,153 L113,148 L120,136 L133,113 L148,87 L153,79 L159,68 L168,52 L173,43 L175,43 L176,39 L180,31 L182,31 L183,25 L187,21 L188,17 L191,14 L194,5 L196,5 L198,0 L215,0 L214,4 L209,15 L207,15 L205,21 L203,23 L200,30 L193,41 L190,47 L188,47 L187,52 L179,67 L176,71 L174,71 L173,76 L171,82 L169,83 L167,88 L159,100 L154,110 L147,123 L143,127 L140,134 L133,146 L127,157 L121,167 L116,176 L109,188 L106,187 L100,176 L93,164 L87,153 L76,134 L71,125 L71,123 L69,123 L62,109 L59,104 L48,85 L38,67 L28,51 L23,41 L18,34 L12,22 L6,12 L3,7 L0,2 Z " fill="#3A96C6" transform="translate(372,557)"/>
<path d="M0,0 L3,1 L10,14 L10,17 L12,17 L18,28 L24,39 L25,43 L27,43 L39,65 L47,79 L57,96 L66,112 L72,123 L78,133 L93,159 L103,177 L108,185 L108,188 L90,188 L84,177 L69,150 L61,136 L53,122 L45,108 L37,94 L24,71 L24,69 L22,69 L15,55 L9,45 L3,35 L2,31 L0,31 L-1,35 L-7,45 L-16,60 L-19,66 L-28,83 L-30,83 L-32,88 L-40,102 L-42,107 L-49,117 L-54,126 L-57,133 L-64,143 L-67,150 L-77,168 L-80,173 L-82,173 L-82,177 L-84,177 L-86,182 L-87,184 L-89,184 L-89,188 L-106,188 L-105,184 L-99,173 L-91,159 L-89,158 L-85,149 L-84,147 L-82,147 L-79,138 L-73,128 L-67,117 L-64,114 L-61,106 L-53,92 L-47,82 L-45,82 L-44,77 L-30,52 L-27,47 L-25,47 L-22,38 L-16,28 L-13,23 L-1,1 Z " fill="#3A96C6" transform="translate(479,197)"/>
<path d="M0,0 L14,0 L20,14 L23,19 L32,39 L43,62 L59,96 L63,104 L63,106 L47,106 L42,93 L37,83 L35,78 L-21,77 L-23,83 L-28,94 L-31,101 L-33,106 L-48,106 L-45,97 L-40,87 L-33,73 L-29,63 L-22,49 L-18,39 L-14,30 L-5,11 L-1,4 Z " fill="#104FA8" transform="translate(872,422)"/>
<path d="M0,0 L14,0 L18,10 L24,22 L28,32 L36,48 L41,60 L45,67 L55,88 L55,92 L57,92 L62,104 L62,106 L47,106 L39,88 L35,80 L35,77 L-22,77 L-23,84 L-28,93 L-31,100 L-34,106 L-48,106 L-47,100 L-39,84 L-32,69 L-24,51 L-21,44 L-19,44 L-18,38 L-14,31 L-12,26 L-8,18 L-4,8 Z " fill="#104FA7" transform="translate(73,422)"/>
<path d="M0,0 L22,0 L30,1 L42,6 L52,12 L60,20 L64,27 L66,37 L51,37 L49,27 L47,27 L46,23 L42,21 L35,17 L29,14 L24,13 L-1,13 L-13,17 L-21,23 L-27,30 L-31,43 L-31,66 L-28,75 L-21,85 L-15,90 L-12,92 L2,95 L19,95 L30,93 L40,87 L45,81 L49,75 L52,67 L53,60 L11,60 L11,48 L67,48 L67,107 L57,107 L56,93 L56,80 L54,80 L53,86 L46,95 L36,102 L22,108 L-5,108 L-6,107 L-16,105 L-26,99 L-34,92 L-40,82 L-43,75 L-43,33 L-40,25 L-33,15 L-31,15 L-31,13 L-21,6 L-8,2 Z " fill="#114FA6" transform="translate(754,421)"/>
<path d="M0,0 L22,0 L38,4 L52,12 L60,22 L64,30 L66,39 L66,43 L52,43 L48,30 L39,20 L31,16 L23,13 L-1,13 L-11,17 L-19,21 L-26,29 L-30,38 L-31,43 L-31,62 L-29,72 L-25,80 L-17,89 L-6,94 L-2,95 L28,95 L28,93 L38,89 L43,85 L49,75 L52,66 L66,66 L64,77 L58,88 L50,97 L38,104 L23,108 L-4,108 L-18,104 L-18,102 L-24,100 L-30,96 L-38,86 L-44,75 L-46,65 L-46,43 L-42,29 L-35,17 L-33,17 L-32,14 L-30,14 L-30,12 L-19,5 L-12,3 Z " fill="#114FA7" transform="translate(182,421)"/>
<path d="M0,0 L2,1 L-5,15 L-8,18 L-11,25 L-13,25 L-16,34 L-24,48 L-26,51 L-28,51 L-31,60 L-35,67 L-37,67 L-39,73 L-42,79 L-44,79 L-46,86 L-49,90 L-50,93 L-52,93 L-54,99 L-59,107 L-66,121 L-68,121 L-70,127 L-75,137 L-77,137 L-79,143 L-82,149 L-84,149 L-86,155 L-96,172 L-104,186 L-110,196 L-116,207 L-117,209 L-119,209 L-125,199 L-129,191 L-129,189 L-131,189 L-138,175 L-152,151 L-165,128 L-169,121 L-169,119 L-171,119 L-178,105 L-189,86 L-201,65 L-209,51 L-223,27 L-228,18 L-227,12 L-224,15 L-213,35 L-203,52 L-195,66 L-185,84 L-177,97 L-171,108 L-171,111 L-169,111 L-163,122 L-157,132 L-157,135 L-155,135 L-151,143 L-143,157 L-135,171 L-126,187 L-125,191 L-123,191 L-119,199 L-119,201 L-117,201 L-115,195 L-104,176 L-98,165 L-93,157 L-89,149 L-87,149 L-86,144 L-81,135 L-79,135 L-77,128 L-69,115 L-63,104 L-60,99 L-51,83 L-46,75 L-42,68 L-37,59 L-33,49 L-29,44 L-24,35 L-22,35 L-20,29 L-13,17 L-12,13 L-10,13 L-9,7 L-5,3 L-5,6 L-1,5 Z " fill="#D8F2F9" transform="translate(598,585)"/>
<path d="M0,0 L71,0 L83,5 L92,12 L95,16 L95,20 L97,20 L98,23 L98,32 L83,32 L81,22 L77,17 L71,14 L65,13 L14,12 L14,32 L0,32 Z " fill="#1452A9" transform="translate(259,422)"/>
<path d="M0,0 L22,0 L30,1 L42,6 L52,12 L60,20 L66,31 L66,33 L50,33 L46,25 L38,19 L36,18 L36,16 L31,16 L24,13 L0,13 L-10,16 L-18,21 L-21,22 L-23,26 L-27,33 L-42,33 L-39,24 L-32,15 L-24,8 L-16,4 Z " fill="#1350A7" transform="translate(410,421)"/>
<path d="M0,0 L22,0 L37,3 L50,11 L57,17 L61,22 L63,27 L65,29 L65,33 L50,33 L46,27 L46,25 L44,25 L39,20 L28,14 L22,13 L0,13 L-13,17 L-21,23 L-26,29 L-27,33 L-43,33 L-42,29 L-38,21 L-33,15 L-31,15 L-31,13 L-22,7 L-12,3 L-8,3 L-8,1 Z " fill="#1450A8" transform="translate(634,421)"/>
<path d="M0,0 L15,0 L24,10 L29,13 L42,16 L65,16 L76,12 L84,6 L89,0 L104,0 L102,6 L95,15 L87,21 L75,27 L66,29 L37,29 L36,28 L26,26 L15,20 L9,15 L1,4 Z " fill="#124EA7" transform="translate(593,500)"/>
<path d="M0,0 L14,0 L20,7 L25,11 L35,15 L42,16 L62,16 L71,14 L79,10 L86,4 L88,0 L104,0 L102,5 L95,14 L87,21 L75,26 L67,29 L36,29 L23,25 L18,22 L14,20 L14,18 L10,16 L4,9 L0,2 Z " fill="#124EA6" transform="translate(370,500)"/>
<path d="M0,0 L2,0 L13,24 L17,34 L21,42 L22,47 L-21,47 L-18,38 L-10,22 L-6,12 Z " fill="#F1F7FA" transform="translate(79,440)"/>
<path d="M0,0 L3,1 L13,24 L19,37 L22,43 L22,47 L-19,47 L-19,41 L-16,36 L-12,26 L-5,12 L-1,2 Z " fill="#F1F7FA" transform="translate(878,440)"/>
<path d="M0,0 L17,0 L24,9 L32,20 L39,30 L39,32 L23,32 L13,19 L6,9 L2,3 L0,2 Z " fill="#1651A5" transform="translate(479,422)"/>
<path d="M0,0 L17,0 L15,4 L8,13 L0,24 L-4,29 L-5,32 L-22,32 L-21,28 L-19,28 L-17,23 L-8,11 L-2,2 L0,2 Z " fill="#1853A5" transform="translate(571,422)"/>
<path d="M0,0 L14,0 L19,3 L22,10 L22,16 L18,25 L15,26 L0,26 Z " fill="#ECF5F9" transform="translate(580,464)"/>
<path d="M0,0 L14,0 L14,29 L0,29 Z " fill="#1A55A9" transform="translate(259,499)"/>
<path d="M0,0 L14,0 L15,22 L18,26 L18,28 L3,28 L0,22 Z " fill="#134EA3" transform="translate(339,500)"/>
<path d="M0,0 L13,0 L13,28 L0,28 Z " fill="#0D4AA1" transform="translate(527,500)"/>
<path d="M0,0 L2,1 L-5,15 L-8,18 L-11,25 L-13,25 L-16,34 L-24,48 L-27,51 L-28,48 L-30,49 L-34,56 L-36,57 L-34,52 L-32,47 L-29,44 L-24,35 L-22,35 L-20,29 L-13,17 L-12,13 L-10,13 L-9,7 L-5,3 L-5,6 L-1,5 Z " fill="#C5ECF2" transform="translate(598,585)"/>
<path d="M0,0 L4,2 L8,13 L12,22 L12,26 L9,26 L6,20 L-5,20 L-7,26 L-9,26 L-8,18 L-6,18 L-4,8 Z " fill="#6987B1" transform="translate(338,464)"/>
<path d="M0,0 L14,0 L19,3 L22,10 L22,16 L18,25 L15,26 L0,26 Z M3,3 L3,23 L14,23 L18,19 L18,7 L14,3 Z " fill="#4A6997" transform="translate(580,464)"/>
<path d="M0,0 L4,4 L8,14 L11,22 L11,26 L8,25 L6,19 L-6,19 L-7,24 L-8,26 L-10,26 L-9,20 L-4,7 Z " fill="#6582AD" transform="translate(445,464)"/>
<path d="M0,0 L3,0 L9,15 L12,21 L12,25 L9,25 L7,19 L-5,18 L-7,25 L-9,25 L-8,19 L-1,1 Z " fill="#6282AB" transform="translate(521,465)"/>
<path d="M0,0 L8,0 L11,1 L12,5 L-1,4 L1,10 L10,13 L13,16 L13,22 L8,26 L-2,26 L-5,23 L-5,20 L-1,22 L8,22 L8,17 L-2,13 L-4,10 L-4,4 Z " fill="#4B6997" transform="translate(480,464)"/>
<path d="M0,0 L15,0 L16,3 L2,3 L2,12 L14,12 L14,14 L3,14 L3,23 L15,23 L16,26 L0,26 Z " fill="#446594" transform="translate(623,464)"/>
<path d="M0,0 L8,0 L12,2 L12,5 L8,4 L-1,4 L-4,7 L-5,10 L-5,17 L-2,21 L-2,23 L12,22 L12,25 L10,26 L-2,26 L-9,18 L-9,10 L-6,4 Z " fill="#4C6897" transform="translate(404,464)"/>
</svg>
