<?xml version="1.0" encoding="UTF-8"?>
<!-- Generator: visioncortex VTracer 0.6.12 -->
<svg version="1.1" xmlns="http://www.w3.org/2000/svg" viewBox="0 0 352 498" preserveAspectRatio="xMidYMid meet">
<path d="M0 0 C10.3 0.45 19.08 2.69 28 8 C28.16 8.33 28.16 8.33 29 10 C30.32 10 31.64 10 33 10 C33 10.66 33 11.32 33 12 C33.62 12.14 34.24 12.29 34.88 12.44 C37 13 37 13 39 14 C39 14.66 39 15.32 39 16 C40.98 16.66 42.96 17.32 45 18 C45 18.66 45 19.32 45 20 C45.66 20 46.32 20 47 20 C47 20.66 47 21.32 47 22 C47.58 22.27 48.16 22.54 48.75 22.81 C53.17 25.15 56.08 27.93 59 32 C59 32.66 59 33.32 59 34 C59.66 34 60.32 34 61 34 C63.49 36.49 63.94 38.68 65 42 C65.64 43.35 66.29 44.69 67 46 C67.66 46 68.32 46 69 46 C73 51.41 73 51.41 73 54 C73.66 54 74.32 54 75 54 C75.13 54.4 75.13 54.4 75.81 56.45 C78.12 62.74 79.83 67 85.93 70.11 C86.61 70.4 87.3 70.7 88 71 C88.68 71.31 89.37 71.63 90.07 71.95 C91.7 72.68 93.35 73.35 95 74 C95 74.66 95 75.32 95 76 C95.66 76 96.32 76 97 76 C97 76.66 97 77.32 97 78 C97.66 78.33 98.32 78.66 99 79 C99.99 80.72 100.92 82.48 101.81 84.25 C104.11 88.57 106.33 91.71 110 95 C110.91 96.05 111.81 97.11 112.69 98.19 C115 101 115 101 117 103 C117.33 103.66 117.66 104.32 118 105 C118.99 105.33 119.98 105.66 121 106 C122.81 108.64 123.98 110.95 125 114 C125.66 114 126.32 114 127 114 C127.66 115.98 128.32 117.96 129 120 C129.66 120 130.32 120 131 120 C132 121.96 133 123.91 134 125.88 C134.56 126.97 135.11 128.06 135.69 129.18 C137 132 137 132 137 134 C137.66 134 138.32 134 139 134 C139.66 135.98 140.32 137.96 141 140 C141.66 140 142.32 140 143 140 C143 141.32 143 142.64 143 144 C143.66 144 144.32 144 145 144 C145.66 145.98 146.32 147.96 147 150 C147.66 150 148.32 150 149 150 C149 146.7 149 143.4 149 140 C149.66 140 150.32 140 151 140 C151.33 139.34 151.66 138.68 152 138 C154.31 137.27 156.65 136.6 159 136 C159 135.34 159 134.68 159 134 C163.88 130.65 168.62 128.81 174.5 128.25 C175.42 128.15 176.34 128.05 177.28 127.95 C180.31 128.01 182.27 128.72 185 130 C185.64 130.29 186.28 130.58 186.94 130.88 C189.75 132.41 192.36 134.2 195 136 C195.33 134.68 195.66 133.36 196 132 C199.06 131.5 199.06 131.5 203 132 C205.97 134.26 208.15 136.76 210 140 C209.94 143.5 209.94 143.5 209 146 C208.34 146 207.68 146 207 146 C207 146.66 207 147.32 207 148 C206.34 148 205.68 148 205 148 C204.73 148.64 204.46 149.28 204.19 149.94 C203 152 203 152 200 153 C199.67 154.65 199.34 156.3 199 158 C198.34 158 197.68 158 197 158 C197.1 159.07 197.21 160.14 197.31 161.25 C197 165 197 165 194.62 167.25 C193.76 167.83 192.89 168.4 192 169 C191.34 169.99 190.68 170.98 190 172 C186.69 173.14 183.36 173.97 179.97 174.84 C177 176 177 176 175.59 178.13 C175.4 178.75 175.2 179.36 175 180 C174.34 180 173.68 180 173 180 C173.05 180.76 173.09 181.52 173.14 182.31 C173.39 189.33 172.91 194.99 169 201 C168.34 201.33 167.68 201.66 167 202 C165.87 204.06 165.87 204.06 165 206 C164.34 206 163.68 206 163 206 C163 206.66 163 207.32 163 208 C162.34 208 161.68 208 161 208 C160.67 208.66 160.34 209.32 160 210 C158.44 211.07 158.44 211.07 156.56 212.12 C156.25 212.3 156.25 212.3 154.69 213.2 C153 214 153 214 151 214 C150.67 214.66 150.34 215.32 150 216 C147.75 216.82 147.75 216.82 145 217.56 C140.09 218.91 140.09 218.91 139 220 C137 220.04 135 220.04 133 220 C133 220.66 133 221.32 133 222 C129.04 222 125.08 222 121 222 C120.67 222.66 120.34 223.32 120 224 C113.97 224.02 107.94 224.04 101.9 224.05 C99.85 224.06 97.8 224.07 95.75 224.08 C92.8 224.09 89.85 224.09 86.89 224.1 C85.98 224.1 85.06 224.11 84.12 224.11 C79.92 224.11 76.11 223.96 72 223 C70.41 222.89 68.82 222.82 67.23 222.79 C66.34 222.76 65.45 222.73 64.54 222.7 C62.69 222.65 60.85 222.61 59.01 222.57 C52.4 222.34 44.91 221.91 40 217 C39.67 217.99 39.34 218.98 39 220 C31.96 220.99 25.34 220.91 18.25 220.5 C8.98 220.02 -0.11 220.04 -9.36 220.77 C-13.79 221.08 -16.96 221.16 -21 219 C-21 218.01 -21 217.02 -21 216 C-20.34 216 -19.68 216 -19 216 C-18.67 215.34 -18.34 214.68 -18 214 C-15.03 214 -12.06 214 -9 214 C-9 213.34 -9 212.68 -9 212 C-7.68 212 -6.36 212 -5 212 C-5 211.34 -5 210.68 -5 210 C-3.89 209.71 -2.77 209.42 -1.62 209.12 C2 208 2 208 4 206 C4.99 206 5.98 206 7 206 C7 205.34 7 204.68 7 204 C7.66 204 8.32 204 9 204 C9 202.68 9 201.36 9 200 C9.66 200 10.32 200 11 200 C11 198.68 11 197.36 11 196 C11.66 196 12.32 196 13 196 C12.96 195.15 12.92 194.31 12.88 193.44 C13 190 13 190 14.06 186.88 C15.36 181.49 14.85 176.45 14 171 C13.67 170.67 13.34 170.34 13 170 C12.91 167.26 12.88 164.55 12.9 161.81 C12.9 160.99 12.91 160.17 12.91 159.32 C12.91 156.7 12.92 154.07 12.94 151.44 C12.94 149.66 12.95 147.88 12.95 146.1 C12.96 141.74 12.98 137.37 13 133 C13.66 133 14.32 133 15 133 C15.01 133.38 15.01 133.38 15.08 135.32 C15.19 138.84 15.32 142.36 15.44 145.88 C15.48 147.08 15.52 148.28 15.56 149.52 C15.77 155.69 16.09 161.79 16.8 167.92 C16.99 169.94 17 171.97 17 174 C17.66 174 18.32 174 19 174 C19.03 177.92 19.05 181.83 19.06 185.75 C19.07 186.86 19.08 187.97 19.09 189.12 C19.09 190.19 19.09 191.26 19.1 192.36 C19.1 193.34 19.11 194.33 19.11 195.34 C19.01 197.77 18.84 199.73 18 202 C15.6 203.63 15.6 203.63 12.62 205.12 C9.62 206.66 6.81 208.13 4 210 C3.01 210 2.02 210 1 210 C1 210.66 1 211.32 1 212 C-0.32 212 -1.64 212 -3 212 C-3.33 212.66 -3.66 213.32 -4 214 C-4.99 214 -5.98 214 -7 214 C-7.33 214.66 -7.66 215.32 -8 216 C-9.65 216 -11.3 216 -13 216 C-13 216.66 -13 217.32 -13 218 C-12.43 217.97 -11.85 217.94 -11.26 217.91 C4.95 217.06 20.8 216.93 37 218 C36.67 216.02 36.34 214.04 36 212 C36.66 212 37.32 212 38 212 C37.72 211.11 37.45 210.23 37.16 209.32 C33.23 195.89 32.55 183.33 33.73 169.4 C34.84 155.61 32.83 144.53 27 132 C27.66 132 28.32 132 29 132 C29 132.66 29 133.32 29 134 C29.66 134 30.32 134 31 134 C31 134.66 31 135.32 31 136 C31.66 136.33 32.32 136.66 33 137 C33.82 139.25 33.82 139.25 34.56 142 C35.91 146.91 35.91 146.91 37 148 C37.05 149.38 37.04 150.77 36.99 152.16 C36.98 152.59 36.98 152.59 36.94 154.76 C36.9 156.55 36.85 158.35 36.79 160.15 C36.68 166.33 37.67 171.28 40 177 C48.22 173.13 53.63 164.1 59 157 C58.23 155.1 57.46 153.21 56.69 151.31 C56.26 150.26 55.83 149.2 55.39 148.11 C54 145 54 145 52.33 142.23 C51 140 51 140 51 138 C50.34 137.67 49.68 137.34 49 137 C49 136.01 49 135.02 49 134 C48.34 133.67 47.68 133.34 47 133 C47 132.01 47 131.02 47 130 C46.34 130 45.68 130 45 130 C44.76 129.49 44.52 128.98 44.27 128.46 C42.6 125.04 40.92 121.76 38.75 118.62 C37 116 37 116 37 114 C35.02 114 33.04 114 31 114 C31 114.66 31 115.32 31 116 C28.36 116 25.72 116 23 116 C23 116.66 23 117.32 23 118 C22.45 118.23 21.89 118.46 21.32 118.7 C15.33 121.4 15.33 121.4 13.5 124.75 C13.33 125.49 13.17 126.24 13 127 C12.01 127 11.02 127 10 127 C9.49 121.66 10.87 119.26 14 115 C14.16 114.5 14.16 114.5 15 112 C16.94 109.81 16.94 109.81 19 108 C19.66 108 20.32 108 21 108 C21 107.34 21 106.68 21 106 C21.66 106 22.32 106 23 106 C23 104.68 23 103.36 23 102 C21.02 101.34 19.04 100.68 17 100 C17 99.34 17 98.68 17 98 C15.68 98 14.36 98 13 98 C13 97.34 13 96.68 13 96 C12.45 95.89 11.9 95.78 11.33 95.66 C8.6 94.89 6.27 93.73 3.75 92.44 C2.86 91.98 1.97 91.53 1.05 91.06 C0.71 90.88 0.71 90.88 -1 90 C-1 89.34 -1 88.68 -1 88 C-2.32 88 -3.64 88 -5 88 C-5 87.34 -5 86.68 -5 86 C-6.32 86 -7.64 86 -9 86 C-9 85.34 -9 84.68 -9 84 C-9.66 84 -10.32 84 -11 84 C-11 83.34 -11 82.68 -11 82 C-12.32 82 -13.64 82 -15 82 C-15 81.34 -15 80.68 -15 80 C-15.95 79.75 -16.9 79.5 -17.88 79.25 C-21 78 -21 78 -22.38 75.88 C-22.58 75.26 -22.79 74.64 -23 74 C-23.66 74 -24.32 74 -25 74 C-26.44 71.81 -26.44 71.81 -28 69 C-28.28 68.56 -28.28 68.56 -29.69 66.31 C-31 64 -31 64 -31 62 C-30.34 62 -29.68 62 -29 62 C-28.9 61.22 -28.79 60.43 -28.69 59.62 C-26.02 45.56 -26.02 45.56 -21 42 C-20.34 42 -19.68 42 -19 42 C-19 41.34 -19 40.68 -19 40 C-13.61 37.73 -8.74 37.8 -3 38 C-3 37.34 -3 36.68 -3 36 C-4.32 35.34 -5.64 34.68 -7 34 C-7 33.34 -7 32.68 -7 32 C-7.66 31.67 -8.32 31.34 -9 31 C-9.29 30.01 -9.58 29.02 -9.88 28 C-10.25 27.01 -10.62 26.02 -11 25 C-13.12 24.12 -13.12 24.12 -15 24 C-15 23.34 -15 22.68 -15 22 C-16.65 22 -18.3 22 -20 22 C-20 21.34 -20 20.68 -20 20 C-21.11 20.02 -22.23 20.04 -23.38 20.06 C-27 20 -27 20 -29 19 C-28.96 19.78 -28.92 20.57 -28.88 21.38 C-29 24 -29 24 -31 26 C-33.69 26.27 -36.29 26.09 -39 26 C-39 25.34 -39 24.68 -39 24 C-40.32 24 -41.64 24 -43 24 C-43 23.34 -43 22.68 -43 22 C-44.98 22 -46.96 22 -49 22 C-49 20.68 -49 19.36 -49 18 C-49.66 17.67 -50.32 17.34 -51 17 C-50.67 15.68 -50.34 14.36 -50 13 C-49.67 13.99 -49.34 14.98 -49 16 C-48.34 16.33 -47.68 16.66 -47 17 C-46.67 17.66 -46.34 18.32 -46 19 C-45.01 18.67 -44.02 18.34 -43 18 C-42.67 18.99 -42.34 19.98 -42 21 C-40.35 21.33 -38.7 21.66 -37 22 C-37 22.66 -37 23.32 -37 24 C-32.75 22.39 -32.65 21.42 -30 17 C-25.71 17.33 -21.42 17.66 -17 18 C-17 18.66 -17 19.32 -17 20 C-15.68 20 -14.36 20 -13 20 C-13 20.66 -13 21.32 -13 22 C-12.34 22 -11.68 22 -11 22 C-11.9 15.48 -11.9 15.48 -12.56 12.44 C-13.07 9.59 -13.07 6.89 -13 4 C-13.99 4 -14.98 4 -16 4 C-16 3.34 -16 2.68 -16 2 C-14.82 2.02 -13.65 2.04 -12.44 2.06 C-8.55 2.06 -4.83 1.7 -1 1 C-0.67 0.67 -0.34 0.34 0 0 Z M-8 4 C-7.67 5.98 -7.34 7.96 -7 10 C-6.34 10 -5.68 10 -5 10 C-4.9 10.87 -4.79 11.73 -4.69 12.62 C-3.97 16.17 -2.73 18.84 -1 22 C-0.34 22 0.32 22 1 22 C1 22.66 1 23.32 1 24 C6.41 28 6.41 28 9 28 C9 28.66 9 29.32 9 30 C9.3 30.14 9.3 30.14 10.81 30.88 C13 32 13 32 16 34 C17.99 34.39 19.99 34.73 22 35 C21.67 35.99 21.34 36.98 21 38 C23.91 39.26 25.8 40 29 40 C29 40.66 29 41.32 29 42 C29.66 42 30.32 42 31 42 C31 42.66 31 43.32 31 44 C32.64 45.62 32.64 45.62 34.81 47.44 C38.88 50.86 38.88 50.86 40.57 52.72 C42 54 42 54 45 54 C45.33 54.99 45.66 55.98 46 57 C47.65 57.33 49.3 57.66 51 58 C51 58.66 51 59.32 51 60 C52.24 60.43 53.47 60.87 54.75 61.31 C57.96 62.5 60.26 63.95 63 66 C64.32 66 65.64 66 67 66 C67 66.66 67 67.32 67 68 C72.41 72 72.41 72 75 72 C75.33 73.32 75.66 74.64 76 76 C76.99 76 77.98 76 79 76 C79.26 76.55 79.51 77.1 79.77 77.67 C81.19 80.37 82.86 82.77 84.62 85.25 C85.26 86.14 85.89 87.03 86.54 87.95 C87.02 88.63 87.5 89.3 88 90 C88.33 89.34 88.66 88.68 89 88 C89.66 88 90.32 88 91 88 C91.33 87.5 91.33 87.5 93 85 C96.62 84.81 96.62 84.81 100 85 C96.38 78.68 93.95 75.32 87 73 C86.32 72.48 85.64 71.97 84.94 71.44 C82.43 69.58 80.01 68.79 77 68 C76.67 68.16 76.67 68.16 75 69 C75.08 68.25 75.15 67.5 75.23 66.73 C75 64 75 64 73.39 62.02 C72.68 61.43 71.98 60.85 71.25 60.25 C70.55 59.66 69.86 59.06 69.14 58.45 C67.03 57.02 65.49 56.43 63 56 C63 55.34 63 54.68 63 54 C62.34 54 61.68 54 61 54 C61 53.34 61 52.68 61 52 C58 50 58 50 55 50 C55 49.34 55 48.68 55 48 C53.91 47.34 52.81 46.68 51.69 46 C51.07 45.63 50.46 45.26 49.82 44.88 C48 44 48 44 45 44 C45 43.34 45 42.68 45 42 C44.34 42 43.68 42 43 42 C43 41.34 43 40.68 43 40 C42.34 40 41.68 40 41 40 C41 39.34 41 38.68 41 38 C40.34 38 39.68 38 39 38 C39 37.34 39 36.68 39 36 C38.34 36 37.68 36 37 36 C37 35.34 37 34.68 37 34 C36.34 34 35.68 34 35 34 C35 33.34 35 32.68 35 32 C34.34 32 33.68 32 33 32 C33 31.34 33 30.68 33 30 C32.34 30 31.68 30 31 30 C31 29.01 31 28.02 31 27 C30.34 27 29.68 27 29 27 C29 26.01 29 25.02 29 24 C28.34 24 27.68 24 27 24 C27 23.01 27 22.02 27 21 C25.68 20.67 24.36 20.34 23 20 C23 19.34 23 18.68 23 18 C22.34 18 21.68 18 21 18 C21 17.01 21 16.02 21 15 C21.66 14.67 22.32 14.34 23 14 C23.29 14.64 23.58 15.28 23.88 15.94 C25 18 25 18 27 19 C27.75 16.88 27.75 16.88 28 14 C25.54 9.09 23.12 6.9 18 5 C9.94 2.68 0.06 1.31 -8 4 Z M49 26 C48.67 26.17 48.67 26.17 47 27 C47 29.31 47 31.62 47 34 C46.34 34 45.68 34 45 34 C44 37 44 37 45 40 C46.67 40.04 48.33 40.04 50 40 C50.33 39.67 50.66 39.34 51 39 C53.67 38.86 56.32 38.96 59 39 C59 38.01 59 37.02 59 36 C58.34 36 57.68 36 57 36 C56.86 35.38 56.71 34.76 56.56 34.12 C56 32 56 32 55 30 C54.34 30 53.68 30 53 30 C53 29.34 53 28.68 53 28 C51.12 26.94 51.12 26.94 49 26 Z M79 80 C79.33 81.32 79.66 82.64 80 84 C80.33 83.34 80.66 82.68 81 82 C80.34 81.34 79.68 80.68 79 80 Z M81 84 C81.66 85.32 82.32 86.64 83 88 C83.33 87.34 83.66 86.68 84 86 C83.67 85.34 83.34 84.68 83 84 C82.34 84 81.68 84 81 84 Z M77 86 C77 86.99 77 87.98 77 89 C77.66 89 78.32 89 79 89 C79.33 88.01 79.66 87.02 80 86 C79.01 86 78.02 86 77 86 Z M93 86 C92.37 88.86 91.89 91.12 92 94 C94 96.62 96.14 98.35 98.75 100.32 C103.76 104.28 105.82 108.06 108 114 C108.68 115.77 109.37 117.54 110.06 119.31 C110.36 120.11 110.66 120.91 110.97 121.74 C112.06 124.14 113.26 126.02 115 128 C115.66 128 116.32 128 117 128 C117.14 128.95 117.29 129.9 117.44 130.88 C118 134 118 134 119 136 C119.66 136 120.32 136 121 136 C121.11 136.59 121.21 137.18 121.32 137.79 C122.09 140.29 123.04 141.43 124.81 143.31 C129.98 148.8 132.66 155.26 135.12 162.25 C137.75 169.62 137.75 169.62 140 173 C140.25 176.84 139.88 180.26 139 184 C138.34 184 137.68 184 137 184 C135 187 135 187 135 190 C134.34 190 133.68 190 133 190 C131 193 131 193 131 196 C130.34 196 129.68 196 129 196 C126.39 201.11 125.3 204.26 127 210 C129.5 212.88 129.5 212.88 132 215 C132.33 215.33 132.66 215.66 133 216 C135.67 216.14 138.32 216.04 141 216 C141 215.34 141 214.68 141 214 C141.36 214.02 141.36 214.02 143.18 214.12 C146.25 213.99 148.31 213.31 151.12 212.12 C151.97 211.78 152.82 211.43 153.7 211.07 C156 210 156 210 159 208 C159 207.34 159 206.68 159 206 C159.66 206 160.32 206 161 206 C161 205.34 161 204.68 161 204 C161.62 203.9 162.24 203.79 162.88 203.69 C165 203 165 203 167 200 C167 198.68 167 197.36 167 196 C167.66 196 168.32 196 169 196 C171.33 191.49 171.61 186.98 171 182 C169.98 179.72 169.98 179.72 169 178 C168.34 178 167.68 178 167 178 C166.86 177.38 166.71 176.76 166.56 176.12 C166 174 166 174 165 172 C164.34 172 163.68 172 163 172 C163 171.34 163 170.68 163 170 C162.34 170 161.68 170 161 170 C160.75 169.2 160.5 168.39 160.25 167.56 C159 165 159 165 156.88 164.19 C156.26 164.13 155.64 164.06 155 164 C154.86 163.38 154.71 162.76 154.56 162.12 C154 160 154 160 153 158 C152.34 158 151.68 158 151 158 C150.67 157.01 150.34 156.02 150 155 C149.01 154.67 148.02 154.34 147 154 C146.28 152.36 145.62 150.68 145 149 C143.73 146.63 142.37 144.32 141 142 C140.34 142 139.68 142 139 142 C138.9 141.46 138.79 140.93 138.69 140.38 C137.82 137.37 136.44 134.76 135 132 C134.34 132 133.68 132 133 132 C132.91 131.29 132.81 130.59 132.71 129.86 C131.87 126.48 130.45 124.12 128.56 121.19 C127.95 120.21 127.33 119.24 126.69 118.23 C126.13 117.49 125.58 116.76 125 116 C124.34 116 123.68 116 123 116 C122.95 115.71 122.95 115.71 122.71 114.27 C121.83 111.48 120.5 109.93 118.56 107.75 C117.95 107.04 117.33 106.34 116.69 105.61 C115 104 115 104 113 104 C112.34 102.68 111.68 101.36 111 100 C110.34 100 109.68 100 109 100 C108.91 99.43 108.81 98.85 108.71 98.26 C107.84 95.49 106.52 94.01 104.56 91.88 C103.95 91.19 103.33 90.51 102.69 89.8 C99.13 86.01 99.13 86.01 95.88 85.88 C94.93 85.92 93.98 85.96 93 86 Z M81 88 C82 90 82 90 82 90 Z M84 88 C84.33 91.3 84.66 94.6 85 98 C85 95.35 84.02 93.42 83 91 C78.25 90.88 78.25 90.88 76 92 C76 91.34 76 90.68 76 90 C73.04 90.61 71.62 91.25 69 93 C69.33 94.32 69.66 95.64 70 97 C71.16 96.84 71.16 96.84 77 96 C77 97.32 77 98.64 77 100 C76.01 99.84 76.01 99.84 71 99 C74.57 105.5 74.57 105.5 77 108.31 C81.01 113.69 82.77 120.35 85 126.62 C86.67 131.3 88.68 135.61 91 140 C91.66 140 92.32 140 93 140 C93.1 140.58 93.21 141.15 93.31 141.75 C94.11 144.36 95.19 145.97 97 148 C97.66 148 98.32 148 99 148 C99.33 148.99 99.66 149.98 100 151 C100.99 151.33 101.98 151.66 103 152 C103 152.66 103 153.32 103 154 C103.66 154 104.32 154 105 154 C105.06 154.54 105.12 155.07 105.19 155.62 C106.4 159.17 108.45 161.26 111 164 C111.66 164 112.32 164 113 164 C113 164.66 113 165.32 113 166 C113.66 166 114.32 166 115 166 C115.14 166.38 115.14 166.38 115.88 168.31 C117 171 117 171 119 174 C119.66 174 120.32 174 121 174 C121 173.34 121 172.68 121 172 C121.28 172.1 121.28 172.1 122.69 172.62 C125.7 173.11 127.2 172.17 130 171 C132.33 170.62 134.66 170.28 137 170 C136.81 168.19 136.81 168.19 136 166 C134.35 164.98 132.68 163.98 131 163 C129.15 161.19 127.39 159.33 125.65 157.43 C124 156 124 156 121 156 C120.75 155.38 120.5 154.76 120.25 154.12 C118.79 151.65 117.62 151.05 115 150 C115 149.34 115 148.68 115 148 C114.34 148 113.68 148 113 148 C112.88 147.43 112.77 146.86 112.64 146.28 C110.97 140.36 107.17 134.46 103 130 C102.34 130 101.68 130 101 130 C101 129.34 101 128.68 101 128 C100.34 128 99.68 128 99 128 C99 127.34 99 126.68 99 126 C98.34 126 97.68 126 97 126 C97 125.34 97 124.68 97 124 C96.34 124 95.68 124 95 124 C95 123.34 95 122.68 95 122 C94.34 122 93.68 122 93 122 C93.1 121.34 93.21 120.68 93.31 120 C92.85 115.59 90.49 112.59 88 109 C88.33 108.67 88.66 108.34 89 108 C91.93 112.56 94.67 117.09 97 122 C97.66 122 98.32 122 99 122 C99 122.66 99 123.32 99 124 C99.66 124 100.32 124 101 124 C101 124.66 101 125.32 101 126 C101.66 126 102.32 126 103 126 C103.28 126.58 103.56 127.16 103.86 127.76 C105.7 131.38 107.86 134.8 110 138.25 C110.45 139 110.9 139.74 111.37 140.51 C111.8 141.21 112.24 141.92 112.69 142.64 C113.08 143.29 113.48 143.93 113.89 144.59 C114.25 145.06 114.62 145.52 115 146 C115.66 146 116.32 146 117 146 C117 146.66 117 147.32 117 148 C117.66 148 118.32 148 119 148 C119.27 148.6 119.54 149.2 119.81 149.81 C121 152 122.1 153.41 124 155 C124.66 155 125.32 155 126 155 C126 155.66 126 156.32 126 157 C127.38 158.62 127.38 158.62 129 160 C129.66 160 130.32 160 131 160 C131.33 160.99 131.66 161.98 132 163 C132.5 162.84 132.5 162.84 135 162 C134.73 161.47 134.47 160.94 134.2 160.39 C131 154 131 154 130.12 152.06 C128.67 149.39 126.89 147.13 125 144.75 C124.65 144.3 124.65 144.3 122.88 142.05 C122.57 141.71 122.57 141.71 121 140 C120.34 140 119.68 140 119 140 C118.71 139.09 118.42 138.19 118.12 137.25 C117.23 134.68 116.29 132.39 115 130 C114.34 130 113.68 130 113 130 C112.72 129.3 112.45 128.6 112.16 127.88 C110.52 123.82 108.82 119.78 107.12 115.74 C106.35 113.85 105.65 111.94 105 110 C104.34 110 103.68 110 103 110 C102.95 109.62 102.95 109.62 102.69 107.69 C101.95 104.82 101.33 103.77 99 102 C98.34 102 97.68 102 97 102 C96.75 101.42 96.5 100.85 96.25 100.25 C94.17 96.51 92.07 94.36 88 93 C86.81 90.44 86.81 90.44 86 88 C85.34 88 84.68 88 84 88 Z M38 99 C35.03 100.09 32.02 101.05 29 102 C29 102.66 29 103.32 29 104 C28.34 104 27.68 104 27 104 C27 104.66 27 105.32 27 106 C26.32 106.16 25.64 106.33 24.94 106.5 C20.65 108.69 17.8 112.12 15 116 C15 116.66 15 117.32 15 118 C18.37 117.45 20.08 116.95 23 115 C27.22 113.34 30.93 112.72 35.44 112.5 C40.28 112.2 44.43 111.59 49 110 C49 109.34 49 108.68 49 108 C49.66 108 50.32 108 51 108 C51 106.02 51 104.04 51 102 C50.34 102 49.68 102 49 102 C48.92 101.38 48.84 100.76 48.75 100.12 C48 98 48 98 46.31 96.56 C42.82 95.71 41.11 97.3 38 99 Z M63 97 C60.96 97.23 58.92 97.41 56.88 97.56 C55.78 97.65 54.68 97.73 53.55 97.82 C53.13 97.85 53.13 97.85 51 98 C51.66 99.98 52.32 101.96 53 104 C53.66 104 54.32 104 55 104 C54.34 105.98 53.68 107.96 53 110 C52.34 110 51.68 110 51 110 C51 110.66 51 111.32 51 112 C49.02 112 47.04 112 45 112 C45 112.66 45 113.32 45 114 C42.69 114 40.38 114 38 114 C39.61 116.71 41.25 119.37 43 122 C43.66 122 44.32 122 45 122 C45.66 123.98 46.32 125.96 47 128 C47.66 128 48.32 128 49 128 C49 129.32 49 130.64 49 132 C49.66 132 50.32 132 51 132 C51.11 132.55 51.22 133.1 51.34 133.67 C52.11 136.4 53.27 138.73 54.56 141.25 C55.02 142.14 55.47 143.03 55.94 143.95 C56.29 144.63 56.64 145.3 57 146 C57.66 146 58.32 146 59 146 C59.14 147.09 59.29 148.19 59.44 149.31 C60 153 60 153 61 156 C61.66 156 62.32 156 63 156 C63.11 156.72 63.22 157.44 63.33 158.18 C64.06 161.24 65.15 163.43 66.75 166.12 C67.24 166.97 67.73 167.82 68.23 168.7 C70.23 171.31 72.07 172.55 75 174 C75.66 174 76.32 174 77 174 C77 173.34 77 172.68 77 172 C77.66 172 78.32 172 79 172 C79 172.66 79 173.32 79 174 C82.29 174.8 83.71 175.1 87 174 C87 174.66 87 175.32 87 176 C108.01 176.4 108.01 176.4 117 174 C116.34 172.68 115.68 171.36 115 170 C114.34 170 113.68 170 113 170 C113 169.34 113 168.68 113 168 C112.34 168 111.68 168 111 168 C110.89 167.4 110.77 166.8 110.65 166.19 C109.61 162.68 107.02 160.36 104.56 157.75 C104.06 157.2 103.56 156.64 103.04 156.07 C101.74 154.67 100.37 153.33 99 152 C98.34 152 97.68 152 97 152 C97 151.34 97 150.68 97 150 C96.34 150 95.68 150 95 150 C94.89 149.43 94.77 148.86 94.65 148.27 C93.94 145.79 92.93 143.94 91.56 141.75 C91.13 141.04 90.7 140.34 90.25 139.61 C89.84 139.08 89.43 138.55 89 138 C88.34 138 87.68 138 87 138 C86.88 137.15 86.77 136.31 86.65 135.44 C85.96 131.78 84.89 128.5 83.62 125 C83.2 123.82 82.78 122.65 82.35 121.44 C80.35 116.34 78.38 112.09 74.56 108.12 C71.12 104.35 69.08 100.65 67 96 C65 96 65 96 63 97 Z M14 118 C15 120 15 120 15 120 Z M11 122 C12 124 12 124 12 124 Z M161 136 C161 136.66 161 137.32 161 138 C160.34 138 159.68 138 159 138 C159 138.66 159 139.32 159 140 C157.02 140 155.04 140 153 140 C151.67 145.31 151.25 150.76 153 156 C154.26 156.14 155.52 156.29 156.81 156.44 C159.43 156.74 161.47 157.16 164 158 C164.33 156.02 164.66 154.04 165 152 C166.98 151.34 168.96 150.68 171 150 C171 149.34 171 148.68 171 148 C171.66 148 172.32 148 173 148 C173 147.34 173 146.68 173 146 C173.66 146 174.32 146 175 146 C174.86 144.37 174.71 142.75 174.56 141.12 C174.48 140.22 174.4 139.32 174.32 138.38 C174 136 174 136 173 134 C174.32 134 175.64 134 177 134 C177 133.34 177 132.68 177 132 C170.25 130.43 166.25 131.27 161 136 Z M175 150 C174.5 150.33 174.5 150.33 172 152 C172.33 153.32 172.66 154.64 173 156 C173.99 155.01 174.98 154.02 176 153 C175.67 152.01 175.34 151.02 175 150 Z M170 155 C169.67 155.66 169.34 156.32 169 157 C169.66 157 170.32 157 171 157 C170.67 156.34 170.34 155.68 170 155 Z M176 155 C176.33 155.66 176.66 156.32 177 157 C177.33 156.34 177.66 155.68 178 155 C177.34 155 176.68 155 176 155 Z M168 158 C168.5 158.33 168.5 158.33 171 160 C171 159.34 171 158.68 171 158 C170.01 158 169.02 158 168 158 Z M175 160 C175.33 160.99 175.66 161.98 176 163 C176.33 162.01 176.66 161.02 177 160 C176.34 160 175.68 160 175 160 Z M161 165 C161.33 165.16 161.33 165.16 163 166 C163 166.66 163 167.32 163 168 C163.66 168 164.32 168 165 168 C165.27 168.72 165.54 169.44 165.81 170.19 C167.01 173.01 168.21 175.5 170 178 C170.99 178 171.98 178 173 178 C177.28 170.64 177.28 170.64 176.6 166.62 C175.75 164.44 175.75 164.44 174 161 C168.28 160.54 165.51 161.48 161 165 Z M132 172 C132 172.66 132 173.32 132 174 C131.01 173.67 130.02 173.34 129 173 C126.66 173.64 124.33 174.31 122 175 C119.34 175.42 116.68 175.7 114 176 C113.61 176.09 113.61 176.09 111.62 176.52 C106.65 177.43 101.6 177.18 96.56 177.19 C95.44 177.2 94.32 177.21 93.17 177.22 C83.03 177.24 83.03 177.24 78 175 C78.03 175.98 78.07 176.96 78.11 177.96 C78.35 189.98 78.35 189.98 76.56 194.31 C74.71 198.89 74.48 203.43 74.19 208.31 C74.16 208.71 74.16 208.71 74.03 210.71 C73.99 211.46 73.96 212.21 73.92 212.99 C73.88 213.66 73.85 214.34 73.82 215.04 C74.04 217.39 74.84 218.96 76 221 C105.98 221.19 105.98 221.19 119.12 220.62 C119.96 220.59 120.8 220.56 121.66 220.53 C125.84 220.32 129.18 219.88 133 218 C131.62 216.5 131.62 216.5 130 215 C129.34 215 128.68 215 128 215 C125.83 210.23 124.15 205.42 125.94 200.31 C126.29 199.55 126.64 198.79 127 198 C127 196.68 127 195.36 127 194 C127.99 193.67 128.98 193.34 130 193 C133.93 188.21 138.15 181.97 140 176 C139.6 173.77 139.6 173.77 139 172 C136.69 172 134.38 172 132 172 Z M16 190 C15.34 192.31 14.68 194.62 14 197 C14.99 197 15.98 197 17 197 C17 194.69 17 192.38 17 190 C16.67 190 16.34 190 16 190 Z M14 198 C13.67 199.32 13.34 200.64 13 202 C13.66 202 14.32 202 15 202 C15.33 201.01 15.66 200.02 16 199 C15.34 198.67 14.68 198.34 14 198 Z M-17 216 C-17 216.66 -17 217.32 -17 218 C-16.34 218 -15.68 218 -15 218 C-15 217.34 -15 216.68 -15 216 C-15.66 216 -16.32 216 -17 216 Z " fill="#2861B8" transform="translate(89,242)"/>
<path d="M0 0 C0.74 0.1 1.49 0.19 2.25 0.29 C14.54 1.99 29.83 4.47 40.19 11.38 C40.19 12.04 40.19 12.69 40.19 13.38 C41.51 13.38 42.83 13.38 44.19 13.38 C44.19 14.04 44.19 14.69 44.19 15.38 C45.84 16.04 47.49 16.69 49.19 17.38 C49.19 18.04 49.19 18.69 49.19 19.38 C50.34 19.7 51.5 20.04 52.69 20.38 C57.46 21.97 61.93 24.04 66.44 26.25 C67.12 26.58 67.81 26.9 68.51 27.24 C72.8 29.38 76.03 31.67 79.19 35.38 C79.19 36.03 79.19 36.69 79.19 37.38 C79.85 37.38 80.51 37.38 81.19 37.38 C81.09 42.11 80.43 44.6 77.12 48.06 C70.13 54.34 64.65 55.82 55.24 55.81 C50.55 55.14 48 53.28 44.88 49.81 C43.19 47.38 43.19 47.38 43.19 45.38 C42.53 45.38 41.87 45.38 41.19 45.38 C41.19 44.72 41.19 44.06 41.19 43.38 C40.53 43.38 39.87 43.38 39.19 43.38 C39.19 42.72 39.19 42.06 39.19 41.38 C38.53 41.38 37.87 41.38 37.19 41.38 C37.19 40.72 37.19 40.06 37.19 39.38 C36.53 39.38 35.87 39.38 35.19 39.38 C34.16 37.74 33.19 36.06 32.25 34.38 C28.35 27.99 23.45 24.32 17.19 20.38 C17.89 21.04 18.59 21.69 19.31 22.38 C23.57 26.64 28.05 31.31 29.19 37.38 C29.85 37.38 30.51 37.38 31.19 37.38 C32.6 38.84 32.6 38.84 34.25 40.88 C38.17 45.51 42.57 49.44 47.19 53.38 C42.95 56.89 38.71 58.31 33.19 58.38 C29.88 56.31 29.88 56.31 27.19 53.38 C20.32 46.12 12.13 40.84 3.56 35.81 C-17.78 23.23 -17.78 23.23 -20.57 13.82 C-20.93 10.23 -19.73 8.38 -17.81 5.38 C-12.18 0.04 -7.56 -1.04 0 0 Z " fill="#E0E9F7" transform="translate(84.8125,282.625)"/>
<path d="M0 0 C3 1 3 1 5 3.25 C8.76 7.24 14.02 8.95 19 11 C19 11.66 19 12.32 19 13 C19.66 13 20.32 13 21 13 C21 13.66 21 14.32 21 15 C21.66 15.33 22.32 15.66 23 16 C23.99 17.72 24.92 19.48 25.81 21.25 C28.11 25.57 30.33 28.71 34 32 C34.91 33.05 35.81 34.11 36.69 35.19 C39 38 39 38 41 40 C41.33 40.66 41.66 41.32 42 42 C42.99 42.33 43.98 42.66 45 43 C46.81 45.64 47.98 47.95 49 51 C49.66 51 50.32 51 51 51 C51.66 52.98 52.32 54.96 53 57 C53.66 57 54.32 57 55 57 C56 58.96 57 60.91 58 62.88 C58.56 63.97 59.11 65.06 59.69 66.18 C61 69 61 69 61 71 C61.66 71 62.32 71 63 71 C63.66 72.98 64.32 74.96 65 77 C65.66 77 66.32 77 67 77 C67 78.32 67 79.64 67 81 C67.66 81 68.32 81 69 81 C69.66 82.98 70.32 84.96 71 87 C71.66 87 72.32 87 73 87 C73 83.7 73 80.4 73 77 C73.66 77 74.32 77 75 77 C75.33 76.34 75.66 75.68 76 75 C78.31 74.27 80.65 73.6 83 73 C83 72.34 83 71.68 83 71 C87.88 67.65 92.62 65.81 98.5 65.25 C99.42 65.15 100.34 65.05 101.28 64.95 C104.31 65.01 106.27 65.72 109 67 C109.64 67.29 110.28 67.58 110.94 67.88 C113.75 69.41 116.36 71.2 119 73 C119.16 72.34 119.16 72.34 120 69 C123.06 68.5 123.06 68.5 127 69 C129.97 71.26 132.15 73.76 134 77 C133.94 80.5 133.94 80.5 133 83 C132.34 83 131.68 83 131 83 C131 83.66 131 84.32 131 85 C130.34 85 129.68 85 129 85 C128.73 85.64 128.46 86.28 128.19 86.94 C127 89 127 89 124 90 C123.67 91.65 123.34 93.3 123 95 C122.34 95 121.68 95 121 95 C121.1 96.07 121.21 97.14 121.31 98.25 C121 102 121 102 118.62 104.25 C117.76 104.83 116.89 105.4 116 106 C115.34 106.99 114.68 107.98 114 109 C110.69 110.14 107.36 110.97 103.97 111.84 C101 113 101 113 99.59 115.13 C99.4 115.75 99.2 116.36 99 117 C98.34 117 97.68 117 97 117 C97.05 117.76 97.09 118.52 97.14 119.31 C97.39 126.33 96.91 131.99 93 138 C92.34 138.33 91.68 138.66 91 139 C89.88 141.06 89.88 141.06 89 143 C88.34 143 87.68 143 87 143 C87 143.66 87 144.32 87 145 C86.34 145 85.68 145 85 145 C84.67 145.66 84.34 146.32 84 147 C82.44 148.07 82.44 148.07 80.56 149.12 C80.25 149.3 80.25 149.3 78.69 150.2 C77 151 77 151 75 151 C74.67 151.66 74.34 152.32 74 153 C71.75 153.82 71.75 153.82 69 154.56 C64.09 155.91 64.09 155.91 63 157 C61 157.04 59 157.04 57 157 C57 157.66 57 158.32 57 159 C53.04 159 49.08 159 45 159 C44.67 159.66 44.34 160.32 44 161 C29.81 161 15.62 161 1 161 C1 160.01 1 159.02 1 158 C7.12 157.09 13.01 156.92 19.19 157 C27.01 157.05 34.81 156.93 42.62 156.56 C43.51 156.52 44.39 156.48 45.3 156.44 C49.01 156.25 52.4 155.99 56 155 C55.51 154.67 55.01 154.34 54.5 154 C49.39 150.21 49.39 150.21 48.28 146.77 C47.79 142.7 47.85 138.97 49 135 C49.66 135 50.32 135 51 135 C51 133.68 51 132.36 51 131 C52.29 129.63 53.62 128.29 55 127 C55 126.34 55 125.68 55 125 C55.66 125 56.32 125 57 125 C57.14 124.71 57.14 124.71 57.87 123.25 C58.58 121.82 59.32 120.41 60.07 119 C60.24 118.67 60.24 118.67 61.12 117 C61.3 116.67 61.3 116.67 62.2 115 C63 113 63 113 63 109 C60.69 109 58.38 109 56 109 C56 109.66 56 110.32 56 111 C53.69 111 51.38 111 49 111 C48.67 111.66 48.34 112.32 48 113 C45.89 113.38 45.89 113.38 43.25 113.56 C40.68 113.75 38.24 113.95 35.72 114.51 C32.7 115.05 29.89 115.11 26.82 115.1 C26.25 115.1 26.25 115.1 23.32 115.09 C22.12 115.08 20.92 115.07 19.69 115.06 C18.47 115.06 17.25 115.05 16 115.05 C13 115.04 10 115.02 7 115 C7 114.34 7 113.68 7 113 C5.02 113 3.04 113 1 113 C1 111.68 1 110.36 1 109 C1.66 109 2.32 109 3 109 C3 109.66 3 110.32 3 111 C5.64 111 8.28 111 11 111 C11 111.66 11 112.32 11 113 C14.15 112.89 17.29 112.76 20.44 112.62 C21.32 112.59 22.19 112.56 23.1 112.53 C28.96 112.27 34.31 111.42 40 110 C39.67 109.01 39.34 108.02 39 107 C38.34 107 37.68 107 37 107 C37 106.34 37 105.68 37 105 C36.34 105 35.68 105 35 105 C33.98 103.35 32.98 101.68 32 100 C30.52 98.22 29 96.47 27.44 94.75 C26.65 93.88 25.87 93.01 25.06 92.11 C23 90 23 90 21 89 C21 88.34 21 87.68 21 87 C20.34 87 19.68 87 19 87 C16.68 83.06 14.57 79.31 13 75 C12.34 75 11.68 75 11 75 C11 73.68 11 72.36 11 71 C10.34 70.67 9.68 70.34 9 70 C8.18 67.89 8.18 67.89 7.44 65.25 C7.19 64.39 6.94 63.53 6.68 62.64 C6 60 6 60 5.54 57.23 C5.36 56.5 5.18 55.76 5 55 C4.34 54.67 3.68 54.34 3 54 C2.38 51.44 2.38 51.44 2 49 C2.33 48.83 2.33 48.83 4 48 C4.12 48.8 4.25 49.61 4.38 50.44 C4.58 51.28 4.79 52.13 5 53 C5.66 53.33 6.32 53.66 7 54 C8.32 57.88 9 60.88 9 65 C9.66 65.33 10.32 65.66 11 66 C12.07 68 12.07 68 13.12 70.44 C13.48 71.24 13.83 72.04 14.2 72.87 C15 75 15 75 15 77 C15.66 77 16.32 77 17 77 C17.58 78.09 18.16 79.19 18.75 80.31 C20.46 83.34 22.11 85.04 25 87 C25 87.66 25 88.32 25 89 C25.66 89 26.32 89 27 89 C27 89.66 27 90.32 27 91 C27.66 91 28.32 91 29 91 C30.03 92.65 31.02 94.32 32 96 C32.56 96.56 33.11 97.11 33.69 97.69 C34.12 98.12 34.55 98.55 35 99 C35 99.66 35 100.32 35 101 C35.66 101 36.32 101 37 101 C37 101.66 37 102.32 37 103 C37.66 103 38.32 103 39 103 C39 103.66 39 104.32 39 105 C39.33 105.16 39.33 105.16 41 106 C41.67 107.33 42.33 108.67 43 110 C43.33 110.16 43.33 110.16 45 111 C45 110.34 45 109.68 45 109 C45.54 108.93 45.54 108.93 48.25 108.56 C50.93 108.16 53.4 107.72 56 107 C57.33 106.67 58.67 106.33 60 106 C60 105.01 60 104.02 60 103 C59.42 102.92 58.85 102.83 58.25 102.75 C55.33 101.78 54.02 100.25 51.94 98 C48.31 94.1 48.31 94.1 45 93 C43.64 91.35 42.31 89.69 41 88 C40.67 87.84 40.67 87.84 39 87 C39 86.34 39 85.68 39 85 C38.34 85 37.68 85 37 85 C36.33 83.71 35.66 82.42 35 81.12 C34.63 80.41 34.26 79.69 33.88 78.95 C33 77 33 77 33 75 C32.67 74.84 32.67 74.84 31 74 C28.22 72.61 28.13 70.81 27 68 C26.34 67.67 25.68 67.34 25 67 C25 66.34 25 65.68 25 65 C24.34 65 23.68 65 23 65 C23 64.34 23 63.68 23 63 C22.34 63 21.68 63 21 63 C21 62.34 21 61.68 21 61 C20.34 61 19.68 61 19 61 C19 60.34 19 59.68 19 59 C18.34 59 17.68 59 17 59 C16.88 58.43 16.76 57.87 16.63 57.29 C16.47 56.55 16.3 55.82 16.12 55.06 C15.96 54.33 15.8 53.6 15.63 52.85 C15 51 15 51 13 50 C13 49.01 13 48.02 13 47 C12.34 46.67 11.68 46.34 11 46 C11.33 45.01 11.66 44.02 12 43 C21 53 21 53 21 59 C21.66 59 22.32 59 23 59 C23 59.66 23 60.32 23 61 C23.66 61 24.32 61 25 61 C25 61.66 25 62.32 25 63 C25.66 63 26.32 63 27 63 C30.07 66.43 32.39 70.15 34.69 74.12 C35.29 75.16 35.89 76.19 36.51 77.26 C38 80 38 80 39 83 C39.66 83 40.32 83 41 83 C41 83.66 41 84.32 41 85 C41.66 85 42.32 85 43 85 C44.69 86.98 46.35 88.98 48 91 C48.33 91.16 48.33 91.16 50 92 C50 92.66 50 93.32 50 94 C50.99 94.33 51.98 94.66 53 95 C53 95.66 53 96.32 53 97 C53.66 97 54.32 97 55 97 C55.33 97.66 55.66 98.32 56 99 C56.33 98.67 56.66 98.34 57 98 C56.34 96.35 55.68 94.7 55 93 C54.34 93 53.68 93 53 93 C52.98 92.2 52.96 91.39 52.94 90.56 C51.43 84.85 47.52 80.44 43.31 76.36 C41.69 74.67 41.52 73.24 41 71 C40.67 70.84 40.67 70.84 39 70 C39 69.01 39 68.02 39 67 C38.34 67 37.68 67 37 67 C37 66.34 37 65.68 37 65 C36.67 64.84 36.67 64.84 35 64 C33 61 33 61 33 57 C32.67 56.83 32.67 56.83 31 56 C29 49.89 29 49.89 29 47 C28.34 47 27.68 47 27 47 C26.77 46.28 26.55 45.56 26.31 44.81 C24.73 41.41 22.74 39.55 20 37 C19.15 36.11 18.31 35.23 17.44 34.31 C15 32 15 32 12.75 31 C11 30 11 30 10.25 27.38 C10.17 26.59 10.09 25.81 10 25 C9.34 25 8.68 25 8 25 C7.67 24.01 7.34 23.02 7 22 C7.58 22.31 8.16 22.62 8.75 22.94 C10.84 23.93 12.75 24.52 15 25 C15.33 23.68 15.66 22.36 16 21 C18.31 21 20.62 21 23 21 C17.48 14.01 17.48 14.01 12.88 12.38 C12.15 12.11 11.43 11.85 10.68 11.59 C10.13 11.39 9.57 11.2 9 11 C9 10.34 9 9.68 9 9 C7.02 8.34 5.04 7.68 3 7 C3 6.34 3 5.68 3 5 C2.34 5 1.68 5 1 5 C0.67 3.35 0.34 1.7 0 0 Z M17 23 C16.37 25.86 15.89 28.12 16 31 C18 33.62 20.14 35.35 22.75 37.32 C27.76 41.28 29.82 45.06 32 51 C32.68 52.77 33.37 54.54 34.06 56.31 C34.36 57.11 34.66 57.91 34.97 58.74 C36.06 61.14 37.26 63.02 39 65 C39.66 65 40.32 65 41 65 C41.14 65.95 41.29 66.9 41.44 67.88 C42 71 42 71 43 73 C43.66 73 44.32 73 45 73 C45.11 73.59 45.21 74.18 45.32 74.79 C46.09 77.29 47.04 78.43 48.81 80.31 C53.98 85.8 56.66 92.26 59.12 99.25 C61.75 106.62 61.75 106.62 64 110 C64.25 113.84 63.88 117.26 63 121 C62.34 121 61.68 121 61 121 C59 124 59 124 59 127 C58.34 127 57.68 127 57 127 C55 130 55 130 55 133 C54.34 133 53.68 133 53 133 C50.39 138.11 49.3 141.26 51 147 C53.5 149.88 53.5 149.88 56 152 C56.33 152.33 56.66 152.66 57 153 C59.67 153.14 62.32 153.04 65 153 C65 152.34 65 151.68 65 151 C65.36 151.02 65.36 151.02 67.18 151.12 C70.25 150.99 72.31 150.31 75.12 149.12 C75.97 148.78 76.82 148.43 77.7 148.07 C80 147 80 147 83 145 C83 144.34 83 143.68 83 143 C83.66 143 84.32 143 85 143 C85 142.34 85 141.68 85 141 C85.62 140.9 86.24 140.79 86.88 140.69 C89 140 89 140 91 137 C91 135.68 91 134.36 91 133 C91.66 133 92.32 133 93 133 C95.33 128.49 95.61 123.98 95 119 C93.98 116.72 93.98 116.72 93 115 C92.34 115 91.68 115 91 115 C90.86 114.38 90.71 113.76 90.56 113.12 C90 111 90 111 89 109 C88.34 109 87.68 109 87 109 C87 108.34 87 107.68 87 107 C86.34 107 85.68 107 85 107 C84.75 106.2 84.5 105.39 84.25 104.56 C83 102 83 102 80.88 101.19 C80.26 101.13 79.64 101.06 79 101 C78.86 100.38 78.71 99.76 78.56 99.12 C78 97 78 97 77 95 C76.34 95 75.68 95 75 95 C74.67 94.01 74.34 93.02 74 92 C73.01 91.67 72.02 91.34 71 91 C70.28 89.36 69.62 87.68 69 86 C67.73 83.63 66.37 81.32 65 79 C64.34 79 63.68 79 63 79 C62.9 78.46 62.79 77.93 62.69 77.38 C61.82 74.37 60.44 71.76 59 69 C58.34 69 57.68 69 57 69 C56.91 68.29 56.81 67.59 56.71 66.86 C55.87 63.48 54.45 61.12 52.56 58.19 C51.95 57.21 51.33 56.24 50.69 55.23 C50.13 54.49 49.58 53.76 49 53 C48.34 53 47.68 53 47 53 C46.95 52.71 46.95 52.71 46.71 51.27 C45.83 48.48 44.5 46.93 42.56 44.75 C41.95 44.04 41.33 43.34 40.69 42.61 C39 41 39 41 37 41 C36.34 39.68 35.68 38.36 35 37 C34.34 37 33.68 37 33 37 C32.91 36.43 32.81 35.85 32.71 35.26 C31.84 32.49 30.52 31.01 28.56 28.88 C27.95 28.19 27.33 27.51 26.69 26.8 C23.13 23.01 23.13 23.01 19.88 22.88 C18.93 22.92 17.98 22.96 17 23 Z M85 73 C85 73.66 85 74.32 85 75 C84.34 75 83.68 75 83 75 C83 75.66 83 76.32 83 77 C81.02 77 79.04 77 77 77 C75.67 82.31 75.25 87.76 77 93 C78.26 93.14 79.52 93.29 80.81 93.44 C83.43 93.74 85.47 94.16 88 95 C88.33 93.02 88.66 91.04 89 89 C90.98 88.34 92.96 87.68 95 87 C95 86.34 95 85.68 95 85 C95.66 85 96.32 85 97 85 C97 84.34 97 83.68 97 83 C97.66 83 98.32 83 99 83 C98.86 81.37 98.71 79.75 98.56 78.12 C98.48 77.22 98.4 76.32 98.32 75.38 C98 73 98 73 97 71 C98.32 71 99.64 71 101 71 C101 70.34 101 69.68 101 69 C94.25 67.43 90.25 68.27 85 73 Z M99 87 C98.5 87.33 98.5 87.33 96 89 C96.33 90.32 96.66 91.64 97 93 C97.99 92.01 98.98 91.02 100 90 C99.67 89.01 99.34 88.02 99 87 Z M94 92 C93.67 92.66 93.34 93.32 93 94 C93.66 94 94.32 94 95 94 C94.67 93.34 94.34 92.68 94 92 Z M100 92 C100.33 92.66 100.66 93.32 101 94 C101.33 93.34 101.66 92.68 102 92 C101.34 92 100.68 92 100 92 Z M92 95 C92.5 95.33 92.5 95.33 95 97 C95 96.34 95 95.68 95 95 C94.01 95 93.02 95 92 95 Z M99 97 C99.33 97.99 99.66 98.98 100 100 C100.33 99.01 100.66 98.02 101 97 C100.34 97 99.68 97 99 97 Z M85 102 C85.33 102.17 85.33 102.17 87 103 C87 103.66 87 104.32 87 105 C87.66 105 88.32 105 89 105 C89.27 105.72 89.54 106.44 89.81 107.19 C91.01 110.01 92.21 112.5 94 115 C94.99 115 95.98 115 97 115 C101.28 107.64 101.28 107.64 100.6 103.62 C99.75 101.44 99.75 101.44 98 98 C92.28 97.54 89.51 98.48 85 102 Z " fill="#2861B8" transform="translate(165,305)"/>
<path d="M0 0 C0.66 0 1.32 0 2 0 C2 0.66 2 1.32 2 2 C2.66 2 3.32 2 4 2 C4 2.66 4 3.32 4 4 C4.66 4.33 5.32 4.66 6 5 C6.82 7.25 6.82 7.25 7.56 10 C8.91 14.91 8.91 14.91 10 16 C10.05 17.38 10.04 18.77 9.99 20.16 C9.98 21.01 9.96 21.87 9.94 22.76 C9.9 24.55 9.85 26.35 9.79 28.15 C9.68 34.33 10.67 39.28 13 45 C16.38 43.41 18.35 41.78 20.81 38.94 C21.5 38.14 22.2 37.35 22.91 36.53 C25.53 33.36 27.97 30.09 30.36 26.75 C32.21 24.77 33.35 24.37 36 24 C36.79 25.56 37.59 27.12 38.38 28.69 C38.82 29.56 39.26 30.43 39.71 31.32 C41 34 41 34 42.02 36.77 C43 39 43 39 45.38 40.06 C46.24 40.37 47.11 40.68 48 41 C50.82 43.21 51.89 44.34 52.5 47.92 C52.32 57.81 52.32 57.81 50.56 62.19 C48.76 66.78 48.48 71.31 48.19 76.19 C48.13 76.96 48.08 77.73 48.03 78.53 C47.8 83.14 48.2 86.65 50 91 C45.85 90.92 41.71 90.81 37.56 90.69 C36.4 90.66 35.23 90.64 34.03 90.62 C18.13 90.13 18.13 90.13 13 85 C12.84 85.5 12.84 85.5 12 88 C4.96 88.99 -1.66 88.91 -8.75 88.5 C-18.02 88.02 -27.11 88.04 -36.36 88.77 C-40.79 89.08 -43.96 89.16 -48 87 C-48 86.01 -48 85.02 -48 84 C-47.34 84 -46.68 84 -46 84 C-45.83 83.67 -45.83 83.67 -45 82 C-42.03 82 -39.06 82 -36 82 C-36 81.34 -36 80.68 -36 80 C-34.68 80 -33.36 80 -32 80 C-32 79.34 -32 78.68 -32 78 C-30.89 77.71 -29.77 77.42 -28.62 77.12 C-25 76 -25 76 -23 74 C-22.01 74 -21.02 74 -20 74 C-20 73.34 -20 72.68 -20 72 C-19.34 72 -18.68 72 -18 72 C-18 70.68 -18 69.36 -18 68 C-17.34 68 -16.68 68 -16 68 C-16 66.68 -16 65.36 -16 64 C-15.34 64 -14.68 64 -14 64 C-14.04 63.15 -14.08 62.31 -14.12 61.44 C-14 58 -14 58 -12.94 54.88 C-11.64 49.49 -12.15 44.45 -13 39 C-13.33 38.67 -13.66 38.34 -14 38 C-14.09 35.26 -14.12 32.55 -14.1 29.81 C-14.1 28.99 -14.09 28.17 -14.09 27.32 C-14.09 24.7 -14.08 22.07 -14.06 19.44 C-14.06 17.66 -14.05 15.88 -14.05 14.1 C-14.04 9.74 -14.02 5.37 -14 1 C-13.34 1 -12.68 1 -12 1 C-11.97 1.77 -11.95 2.53 -11.92 3.32 C-11.81 6.84 -11.68 10.36 -11.56 13.88 C-11.52 15.08 -11.48 16.28 -11.44 17.52 C-11.23 23.69 -10.91 29.79 -10.2 35.92 C-10.01 37.94 -10 39.97 -10 42 C-9.34 42 -8.68 42 -8 42 C-7.97 45.92 -7.95 49.83 -7.94 53.75 C-7.93 54.86 -7.92 55.97 -7.91 57.12 C-7.91 58.19 -7.91 59.26 -7.9 60.36 C-7.9 61.34 -7.89 62.33 -7.89 63.34 C-7.99 65.77 -8.16 67.73 -9 70 C-11.4 71.63 -11.4 71.63 -14.38 73.12 C-17.38 74.66 -20.19 76.13 -23 78 C-23.99 78 -24.98 78 -26 78 C-26 78.66 -26 79.32 -26 80 C-27.32 80 -28.64 80 -30 80 C-30.33 80.66 -30.66 81.32 -31 82 C-31.99 82 -32.98 82 -34 82 C-34.16 82.33 -34.16 82.33 -35 84 C-36.65 84 -38.3 84 -40 84 C-40 84.66 -40 85.32 -40 86 C-39.43 85.97 -38.85 85.94 -38.26 85.91 C-22.05 85.06 -6.2 84.93 10 86 C9.67 84.02 9.34 82.04 9 80 C9.66 80 10.32 80 11 80 C10.72 79.11 10.45 78.23 10.16 77.32 C6.23 63.89 5.55 51.33 6.73 37.4 C7.84 23.61 5.83 12.53 0 0 Z M-11 58 C-11.66 60.31 -12.32 62.62 -13 65 C-12.01 65 -11.02 65 -10 65 C-10 62.69 -10 60.38 -10 58 C-10.33 58 -10.66 58 -11 58 Z M-13 66 C-13.33 67.32 -13.66 68.64 -14 70 C-13.34 70 -12.68 70 -12 70 C-11.67 69.01 -11.34 68.02 -11 67 C-11.66 66.67 -12.32 66.34 -13 66 Z M-44 84 C-44 84.66 -44 85.32 -44 86 C-43.34 86 -42.68 86 -42 86 C-42 85.34 -42 84.68 -42 84 C-42.66 84 -43.32 84 -44 84 Z " fill="#2861B8" transform="translate(116,374)"/>
<path d="M0 0 C7.26 0 14.52 0 22 0 C22 0.66 22 1.32 22 2 C22.93 2.27 23.86 2.54 24.81 2.81 C27.92 3.97 28.77 4.77 31 7 C31.81 7.09 32.61 7.18 33.45 7.28 C36 8 36 8 37.36 10.19 C39.46 16.4 40.43 21.44 40 28 C39.34 28 38.68 28 38 28 C37.77 28.62 37.55 29.24 37.31 29.88 C35.57 32.7 34.14 32.98 31 34 C27.96 34.48 27.96 34.48 24.81 34.75 C24.29 34.8 24.29 34.8 21.64 35.05 C19 35 19 35 17 33 C16.67 33.16 16.67 33.16 15 34 C15 33.34 15 32.68 15 32 C12.94 31.97 10.88 31.95 8.81 31.94 C7.66 31.93 6.52 31.91 5.33 31.9 C2.41 31.99 -0.16 32.32 -3 33 C-2.65 36.24 -2.44 37.62 0.06 39.81 C0.7 40.2 1.34 40.6 2 41 C1.34 41.16 1.34 41.16 -2 42 C-2 41.34 -2 40.68 -2 40 C-2.62 39.79 -3.24 39.59 -3.88 39.38 C-6.85 37.45 -7.13 35.33 -8 32 C-9.98 32 -11.96 32 -14 32 C-14 31.34 -14 30.68 -14 30 C-14.66 29.67 -15.32 29.34 -16 29 C-16.76 11.4 -16.76 11.4 -12 6 C-9.02 4.33 -7.41 4 -4 4 C-4 3.34 -4 2.68 -4 2 C-2.68 2 -1.36 2 0 2 C0 1.34 0 0.68 0 0 Z M14 18 C13.67 18.66 13.34 19.32 13 20 C13.66 20 14.32 20 15 20 C14.67 19.34 14.34 18.68 14 18 Z M-6 28 C-5.34 28.66 -4.68 29.32 -4 30 C-4 29.34 -4 28.68 -4 28 C-4.66 28 -5.32 28 -6 28 Z M4 28 C4.66 28.66 5.32 29.32 6 30 C6 29.34 6 28.68 6 28 C5.34 28 4.68 28 4 28 Z " fill="#2861B8" transform="translate(36,212)"/>
<path d="M0 0 C1.32 0 2.64 0 4 0 C4 0.66 4 1.32 4 2 C3.07 2.56 2.14 3.11 1.19 3.69 C-2.7 6.51 -3.82 8.36 -5 13 C-2.37 23.53 7.28 28.75 16 34 C36.08 46.19 36.08 46.19 42 52 C42 52.66 42 53.32 42 54 C42.6 54.29 43.2 54.58 43.81 54.88 C46 56 46 56 49 58 C51.69 58.12 51.69 58.12 54 58 C53.67 58.17 53.67 58.17 52 59 C52 59.66 52 60.32 52 61 C51.34 61.17 51.34 61.17 48 62 C48 62.66 48 63.32 48 64 C47.34 64 46.68 64 46 64 C46 64.66 46 65.32 46 66 C45.34 66 44.68 66 44 66 C43.67 66.66 43.34 67.32 43 68 C41.33 69.67 39.67 71.33 38 73 C36.64 74.65 35.3 76.31 34 78 C34.57 77.71 35.13 77.43 35.72 77.13 C44.09 72.98 50.57 71.42 60 72 C60.33 72.66 60.66 73.32 61 74 C60.5 74.16 60.5 74.16 58 75 C58.33 75.39 58.33 75.39 60 77.38 C62 80 62 80 62 82 C62.66 82 63.32 82 64 82 C64 82.66 64 83.32 64 84 C64.66 84.33 65.32 84.66 66 85 C66 85.99 66 86.98 66 88 C66.66 88 67.32 88 68 88 C68 89.32 68 90.64 68 92 C68.66 92 69.32 92 70 92 C70.67 93.29 71.34 94.58 72 95.88 C72.37 96.59 72.74 97.31 73.12 98.05 C74 100 74 100 74 102 C74.66 102.33 75.32 102.66 76 103 C76 103.99 76 104.98 76 106 C76.66 106 77.32 106 78 106 C78.33 107.65 78.33 107.65 80 116 C79.34 116 78.68 116 78 116 C76.66 113.38 75.33 110.75 74 108.12 C73.62 107.38 73.24 106.63 72.84 105.86 C72.48 105.15 72.12 104.43 71.75 103.7 C71.58 103.37 71.58 103.37 70.73 101.7 C70 100 70 100 70 98 C69.34 97.67 68.68 97.34 68 97 C68 96.01 68 95.02 68 94 C67.34 93.67 66.68 93.34 66 93 C66 92.01 66 91.02 66 90 C65.34 90 64.68 90 64 90 C63.76 89.49 63.52 88.98 63.27 88.46 C61.6 85.04 59.92 81.76 57.75 78.62 C56 76 56 76 56 74 C54.02 74 52.04 74 50 74 C50 74.66 50 75.32 50 76 C47.36 76 44.72 76 42 76 C42 76.66 42 77.32 42 78 C41.72 78.12 41.72 78.12 40.32 78.7 C34.33 81.4 34.33 81.4 32.5 84.75 C32.34 85.49 32.17 86.24 32 87 C31.01 87 30.02 87 29 87 C28.49 81.66 29.87 79.26 33 75 C33.16 74.5 33.16 74.5 34 72 C35.94 69.81 35.94 69.81 38 68 C38.66 68 39.32 68 40 68 C40 67.34 40 66.68 40 66 C40.66 66 41.32 66 42 66 C42 64.68 42 63.36 42 62 C40.02 61.34 38.04 60.68 36 60 C36 59.34 36 58.68 36 58 C34.68 58 33.36 58 32 58 C32 57.34 32 56.68 32 56 C31.45 55.89 30.9 55.78 30.33 55.66 C27.6 54.89 25.27 53.73 22.75 52.44 C21.86 51.98 20.97 51.53 20.05 51.06 C19.71 50.88 19.71 50.88 18 50 C18 49.34 18 48.68 18 48 C16.68 48 15.36 48 14 48 C14 47.34 14 46.68 14 46 C12.68 46 11.36 46 10 46 C10 45.34 10 44.68 10 44 C9.34 44 8.68 44 8 44 C8 43.34 8 42.68 8 42 C6.68 42 5.36 42 4 42 C4 41.34 4 40.68 4 40 C3.05 39.75 2.1 39.5 1.12 39.25 C-2 38 -2 38 -3.38 35.88 C-3.58 35.26 -3.79 34.64 -4 34 C-4.66 34 -5.32 34 -6 34 C-7.44 31.81 -7.44 31.81 -9 29 C-9.56 28.11 -10.11 27.23 -10.69 26.31 C-12 24 -12 24 -12 22 C-11.34 22 -10.68 22 -10 22 C-9.9 21.22 -9.79 20.43 -9.69 19.62 C-7.02 5.56 -7.02 5.56 -2 2 C-1.34 2 -0.68 2 0 2 C0 1.34 0 0.68 0 0 Z M33 78 C34 80 34 80 34 80 Z M30 82 C31 84 31 84 31 84 Z " fill="#2861B8" transform="translate(70,282)"/>
<path d="M0 0 C0.33 0.14 0.33 0.14 1.98 0.84 C6.69 2.79 10.93 4.24 16 5 C16.66 5.66 17.32 6.32 18 7 C18.33 5.68 18.66 4.36 19 3 C22.06 2.5 22.06 2.5 26 3 C28.97 5.26 31.15 7.76 33 11 C32.94 14.5 32.94 14.5 32 17 C31.34 17 30.68 17 30 17 C30 17.66 30 18.32 30 19 C29.34 19 28.68 19 28 19 C27.73 19.64 27.46 20.28 27.19 20.94 C26 23 26 23 23 24 C22.67 25.65 22.34 27.3 22 29 C21.34 29 20.68 29 20 29 C20.1 30.07 20.21 31.14 20.31 32.25 C20 36 20 36 17.62 38.25 C16.76 38.83 15.89 39.4 15 40 C14.34 40.99 13.68 41.98 13 43 C8.84 44.85 6.37 45.06 2 44 C1.5 44.17 1.5 44.17 -1 45 C-2.09 40.93 -2 37.22 -2 33 C-1.5 32.83 -1.5 32.83 1 32 C3.19 30.62 3.19 30.62 5 29 C5 28.01 5 27.02 5 26 C5.31 26.1 5.31 26.1 6.88 26.62 C7.58 26.75 8.28 26.87 9 27 C9.66 26.34 10.32 25.68 11 25 C9.35 25 7.7 25 6 25 C6 24.34 6 23.68 6 23 C5.01 22.67 4.02 22.34 3 22 C2.34 21.67 1.68 21.34 1 21 C1 20.34 1 19.68 1 19 C0.34 19 -0.32 19 -1 19 C-0.67 18.01 -0.34 17.02 0 16 C-0.66 16 -1.32 16 -2 16 C-3.12 10.38 -3.12 10.38 -2 7 C-1.01 6.34 -0.02 5.68 1 5 C1.33 4.01 1.66 3.02 2 2 C1.01 1.67 0.02 1.34 -1 1 C-0.67 0.67 -0.34 0.34 0 0 Z " fill="#0D3D7A" transform="translate(266,371)"/>
<path d="M0 0 C0.16 0.33 0.16 0.33 1 2 C2.32 2 3.64 2 5 2 C5 2.66 5 3.32 5 4 C5.31 4.07 5.31 4.07 6.88 4.44 C9 5 9 5 11 6 C11 6.66 11 7.32 11 8 C12.98 8.66 14.96 9.32 17 10 C17 10.66 17 11.32 17 12 C17.66 12 18.32 12 19 12 C19 12.66 19 13.32 19 14 C19.58 14.27 20.16 14.54 20.75 14.81 C25.17 17.15 28.08 19.93 31 24 C31 24.66 31 25.32 31 26 C31.66 26 32.32 26 33 26 C35.49 28.49 35.94 30.68 37 34 C37.64 35.35 38.29 36.69 39 38 C39.66 38 40.32 38 41 38 C45 43.41 45 43.41 45 46 C45.66 46 46.32 46 47 46 C49.49 51.68 50.39 54.94 49 61 C48.34 61 47.68 61 47 61 C47 60.01 47 59.02 47 58 C46.34 57.67 45.68 57.34 45 57 C44.71 56.2 44.42 55.39 44.12 54.56 C43 52 43 52 41.12 50.81 C40.42 50.54 39.72 50.28 39 50 C37.67 49.33 36.33 48.67 35 48 C35 47.34 35 46.68 35 46 C34.34 46 33.68 46 33 46 C33 45.34 33 44.68 33 44 C31.02 43.34 29.04 42.68 27 42 C27 41.34 27 40.68 27 40 C25.68 40 24.36 40 23 40 C23 39.34 23 38.68 23 38 C21.02 37.34 19.04 36.68 17 36 C17 35.34 17 34.68 17 34 C16.34 34 15.68 34 15 34 C15 33.34 15 32.68 15 32 C14.34 32 13.68 32 13 32 C13 31.34 13 30.68 13 30 C12.34 30 11.68 30 11 30 C11 29.34 11 28.68 11 28 C10.34 28 9.68 28 9 28 C9 27.34 9 26.68 9 26 C8.34 26 7.68 26 7 26 C7 25.34 7 24.68 7 24 C6.34 24 5.68 24 5 24 C5 23.34 5 22.68 5 22 C4.34 22 3.68 22 3 22 C3 21.01 3 20.02 3 19 C2.34 19 1.68 19 1 19 C1 18.01 1 17.02 1 16 C0.34 16 -0.32 16 -1 16 C-1 15.01 -1 14.02 -1 13 C-2.32 12.67 -3.64 12.34 -5 12 C-5 11.34 -5 10.68 -5 10 C-5.66 10 -6.32 10 -7 10 C-7.33 8.68 -7.66 7.36 -8 6 C-7.01 6 -6.02 6 -5 6 C-3.31 8 -3.31 8 -2 10 C-1.67 8.02 -1.34 6.04 -1 4 C-1.66 3.67 -2.32 3.34 -3 3 C-3.41 2.53 -3.83 2.05 -4.25 1.56 C-6.65 -0.58 -8.91 -1.12 -12 -2 C-13.11 -2.37 -14.23 -2.74 -15.38 -3.12 C-22.03 -4.8 -29.19 -4.15 -36 -4 C-35 -6 -35 -6 -31.88 -7.16 C-20.83 -9.56 -9.48 -5.64 0 0 Z M21 18 C20.67 18.17 20.67 18.17 19 19 C19 21.31 19 23.62 19 26 C18.34 26 17.68 26 17 26 C16 29 16 29 17 32 C18.67 32.04 20.33 32.04 22 32 C22.33 31.67 22.66 31.34 23 31 C25.67 30.86 28.32 30.96 31 31 C31 30.01 31 29.02 31 28 C30.34 28 29.68 28 29 28 C28.86 27.38 28.71 26.76 28.56 26.12 C28 24 28 24 27 22 C26.34 22 25.68 22 25 22 C25 21.34 25 20.68 25 20 C23.12 18.94 23.12 18.94 21 18 Z " fill="#2861B8" transform="translate(117,250)"/>
<path d="M0 0 C-0.16 0.76 -0.33 1.53 -0.5 2.31 C-1 5 -1 5 -1 8 C-2.32 8 -3.64 8 -5 8 C-5.66 8.66 -6.32 9.32 -7 10 C-7 9.34 -7 8.68 -7 8 C-7.66 8 -8.32 8 -9 8 C-9 8.66 -9 9.32 -9 10 C-9.66 10 -10.32 10 -11 10 C-11.33 10.99 -11.66 11.98 -12 13 C-11.01 13.33 -10.02 13.66 -9 14 C-9.66 14.66 -10.32 15.32 -11 16 C-14 15 -14 15 -15 14 C-15 14.99 -15 15.98 -15 17 C-14.01 16.67 -13.02 16.34 -12 16 C-11.67 17.98 -11.34 19.96 -11 22 C-10.01 21.67 -9.02 21.34 -8 21 C-8 21.99 -8 22.98 -8 24 C-6.68 23.67 -5.36 23.34 -4 23 C-3.34 24.32 -2.68 25.64 -2 27 C-1.67 26.34 -1.34 25.68 -1 25 C-1.66 24.67 -2.32 24.34 -3 24 C-1.68 23.67 -0.36 23.34 1 23 C1 23.66 1 24.32 1 25 C2.32 25.33 3.64 25.66 5 26 C4.84 25.34 4.84 25.34 4 22 C4.66 21.67 5.32 21.34 6 21 C6.16 21.99 6.16 21.99 7 27 C6.01 27.33 5.02 27.66 4 28 C4 28.66 4 29.32 4 30 C4.99 30.33 5.98 30.66 7 31 C6.38 31.14 5.76 31.29 5.12 31.44 C3 32 3 32 1 33 C1 32.34 1 31.68 1 31 C-1.06 30.97 -3.12 30.95 -5.19 30.94 C-6.34 30.93 -7.48 30.91 -8.67 30.9 C-11.59 30.99 -14.16 31.32 -17 32 C-16.65 35.24 -16.44 36.62 -13.94 38.81 C-13.3 39.2 -12.66 39.6 -12 40 C-12.66 40.16 -12.66 40.16 -16 41 C-16 40.34 -16 39.68 -16 39 C-16.62 38.79 -17.24 38.59 -17.88 38.38 C-20.85 36.45 -21.13 34.33 -22 31 C-23.98 31 -25.96 31 -28 31 C-28 30.34 -28 29.68 -28 29 C-28.66 28.67 -29.32 28.34 -30 28 C-30.69 12.11 -30.69 12.11 -28.56 7.62 C-25.48 4.47 -23.43 3.97 -19.17 3.33 C-16.59 2.94 -14.42 1.98 -12 1 C-7.94 0.14 -4.14 -0.1 0 0 Z M-20 27 C-19.34 27.66 -18.68 28.32 -18 29 C-18 28.34 -18 27.68 -18 27 C-18.66 27 -19.32 27 -20 27 Z M-10 27 C-9.34 27.66 -8.68 28.32 -8 29 C-8 28.34 -8 27.68 -8 27 C-8.66 27 -9.32 27 -10 27 Z " fill="#0D3D7A" transform="translate(50,213)"/>
<path d="M0 0 C5.75 -0.12 5.75 -0.12 8 1 C8.41 3.32 8.74 5.66 9 8 C9.66 8 10.32 8 11 8 C11 9.32 11 10.64 11 12 C11.66 12.33 12.32 12.66 13 13 C13.73 15.31 14.4 17.65 15 20 C15.66 20 16.32 20 17 20 C17 20.66 17 21.32 17 22 C18.98 22.66 20.96 23.32 23 24 C23 24.66 23 25.32 23 26 C23.66 26 24.32 26 25 26 C25 26.66 25 27.32 25 28 C26.98 28 28.96 28 31 28 C31.16 28.5 31.16 28.5 32 31 C35.56 32.19 35.56 32.19 39 33 C38.67 33.17 38.67 33.17 37 34 C37 34.66 37 35.32 37 36 C28.33 33.5 17.8 27.49 12.18 20.17 C9.42 15.08 7.72 9.5 6 4 C5.67 4.33 5.34 4.66 5 5 C5.42 7.65 5.9 10.25 6.44 12.88 C8 20.64 8 20.64 8 24 C8.66 24.33 9.32 24.66 10 25 C10.7 26.69 11.4 28.39 12.02 30.11 C13.85 33.64 15.88 35.64 19.67 36.87 C20.18 36.96 20.18 36.96 22.75 37.44 C28.23 38.56 33.49 39.99 38.81 41.69 C39.52 41.91 40.24 42.14 40.97 42.37 C42.65 42.91 44.32 43.46 46 44 C46 44.66 46 45.32 46 46 C40.3 45.59 35.01 44.54 29.5 43.06 C22.19 41.12 14.96 40.13 7.45 39.39 C4 39 4 39 1 38 C3 36 3 36 5.38 35.8 C5.84 35.82 5.84 35.82 8.12 35.88 C9.04 35.89 9.95 35.91 10.88 35.93 C11.58 35.95 12.28 35.98 13 36 C13 35.34 13 34.68 13 34 C11.68 33.34 10.36 32.68 9 32 C9 31.34 9 30.68 9 30 C8.34 29.67 7.68 29.34 7 29 C6.71 28.01 6.42 27.02 6.12 26 C5.75 25.01 5.38 24.02 5 23 C2.88 22.12 2.88 22.12 1 22 C1 21.34 1 20.68 1 20 C-0.65 20 -2.3 20 -4 20 C-4 19.34 -4 18.68 -4 18 C-5.11 18.02 -6.23 18.04 -7.38 18.06 C-11 18 -11 18 -13 17 C-12.96 17.78 -12.92 18.57 -12.88 19.38 C-13 22 -13 22 -15 24 C-17.69 24.27 -20.29 24.09 -23 24 C-23 23.34 -23 22.68 -23 22 C-24.32 22 -25.64 22 -27 22 C-27 21.34 -27 20.68 -27 20 C-28.98 20 -30.96 20 -33 20 C-33 18.68 -33 17.36 -33 16 C-33.66 15.67 -34.32 15.34 -35 15 C-34.67 13.68 -34.34 12.36 -34 11 C-33.67 11.99 -33.34 12.98 -33 14 C-32.34 14.33 -31.68 14.66 -31 15 C-30.67 15.66 -30.34 16.32 -30 17 C-29.01 16.67 -28.02 16.34 -27 16 C-26.67 16.99 -26.34 17.98 -26 19 C-24.35 19.33 -22.7 19.66 -21 20 C-21 20.66 -21 21.32 -21 22 C-16.75 20.39 -16.65 19.42 -14 15 C-9.71 15.33 -5.42 15.66 -1 16 C-1 16.66 -1 17.32 -1 18 C0.32 18 1.64 18 3 18 C3 18.66 3 19.32 3 20 C3.66 20 4.32 20 5 20 C4.1 13.48 4.1 13.48 3.44 10.44 C2.93 7.59 2.93 4.89 3 2 C2.01 2 1.02 2 0 2 C0 1.34 0 0.68 0 0 Z " fill="#2861B8" transform="translate(73,244)"/>
<path d="M0 0 C0.66 0 1.32 0 2 0 C2.03 0.77 2.05 1.53 2.08 2.32 C2.19 5.84 2.32 9.36 2.44 12.88 C2.48 14.08 2.52 15.28 2.56 16.52 C2.77 22.69 3.09 28.79 3.8 34.92 C3.99 36.94 4 38.97 4 41 C4.66 41 5.32 41 6 41 C6.03 44.92 6.05 48.83 6.06 52.75 C6.07 53.86 6.08 54.97 6.09 56.12 C6.09 57.19 6.09 58.26 6.1 59.36 C6.1 60.34 6.11 61.33 6.11 62.34 C6.01 64.77 5.84 66.73 5 69 C2.6 70.63 2.6 70.63 -0.38 72.12 C-3.38 73.66 -6.19 75.13 -9 77 C-9.99 77 -10.98 77 -12 77 C-12 77.66 -12 78.32 -12 79 C-13.32 79 -14.64 79 -16 79 C-16.33 79.66 -16.66 80.32 -17 81 C-17.99 81 -18.98 81 -20 81 C-20.16 81.33 -20.16 81.33 -21 83 C-22.65 83 -24.3 83 -26 83 C-26 83.66 -26 84.32 -26 85 C-25.43 84.97 -24.85 84.94 -24.26 84.91 C-8.05 84.06 7.8 83.93 24 85 C23.67 83.02 23.34 81.04 23 79 C23.99 79 24.98 79 26 79 C26.99 82.09 26.88 83.9 26 87 C18.96 87.99 12.34 87.91 5.25 87.5 C-4.02 87.02 -13.11 87.04 -22.36 87.77 C-26.79 88.08 -29.96 88.16 -34 86 C-34 85.01 -34 84.02 -34 83 C-33.34 83 -32.68 83 -32 83 C-31.83 82.67 -31.83 82.67 -31 81 C-28.03 81 -25.06 81 -22 81 C-22 80.34 -22 79.68 -22 79 C-20.68 79 -19.36 79 -18 79 C-18 78.34 -18 77.68 -18 77 C-16.89 76.71 -15.77 76.42 -14.62 76.12 C-11 75 -11 75 -9 73 C-8.01 73 -7.02 73 -6 73 C-6 72.34 -6 71.68 -6 71 C-5.34 71 -4.68 71 -4 71 C-4 69.68 -4 68.36 -4 67 C-3.34 67 -2.68 67 -2 67 C-2 65.68 -2 64.36 -2 63 C-1.34 63 -0.68 63 0 63 C-0.04 62.15 -0.08 61.31 -0.12 60.44 C0 57 0 57 1.06 53.88 C2.36 48.49 1.85 43.45 1 38 C0.67 37.67 0.34 37.34 0 37 C-0.09 34.26 -0.12 31.55 -0.1 28.81 C-0.1 27.99 -0.09 27.17 -0.09 26.32 C-0.09 23.7 -0.08 21.07 -0.06 18.44 C-0.06 16.66 -0.05 14.88 -0.05 13.1 C-0.04 8.74 -0.02 4.37 0 0 Z M3 57 C2.34 59.31 1.68 61.62 1 64 C1.99 64 2.98 64 4 64 C4 61.69 4 59.38 4 57 C3.67 57 3.34 57 3 57 Z M1 65 C0.67 66.32 0.34 67.64 0 69 C0.66 69 1.32 69 2 69 C2.33 68.01 2.66 67.02 3 66 C2.34 65.67 1.68 65.34 1 65 Z M-30 83 C-30 83.66 -30 84.32 -30 85 C-29.34 85 -28.68 85 -28 85 C-28 84.34 -28 83.68 -28 83 C-28.66 83 -29.32 83 -30 83 Z " fill="#2861B8" transform="translate(102,375)"/>
<path d="M0 0 C0.66 0 1.32 0 2 0 C2.54 1.07 3.07 2.14 3.62 3.25 C5.74 7.01 8.32 8.74 12 11 C12 11.66 12 12.32 12 13 C12.68 13.25 13.36 13.5 14.06 13.75 C17.57 15.24 20.72 17.07 24 19 C24 19.66 24 20.32 24 21 C24.52 21.08 25.03 21.17 25.56 21.25 C36.19 24.52 44.9 33.76 53 41 C52.67 41.99 52.34 42.98 52 44 C50.68 43.34 49.36 42.68 48 42 C48 41.34 48 40.68 48 40 C47.61 39.89 47.61 39.89 45.64 39.33 C40.75 37.54 36.28 35.13 31.69 32.69 C30.79 32.21 29.89 31.74 28.96 31.25 C26.3 29.85 23.65 28.43 21 27 C20.17 26.56 19.35 26.12 18.5 25.67 C10.7 21.45 3.06 16.12 -1 8 C-1.31 4.81 -1.43 2.87 0 0 Z " fill="#E0E9F7" transform="translate(62,299)"/>
<path d="M0 0 C2 1 2 1 3.08 3.91 C3.46 5.14 3.85 6.36 4.25 7.62 C8.03 18.77 14.51 24.27 24.93 29.46 C25.94 29.95 26.96 30.44 28 30.94 C33.6 33.65 38.28 36.97 43 41 C40.22 42.39 38.62 41.39 35.79 40.46 C35.45 40.35 35.45 40.35 33.69 39.75 C28.42 38.01 23.26 36.57 17.81 35.5 C12.81 34.38 10.01 33.37 7 29 C3.5 23.1 1.92 17.28 0.69 10.56 C0.6 10.11 0.6 10.11 0.14 7.81 C-0.8 2.92 -0.8 2.92 -1 1 C-0.67 0.67 -0.34 0.34 0 0 Z " fill="#E0E9F7" transform="translate(78,247)"/>
<path d="M0 0 C6.52 3.1 12.48 7.37 18 12 C17.41 16.85 16.02 20.61 14 25 C0.69 14.4 0.69 14.4 -0.44 7.2 C-0.44 4.76 -0.32 2.42 0 0 Z " fill="#E0E9F7" transform="translate(118,254)"/>
<path d="M0 0 C6.04 0.27 10.22 0.94 15 5 C15.33 5.99 15.66 6.98 16 8 C16.66 8.33 17.32 8.66 18 9 C17.67 10.65 17.34 12.3 17 14 C15 13 15 13 13 11 C11.05 11.24 11.05 11.24 8.88 11.88 C8.15 12.08 7.43 12.28 6.68 12.49 C6.13 12.66 5.57 12.83 5 13 C5 11.02 5 9.04 5 7 C4.01 7 3.02 7 2 7 C0.54 4.35 0 3.11 0 0 Z " fill="#0D3D7A" transform="translate(51,213)"/>
<path d="M0 0 C3.96 0 7.92 0 12 0 C12.66 1.32 13.32 2.64 14 4 C14.61 4.3 15.22 4.6 15.86 4.91 C18.91 6.46 20.31 8.68 22.31 11.44 C23.03 12.41 23.75 13.37 24.49 14.37 C24.99 15.24 25.49 16.11 26 17 C25.67 17.99 25.34 18.98 25 20 C24.46 19.27 23.91 18.54 23.36 17.78 C17.19 10.5 8.46 5.25 0 1 C0 0.67 0 0.34 0 0 Z " fill="#E0E9F7" transform="translate(138,284)"/>
<path d="M0 0 C0.66 0 1.32 0 2 0 C2 0.66 2 1.32 2 2 C2.66 2 3.32 2 4 2 C4 2.66 4 3.32 4 4 C4.66 4.33 5.32 4.66 6 5 C6.82 7.25 6.82 7.25 7.56 10 C8.91 14.91 8.91 14.91 10 16 C10.09 17.71 10.11 19.42 10.1 21.13 C10.09 22.16 10.09 23.2 10.09 24.26 C10.08 25.35 10.07 26.44 10.06 27.56 C10.06 28.65 10.05 29.75 10.05 30.87 C10.04 33.58 10.02 36.29 10 39 C9.5 39.17 9.5 39.17 7 40 C7.05 38.71 7.09 37.41 7.14 36.08 C7.4 25.55 7.04 16.86 3 7 C2.69 6.23 2.38 5.45 2.07 4.66 C1.42 3.09 0.72 1.54 0 0 Z " fill="#2861B8" transform="translate(116,374)"/>
<path d="M0 0 C1.44 0.45 2.88 0.91 4.31 1.38 C5.11 1.63 5.91 1.89 6.74 2.15 C9 3 9 3 12 5 C11.67 6.65 11.34 8.3 11 10 C10.42 9.69 9.85 9.38 9.25 9.06 C7.16 8.07 5.25 7.48 3 7 C3 7.99 3 8.98 3 10 C4.98 10 6.96 10 9 10 C9 10.66 9 11.32 9 12 C7.02 12.33 5.04 12.66 3 13 C0.94 10.69 0.04 9.44 -0.25 6.31 C0 4 0 4 1 3 C0.34 2.34 -0.32 1.68 -1 1 C-0.67 0.67 -0.34 0.34 0 0 Z " fill="#2861B8" transform="translate(269,378)"/>
<path d="M0 0 C3.25 -0.31 3.25 -0.31 7 0 C9.44 2.5 9.44 2.5 11 5 C5.25 8 5.25 8 3 8 C3 7.34 3 6.68 3 6 C0 7 0 7 -2 9 C-6 4.25 -6 4.25 -6 2 C-3 3 -3 3 -1 4 C-0.67 2.68 -0.34 1.36 0 0 Z " fill="#2861B8" transform="translate(285,374)"/>
<path d="M0 0 C0.37 0.17 0.37 0.17 2.25 1 C4 2 4 2 5 4 C0.94 3.53 -2.47 3.12 -6 1 C-6.05 1.32 -6.05 1.32 -6.31 2.94 C-6.54 3.62 -6.77 4.3 -7 5 C-7.99 5.33 -8.98 5.66 -10 6 C-10.33 7.65 -10.66 9.3 -11 11 C-11.69 8.51 -12 6.62 -12 4 C-10.68 4 -9.36 4 -8 4 C-8 3.34 -8 2.68 -8 2 C-11.3 2 -14.6 2 -18 2 C-18.33 2.66 -18.66 3.32 -19 4 C-19 2.68 -19 1.36 -19 0 C-6.57 -3.03 -6.57 -3.03 0 0 Z " fill="#2861B8" transform="translate(274,372)"/>
<path d="M0 0 C0.69 2.49 1 4.38 1 7 C0.34 7.66 -0.32 8.32 -1 9 C-0.65 12.44 0.05 14.07 2 17 C2.99 17 3.98 17 5 17 C5 18.65 5 20.3 5 22 C4.34 22 3.68 22 3 22 C3 21.01 3 20.02 3 19 C2.67 19.82 2.67 19.82 1 24 C0.34 24 -0.32 24 -1 24 C-1 23.34 -1 22.68 -1 22 C-1.66 21.67 -2.32 21.34 -3 21 C-3.08 18.44 -3.14 15.88 -3.19 13.31 C-3.21 12.59 -3.24 11.87 -3.26 11.13 C-3.33 6.52 -2.78 3.7 0 0 Z " fill="#2861B8" transform="translate(23,220)"/>
<path d="M0 0 C2 2 2 2 2 6 C2.99 5.67 3.98 5.34 5 5 C5 5.99 5 6.98 5 8 C6.32 7.67 7.64 7.34 9 7 C9.66 8.32 10.32 9.64 11 11 C11.33 10.34 11.66 9.68 12 9 C11.34 8.67 10.68 8.34 10 8 C11.32 7.67 12.64 7.34 14 7 C14.33 7.99 14.66 8.98 15 10 C13.71 11.38 12.37 12.71 11 14 C10.34 14 9.68 14 9 14 C8.67 13.01 8.34 12.02 8 11 C5.44 9.81 5.44 9.81 3 9 C3 10.32 3 11.64 3 13 C2.34 13 1.68 13 1 13 C0.64 11.69 0.29 10.38 -0.06 9.06 C-0.16 8.7 -0.16 8.7 -0.66 6.85 C-0.77 6.24 -0.88 5.63 -1 5 C-0.67 4.67 -0.34 4.34 0 4 C-0.66 3.34 -1.32 2.68 -2 2 C-1.34 1.34 -0.68 0.68 0 0 Z " fill="#0D3D7A" transform="translate(37,229)"/>
<path d="M0 0 C0.33 0.66 0.66 1.32 1 2 C0.34 1.67 -0.32 1.34 -1 1 C-0.67 0.67 -0.34 0.34 0 0 Z " fill="#2861B8" transform="translate(161,336)"/>
<path d="M0 0 C0.66 0 1.32 0 2 0 C1.67 0.66 1.34 1.32 1 2 C0.67 1.34 0.34 0.68 0 0 Z " fill="#2861B8" transform="translate(172,309)"/>
<path d="M0 0 C2 1 2 1 2 1 Z " fill="#2861B8" transform="translate(214,460)"/>
<path d="M0 0 C2 1 2 1 2 1 Z " fill="#2861B8" transform="translate(109,353)"/>
<path d="" fill="#2861B8" transform="translate(0,0)"/>
<path d="" fill="#2861B8" transform="translate(0,0)"/>
<path d="" fill="#2861B8" transform="translate(0,0)"/>
<path d="" fill="#2861B8" transform="translate(0,0)"/>
<path d="" fill="#2861B8" transform="translate(0,0)"/>
<path d="" fill="#2861B8" transform="translate(0,0)"/>
<path d="" fill="#2861B8" transform="translate(0,0)"/>
<path d="" fill="#2861B8" transform="translate(0,0)"/>
<path d="" fill="#2861B8" transform="translate(0,0)"/>
<path d="" fill="#2861B8" transform="translate(0,0)"/>
<path d="" fill="#2861B8" transform="translate(0,0)"/>
<path d="" fill="#2861B8" transform="translate(0,0)"/>
<path d="" fill="#2861B8" transform="translate(0,0)"/>
<path d="" fill="#2861B8" transform="translate(0,0)"/>
<path d="" fill="#2861B8" transform="translate(0,0)"/>
<path d="" fill="#2861B8" transform="translate(0,0)"/>
<path d="" fill="#2861B8" transform="translate(0,0)"/>
<path d="" fill="#2861B8" transform="translate(0,0)"/>
<path d="" fill="#2861B8" transform="translate(0,0)"/>
<path d="" fill="#2861B8" transform="translate(0,0)"/>
<path d="" fill="#2861B8" transform="translate(0,0)"/>
<path d="" fill="#2861B8" transform="translate(0,0)"/>
<path d="" fill="#2861B8" transform="translate(0,0)"/>
<path d="" fill="#2861B8" transform="translate(0,0)"/>
<path d="" fill="#2861B8" transform="translate(0,0)"/>
<path d="" fill="#2861B8" transform="translate(0,0)"/>
<path d="" fill="#2861B8" transform="translate(0,0)"/>
<path d="" fill="#2861B8" transform="translate(0,0)"/>
<path d="" fill="#2861B8" transform="translate(0,0)"/>
<path d="" fill="#2861B8" transform="translate(0,0)"/>
<path d="" fill="#2861B8" transform="translate(0,0)"/>
<path d="" fill="#2861B8" transform="translate(0,0)"/>
<path d="" fill="#2861B8" transform="translate(0,0)"/>
<path d="" fill="#2861B8" transform="translate(0,0)"/>
<path d="" fill="#2861B8" transform="translate(0,0)"/>
<path d="" fill="#2861B8" transform="translate(0,0)"/>
<path d="" fill="#2861B8" transform="translate(0,0)"/>
<path d="" fill="#2861B8" transform="translate(0,0)"/>
<path d="" fill="#2861B8" transform="translate(0,0)"/>
<path d="" fill="#2861B8" transform="translate(0,0)"/>
<path d="" fill="#2861B8" transform="translate(0,0)"/>
<path d="" fill="#2861B8" transform="translate(0,0)"/>
<path d="" fill="#2861B8" transform="translate(0,0)"/>
<path d="" fill="#2861B8" transform="translate(0,0)"/>
<path d="" fill="#2861B8" transform="translate(0,0)"/>
<path d="" fill="#2861B8" transform="translate(0,0)"/>
<path d="" fill="#2861B8" transform="translate(0,0)"/>
</svg>
