<?xml version="1.0" encoding="UTF-8"?>
<!-- Generator: visioncortex VTracer 0.6.12 -->
<svg version="1.1" xmlns="http://www.w3.org/2000/svg" viewBox="0 0 352 498" preserveAspectRatio="xMidYMid meet">
<path d="M0 0 C0.66 0 1.32 0 2 0 C3.44 1.9 3.44 1.9 5 4.38 C6.57 6.85 7.92 8.92 10 11 C10 11.99 10 12.98 10 14 C10.66 14.33 11.32 14.66 12 15 C13 17 14 19 15 21 C15.66 21.33 16.32 21.66 17 22 C17.33 22.99 17.66 23.98 18 25 C18.66 25.33 19.32 25.66 20 26 C20 26.66 20 27.32 20 28 C20.66 28 21.32 28 22 28 C23 29.96 24 31.91 25 33.88 C25.56 34.97 26.11 36.06 26.69 37.18 C28 40 28 40 28 42 C28.66 42 29.32 42 30 42 C31.95 44.24 33.67 46.34 35 49 C35.99 49 36.98 49 38 49 C38 50.65 38 52.3 38 54 C39.32 54.66 40.64 55.32 42 56 C42 56.66 42 57.32 42 58 C42.66 58 43.32 58 44 58 C44.47 58.8 44.95 59.61 45.44 60.44 C47 63 47 63 50 64 C51.19 67.06 51.19 67.06 52 70 C52.66 70 53.32 70 54 70 C55.44 71.5 55.44 71.5 57 73.44 C59.8 76.9 59.8 76.9 62 78 C62 78.66 62 79.32 62 80 C62.47 80.15 62.47 80.15 64.88 80.94 C68 82 68 82 70 83 C70 83.99 70 84.98 70 86 C70.62 86.14 71.24 86.29 71.88 86.44 C74 87 74 87 76 88 C76 88.66 76 89.32 76 90 C76.58 90.29 77.16 90.58 77.75 90.88 C79.83 91.92 81.92 92.96 84 94 C84 94.66 84 95.32 84 96 C84.66 96 85.32 96 86 96 C86 96.66 86 97.32 86 98 C86.58 98.29 87.16 98.58 87.75 98.88 C88.49 99.25 89.24 99.62 90 100 C90.68 100.27 91.36 100.54 92.06 100.81 C95.53 102.94 96.75 106.25 98 110 C98.66 110 99.32 110 100 110 C100.29 110.64 100.58 111.28 100.88 111.94 C102 114 102 114 104 115 C104 115.99 104 116.98 104 118 C104.32 117.93 104.32 117.93 105.92 117.56 C112.74 116.21 119.38 115.78 126.31 115.75 C127.16 115.74 128.01 115.73 128.88 115.72 C133.95 115.75 138.24 116.21 143 118 C143.33 118.66 143.66 119.32 144 120 C146.31 120 148.62 120 151 120 C148.25 115.12 148.25 115.12 146 114 C145.55 113.22 145.09 112.43 144.62 111.62 C142.95 108.91 141.54 107.85 139 106 C137.65 104.35 136.32 102.68 135 101 C134.55 100.56 134.55 100.56 132.25 98.31 C130 96 130 96 130 94 C129.34 94 128.68 94 128 94 C128.67 91.33 129.33 88.67 130 86 C130.66 86 131.32 86 132 86 C132 84.68 132 83.36 132 82 C132.33 81.67 132.66 81.34 133 81 C130.19 78.04 127.82 75.56 124 74 C124 73.34 124 72.68 124 72 C122.02 71.34 120.04 70.68 118 70 C118 69.34 118 68.68 118 68 C116.68 68 115.36 68 114 68 C114 67.34 114 66.68 114 66 C111.51 65.31 109.62 65 107 65 C107.5 65.93 107.99 66.86 108.5 67.81 C110 71 110 71 110 74 C110.66 74 111.32 74 112 74 C112 74.66 112 75.32 112 76 C112.8 76.29 113.61 76.58 114.44 76.88 C117 78 117 78 118 80 C118.13 82.67 118.04 85.32 118 88 C118.66 88.33 119.32 88.66 120 89 C120.66 89.66 121.32 90.32 122 91 C122.66 90.67 123.32 90.34 124 90 C124.99 90.66 125.98 91.32 127 92 C125 94 125 94 122.38 94.12 C121.59 94.08 120.81 94.04 120 94 C119.71 93.36 119.42 92.72 119.12 92.06 C118 90 118 90 116 89 C116 86.36 116 83.72 116 81 C115.34 80.67 114.68 80.34 114 80 C112.33 78.67 110.66 77.34 109 76 C108.5 75.67 108.5 75.67 106 74 C105.96 72 105.96 70 106 68 C105.34 67.34 104.68 66.68 104 66 C104 64.68 104 63.36 104 62 C107.52 60.79 108.84 60.93 112.33 62.43 C113.5 63.09 114.66 63.76 115.81 64.44 C116.41 64.78 117.01 65.11 117.62 65.46 C119.09 66.3 120.55 67.15 122 68 C122 68.66 122 69.32 122 70 C123.32 70 124.64 70 126 70 C126 70.66 126 71.32 126 72 C126.99 72 127.98 72 129 72 C131.14 73.89 132.72 75.44 134 78 C134.66 78 135.32 78 136 78 C136 78.66 136 79.32 136 80 C136.89 80.23 137.77 80.45 138.69 80.69 C142.48 82.19 144.14 84.14 147 87 C148.2 87.5 149.39 87.99 150.62 88.5 C154 90 154 90 155.38 92.38 C157.88 96.42 161.82 97.94 166 100 C166 100.66 166 101.32 166 102 C167.32 102 168.64 102 170 102 C172.25 103.88 172.25 103.88 174 106 C174 106.66 174 107.32 174 108 C174.66 108 175.32 108 176 108 C176 108.66 176 109.32 176 110 C176.66 110 177.32 110 178 110 C178 110.66 178 111.32 178 112 C178.99 112.33 179.98 112.66 181 113 C185.02 115.68 187.26 119.07 190 123 C190.22 123.31 190.22 123.31 191.35 124.87 C192.5 126.62 192.5 126.62 194 130 C193.25 133.44 193.25 133.44 192 136 C191.34 136 190.68 136 190 136 C190 137.32 190 138.64 190 140 C188.42 140.68 186.84 141.34 185.25 142 C184.37 142.37 183.49 142.74 182.58 143.12 C180 144 180 144 176 144 C175.67 144.66 175.34 145.32 175 146 C165.92 149.03 155.75 148.23 146.31 148.12 C144.72 148.11 143.14 148.11 141.55 148.1 C137.7 148.08 133.85 148.04 130 148 C131.06 151.4 132.01 154.01 134 157 C134 157.99 134 158.98 134 160 C134.66 160.33 135.32 160.66 136 161 C135.81 161.57 135.61 162.13 135.41 162.72 C134.91 165.49 135.43 166.89 136.44 169.5 C137.68 172.75 138 174.38 138 178 C138.66 178 139.32 178 140 178 C141.99 181.32 142.24 183.8 142.2 187.64 C142.19 188.18 142.19 188.18 142.18 190.88 C142.17 191.44 142.17 191.44 142.12 194.25 C142.12 195.38 142.11 196.5 142.1 197.66 C142.07 200.44 142.04 203.22 142 206 C142.66 206 143.32 206 144 206 C144.13 207.19 144.27 208.38 144.4 209.61 C144.58 211.18 144.76 212.75 144.94 214.31 C144.98 214.71 144.98 214.71 145.2 216.69 C145.29 217.45 145.38 218.21 145.46 218.99 C145.54 219.68 145.62 220.38 145.7 221.1 C146.09 223.6 146.87 225.74 148 228 C149.32 228 150.64 228 152 228 C154.12 230.44 154.12 230.44 156 233 C156.66 233.33 157.32 233.66 158 234 C158 234.66 158 235.32 158 236 C158.66 236 159.32 236 160 236 C162.12 237.88 162.12 237.88 164 240 C164 240.66 164 241.32 164 242 C164.66 242 165.32 242 166 242 C168.12 243.88 168.12 243.88 170 246 C170 246.66 170 247.32 170 248 C170.66 248 171.32 248 172 248 C172.66 249.98 173.32 251.96 174 254 C174.66 254 175.32 254 176 254 C175.67 255.65 175.34 257.3 175 259 C174.67 258.5 174.67 258.5 173 256 C171.25 253.99 169.45 252.01 167.66 250.04 C166.08 248.09 165.02 246.28 164 244 C163.34 244 162.68 244 162 244 C162 243.34 162 242.68 162 242 C161.34 242 160.68 242 160 242 C158.74 240.64 158.74 240.64 157.31 238.81 C154.26 235.09 150.96 232.71 147 230 C146.67 229.34 146.34 228.68 146 228 C144.35 227.61 142.68 227.28 141 227 C137.15 225.72 136.58 224.21 134.72 220.79 C134 219 134 219 134.25 216.56 C134.37 216.3 134.37 216.3 135 215 C135.66 215.99 136.32 216.98 137 218 C137.33 217.34 137.66 216.68 138 216 C137.34 215.67 136.68 215.34 136 215 C135.04 213.9 134.1 212.77 133.19 211.62 C129.63 207.43 127.09 205.18 121.44 204.69 C116.38 205.15 116.38 205.15 114 207 C112.75 209.62 112.75 209.62 112 212 C111.34 212 110.68 212 110 212 C110.16 214.31 110.16 214.31 111 226 C111.33 226 111.66 226 112 226 C113.59 230.18 114.21 233.53 114 238 C114.66 238 115.32 238 116 238 C116.17 251.5 116.17 251.5 115.5 256.62 C114.37 265.27 114.76 273.35 117 281.75 C117.99 285.56 118.39 289.3 118.66 293.21 C118.77 293.8 118.88 294.39 119 295 C119.66 295.33 120.32 295.66 121 296 C120.83 296.56 120.65 297.12 120.47 297.7 C119.95 300.25 120.1 302.18 120.44 304.75 C120.62 306.15 120.81 307.56 121 309 C122.49 308.34 122.49 308.34 130 305 C129.01 305 128.02 305 127 305 C126.67 304.01 126.34 303.02 126 302 C126.8 301.24 127.61 300.47 128.44 299.69 C131 297 131 297 132 294 C132.66 293.67 133.32 293.34 134 293 C134 292.01 134 291.02 134 290 C133.34 290 132.68 290 132 290 C131.98 289.66 131.98 289.66 131.89 287.91 C131.5 282.37 130.71 277.57 128.83 272.36 C125.59 263.16 124.58 254.74 125 245 C127.97 245.33 130.94 245.66 134 246 C134 245.34 134 244.68 134 244 C133.09 244.04 132.19 244.08 131.25 244.12 C128.12 244 126.61 243.61 124 242 C124 241.34 124 240.68 124 240 C122.02 239.67 120.04 239.34 118 239 C118.33 238.01 118.66 237.02 119 236 C119.99 236 120.98 236 122 236 C122 236.66 122 237.32 122 238 C123.98 238.66 125.96 239.32 128 240 C128 240.66 128 241.32 128 242 C129.03 241.94 130.06 241.88 131.12 241.81 C136.27 242.06 139.47 243.42 143.06 247.12 C145.35 249.34 146.89 249.65 150 250 C150 250.66 150 251.32 150 252 C150.66 252 151.32 252 152 252 C152 252.66 152 253.32 152 254 C152.62 254.25 153.24 254.5 153.88 254.75 C156.37 256.22 157.07 257.29 158 260 C157 262 156 264 155 266 C154.72 266.6 154.44 267.2 154.15 267.81 C152.79 270.4 151.19 272.73 149.5 275.12 C148.89 275.99 148.28 276.86 147.66 277.76 C146 280 146 280 144 282 C144 281.34 144 280.68 144 280 C142.68 280 141.36 280 140 280 C140.33 278.02 140.66 276.04 141 274 C141.66 274 142.32 274 143 274 C143.33 273.34 143.66 272.68 144 272 C144.33 273.32 144.66 274.64 145 276 C145.33 274.02 145.66 272.04 146 270 C146.66 270 147.32 270 148 270 C147.84 269.03 147.67 268.06 147.5 267.06 C146.86 262.69 146.93 258.41 147 254 C142.71 254 138.42 254 134 254 C134 252.35 134 250.7 134 249 C131.36 248.01 128.72 247.02 126 246 C127.16 252.54 128.68 258.96 130.38 265.38 C130.57 266.16 130.77 266.94 130.97 267.75 C132.19 272.25 133.31 274.93 137 278 C138.3 280.21 139 281.43 139 284 C140.65 284.33 142.3 284.66 144 285 C143.34 286.65 142.68 288.3 142 290 C141.34 290 140.68 290 140 290 C139.73 290.62 139.46 291.24 139.19 291.88 C138 294 138 294 135 296 C135.21 296.7 135.41 297.4 135.62 298.12 C136.08 301.62 135.21 303.73 134 307 C134 307.99 134 308.98 134 310 C134.99 310.33 135.98 310.66 137 311 C136.67 312.32 136.34 313.64 136 315 C136.99 315 137.98 315 139 315 C133.32 320.99 133.32 320.99 130 322 C126.75 321.62 126.75 321.62 124 321 C124.31 321.68 124.62 322.36 124.94 323.06 C126 326 126 326 126.38 329.38 C126.94 332.64 127.47 334.09 129.12 336.81 C129.74 337.86 130.36 338.92 131 340 C130.67 340.66 130.34 341.32 130 342 C126 336.25 126 336.25 126 334 C125.34 334 124.68 334 124 334 C123.88 333.16 123.76 332.31 123.63 331.45 C123.47 330.35 123.3 329.25 123.12 328.12 C122.96 327.03 122.8 325.94 122.63 324.82 C122 322 122 322 120 320 C120.66 320 121.32 320 122 320 C121.34 317.52 121.34 317.52 118 305 C117.34 305 116.68 305 116 305 C115.34 305.66 114.68 306.32 114 307 C114.39 309.97 114.39 309.97 115.25 313.5 C115.52 314.67 115.8 315.83 116.08 317.03 C117 320 117 320 119 322 C108.11 322.33 97.22 322.66 86 323 C86.29 326.55 86.58 330.1 86.88 333.75 C87.41 342.46 87.16 348.14 82.44 355.61 C80.35 359.08 80.15 362 80 366 C83.3 366 86.6 366 90 366 C90 366.66 90 367.32 90 368 C78.94 368.83 67.91 369.11 56.81 369.12 C55.56 369.13 54.31 369.13 53.02 369.14 C37.67 369.11 37.67 369.11 33.93 366.62 C27.61 359.79 23.87 353.79 23.75 344.25 C23.72 343.06 23.7 341.87 23.67 340.64 C24.35 333.16 28.63 326.88 32.25 320.44 C36.26 313.25 40.03 306.03 43.46 298.55 C45.13 295.79 46.1 295.19 49 294 C49.71 292.35 50.37 290.68 51 289 C53.08 285.75 55.27 282.73 58 280 C58.33 279.34 58.66 278.68 59 278 C59.69 277.31 60.39 276.63 61.11 275.92 C63.77 271.81 63.08 268.99 62.31 264.31 C62.21 263.54 62.1 262.77 61.99 261.97 C61.2 256.4 61.2 256.4 60 254 C57.8 241.22 59.69 228.01 61.6 215.3 C62 212 62 212 62 208.63 C62 206 62 206 63 205 C63.13 202.75 63.18 200.5 63.19 198.25 C63.2 197.02 63.22 195.79 63.23 194.52 C63.01 191.17 62.42 189 61 186 C59.71 182 59.29 177.93 60.76 173.93 C62.28 171.56 63.37 171.08 65.99 170.11 C66.78 169.81 67.57 169.52 68.38 169.21 C69.2 168.91 70.03 168.62 70.88 168.31 C71.69 168.01 72.51 167.7 73.35 167.38 C79.21 165.2 79.21 165.2 82.14 164.47 C84 164 84 164 86 163 C85.38 162.63 84.76 162.26 84.12 161.88 C81.4 159.47 80.86 157.5 80 154 C80 152.68 80 151.36 80 150 C79.34 150 78.68 150 78 150 C78 144.72 78 139.44 78 134 C77.34 134 76.68 134 76 134 C76 133.34 76 132.68 76 132 C75.34 132 74.68 132 74 132 C73.34 130.02 72.68 128.04 72 126 C71.34 126 70.68 126 70 126 C70 124.68 70 123.36 70 122 C69.34 122 68.68 122 68 122 C64.72 118.72 63.45 114.35 62 110 C61.34 110 60.68 110 60 110 C59.18 108.56 58.37 107.13 57.56 105.69 C57.34 105.29 57.34 105.29 56.19 103.26 C55 101 55 101 54 98 C51.94 96.81 51.94 96.81 50 96 C50 95.34 50 94.68 50 94 C49.34 94 48.68 94 48 94 C48 93.34 48 92.68 48 92 C47.34 92 46.68 92 46 92 C46 91.34 46 90.68 46 90 C45.32 89.79 44.64 89.59 43.94 89.38 C40.01 87.54 37.17 84.92 34 82 C33.24 81.34 32.47 80.68 31.69 80 C29.59 77.52 28.96 75.07 28 72 C27.34 71.67 26.68 71.34 26 71 C26 70.01 26 69.02 26 68 C25.34 68 24.68 68 24 68 C23.71 67.2 23.42 66.39 23.12 65.56 C22 63 22 63 20 62 C20 60.02 20 58.04 20 56 C19.34 55.67 18.68 55.34 18 55 C18 54.01 18 53.02 18 52 C17.34 52 16.68 52 16 52 C15.34 51.34 14.68 50.68 14 50 C14 48.68 14 47.36 14 46 C13.34 46 12.68 46 12 46 C12 45.34 12 44.68 12 44 C11.09 43.71 10.19 43.42 9.25 43.12 C8.18 42.75 7.11 42.38 6 42 C5.28 41.77 4.57 41.55 3.83 41.31 C2 40 2 40 1.5 37.24 C1.48 36.13 1.46 35.02 1.44 33.88 C1.26 29.84 1.06 26.43 -0.5 22.69 C-3.6 15.06 -3.22 8.8 -1 1 C-0.67 0.67 -0.34 0.34 0 0 Z M1 3 C0.67 3.17 0.67 3.17 -1 4 C-1.7 17.86 -1.7 17.86 2.04 23.91 C4.04 28.26 3.84 33.28 4 38 C7.92 39.69 9.86 40.31 14 39 C16.02 38.05 18.03 37.05 20 36 C20.33 35.84 20.33 35.84 22 35 C22 34.01 22 33.02 22 32 C21.34 32 20.68 32 20 32 C19.95 31.71 19.95 31.71 19.7 30.25 C18.87 27.58 17.67 26.13 15.88 24 C12.25 19.51 9.45 14.76 6.68 9.7 C5.03 7.05 3.29 5.1 1 3 Z M91.88 161.94 C91.19 162.11 90.51 162.29 89.8 162.46 C88 163 88 163 86 164 C86 164.66 86 165.32 86 166 C85.34 166.33 85.34 166.33 82 168 C82 168.66 82 169.32 82 170 C80.68 170 79.36 170 78 170 C78 170.66 78 171.32 78 172 C77.57 171.97 77.57 171.97 75.38 171.81 C71.47 172.03 69.29 172.91 66 175 C64.44 176.88 64.44 176.88 64 179 C64.48 179.69 64.96 180.38 65.45 181.1 C67.49 184.92 67.41 188.33 67.36 192.55 C67.36 193.37 67.36 194.19 67.36 195.04 C67.36 196.77 67.35 198.5 67.34 200.23 C67.31 202.86 67.32 205.49 67.32 208.12 C67.32 209.81 67.31 211.49 67.3 213.18 C67.3 213.57 67.3 213.57 67.3 215.54 C67.24 220.36 66.47 224.37 65 229 C63.57 236.03 64.32 242.48 65.34 249.53 C68.25 269.94 68.25 269.94 62.03 278.69 C61.36 279.45 60.69 280.21 60 281 C56 285.79 56 285.79 56 288 C55.34 288 54.68 288 54 288 C49.42 293.79 47.18 298.64 48 306 C50.99 307.49 53.94 306.92 57.19 306.69 C57.89 306.64 58.6 306.59 59.32 306.54 C74.09 305.47 74.09 305.47 81 304 C82.48 301.04 82.06 298.26 82 295 C82.66 295 83.32 295 84 295 C84.18 294.31 84.36 293.62 84.55 292.91 C85.78 288.33 87.03 283.83 88.69 279.38 C91.2 271.96 90.14 265.37 88 258 C87.34 258 86.68 258 86 258 C86.02 257.13 86.04 256.27 86.06 255.38 C86 252 86 252 85.49 249.53 C84.63 243.37 85 237.15 85.13 230.94 C85.18 225.66 84.94 221.14 83.47 216.07 C82.47 211.62 82.67 207.04 82.69 202.5 C82.67 201.51 82.66 200.51 82.64 199.49 C82.63 192.27 83.31 186.26 88.06 180.5 C90.68 177.12 91.15 174.17 92 170 C92.66 170 93.32 170 94 170 C94 169.34 94 168.68 94 168 C101.75 167 101.75 167 104 167 C104 167.99 104 168.98 104 170 C104.66 170 105.32 170 106 170 C106 172.64 106 175.28 106 178 C111.57 180.53 116.6 180.33 122.62 180.31 C123.67 180.33 124.72 180.34 125.8 180.36 C126.31 180.36 126.31 180.36 128.85 180.36 C129.31 180.36 129.31 180.36 131.63 180.37 C134.4 179.94 135.28 179.16 137 177 C136.67 176.5 136.67 176.5 135 174 C134.63 171.67 134.29 169.34 134 167 C133.84 166.5 133.84 166.5 133 164 C132.01 164 131.02 164 130 164 C130 164.66 130 165.32 130 166 C129.36 165.93 128.71 165.86 128.05 165.78 C122.71 165.23 117.56 165.01 112.19 165.19 C106.6 165.26 104.25 164.49 100 161 C96.86 161 94.82 161.17 91.88 161.94 Z M96 169 C96 169.99 96 170.98 96 172 C95.34 172 94.68 172 94 172 C93.76 172.51 93.52 173.02 93.27 173.54 C91.64 176.88 90.2 179.75 87.81 182.62 C85.32 187.27 85.37 191.55 85.18 196.76 C85 200 85 200 84.42 202.3 C84 204 84 204 85 206 C85.22 208.1 85.37 210.21 85.5 212.31 C85.54 212.99 85.58 213.66 85.63 214.36 C85.91 219.29 86.06 224.22 86.18 229.16 C86.21 230.43 86.25 231.7 86.28 233 C86.34 235.54 86.39 238.08 86.43 240.62 C86.59 247.06 87.12 252.72 89.27 258.82 C90.74 263.22 91.16 267.38 91.19 272 C91.2 273.01 91.22 274.02 91.23 275.06 C90.99 278.13 90.27 280.21 89 283 C86.87 288.52 85.62 293.06 86 299 C85.34 299 84.68 299 84 299 C81.92 302.46 81.59 305.5 81.31 309.5 C81.23 310.62 81.14 311.75 81.05 312.91 C80.97 317.6 80.97 317.6 82 320 C85.88 321.29 88.38 320.45 92.25 319.38 C95.49 318.93 98.28 319.32 101.51 319.74 C105.67 320.17 109.82 320.08 114 320 C113.67 319.01 113.34 318.02 113 317 C112.34 316.67 111.68 316.34 111 316 C111.18 315.29 111.37 314.59 111.56 313.86 C112.05 310.67 111.71 308.34 111.06 305.19 C110.87 304.21 110.67 303.24 110.47 302.23 C110.32 301.49 110.16 300.76 110 300 C108.68 300 107.36 300 106 300 C104.68 300 103.36 300 102 300 C102 297.03 102 294.06 102 291 C101.01 291 100.02 291 99 291 C98.34 290.34 97.68 289.68 97 289 C98.32 289 99.64 289 101 289 C100.67 287.02 100.34 285.04 100 283 C99.34 283.99 98.68 284.98 98 286 C97.34 284.35 96.68 282.7 96 281 C96.66 281 97.32 281 98 281 C97.67 278.03 97.34 275.06 97 272 C97.82 271.84 97.82 271.84 102 271 C101.5 270.84 101.5 270.84 99 270 C98.67 268.02 98.34 266.04 98 264 C98.66 264 99.32 264 100 264 C100 263.34 100 262.68 100 262 C100.66 262 101.32 262 102 262 C102 261.34 102 260.68 102 260 C102.29 259.87 102.29 259.87 103.75 259.19 C106.11 257.94 108.01 256.79 110 255 C111.76 249.21 111.13 243.6 109 238 C108.66 237.39 108.31 236.79 107.96 236.16 C106.77 233.49 106.62 231.22 106.44 228.31 C106.1 223.1 106.1 223.1 105 222 C104.86 220.54 104.77 219.07 104.72 217.6 C104.68 216.71 104.64 215.82 104.61 214.9 C104.59 214.43 104.59 214.43 104.5 212.06 C104.43 210.22 104.36 208.38 104.28 206.54 C104.25 205.71 104.22 204.89 104.19 204.05 C104 202 104 202 103 200 C102.9 197.36 102.86 194.76 102.88 192.12 C102.87 191.76 102.87 191.76 102.86 189.94 C102.87 186.47 103.02 183.34 104 180 C104.25 175.43 104 172.14 102 168 C98 168 98 168 96 169 Z M63 182 C64 184 64 184 64 184 Z M64 186 C64.66 186.66 65.32 187.32 66 188 C66 187.34 66 186.68 66 186 C65.34 186 64.68 186 64 186 Z M65 206 C66 208 66 208 66 208 Z M65 212 C66 215 66 215 66 215 Z M64 216 C65 218 65 218 65 218 Z M62 231 C62 233.31 62 235.62 62 238 C62.33 238 62.66 238 63 238 C63 235.69 63 233.38 63 231 C62.67 231 62.34 231 62 231 Z M136 246 C136.25 247.88 136.25 247.88 137 250 C138.88 251.31 138.88 251.31 141 252 C141.99 251.67 142.98 251.34 144 251 C141.69 248.5 141.69 248.5 139 246 C138.01 246 137.02 246 136 246 Z M63 247 C61.4 251 62.71 254.05 64 258 C64.33 258 64.66 258 65 258 C64.67 254.37 64.34 250.74 64 247 C63.67 247 63.34 247 63 247 Z M112 248 C111.67 249.32 111.34 250.64 111 252 C111.66 252 112.32 252 113 252 C112.67 250.68 112.34 249.36 112 248 Z M111 254 C111 254.66 111 255.32 111 256 C111.66 256 112.32 256 113 256 C113 255.34 113 254.68 113 254 C112.34 254 111.68 254 111 254 Z M148 254 C148.33 255.32 148.66 256.64 149 258 C149.33 257.01 149.66 256.02 150 255 C149.34 254.67 148.68 254.34 148 254 Z M64 259 C65 262 65 262 65 262 Z M104 260 C105 262 105 262 105 262 Z M149 260 C149.33 261.32 149.66 262.64 150 264 C149.34 264 148.68 264 148 264 C148.66 265.32 149.32 266.64 150 268 C151.56 266.31 151.56 266.31 153 264 C152.69 261.25 152.69 261.25 152 259 C151 259 151 259 149 260 Z M109 261 C108.34 261.66 107.68 262.32 107 263 C107.38 265.12 107.38 265.12 108 267 C107.34 267 106.68 267 106 267 C106.33 267.66 106.66 268.32 107 269 C107.66 268.67 108.32 268.34 109 268 C109.41 265.68 109.74 263.34 110 261 C109.67 261 109.34 261 109 261 Z M104 267 C105 269 105 269 105 269 Z M110 272 C110.66 272.66 111.32 273.32 112 274 C112 273.34 112 272.68 112 272 C111.34 272 110.68 272 110 272 Z M98 274 C99 276 99 276 99 276 Z M142 275 C142 275.66 142 276.32 142 277 C142.66 276.67 143.32 276.34 144 276 C143.34 275.67 142.68 275.34 142 275 Z M109 287 C110 289 110 289 110 289 Z M106 288 C105.67 288.66 105.34 289.32 105 290 C105.99 289.67 106.98 289.34 108 289 C107.34 288.67 106.68 288.34 106 288 Z M112 289 C112 289.66 112 290.32 112 291 C112.66 291 113.32 291 114 291 C114 290.34 114 289.68 114 289 C113.34 289 112.68 289 112 289 Z M107 290 C106.67 290.66 106.34 291.32 106 292 C106.66 292 107.32 292 108 292 C107.67 291.34 107.34 290.68 107 290 Z M137 290 C136.67 290.66 136.34 291.32 136 292 C136.66 292 137.32 292 138 292 C137.67 291.34 137.34 290.68 137 290 Z M111 294 C112 296 112 296 112 296 Z M113 296 C113 296.99 113 297.98 113 299 C114.32 299.33 115.64 299.66 117 300 C117 299.01 117 298.02 117 297 C115.68 296.67 114.36 296.34 113 296 Z M132 301 C131.67 301.66 131.34 302.32 131 303 C131.66 303 132.32 303 133 303 C132.67 302.34 132.34 301.68 132 301 Z M127 314 C129.44 313.62 129.44 313.62 132 313 C132.33 312.34 132.66 311.68 133 311 C130.24 311 129.11 312.31 127 314 Z M126 311 C124.68 311.33 123.36 311.66 122 312 C122 312.66 122 313.32 122 314 C123.65 313.67 125.3 313.34 127 313 C126.67 312.34 126.34 311.68 126 311 Z M131 314 C131 317 131 317 131 317 Z M126 316 C125.34 316.66 124.68 317.32 124 318 C125.32 318 126.64 318 128 318 C128 317.34 128 316.68 128 316 C127.34 316 126.68 316 126 316 Z M123 318 C124 320 124 320 124 320 Z " fill="#2861B8" transform="translate(86,90)"/>
<path d="M0 0 C0 2 0 2 -1.75 4.12 C-4 6 -4 6 -8 6 C-8 6.66 -8 7.32 -8 8 C-9.98 8 -11.96 8 -14 8 C-14.33 8.66 -14.66 9.32 -15 10 C-16.64 10.72 -18.31 11.39 -20 12 C-20 16 -20 16 -19.02 17.72 C-17.47 21.2 -17.72 24.72 -17.73 28.46 C-17.73 28.87 -17.73 28.87 -17.73 30.95 C-17.73 32.68 -17.73 34.42 -17.74 36.15 C-17.75 38.79 -17.74 41.43 -17.73 44.07 C-17.73 45.76 -17.73 47.45 -17.73 49.14 C-17.73 49.93 -17.73 50.71 -17.72 51.52 C-17.76 56.35 -18.52 60.36 -20 65 C-21.43 72.03 -20.68 78.48 -19.67 85.53 C-16.75 105.96 -16.75 105.96 -23.27 114.88 C-23.84 115.58 -24.41 116.28 -25 117 C-25.16 117.5 -25.16 117.5 -26 120 C-28.06 121.19 -28.06 121.19 -30 122 C-30 122.66 -30 123.32 -30 124 C-30.66 124 -31.32 124 -32 124 C-32.66 125.98 -33.32 127.96 -34 130 C-34.66 130 -35.32 130 -36 130 C-36.03 130.35 -36.03 130.35 -36.18 132.12 C-36.27 133.03 -36.35 133.94 -36.44 134.88 C-36.52 135.78 -36.6 136.68 -36.68 137.62 C-37 140 -37 140 -38 142 C-35.08 141.86 -32.17 141.71 -29.25 141.56 C-28.43 141.52 -27.6 141.48 -26.75 141.44 C-26.35 141.42 -26.35 141.42 -24.33 141.32 C-23.59 141.28 -22.86 141.24 -22.11 141.21 C-19.99 141 -18.06 140.53 -16 140 C-14.13 139.86 -12.25 139.78 -10.38 139.75 C-9.89 139.74 -9.89 139.74 -7.46 139.67 C-7.05 139.73 -7.05 139.73 -5 140 C-2.78 143.32 -2.82 143.78 -3.38 147.5 C-3.74 150.07 -4 152.39 -4 155 C-1 156 -1 156 1.44 155.5 C4.07 154.99 5.49 155.16 8 156 C8.33 155.34 8.66 154.68 9 154 C15.27 154.66 21.54 155.32 28 156 C26.68 154.35 25.36 152.7 24 151 C24.27 148.66 24.61 146.32 25 144 C24.55 141.23 23.8 138.7 23 136 C22.22 136.19 21.43 136.37 20.62 136.56 C18 137 18 137 16 136 C15.59 133.93 15.59 133.93 15.38 131.44 C15.34 131.02 15.34 131.02 15.15 128.93 C15.1 128.3 15.05 127.66 15 127 C14.5 127.16 14.5 127.16 12 128 C11.67 127.01 11.34 126.02 11 125 C12.32 125 13.64 125 15 125 C14.67 123.68 14.34 122.36 14 121 C13.34 121.66 12.68 122.32 12 123 C10 120 10 120 10 117 C10.66 117 11.32 117 12 117 C11.84 115.51 11.84 115.51 11 108 C11.66 107.67 12.32 107.34 13 107 C12.83 106.4 12.67 105.8 12.5 105.19 C12 103 12 103 12 100 C12.66 100 13.32 100 14 100 C14 99.34 14 98.68 14 98 C14.66 98 15.32 98 16 98 C16 97.34 16 96.68 16 96 C18.24 94.05 20.34 92.33 23 91 C23.38 88.16 23.38 88.16 23.56 84.62 C23.91 78.28 23.91 78.28 25 75 C24.41 73.06 24.41 73.06 23.5 71 C21.89 67.33 21.89 67.33 23 64 C23.99 66.31 24.98 68.62 26 71 C26.66 71 27.32 71 28 71 C28 71.99 28 72.98 28 74 C28.66 74 29.32 74 30 74 C30.17 87.5 30.17 87.5 29.5 92.62 C28.37 101.27 28.76 109.35 31 117.75 C31.99 121.56 32.39 125.3 32.66 129.21 C32.77 129.8 32.88 130.39 33 131 C33.66 131.33 34.32 131.66 35 132 C34.83 132.56 34.65 133.12 34.47 133.7 C33.95 136.25 34.1 138.18 34.44 140.75 C34.62 142.15 34.81 143.56 35 145 C36.49 144.34 36.49 144.34 44 141 C43.01 141 42.02 141 41 141 C40.67 140.01 40.34 139.02 40 138 C40.8 137.24 41.61 136.47 42.44 135.69 C45 133 45 133 46 130 C46.66 129.67 47.32 129.34 48 129 C48 128.01 48 127.02 48 126 C47.34 126 46.68 126 46 126 C45.98 125.66 45.98 125.66 45.89 123.91 C45.5 118.37 44.71 113.57 42.83 108.36 C39.59 99.16 38.58 90.74 39 81 C41.97 81.33 44.94 81.66 48 82 C48 81.34 48 80.68 48 80 C47.09 80.04 46.19 80.08 45.25 80.12 C42.12 80 40.61 79.61 38 78 C38 77.34 38 76.68 38 76 C36.02 75.67 34.04 75.34 32 75 C32.16 74.5 32.16 74.5 33 72 C33.99 72 34.98 72 36 72 C36 72.66 36 73.32 36 74 C37.98 74.66 39.96 75.32 42 76 C42 76.66 42 77.32 42 78 C42.52 77.97 42.52 77.97 45.12 77.81 C50.27 78.06 53.47 79.42 57.06 83.12 C59.35 85.34 60.89 85.65 64 86 C64 86.66 64 87.32 64 88 C64.66 88 65.32 88 66 88 C66 88.66 66 89.32 66 90 C66.62 90.25 67.24 90.5 67.88 90.75 C70.37 92.22 71.07 93.29 72 96 C71 98 70 100 69 102 C68.72 102.6 68.44 103.2 68.15 103.81 C66.79 106.4 65.19 108.73 63.5 111.12 C62.89 111.99 62.28 112.86 61.66 113.76 C60 116 60 116 58 118 C58 117.34 58 116.68 58 116 C56.68 116 55.36 116 54 116 C54.33 114.02 54.66 112.04 55 110 C55.66 110 56.32 110 57 110 C57.33 109.34 57.66 108.68 58 108 C58.33 109.32 58.66 110.64 59 112 C59.33 110.02 59.66 108.04 60 106 C60.66 106 61.32 106 62 106 C61.83 105.03 61.67 104.06 61.5 103.06 C60.86 98.69 60.93 94.41 61 90 C56.71 90 52.42 90 48 90 C48 88.35 48 86.7 48 85 C45.36 84.01 42.72 83.02 40 82 C41.16 88.54 42.68 94.96 44.38 101.38 C44.57 102.16 44.77 102.94 44.97 103.75 C46.19 108.25 47.31 110.93 51 114 C52.3 116.21 53 117.43 53 120 C54.65 120.33 56.3 120.66 58 121 C57.34 122.65 56.68 124.3 56 126 C55.34 126 54.68 126 54 126 C53.73 126.62 53.46 127.24 53.19 127.88 C52 130 52 130 49 132 C49.21 132.7 49.41 133.4 49.62 134.12 C50.08 137.62 49.21 139.73 48 143 C48 143.99 48 144.98 48 146 C48.99 146.33 49.98 146.66 51 147 C50.67 148.32 50.34 149.64 50 151 C50.99 151 51.98 151 53 151 C47.32 156.99 47.32 156.99 44 158 C40.75 157.62 40.75 157.62 38 157 C38.31 157.68 38.62 158.36 38.94 159.06 C40 162 40 162 40.38 165.38 C40.94 168.64 41.47 170.09 43.12 172.81 C43.74 173.86 44.36 174.92 45 176 C44.67 176.66 44.34 177.32 44 178 C40 172.25 40 172.25 40 170 C39.34 170 38.68 170 38 170 C37.88 169.16 37.76 168.31 37.63 167.45 C37.47 166.35 37.3 165.25 37.12 164.12 C36.96 163.03 36.8 161.94 36.63 160.82 C36 158 36 158 34 156 C34.66 156 35.32 156 36 156 C35.34 153.52 35.34 153.52 32 141 C31.34 141 30.68 141 30 141 C29.34 141.66 28.68 142.32 28 143 C28.39 145.97 28.39 145.97 29.25 149.5 C29.39 150.08 29.39 150.08 30.08 153.03 C31 156 31 156 33 158 C27.56 158.17 27.56 158.17 0 159 C0.29 162.55 0.58 166.1 0.88 169.75 C1.41 178.46 1.16 184.14 -3.56 191.61 C-5.65 195.08 -5.85 198 -6 202 C-2.7 202 0.6 202 4 202 C4 202.66 4 203.32 4 204 C-7.06 204.83 -18.09 205.11 -29.19 205.12 C-30.44 205.13 -31.69 205.13 -32.98 205.14 C-48.33 205.11 -48.33 205.11 -52.07 202.62 C-58.39 195.79 -62.13 189.79 -62.25 180.25 C-62.28 179.06 -62.3 177.87 -62.33 176.64 C-61.65 169.16 -57.37 162.88 -53.75 156.44 C-49.74 149.25 -45.97 142.03 -42.54 134.55 C-40.87 131.79 -39.9 131.19 -37 130 C-36.29 128.35 -35.63 126.68 -35 125 C-32.92 121.75 -30.73 118.73 -28 116 C-27.67 115.34 -27.34 114.68 -27 114 C-26.31 113.31 -25.61 112.63 -24.89 111.92 C-22.23 107.81 -22.92 104.99 -23.69 100.31 C-23.74 99.93 -23.74 99.93 -24.01 97.97 C-24.8 92.4 -24.8 92.4 -26 90 C-28.2 77.22 -26.31 64.01 -24.4 51.3 C-24 48 -24 48 -24 44.63 C-24 42 -24 42 -23 41 C-22.87 38.75 -22.82 36.5 -22.81 34.25 C-22.8 33.02 -22.78 31.79 -22.77 30.52 C-22.99 27.17 -23.58 25 -25 22 C-26.29 18 -26.71 13.93 -25.24 9.93 C-23.72 7.56 -22.63 7.08 -20.01 6.11 C-19.22 5.81 -18.43 5.52 -17.62 5.21 C-16.8 4.91 -15.97 4.62 -15.12 4.31 C-14.31 4.01 -13.49 3.7 -12.65 3.38 C-3.58 0 -3.58 0 0 0 Z M-23 18 C-22 20 -22 20 -22 20 Z M-22 22 C-21.34 22.66 -20.68 23.32 -20 24 C-20 23.34 -20 22.68 -20 22 C-20.66 22 -21.32 22 -22 22 Z M-21 42 C-20 44 -20 44 -20 44 Z M-21 48 C-20 51 -20 51 -20 51 Z M-22 52 C-21 54 -21 54 -21 54 Z M-24 67 C-24 69.31 -24 71.62 -24 74 C-23.67 74 -23.34 74 -23 74 C-23 71.69 -23 69.38 -23 67 C-23.33 67 -23.66 67 -24 67 Z M50 82 C50.25 83.88 50.25 83.88 51 86 C52.88 87.31 52.88 87.31 55 88 C55.99 87.67 56.98 87.34 58 87 C55.69 84.5 55.69 84.5 53 82 C52.01 82 51.02 82 50 82 Z M-23 83 C-24.6 87 -23.29 90.05 -22 94 C-21.67 94 -21.34 94 -21 94 C-21.33 90.37 -21.66 86.74 -22 83 C-22.33 83 -22.66 83 -23 83 Z M26 84 C25.67 85.32 25.34 86.64 25 88 C25.66 88 26.32 88 27 88 C26.67 86.68 26.34 85.36 26 84 Z M25 90 C25 90.66 25 91.32 25 92 C25.66 92 26.32 92 27 92 C27 91.34 27 90.68 27 90 C26.34 90 25.68 90 25 90 Z M62 90 C62.33 91.32 62.66 92.64 63 94 C63.33 93.01 63.66 92.02 64 91 C63.34 90.67 62.68 90.34 62 90 Z M-22 95 C-21 98 -21 98 -21 98 Z M18 96 C19 98 19 98 19 98 Z M63 96 C63.33 97.32 63.66 98.64 64 100 C63.34 100 62.68 100 62 100 C62.66 101.32 63.32 102.64 64 104 C65.56 102.31 65.56 102.31 67 100 C66.69 97.25 66.69 97.25 66 95 C65 95 65 95 63 96 Z M23 97 C22.34 97.66 21.68 98.32 21 99 C21.38 101.12 21.38 101.12 22 103 C21.34 103 20.68 103 20 103 C20.33 103.66 20.66 104.32 21 105 C21.66 104.67 22.32 104.34 23 104 C23.41 101.68 23.74 99.34 24 97 C23.67 97 23.34 97 23 97 Z M18 103 C19 105 19 105 19 105 Z M24 108 C24.66 108.66 25.32 109.32 26 110 C26 109.34 26 108.68 26 108 C25.34 108 24.68 108 24 108 Z M12 110 C13 112 13 112 13 112 Z M56 111 C56 111.66 56 112.32 56 113 C56.66 112.67 57.32 112.34 58 112 C57.34 111.67 56.68 111.34 56 111 Z M23 123 C24 125 24 125 24 125 Z M20 124 C19.67 124.66 19.34 125.32 19 126 C19.99 125.67 20.98 125.34 22 125 C21.34 124.67 20.68 124.34 20 124 Z M26 125 C26 125.66 26 126.32 26 127 C26.66 127 27.32 127 28 127 C28 126.34 28 125.68 28 125 C27.34 125 26.68 125 26 125 Z M21 126 C20.67 126.66 20.34 127.32 20 128 C20.66 128 21.32 128 22 128 C21.67 127.34 21.34 126.68 21 126 Z M51 126 C50.67 126.66 50.34 127.32 50 128 C50.66 128 51.32 128 52 128 C51.67 127.34 51.34 126.68 51 126 Z M25 130 C26 132 26 132 26 132 Z M27 132 C27 132.99 27 133.98 27 135 C28.32 135.33 29.64 135.66 31 136 C31 135.01 31 134.02 31 133 C29.68 132.67 28.36 132.34 27 132 Z M46 137 C45.67 137.66 45.34 138.32 45 139 C45.66 139 46.32 139 47 139 C46.67 138.34 46.34 137.68 46 137 Z M41 150 C43.44 149.62 43.44 149.62 46 149 C46.33 148.34 46.66 147.68 47 147 C44.24 147 43.11 148.31 41 150 Z M40 147 C38.68 147.33 37.36 147.66 36 148 C36 148.66 36 149.32 36 150 C37.65 149.67 39.3 149.34 41 149 C40.67 148.34 40.34 147.68 40 147 Z M45 150 C45 153 45 153 45 153 Z M40 152 C39.34 152.66 38.68 153.32 38 154 C39.32 154 40.64 154 42 154 C42 153.34 42 152.68 42 152 C41.34 152 40.68 152 40 152 Z M37 154 C38 156 38 156 38 156 Z " fill="#2861B8" transform="translate(172,254)"/>
<path d="M0 0 C0.82 0.33 0.82 0.33 5 2 C5 2.66 5 3.32 5 4 C5.57 4.27 6.13 4.54 6.72 4.82 C12.92 8.02 17.68 11.53 22 17 C24.27 18.52 26.57 19.74 29 21 C29 21.66 29 22.32 29 23 C30.98 23.33 32.96 23.66 35 24 C35 24.66 35 25.32 35 26 C36.32 26.66 37.64 27.32 39 28 C39 28.66 39 29.32 39 30 C39.57 30.26 40.15 30.52 40.74 30.79 C45.58 33.38 50 37.04 52.5 41.94 C52.67 42.62 52.83 43.3 53 44 C53.66 44 54.32 44 55 44 C56.15 46.21 56.15 46.21 57 49 C56.13 51.39 56.13 51.39 54.56 53.69 C54.07 54.45 53.58 55.22 53.07 56.01 C50.28 58.69 47.73 59.12 44 60 C43.51 60.18 43.51 60.18 41.02 61.07 C29.96 64.71 19.12 64.28 7.57 64.04 C1.98 63.94 -3.45 64.27 -9 65 C-8.38 66.63 -7.75 68.25 -7.12 69.88 C-6.78 70.78 -6.43 71.68 -6.07 72.62 C-5 75 -5 75 -3 77 C-3 77.99 -3 78.98 -3 80 C-6.99 82.71 -11.19 82.3 -15.81 82.25 C-16.2 82.25 -16.2 82.25 -18.18 82.27 C-23.83 82.25 -29.8 82.2 -34 78 C-35.95 77.77 -35.95 77.77 -38.25 77.81 C-39 77.82 -39.75 77.83 -40.52 77.83 C-43.39 78.03 -46.17 78.49 -49 79 C-50.01 76.8 -51.01 74.59 -52 72.38 C-52.29 71.76 -52.57 71.14 -52.87 70.5 C-54.64 66.5 -55.47 63.37 -55 59 C-52.67 54.69 -50.04 51.76 -46 49 C-45.34 49 -44.68 49 -44 49 C-43.73 48.4 -43.46 47.8 -43.19 47.19 C-41.98 44.96 -41.01 43.55 -39 42 C-37.68 42 -36.36 42 -35 42 C-35 41.34 -35 40.68 -35 40 C-30.32 38.19 -25.97 37.63 -21 37.44 C-17.24 37.27 -13.55 37.1 -9.84 36.42 C-6.79 35.97 -4.57 36.21 -1.56 36.81 C-0.6 37 0.36 37.2 1.34 37.39 C3.39 37.86 5.42 38.41 7.44 39 C11.76 40.21 16.09 40.87 20.52 41.54 C23 42 23 42 24 43 C25.32 42.34 26.64 41.68 28 41 C27.11 40.77 26.23 40.55 25.31 40.31 C21.5 38.8 19.73 37.02 17 34 C16.24 33.28 15.47 32.56 14.69 31.81 C13 30 13 30 13 28 C12.34 28 11.68 28 11 28 C9.55 26.57 9.55 26.57 7.88 24.56 C7.57 24.2 7.57 24.2 6.02 22.38 C5.35 21.59 4.69 20.81 4 20 C2.53 18.33 1.05 16.66 -0.44 15 C-0.78 14.62 -0.78 14.62 -2.5 12.69 C-2.99 12.13 -3.49 11.57 -4 11 C-3.52 9.54 -3.04 8.08 -2.56 6.62 C-2.3 5.81 -2.03 5 -1.75 4.16 C-1 2 -1 2 0 0 Z " fill="#E0E9F7" transform="translate(221,172)"/>
<path d="M0 0 C0.66 0 1.32 0 2 0 C3.44 1.9 3.44 1.9 5 4.38 C6.57 6.85 7.92 8.92 10 11 C10 11.99 10 12.98 10 14 C10.66 14.33 11.32 14.66 12 15 C13 17 14 19 15 21 C15.66 21.33 16.32 21.66 17 22 C17.33 22.99 17.66 23.98 18 25 C18.66 25.33 19.32 25.66 20 26 C20 26.66 20 27.32 20 28 C20.66 28 21.32 28 22 28 C23 29.96 24 31.91 25 33.88 C25.56 34.97 26.11 36.06 26.69 37.18 C28 40 28 40 28 42 C28.66 42 29.32 42 30 42 C31.95 44.24 33.67 46.34 35 49 C35.99 49 36.98 49 38 49 C38 50.65 38 52.3 38 54 C39.32 54.66 40.64 55.32 42 56 C42 56.66 42 57.32 42 58 C42.66 58 43.32 58 44 58 C44.47 58.8 44.95 59.61 45.44 60.44 C47 63 47 63 50 64 C51.19 67.06 51.19 67.06 52 70 C52.66 70 53.32 70 54 70 C55.44 71.5 55.44 71.5 57 73.44 C59.8 76.9 59.8 76.9 62 78 C62 78.66 62 79.32 62 80 C62.47 80.15 62.47 80.15 64.88 80.94 C68 82 68 82 70 83 C70 83.99 70 84.98 70 86 C70.62 86.14 71.24 86.29 71.88 86.44 C74 87 74 87 76 88 C76 88.66 76 89.32 76 90 C76.58 90.29 77.16 90.58 77.75 90.88 C79.83 91.92 81.92 92.96 84 94 C84 94.66 84 95.32 84 96 C84.66 96 85.32 96 86 96 C86 96.66 86 97.32 86 98 C86.58 98.29 87.16 98.58 87.75 98.88 C88.49 99.25 89.24 99.62 90 100 C90.68 100.27 91.36 100.54 92.06 100.81 C95.53 102.94 96.75 106.25 98 110 C98.66 110 99.32 110 100 110 C103.13 115.29 103.13 115.29 102.62 118.12 C100.69 120.36 98.52 121.38 95.93 122.73 C93.66 124.22 92.22 125.9 90.5 128 C87.36 131.82 84.42 133.83 80 136 C79.58 135.25 79.15 134.5 78.71 133.73 C75.19 127.58 71.52 121.73 67.29 116.06 C66 114 66 114 66 111 C65.34 111 64.68 111 64 111 C62.85 109.36 61.78 107.66 60.75 105.94 C56.87 99.7 53.2 94.4 47.12 90.19 C46.09 89.47 45.06 88.74 44 88 C44 87.34 44 86.68 44 86 C43.3 85.77 42.6 85.55 41.88 85.31 C39.37 84.17 37.91 83.2 35.88 81.44 C33 79 33 79 30 78 C29.3 76.01 28.63 74.01 28 72 C27.34 71.67 26.68 71.34 26 71 C26 70.01 26 69.02 26 68 C25.34 68 24.68 68 24 68 C23.71 67.2 23.42 66.39 23.12 65.56 C22 63 22 63 20 62 C20 60.02 20 58.04 20 56 C19.34 55.67 18.68 55.34 18 55 C18 54.01 18 53.02 18 52 C17.34 52 16.68 52 16 52 C15.34 51.34 14.68 50.68 14 50 C14 48.68 14 47.36 14 46 C13.34 46 12.68 46 12 46 C12 45.34 12 44.68 12 44 C11.09 43.71 10.19 43.42 9.25 43.12 C8.18 42.75 7.11 42.38 6 42 C5.28 41.77 4.57 41.55 3.83 41.31 C2 40 2 40 1.5 37.24 C1.48 36.13 1.46 35.02 1.44 33.88 C1.26 29.84 1.06 26.43 -0.5 22.69 C-3.6 15.06 -3.22 8.8 -1 1 C-0.67 0.67 -0.34 0.34 0 0 Z M1 3 C0.67 3.17 0.67 3.17 -1 4 C-1.7 17.86 -1.7 17.86 2.04 23.91 C4.04 28.26 3.84 33.28 4 38 C7.92 39.69 9.86 40.31 14 39 C16.02 38.05 18.03 37.05 20 36 C20.33 35.84 20.33 35.84 22 35 C22 34.01 22 33.02 22 32 C21.34 32 20.68 32 20 32 C19.95 31.71 19.95 31.71 19.7 30.25 C18.87 27.58 17.67 26.13 15.88 24 C12.25 19.51 9.45 14.76 6.68 9.7 C5.03 7.05 3.29 5.1 1 3 Z " fill="#E0E9F7" transform="translate(86,90)"/>
<path d="M0 0 C1.02 3.06 0.98 4.38 0.56 7.5 C0.23 10.06 0 12.41 0 15 C0.66 15.33 1.32 15.66 2 16 C2 17.32 2 18.64 2 20 C2.27 20.1 2.27 20.1 3.62 20.62 C7 22.58 9.3 25.18 12 28 C12.03 27.37 12.03 27.37 12.19 24.19 C12.29 22.04 12.29 22.04 13 20 C15.83 17.63 17.33 16.97 21.04 17.14 C22.08 17.36 23.12 17.59 24.19 17.81 C25.23 18.03 26.28 18.24 27.36 18.46 C28.23 18.64 29.1 18.82 30 19 C30.66 19 31.32 19 32 19 C31.83 19.5 31.83 19.5 31 22 C29.35 22 27.7 22 26 22 C26 22.66 26 23.32 26 24 C26.66 24 27.32 24 28 24 C28.35 24.8 28.7 25.61 29.06 26.44 C31 29 31 29 33.2 29.55 C35.47 29.79 37.72 29.95 40 30 C40 30.66 40 31.32 40 32 C44.53 31.7 48.66 31.35 52.81 29.44 C56 28 56 28 60 28 C60 28.66 60 29.32 60 30 C60.99 30 61.98 30 63 30 C62.84 29.01 62.84 29.01 62 24 C63.32 23.67 64.64 23.34 66 23 C66.98 24.43 67.96 25.87 68.94 27.31 C69.21 27.71 69.21 27.71 70.59 29.74 C73.39 34.23 73.08 37.88 73 43 C75.31 43.33 77.62 43.66 80 44 C80 44.66 80 45.32 80 46 C80.66 46 81.32 46 82 46 C83.98 50.94 84.6 54.75 84 60 C81.75 62.06 81.75 62.06 79 63 C75.96 62.74 75.19 62.19 73 60 C71.97 60.65 70.94 61.31 69.88 61.98 C63.83 65.01 57.61 64.43 51 64.25 C49.75 64.23 48.5 64.21 47.21 64.2 C44.14 64.15 41.07 64.08 38 64 C37.34 62.02 36.68 60.04 36 58 C35.34 58 34.68 58 34 58 C34 57.01 34 56.02 34 55 C33.74 55.08 33.74 55.08 32.42 55.5 C29.32 56.14 26.41 56.09 23.25 56.06 C22.08 56.05 20.91 56.04 19.7 56.04 C18.81 56.02 17.92 56.01 17 56 C19.33 53.67 20.07 53.67 23.25 53.38 C24.05 53.3 24.85 53.23 25.67 53.15 C28.45 52.97 31.21 52.93 34 53 C33.67 52.01 33.34 51.02 33 50 C33.17 49.67 33.17 49.67 34 48 C34.66 48 35.32 48 36 48 C36 47.34 36 46.68 36 46 C37.65 45.83 37.65 45.83 46 45 C44.85 44.5 44.85 44.5 39 42 C39.33 41.01 39.66 40.02 40 39 C40.33 39.66 40.66 40.32 41 41 C41.99 41.33 42.98 41.66 44 42 C43.83 41.34 43.83 41.34 43 38 C44.65 38 46.3 38 48 38 C48.33 38.66 48.66 39.32 49 40 C48.67 40.99 48.34 41.98 48 43 C51 41 51 41 51.69 38.38 C51.74 37.98 51.74 37.98 52 36 C51.34 36 50.68 36 50 36 C50 35.34 50 34.68 50 34 C46.7 34 43.4 34 40 34 C40 34.66 40 35.32 40 36 C35.12 38.03 31.8 38 26.62 37.12 C25.38 36.92 24.13 36.72 22.85 36.51 C22.38 36.42 22.38 36.42 20 36 C20 35.34 20 34.68 20 34 C19.5 33.83 19.5 33.83 17 33 C16.97 34.6 16.95 36.21 16.94 37.81 C16.93 38.71 16.91 39.6 16.9 40.52 C17 43 17 43 18 46 C17.34 46 16.68 46 16 46 C15.67 47.32 15.34 48.64 15 50 C13.16 48.16 13.65 45.17 13.5 42.69 C13 34.78 13 34.78 12 32 C11.34 31.67 10.68 31.34 10 31 C10 30.01 10 29.02 10 28 C9.34 28 8.68 28 8 28 C8 27.34 8 26.68 8 26 C7.71 25.88 7.71 25.88 6.23 25.26 C3.64 23.8 2.16 22.15 0.25 19.88 C-0.36 19.15 -0.98 18.43 -1.61 17.68 C-2.07 17.13 -2.53 16.57 -3 16 C-3.33 16.66 -3.66 17.32 -4 18 C-4.66 18 -5.32 18 -6 18 C-5.86 16.37 -5.71 14.75 -5.56 13.12 C-5.48 12.22 -5.4 11.32 -5.32 10.38 C-5 8 -5 8 -4 6 C-3.67 6.33 -3.34 6.66 -3 7 C-2.01 4.69 -1.02 2.38 0 0 Z M14 32 C15 34 15 34 15 34 Z M77 46 C77 46.66 77 47.32 77 48 C77.66 47.67 78.32 47.34 79 47 C78.34 46.67 77.68 46.34 77 46 Z M73 49 C74 51 74 51 74 51 Z M79 49 C79 52 79 52 79 52 Z M80 53 C80.33 54.98 80.66 56.96 81 59 C81.33 59 81.66 59 82 59 C82 57.02 82 55.04 82 53 C81.34 53 80.68 53 80 53 Z M77 55 C76.67 56.98 76.34 58.96 76 61 C76.99 61.33 77.98 61.66 79 62 C78.67 59.69 78.34 57.38 78 55 C77.67 55 77.34 55 77 55 Z " fill="#0D3D7A" transform="translate(230,396)"/>
<path d="M0 0 C4.76 6.27 4.76 6.27 6 10 C6.66 10 7.32 10 8 10 C8.17 23.5 8.17 23.5 7.5 28.62 C6.37 37.27 6.76 45.35 9 53.75 C9.99 57.56 10.39 61.3 10.66 65.21 C10.77 65.8 10.88 66.39 11 67 C11.33 67.16 11.33 67.16 13 68 C12.83 68.56 12.65 69.12 12.47 69.7 C11.95 72.25 12.1 74.18 12.44 76.75 C12.62 78.15 12.81 79.56 13 81 C15.97 79.68 18.94 78.36 22 77 C21.01 77 20.02 77 19 77 C18.67 76.01 18.34 75.02 18 74 C18.8 73.24 19.61 72.47 20.44 71.69 C23 69 23 69 24 66 C24.66 65.67 25.32 65.34 26 65 C26 64.01 26 63.02 26 62 C25.34 62 24.68 62 24 62 C23.98 61.66 23.98 61.66 23.89 59.91 C23.5 54.37 22.71 49.57 20.83 44.36 C17.59 35.16 16.58 26.74 17 17 C19.97 17.33 22.94 17.66 26 18 C26 17.34 26 16.68 26 16 C25.09 16.04 24.19 16.08 23.25 16.12 C20.12 16 18.61 15.61 16 14 C16 13.34 16 12.68 16 12 C14.02 11.67 12.04 11.34 10 11 C10.33 10.01 10.66 9.02 11 8 C11.99 8 12.98 8 14 8 C14 8.66 14 9.32 14 10 C15.98 10.66 17.96 11.32 20 12 C20 12.66 20 13.32 20 14 C20.52 13.97 20.52 13.97 23.12 13.81 C28.27 14.06 31.47 15.42 35.06 19.12 C37.35 21.34 38.89 21.65 42 22 C42 22.66 42 23.32 42 24 C42.66 24 43.32 24 44 24 C44 24.66 44 25.32 44 26 C44.62 26.25 45.24 26.5 45.88 26.75 C48.37 28.22 49.07 29.29 50 32 C49 34 48 36 47 38 C46.86 38.3 46.86 38.3 46.15 39.81 C44.79 42.4 43.19 44.73 41.5 47.12 C40.89 47.99 40.28 48.86 39.66 49.76 C38 52 38 52 36 54 C36 53.34 36 52.68 36 52 C34.68 52 33.36 52 32 52 C32.33 50.02 32.66 48.04 33 46 C33.66 46 34.32 46 35 46 C35.16 45.67 35.16 45.67 36 44 C36.16 44.66 36.16 44.66 37 48 C37.33 46.02 37.66 44.04 38 42 C38.66 42 39.32 42 40 42 C39.84 41.03 39.67 40.06 39.5 39.06 C38.86 34.69 38.93 30.41 39 26 C34.71 26 30.42 26 26 26 C26 24.35 26 22.7 26 21 C23.36 20.01 20.72 19.02 18 18 C19.16 24.54 20.68 30.96 22.38 37.38 C22.57 38.16 22.77 38.94 22.97 39.75 C24.19 44.25 25.31 46.93 29 50 C30.3 52.21 31 53.43 31 56 C32.65 56.33 34.3 56.66 36 57 C35.34 58.65 34.68 60.3 34 62 C33.34 62 32.68 62 32 62 C31.73 62.62 31.46 63.24 31.19 63.88 C30 66 30 66 27 68 C27.21 68.7 27.41 69.4 27.62 70.12 C28.08 73.62 27.21 75.73 26 79 C26 79.99 26 80.98 26 82 C26.99 82.33 27.98 82.66 29 83 C28.84 83.66 28.84 83.66 28 87 C28.99 87 29.98 87 31 87 C25.32 92.99 25.32 92.99 22 94 C18.75 93.62 18.75 93.62 16 93 C16.31 93.68 16.62 94.36 16.94 95.06 C18 98 18 98 18.38 101.38 C18.94 104.64 19.47 106.09 21.12 108.81 C21.74 109.86 22.36 110.92 23 112 C22.67 112.66 22.34 113.32 22 114 C18 108.25 18 108.25 18 106 C17.34 106 16.68 106 16 106 C15.88 105.16 15.76 104.31 15.63 103.45 C15.55 102.9 15.55 102.9 15.12 100.12 C14.96 99.03 14.8 97.94 14.63 96.82 C14 94 14 94 12 92 C12.66 92 13.32 92 14 92 C12.68 87.05 11.36 82.1 10 77 C9.34 77 8.68 77 8 77 C7.67 77.33 7.67 77.33 6 79 C6.39 81.97 6.39 81.97 7.25 85.5 C7.52 86.67 7.8 87.83 8.08 89.03 C9 92 9 92 11 94 C10.01 94.03 9.02 94.05 8 94.08 C4.34 94.17 0.67 94.27 -2.99 94.37 C-4.58 94.42 -6.16 94.46 -7.75 94.5 C-10.03 94.55 -12.31 94.62 -14.59 94.68 C-15.3 94.7 -16.01 94.72 -16.74 94.73 C-21.77 94.89 -21.77 94.89 -24 96 C-23.67 94.68 -23.34 93.36 -23 92 C-19.62 91.16 -17.33 90.89 -14 92 C-13.84 91.67 -13.84 91.67 -13 90 C-6.73 90.66 -0.46 91.32 6 92 C4.68 90.35 3.36 88.7 2 87 C2.27 84.66 2.61 82.32 3 80 C2.55 77.23 1.8 74.7 1 72 C0.61 72.09 0.61 72.09 -1.38 72.56 C-4 73 -4 73 -6 72 C-6.41 69.93 -6.41 69.93 -6.62 67.44 C-6.7 66.61 -6.77 65.78 -6.85 64.93 C-6.9 64.3 -6.95 63.66 -7 63 C-7.5 63.17 -7.5 63.17 -10 64 C-10.16 63.5 -10.16 63.5 -11 61 C-9.68 61 -8.36 61 -7 61 C-7.33 59.68 -7.66 58.36 -8 57 C-8.66 57.66 -9.32 58.32 -10 59 C-12 56 -12 56 -12 53 C-11.34 53 -10.68 53 -10 53 C-10.33 50.03 -10.66 47.06 -11 44 C-10.67 43.83 -10.67 43.83 -9 43 C-9.16 42.4 -9.33 41.8 -9.5 41.19 C-10 39 -10 39 -10 36 C-9.34 36 -8.68 36 -8 36 C-8 35.34 -8 34.68 -8 34 C-7.34 34 -6.68 34 -6 34 C-6 33.34 -6 32.68 -6 32 C-3.76 30.05 -1.66 28.33 1 27 C1.38 24.16 1.38 24.16 1.56 20.62 C1.91 14.28 1.91 14.28 3 11 C2.44 9.06 2.44 9.06 1.56 7 C0.43 4.33 0 2.97 0 0 Z M28 18 C28.25 19.88 28.25 19.88 29 22 C30.88 23.31 30.88 23.31 33 24 C33.99 23.67 34.98 23.34 36 23 C33.69 20.5 33.69 20.5 31 18 C30.01 18 29.02 18 28 18 Z M4 20 C3.67 21.32 3.34 22.64 3 24 C3.66 24 4.32 24 5 24 C4.67 22.68 4.34 21.36 4 20 Z M3 26 C3 26.66 3 27.32 3 28 C3.66 28 4.32 28 5 28 C5 27.34 5 26.68 5 26 C4.34 26 3.68 26 3 26 Z M40 26 C40.33 27.32 40.66 28.64 41 30 C41.33 29.01 41.66 28.02 42 27 C41.34 26.67 40.68 26.34 40 26 Z M-4 32 C-3 34 -3 34 -3 34 Z M41 32 C41.33 33.32 41.66 34.64 42 36 C41.34 36 40.68 36 40 36 C40.66 37.32 41.32 38.64 42 40 C43.56 38.31 43.56 38.31 45 36 C44.69 33.25 44.69 33.25 44 31 C43 31 43 31 41 32 Z M1 33 C0.34 33.66 -0.32 34.32 -1 35 C-0.62 37.12 -0.62 37.12 0 39 C-0.66 39 -1.32 39 -2 39 C-1.67 39.66 -1.34 40.32 -1 41 C-0.34 40.67 0.32 40.34 1 40 C1.41 37.68 1.74 35.34 2 33 C1.67 33 1.34 33 1 33 Z M-4 39 C-3 41 -3 41 -3 41 Z M2 44 C2.66 44.66 3.32 45.32 4 46 C4 45.34 4 44.68 4 44 C3.34 44 2.68 44 2 44 Z M-10 46 C-9 48 -9 48 -9 48 Z M34 47 C34 47.66 34 48.32 34 49 C34.66 48.67 35.32 48.34 36 48 C35.34 47.67 34.68 47.34 34 47 Z M1 59 C2 61 2 61 2 61 Z M-2 60 C-2.33 60.66 -2.66 61.32 -3 62 C-2.01 61.67 -1.02 61.34 0 61 C-0.66 60.67 -1.32 60.34 -2 60 Z M4 61 C4 61.66 4 62.32 4 63 C4.66 63 5.32 63 6 63 C6 62.34 6 61.68 6 61 C5.34 61 4.68 61 4 61 Z M-1 62 C-1.33 62.66 -1.66 63.32 -2 64 C-1.34 64 -0.68 64 0 64 C-0.33 63.34 -0.66 62.68 -1 62 Z M29 62 C28.67 62.66 28.34 63.32 28 64 C28.66 64 29.32 64 30 64 C29.67 63.34 29.34 62.68 29 62 Z M3 66 C4 68 4 68 4 68 Z M5 68 C5 68.99 5 69.98 5 71 C6.32 71.33 7.64 71.66 9 72 C9 71.01 9 70.02 9 69 C7.68 68.67 6.36 68.34 5 68 Z M24 73 C23.67 73.66 23.34 74.32 23 75 C23.66 75 24.32 75 25 75 C24.67 74.34 24.34 73.68 24 73 Z M19 86 C21.44 85.62 21.44 85.62 24 85 C24.33 84.34 24.66 83.68 25 83 C22.24 83 21.11 84.31 19 86 Z M18 83 C16.68 83.33 15.36 83.66 14 84 C14 84.66 14 85.32 14 86 C15.65 85.67 17.3 85.34 19 85 C18.67 84.34 18.34 83.68 18 83 Z M23 86 C23 89 23 89 23 89 Z M18 88 C17.34 88.66 16.68 89.32 16 90 C17.32 90 18.64 90 20 90 C20 89.34 20 88.68 20 88 C19.34 88 18.68 88 18 88 Z M15 90 C16 92 16 92 16 92 Z " fill="#2861B8" transform="translate(194,318)"/>
<path d="M0 0 C1.97 0.96 3.91 1.98 5.81 3.06 C6.79 3.61 7.76 4.16 8.77 4.72 C9.14 4.93 9.14 4.93 11 6 C11 6.66 11 7.32 11 8 C12.32 8 13.64 8 15 8 C15 8.66 15 9.32 15 10 C15.99 10 16.98 10 18 10 C20.14 11.89 21.72 13.44 23 16 C23.66 16 24.32 16 25 16 C25 16.66 25 17.32 25 18 C25.89 18.23 26.77 18.45 27.69 18.69 C31.48 20.19 33.14 22.14 36 25 C37.2 25.5 38.39 25.99 39.62 26.5 C43 28 43 28 44.38 30.38 C46.88 34.42 50.82 35.94 55 38 C55 38.66 55 39.32 55 40 C56.32 40 57.64 40 59 40 C61.25 41.87 61.25 41.87 63 44 C63 44.66 63 45.32 63 46 C63.66 46 64.32 46 65 46 C65 46.66 65 47.32 65 48 C65.66 48 66.32 48 67 48 C67 48.66 67 49.32 67 50 C67.99 50.33 68.98 50.66 70 51 C74.02 53.68 76.26 57.07 79 61 C79.22 61.31 79.22 61.31 80.35 62.87 C81.5 64.62 81.5 64.62 83 68 C82.25 71.44 82.25 71.44 81 74 C80.34 74 79.68 74 79 74 C79 75.32 79 76.64 79 78 C77.42 78.68 75.84 79.34 74.25 80 C73.37 80.37 72.49 80.74 71.58 81.12 C69 82 69 82 65 82 C64.67 82.66 64.34 83.32 64 84 C54.92 87.03 44.75 86.23 35.31 86.12 C33.72 86.11 32.14 86.11 30.55 86.1 C26.7 86.08 22.85 86.04 19 86 C20.06 89.4 21.01 92.01 23 95 C23 95.99 23 96.98 23 98 C23.66 98.33 24.32 98.66 25 99 C24.01 100.32 23.02 101.64 22 103 C21.5 102.84 21.5 102.84 19 102 C19 102.66 19 103.32 19 104 C15.13 104.12 11.25 104.19 7.38 104.25 C6.28 104.28 5.19 104.32 4.06 104.35 C-2.36 104.43 -5.79 104.06 -11 100 C-13.77 99.61 -13.77 99.61 -16.38 99.75 C-17.25 99.79 -18.12 99.82 -19.02 99.86 C-19.68 99.91 -20.33 99.95 -21 100 C-21.33 100.66 -21.66 101.32 -22 102 C-25.06 100.98 -26.66 100.19 -29 98 C-30.55 94.36 -31 91.99 -31 88 C-31.66 88 -32.32 88 -33 88 C-33 82.72 -33 77.44 -33 72 C-33.66 72 -34.32 72 -35 72 C-35 71.34 -35 70.68 -35 70 C-35.66 70 -36.32 70 -37 70 C-37.66 68.02 -38.32 66.04 -39 64 C-39.66 64 -40.32 64 -41 64 C-41 62.68 -41 61.36 -41 60 C-41.66 60 -42.32 60 -43 60 C-46.28 56.72 -47.55 52.35 -49 48 C-49.66 48 -50.32 48 -51 48 C-51.82 46.56 -52.63 45.13 -53.44 43.69 C-53.66 43.29 -53.66 43.29 -54.81 41.26 C-56 39 -56 39 -57 36 C-59.06 34.81 -59.06 34.81 -61 34 C-61 33.34 -61 32.68 -61 32 C-61.66 32 -62.32 32 -63 32 C-63 31.34 -63 30.68 -63 30 C-63.66 30 -64.32 30 -65 30 C-65 29.34 -65 28.68 -65 28 C-65.68 27.79 -66.36 27.59 -67.06 27.38 C-70.93 25.57 -74.06 23.1 -77 20 C-77.33 19.01 -77.66 18.02 -78 17 C-74.56 18.53 -71.91 20.63 -69 23 C-68.34 23.33 -67.68 23.66 -67 24 C-67 24.66 -67 25.32 -67 26 C-66.46 26.23 -65.93 26.45 -65.38 26.69 C-56.85 31.4 -50.24 39.87 -47 49 C-46.34 49 -45.68 49 -45 49 C-44.76 49.48 -44.51 49.95 -44.26 50.44 C-40.05 58.32 -35.01 65.62 -30 73 C-21.18 66.5 -21.18 66.5 -18.38 62.81 C-15.51 59.42 -12.92 58 -9 56 C-9 55.01 -9 54.02 -9 53 C-8.34 53 -7.68 53 -7 53 C-7 53.99 -7 54.98 -7 56 C-6.37 55.86 -5.73 55.71 -5.08 55.56 C1.74 54.21 8.38 53.78 15.31 53.75 C16.16 53.74 17.01 53.73 17.88 53.72 C22.95 53.75 27.24 54.21 32 56 C32.33 56.66 32.66 57.32 33 58 C35.31 58 37.62 58 40 58 C37.25 53.12 37.25 53.12 35 52 C34.55 51.22 34.09 50.43 33.62 49.62 C31.95 46.91 30.54 45.85 28 44 C26.65 42.35 25.32 40.68 24 39 C23.09 38.11 22.19 37.23 21.25 36.31 C19 34 19 34 19 32 C18.34 32 17.68 32 17 32 C17.67 29.33 18.33 26.67 19 24 C19.66 24 20.32 24 21 24 C21 22.68 21 21.36 21 20 C21.16 19.84 21.16 19.84 22 19 C19.19 16.04 16.82 13.56 13 12 C13 11.34 13 10.68 13 10 C11.02 9.34 9.04 8.68 7 8 C7 7.34 7 6.68 7 6 C5.68 6 4.36 6 3 6 C3 5.34 3 4.68 3 4 C0.51 3.31 -1.38 3 -4 3 C-3.5 3.93 -3.01 4.86 -2.5 5.81 C-1 9 -1 9 -1 12 C-0.34 12 0.32 12 1 12 C1 12.66 1 13.32 1 14 C1.8 14.29 2.61 14.58 3.44 14.88 C6 16 6 16 7 18 C7.13 20.67 7.04 23.32 7 26 C7.66 26.33 8.32 26.66 9 27 C9.33 27.33 9.33 27.33 11 29 C11.33 28.84 11.33 28.84 13 28 C13.99 28.66 14.98 29.32 16 30 C14 32 14 32 11.38 32.12 C10.59 32.08 9.81 32.04 9 32 C8.71 31.36 8.42 30.72 8.12 30.06 C7 28 7 28 5 27 C5 24.36 5 21.72 5 19 C4.34 18.67 3.68 18.34 3 18 C1.33 16.67 -0.34 15.34 -2 14 C-2.99 13.34 -3.98 12.68 -5 12 C-5.04 10 -5.04 8 -5 6 C-5.33 5.67 -5.33 5.67 -7 4 C-7 2.68 -7 1.36 -7 0 C-4.24 -1.38 -2.96 -0.81 0 0 Z M24 20 C23.27 21.41 22.57 22.83 21.88 24.25 C21.48 25.04 21.09 25.83 20.68 26.64 C20 29 20 29 20.61 30.99 C22.35 33.51 24.29 35.69 26.38 37.94 C28.75 40.51 31.03 43.04 33.16 45.82 C33.77 46.54 34.38 47.26 35 48 C35.66 48 36.32 48 37 48 C37 48.66 37 49.32 37 50 C38.62 51.71 40.3 53.37 42 55 C42.82 55.91 43.65 56.81 44.5 57.75 C47.13 60.12 48.53 60.7 52 61 C50.19 62.06 50.19 62.06 48 63 C47.5 62.84 47.5 62.84 45 62 C41.72 61.37 38.44 60.77 35.16 60.19 C30.68 59.38 26.38 58.26 22 57 C20.4 56.72 18.8 56.48 17.19 56.31 C16.44 56.23 15.69 56.14 14.92 56.05 C13 56 13 56 11 57 C7.71 57.23 4.42 57.39 1.12 57.52 C-3.25 57.73 -6.88 58.4 -11 60 C-11 60.66 -11 61.32 -11 62 C-11.74 62.08 -12.49 62.16 -13.25 62.25 C-16.54 63.15 -17.86 64.38 -20 67 C-20 67.66 -20 68.32 -20 69 C-20.72 69.21 -21.44 69.41 -22.19 69.62 C-26.35 71.66 -28.91 74.83 -31 79 C-30.76 86.59 -28.41 92.27 -25 99 C-24.2 98.83 -23.39 98.67 -22.56 98.5 C-11.62 96.96 -11.62 96.96 -7.75 99.44 C-7.17 99.95 -6.59 100.47 -6 101 C-1.39 102.32 3.31 102.18 8.06 102.19 C8.86 102.2 9.67 102.21 10.49 102.22 C17.73 102.24 17.73 102.24 21 100 C20.43 96.44 18.8 93.8 16.94 90.78 C15.93 88.87 15.49 87.09 15 85 C22.22 84.25 29.29 83.95 36.54 84.12 C47.83 84.36 57.33 83.74 68 80 C69.21 79.72 70.42 79.43 71.67 79.14 C75.38 77.87 76.48 76.93 78.56 73.69 C79.08 72.93 79.6 72.17 80.13 71.39 C81 69 81 69 80.15 66.21 C79.77 65.48 79.39 64.75 79 64 C78.34 64 77.68 64 77 64 C76.77 63.27 76.55 62.55 76.31 61.8 C74.73 58.41 72.8 56.65 70 54.19 C69.56 53.79 69.56 53.79 67.31 51.79 C65 50 65 50 63 50 C62.67 49.34 62.67 49.34 61 46 C60.34 46 59.68 46 59 46 C59 45.34 59 44.68 59 44 C57.02 43.67 55.04 43.34 53 43 C53 42.34 53 41.68 53 41 C51.21 39.67 51.21 39.67 48.81 38.19 C45.06 35.77 42.12 33.2 39 30 C31.67 24 31.67 24 29 24 C29 23.34 29 22.68 29 22 C28.18 21.67 28.18 21.67 24 20 Z " fill="#2861B8" transform="translate(197,152)"/>
<path d="M0 0 C1.6 0.24 3.21 0.48 4.81 0.73 C9.08 1.25 13.39 1.14 17.69 1.12 C18.62 1.13 19.56 1.13 20.53 1.14 C21.43 1.14 22.33 1.13 23.26 1.13 C24.08 1.13 24.89 1.13 25.73 1.13 C27.94 1 29.87 0.61 32 0 C34.09 4.25 34.12 7.55 33.94 12.25 C33.77 19.1 34.54 25.45 35.93 32.15 C36.82 36.51 37.14 40.56 37 45 C36.01 44.34 35.02 43.68 34 43 C33.92 41.8 33.84 40.61 33.75 39.38 C33.15 32.61 27.99 28.77 23.19 24.5 C18.72 22.4 14.85 22.34 10 23 C6.71 24.3 5.46 25.05 3.91 28.22 C2.9 31.31 2.59 34.07 2.38 37.31 C2.3 38.38 2.23 39.45 2.15 40.55 C2.1 41.36 2.05 42.17 2 43 C-1.68 39.32 -1.12 34.14 -1.14 29.16 C-1.14 28.45 -1.13 27.74 -1.13 27.01 C-1.13 26.27 -1.13 25.52 -1.14 24.76 C-1.14 23.2 -1.13 21.64 -1.13 20.08 C-1.12 17.68 -1.13 15.28 -1.14 12.88 C-1.14 11.36 -1.13 9.84 -1.13 8.32 C-1.13 7.96 -1.13 7.96 -1.14 6.14 C-1.11 1.11 -1.11 1.11 0 0 Z " fill="#E0E9F7" transform="translate(192,270)"/>
<path d="M0 0 C0 2 0 2 -1.75 4.12 C-4 6 -4 6 -8 6 C-8 6.66 -8 7.32 -8 8 C-9.98 8 -11.96 8 -14 8 C-14.33 8.66 -14.66 9.32 -15 10 C-16.64 10.72 -18.31 11.39 -20 12 C-20 16 -20 16 -19.02 17.72 C-17.47 21.2 -17.72 24.72 -17.73 28.46 C-17.73 29.28 -17.73 30.1 -17.73 30.95 C-17.73 32.68 -17.73 34.42 -17.74 36.15 C-17.75 38.79 -17.74 41.43 -17.73 44.07 C-17.73 45.76 -17.73 47.45 -17.73 49.14 C-17.73 49.93 -17.73 50.71 -17.72 51.52 C-17.76 56.35 -18.52 60.36 -20 65 C-21.43 72.03 -20.68 78.48 -19.67 85.53 C-16.75 105.96 -16.75 105.96 -23.27 114.88 C-23.84 115.58 -24.41 116.28 -25 117 C-25.33 117.99 -25.66 118.98 -26 120 C-28.06 121.19 -28.06 121.19 -30 122 C-30 122.66 -30 123.32 -30 124 C-30.66 124 -31.32 124 -32 124 C-32.66 125.98 -33.32 127.96 -34 130 C-34.66 130 -35.32 130 -36 130 C-36.16 130.33 -36.16 130.33 -37 132 C-37.66 131.34 -38.32 130.68 -39 130 C-38.34 130 -37.68 130 -37 130 C-36.77 129.32 -36.55 128.64 -36.31 127.94 C-34.29 123.42 -31.5 119.5 -28 116 C-27.84 115.67 -27.84 115.67 -27 114 C-26.65 113.66 -26.65 113.66 -24.89 111.92 C-22.23 107.81 -22.92 104.99 -23.69 100.31 C-23.74 99.93 -23.74 99.93 -24.01 97.97 C-24.8 92.4 -24.8 92.4 -26 90 C-28.2 77.22 -26.31 64.01 -24.4 51.3 C-24 48 -24 48 -24 44.63 C-24 42 -24 42 -23 41 C-22.87 38.75 -22.82 36.5 -22.81 34.25 C-22.81 33.63 -22.81 33.63 -22.77 30.52 C-22.99 27.17 -23.58 25 -25 22 C-26.29 18 -26.71 13.93 -25.24 9.93 C-23.72 7.56 -22.63 7.08 -20.01 6.11 C-19.61 5.96 -19.61 5.96 -17.62 5.21 C-16.8 4.91 -15.97 4.62 -15.12 4.31 C-14.31 4.01 -13.49 3.7 -12.65 3.38 C-3.58 0 -3.58 0 0 0 Z M-23 18 C-22 20 -22 20 -22 20 Z M-22 22 C-21.34 22.66 -20.68 23.32 -20 24 C-20 23.34 -20 22.68 -20 22 C-20.66 22 -21.32 22 -22 22 Z M-21 42 C-20 44 -20 44 -20 44 Z M-21 48 C-20 51 -20 51 -20 51 Z M-22 52 C-21 54 -21 54 -21 54 Z M-24 67 C-24 69.31 -24 71.62 -24 74 C-23.67 74 -23.34 74 -23 74 C-23 71.69 -23 69.38 -23 67 C-23.33 67 -23.66 67 -24 67 Z M-23 83 C-24.6 87 -23.29 90.05 -22 94 C-21.67 94 -21.34 94 -21 94 C-21.33 90.37 -21.66 86.74 -22 83 C-22.33 83 -22.66 83 -23 83 Z M-22 95 C-21 98 -21 98 -21 98 Z " fill="#2861B8" transform="translate(172,254)"/>
<path d="M0 0 C0.66 0 1.32 0 2 0 C3.44 1.9 3.44 1.9 5 4.38 C6.57 6.85 7.92 8.92 10 11 C10 11.99 10 12.98 10 14 C10.66 14.33 11.32 14.66 12 15 C13 17 14 19 15 21 C15.66 21.33 16.32 21.66 17 22 C17.33 22.99 17.66 23.98 18 25 C18.66 25.33 19.32 25.66 20 26 C20 26.66 20 27.32 20 28 C20.66 28 21.32 28 22 28 C23 29.96 24 31.91 25 33.88 C25.56 34.97 26.11 36.06 26.69 37.18 C28 40 28 40 28 42 C28.66 42 29.32 42 30 42 C31.95 44.24 33.67 46.34 35 49 C35.99 49 36.98 49 38 49 C38 50.65 38 52.3 38 54 C39.32 54.66 40.64 55.32 42 56 C42 56.66 42 57.32 42 58 C42.66 58 43.32 58 44 58 C44.47 58.8 44.95 59.61 45.44 60.44 C47 63 47 63 50 64 C51.19 67.06 51.19 67.06 52 70 C52.66 70 53.32 70 54 70 C55.44 71.5 55.44 71.5 57 73.44 C59.8 76.9 59.8 76.9 62 78 C62 78.66 62 79.32 62 80 C62.47 80.15 62.47 80.15 64.88 80.94 C68 82 68 82 70 83 C70 83.99 70 84.98 70 86 C70.62 86.14 71.24 86.29 71.88 86.44 C74 87 74 87 76 88 C76 88.66 76 89.32 76 90 C76.58 90.29 77.16 90.58 77.75 90.88 C79.83 91.92 81.92 92.96 84 94 C84 94.66 84 95.32 84 96 C84.66 96 85.32 96 86 96 C86 96.66 86 97.32 86 98 C86.58 98.29 87.16 98.58 87.75 98.88 C88.49 99.25 89.24 99.62 90 100 C90.68 100.27 91.36 100.54 92.06 100.81 C95.53 102.94 96.75 106.25 98 110 C98.66 110 99.32 110 100 110 C100.33 111.32 100.66 112.64 101 114 C99.29 112.72 97.63 111.38 96 110 C96 109.34 96 108.68 96 108 C95.34 107.67 95.34 107.67 92 106 C92 105.34 92 104.68 92 104 C91.44 103.76 90.89 103.51 90.32 103.26 C87.53 101.74 85.35 99.87 82.94 97.81 C77.57 93.35 71.95 89.63 66 86 C63.93 84.72 61.97 83.43 60 82 C60 81.34 60 80.68 60 80 C58.68 79.34 57.36 78.68 56 78 C56 77.34 56 76.68 56 76 C55.34 76 54.68 76 54 76 C52.59 74.6 52.59 74.6 50.94 72.62 C47.31 68.34 43.54 64.22 39.72 60.1 C38 58 38 58 38 56 C37.34 56 36.68 56 36 56 C34.24 53.8 32.61 51.61 31 49.31 C30.55 48.69 30.1 48.06 29.63 47.42 C27.26 44.06 25.32 40.94 24 37 C17.32 38.64 17.32 38.64 15.56 40.62 C13.27 42.65 10.98 42.32 8.04 42.3 C5.52 41.93 4.04 41.56 2 40 C1.5 37.24 1.5 37.24 1.44 33.88 C1.26 29.84 1.06 26.43 -0.5 22.69 C-3.6 15.06 -3.22 8.8 -1 1 C-0.67 0.67 -0.34 0.34 0 0 Z M1 3 C0.67 3.17 0.67 3.17 -1 4 C-1.7 17.86 -1.7 17.86 2.04 23.91 C4.04 28.26 3.84 33.28 4 38 C7.92 39.69 9.86 40.31 14 39 C16.02 38.05 18.03 37.05 20 36 C20.33 35.84 20.33 35.84 22 35 C22 34.01 22 33.02 22 32 C21.34 32 20.68 32 20 32 C19.95 31.71 19.95 31.71 19.7 30.25 C18.87 27.58 17.67 26.13 15.88 24 C12.25 19.51 9.45 14.76 6.68 9.7 C5.03 7.05 3.29 5.1 1 3 Z " fill="#2861B8" transform="translate(86,90)"/>
<path d="M0 0 C2.27 2.27 2.94 3.84 3.1 7.04 C3.07 9.03 3.03 11.01 3 13 C5.31 13.33 7.62 13.66 10 14 C10 14.66 10 15.32 10 16 C10.66 16 11.32 16 12 16 C13.98 20.94 14.6 24.75 14 30 C11.75 32.06 11.75 32.06 9 33 C5.96 32.74 5.19 32.19 3 30 C1.68 30 0.36 30 -1 30 C-1 27 -1 24 -1 21 C-1.99 20.67 -2.98 20.34 -4 20 C-2.68 20 -1.36 20 0 20 C0.33 18.02 0.66 16.04 1 14 C0.01 14.33 -0.98 14.66 -2 15 C-2.45 14.53 -2.91 14.05 -3.38 13.56 C-5 12 -5 12 -7 11 C-6.36 10.26 -5.72 9.51 -5.06 8.75 C-3.22 6.29 -2.44 4.97 -2 2 C-1.67 2.33 -1.34 2.66 -1 3 C-0.67 2.01 -0.34 1.02 0 0 Z M7 16 C7 16.66 7 17.32 7 18 C7.66 17.67 8.32 17.34 9 17 C8.34 16.67 7.68 16.34 7 16 Z M3 19 C4 21 4 21 4 21 Z M9 19 C9 22 9 22 9 22 Z M10 23 C10.33 24.98 10.66 26.96 11 29 C11.33 29 11.66 29 12 29 C12 27.02 12 25.04 12 23 C11.34 23 10.68 23 10 23 Z M7 25 C6.67 26.98 6.34 28.96 6 31 C6.99 31.33 7.98 31.66 9 32 C8.67 29.69 8.34 27.38 8 25 C7.67 25 7.34 25 7 25 Z " fill="#2861B8" transform="translate(300,426)"/>
<path d="M0 0 C4.76 6.27 4.76 6.27 6 10 C6.66 10 7.32 10 8 10 C8.26 19.63 7.62 28.5 6 38 C5.34 38 4.68 38 4 38 C4 38.66 4 39.32 4 40 C3.01 40 2.02 40 1 40 C1 38.02 1 36.04 1 34 C0.67 35.65 0.34 37.3 0 39 C-0.66 39 -1.32 39 -2 39 C-1.67 40.32 -1.34 41.64 -1 43 C-4.23 45.15 -5.28 45.2 -9 45 C-8.67 44.34 -8.34 43.68 -8 43 C-8.66 42.67 -9.32 42.34 -10 42 C-10 40.02 -10 38.04 -10 36 C-9.34 36 -8.68 36 -8 36 C-8 35.34 -8 34.68 -8 34 C-7.34 34 -6.68 34 -6 34 C-6 33.34 -6 32.68 -6 32 C-3.76 30.05 -1.66 28.33 1 27 C1.38 24.16 1.38 24.16 1.56 20.62 C1.91 14.28 1.91 14.28 3 11 C2.44 9.06 2.44 9.06 1.56 7 C0.43 4.33 0 2.97 0 0 Z M4 20 C3.67 21.32 3.34 22.64 3 24 C3.66 24 4.32 24 5 24 C4.67 22.68 4.34 21.36 4 20 Z M3 26 C3 26.66 3 27.32 3 28 C3.66 28 4.32 28 5 28 C5 27.34 5 26.68 5 26 C4.34 26 3.68 26 3 26 Z M-4 32 C-3 34 -3 34 -3 34 Z M-4 39 C-3 41 -3 41 -3 41 Z " fill="#2861B8" transform="translate(194,318)"/>
<path d="M0 0 C1.32 0 2.64 0 4 0 C3.67 0.99 3.34 1.98 3 3 C1.35 3.71 -0.32 4.37 -2 5 C-3.34 5.99 -4.67 6.99 -6 8 C-6.66 8 -7.32 8 -8 8 C-8.11 9.77 -8.19 11.54 -8.25 13.31 C-8.27 13.81 -8.27 13.81 -8.39 16.3 C-8 19 -8 19 -5.98 20.73 C-5.33 21.15 -4.67 21.57 -4 22 C-4 22.66 -4 23.32 -4 24 C2.35 25.57 8.21 26.13 14.75 26 C20.52 26 26.25 26.52 32 27 C32 27.33 32 27.66 32 28 C31.01 28.17 31.01 28.17 26 29 C28.64 29.33 31.28 29.66 34 30 C31.46 32.54 29.85 32.24 26.39 32.25 C25.62 32.25 24.86 32.24 24.07 32.23 C23.28 32.23 22.5 32.23 21.69 32.23 C20.02 32.23 18.35 32.22 16.69 32.21 C14.14 32.19 11.6 32.19 9.05 32.19 C7.43 32.18 5.81 32.17 4.2 32.17 C3.43 32.17 2.67 32.17 1.89 32.16 C-1.57 32.13 -4.68 31.98 -8 31 C-10.75 30.78 -13.49 30.59 -16.25 30.44 C-16.62 30.42 -16.62 30.42 -18.51 30.31 C-20.34 30.2 -22.17 30.1 -24 30 C-24 29.67 -24 29.34 -24 29 C-14.76 29 -5.52 29 4 29 C0.7 28.01 -2.6 27.02 -6 26 C-9.06 23.09 -10.9 20.09 -12 16 C-11.88 10.45 -9.74 7.83 -6 4 C-5.34 4 -4.68 4 -4 4 C-3.67 3.34 -3.34 2.68 -3 2 C-2.01 2 -1.02 2 0 2 C0 1.34 0 0.68 0 0 Z M6 29 C10 30 10 30 10 30 Z " fill="#2861B8" transform="translate(204,428)"/>
<path d="M0 0 C1.02 3.06 0.98 4.38 0.56 7.5 C0.23 10.06 0 12.41 0 15 C0.66 15.33 1.32 15.66 2 16 C2 17.32 2 18.64 2 20 C2.27 20.1 2.27 20.1 3.62 20.62 C7 22.58 9.3 25.18 12 28 C12.03 27.37 12.03 27.37 12.19 24.19 C12.29 22.04 12.29 22.04 13 20 C15.83 17.63 17.33 16.97 21.04 17.14 C22.08 17.36 23.12 17.59 24.19 17.81 C25.23 18.03 26.28 18.24 27.36 18.46 C28.23 18.64 29.1 18.82 30 19 C30.66 19 31.32 19 32 19 C31.83 19.5 31.83 19.5 31 22 C29.35 22 27.7 22 26 22 C26 22.66 26 23.32 26 24 C26.66 24 27.32 24 28 24 C27.83 24.5 27.83 24.5 27 27 C26.34 27 25.68 27 25 27 C24.34 27.33 23.68 27.66 23 28 C22.77 27.4 22.55 26.8 22.31 26.19 C20.66 23.44 18.8 22.48 16 21 C15.93 21.37 15.93 21.37 15.56 23.25 C15.1 25.52 14.58 27.76 14 30 C14.66 30.33 15.32 30.66 16 31 C16.38 33.62 16.38 33.62 16.56 36.88 C16.76 40.2 16.94 42.83 18 46 C17.34 46 16.68 46 16 46 C15.67 47.32 15.34 48.64 15 50 C13.16 48.16 13.65 45.17 13.5 42.69 C13 34.78 13 34.78 12 32 C11.34 31.67 10.68 31.34 10 31 C10 30.01 10 29.02 10 28 C9.34 28 8.68 28 8 28 C8 27.34 8 26.68 8 26 C7.71 25.88 7.71 25.88 6.23 25.26 C3.64 23.8 2.16 22.15 0.25 19.88 C-0.36 19.15 -0.98 18.43 -1.61 17.68 C-2.07 17.13 -2.53 16.57 -3 16 C-3.33 16.66 -3.66 17.32 -4 18 C-4.66 18 -5.32 18 -6 18 C-5.86 16.37 -5.71 14.75 -5.56 13.12 C-5.48 12.22 -5.4 11.32 -5.32 10.38 C-5 8 -5 8 -4 6 C-3.67 6.33 -3.34 6.66 -3 7 C-2.01 4.69 -1.02 2.38 0 0 Z M14 32 C15 34 15 34 15 34 Z " fill="#2861B8" transform="translate(230,396)"/>
<path d="M0 0 C0.66 0 1.32 0 2 0 C2 0.99 2 1.98 2 3 C1.34 3 0.68 3 0 3 C0.06 3.76 0.12 4.53 0.19 5.31 C-0.04 8.59 -0.74 8.8 -3 11 C-3.79 12.33 -4.54 13.69 -5.25 15.06 C-7.6 19.42 -10.28 23.42 -13.17 27.44 C-14.42 29.19 -15.64 30.96 -16.83 32.75 C-17.42 33.64 -18.01 34.52 -18.62 35.44 C-19.15 36.24 -19.68 37.04 -20.23 37.87 C-22.23 40.28 -24.25 41.54 -27 43 C-25.68 38.64 -23.37 35.92 -20.34 32.65 C-19 31 -19 31 -18 28 C-17.34 28 -16.68 28 -16 28 C-15.34 26.02 -14.68 24.04 -14 22 C-13.34 22 -12.68 22 -12 22 C-11.34 20.02 -10.68 18.04 -10 16 C-9.34 16 -8.68 16 -8 16 C-8 14.68 -8 13.36 -8 12 C-7.34 12 -6.68 12 -6 12 C-5.89 11.43 -5.77 10.86 -5.65 10.27 C-4.94 7.79 -3.93 5.94 -2.56 3.75 C-2.35 3.4 -2.35 3.4 -1.25 1.61 C-0.84 1.08 -0.43 0.55 0 0 Z " fill="#2861B8" transform="translate(258,352)"/>
<path d="M0 0 C4.76 6.27 4.76 6.27 6 10 C6.66 10 7.32 10 8 10 C8.05 12.21 8.09 14.42 8.12 16.62 C8.15 17.85 8.17 19.08 8.2 20.35 C8 23.94 7.3 26.67 6 30 C5.67 28.68 5.34 27.36 5 26 C4.34 26 3.68 26 3 26 C2.67 26.66 2.34 27.32 2 28 C0.92 24.75 1.04 22.88 1.38 19.5 C1.47 18.54 1.56 17.58 1.65 16.59 C2 14 2 14 3 11 C2.44 9.06 2.44 9.06 1.56 7 C0.43 4.33 0 2.97 0 0 Z M4 20 C3.67 21.32 3.34 22.64 3 24 C3.66 24 4.32 24 5 24 C4.67 22.68 4.34 21.36 4 20 Z " fill="#2861B8" transform="translate(194,318)"/>
<path d="M0 0 C3.33 0.17 4.94 0.43 7.69 2.19 C5.71 2.52 3.73 2.85 1.69 3.19 C2.35 3.85 3.01 4.51 3.69 5.19 C-0.1 7.71 -2.3 7.56 -6.69 6.75 C-7.55 6.56 -8.42 6.38 -9.31 6.19 C-11.64 5.84 -13.98 5.51 -16.31 5.19 C-16.31 4.86 -16.31 4.53 -16.31 4.19 C-15.46 3.98 -14.6 3.78 -13.72 3.57 C-12.62 3.3 -11.51 3.03 -10.38 2.75 C-9.82 2.62 -9.82 2.62 -7.04 1.94 C-0.03 0 -0.03 0 0 0 Z " fill="#2861B8" transform="translate(288.3125,448.8125)"/>
<path d="M0 0 C2.31 0.66 4.62 1.32 7 2 C7 3.98 7 5.96 7 8 C6.34 8 5.68 8 5 8 C4.92 8.6 4.83 9.2 4.75 9.81 C3.8 12.6 2.43 13.43 0 15 C-2.13 11.81 -2.5 9.73 -3 6 C0.75 4.88 0.75 4.88 3 6 C3 5.34 3 4.68 3 4 C2.34 4 1.68 4 1 4 C0.67 2.68 0.34 1.36 0 0 Z " fill="#0D3D7A" transform="translate(293,422)"/>
<path d="M0 0 C2.63 0.28 5.25 0.57 7.88 0.88 C8.62 0.95 9.37 1.03 10.14 1.11 C15.77 1.77 15.77 1.77 18 4 C17.61 4.01 17.61 4.01 15.65 4.08 C12.14 4.19 8.63 4.31 5.12 4.44 C3.9 4.48 2.68 4.52 1.42 4.56 C0.25 4.6 -0.92 4.64 -2.12 4.68 C-2.66 4.7 -2.66 4.7 -5.39 4.79 C-8 5 -8 5 -10 6 C-9.67 4.68 -9.34 3.36 -9 2 C-5.62 1.16 -3.33 0.89 0 2 C0 1.34 0 0.68 0 0 Z " fill="#2861B8" transform="translate(180,408)"/>
<path d="M0 0 C3.52 3.93 5.88 8.24 8.34 12.87 C9.53 15.11 10.74 17.33 11.98 19.54 C12.3 20.12 12.63 20.71 12.97 21.31 C13.9 22.99 14.84 24.67 15.78 26.35 C16.18 27.22 16.58 28.1 17 29 C16.67 29.66 16.34 30.32 16 31 C15.34 30.67 14.68 30.34 14 30 C13.67 29 13.67 29 12 24 C11.34 23.67 10.68 23.34 10 23 C10 22.01 10 21.02 10 20 C9.34 20 8.68 20 8 20 C7.71 19.2 7.42 18.39 7.12 17.56 C6 15 6 15 4 14 C4 12.02 4 10.04 4 8 C3.34 7.67 2.68 7.34 2 7 C2 6.01 2 5.02 2 4 C1.34 4 0.68 4 0 4 C0 2.68 0 1.36 0 0 Z " fill="#2861B8" transform="translate(102,138)"/>
<path d="M0 0 C4.51 -0.38 4.51 -0.38 6.94 1.5 C9.69 3.5 11.67 3.07 15 3 C15.66 3.66 16.32 4.32 17 5 C16.34 5 15.68 5 15 5 C14.67 5.66 14.34 6.32 14 7 C10.64 6.44 7.98 5.64 5 4 C4.26 3.63 3.51 3.26 2.75 2.88 C2.17 2.59 1.6 2.3 1 2 C0.67 2.66 0.34 3.32 0 4 C-0.33 3.34 -0.66 2.68 -1 2 C-0.67 1.34 -0.34 0.68 0 0 Z " fill="#2861B8" transform="translate(265,410)"/>
<path d="M0 0 C0 0.99 0 1.98 0 3 C-0.66 2.67 -1.32 2.34 -2 2 C-1.34 1.34 -0.68 0.68 0 0 Z " fill="#2861B8" transform="translate(245,453)"/>
<path d="M0 0 C3 1 3 1 3 1 Z " fill="#2861B8" transform="translate(240,456)"/>
<path d="M0 0 C3 1 3 1 3 1 Z " fill="#2861B8" transform="translate(282,415)"/>
<path d="M0 0 C2 1 2 1 2 1 Z " fill="#2861B8" transform="translate(238,457)"/>
<path d="" fill="#2861B8" transform="translate(0,0)"/>
<path d="" fill="#2861B8" transform="translate(0,0)"/>
<path d="" fill="#2861B8" transform="translate(0,0)"/>
<path d="" fill="#2861B8" transform="translate(0,0)"/>
<path d="" fill="#2861B8" transform="translate(0,0)"/>
<path d="" fill="#2861B8" transform="translate(0,0)"/>
<path d="" fill="#2861B8" transform="translate(0,0)"/>
<path d="" fill="#2861B8" transform="translate(0,0)"/>
<path d="" fill="#2861B8" transform="translate(0,0)"/>
<path d="" fill="#2861B8" transform="translate(0,0)"/>
<path d="" fill="#2861B8" transform="translate(0,0)"/>
<path d="" fill="#2861B8" transform="translate(0,0)"/>
<path d="" fill="#2861B8" transform="translate(0,0)"/>
<path d="" fill="#2861B8" transform="translate(0,0)"/>
<path d="" fill="#2861B8" transform="translate(0,0)"/>
<path d="" fill="#2861B8" transform="translate(0,0)"/>
<path d="" fill="#2861B8" transform="translate(0,0)"/>
<path d="" fill="#2861B8" transform="translate(0,0)"/>
<path d="" fill="#2861B8" transform="translate(0,0)"/>
<path d="" fill="#2861B8" transform="translate(0,0)"/>
<path d="" fill="#2861B8" transform="translate(0,0)"/>
<path d="" fill="#2861B8" transform="translate(0,0)"/>
<path d="" fill="#2861B8" transform="translate(0,0)"/>
<path d="" fill="#2861B8" transform="translate(0,0)"/>
<path d="" fill="#2861B8" transform="translate(0,0)"/>
<path d="" fill="#2861B8" transform="translate(0,0)"/>
<path d="" fill="#2861B8" transform="translate(0,0)"/>
<path d="" fill="#2861B8" transform="translate(0,0)"/>
<path d="" fill="#2861B8" transform="translate(0,0)"/>
<path d="" fill="#2861B8" transform="translate(0,0)"/>
<path d="" fill="#2861B8" transform="translate(0,0)"/>
<path d="" fill="#2861B8" transform="translate(0,0)"/>
<path d="" fill="#2861B8" transform="translate(0,0)"/>
<path d="" fill="#2861B8" transform="translate(0,0)"/>
<path d="" fill="#2861B8" transform="translate(0,0)"/>
<path d="" fill="#2861B8" transform="translate(0,0)"/>
<path d="" fill="#2861B8" transform="translate(0,0)"/>
<path d="" fill="#2861B8" transform="translate(0,0)"/>
<path d="" fill="#2861B8" transform="translate(0,0)"/>
<path d="" fill="#2861B8" transform="translate(0,0)"/>
<path d="" fill="#2861B8" transform="translate(0,0)"/>
<path d="" fill="#2861B8" transform="translate(0,0)"/>
<path d="" fill="#2861B8" transform="translate(0,0)"/>
<path d="" fill="#2861B8" transform="translate(0,0)"/>
<path d="" fill="#2861B8" transform="translate(0,0)"/>
<path d="" fill="#2861B8" transform="translate(0,0)"/>
<path d="" fill="#2861B8" transform="translate(0,0)"/>
<path d="" fill="#2861B8" transform="translate(0,0)"/>
<path d="" fill="#2861B8" transform="translate(0,0)"/>
<path d="" fill="#2861B8" transform="translate(0,0)"/>
<path d="" fill="#2861B8" transform="translate(0,0)"/>
<path d="" fill="#2861B8" transform="translate(0,0)"/>
<path d="" fill="#2861B8" transform="translate(0,0)"/>
<path d="" fill="#2861B8" transform="translate(0,0)"/>
<path d="" fill="#2861B8" transform="translate(0,0)"/>
<path d="" fill="#2861B8" transform="translate(0,0)"/>
<path d="" fill="#2861B8" transform="translate(0,0)"/>
<path d="" fill="#2861B8" transform="translate(0,0)"/>
<path d="" fill="#2861B8" transform="translate(0,0)"/>
<path d="" fill="#2861B8" transform="translate(0,0)"/>
<path d="" fill="#2861B8" transform="translate(0,0)"/>
<path d="" fill="#2861B8" transform="translate(0,0)"/>
</svg>
